<svg xmlns="http://www.w3.org/2000/svg" xmlns:xlink="http://www.w3.org/1999/xlink" width="259.915" height="58" viewBox="0 0 259.915 58">
  <defs>
    <clipPath id="clip-path">
      <path id="Rectángulo_425991" data-name="Rectángulo 425991" d="M0,0H222a29,29,0,0,1,29,29v0a29,29,0,0,1-29,29H0a0,0,0,0,1,0,0V0A0,0,0,0,1,0,0Z" transform="translate(180 1915)" fill="#fff" stroke="#707070" stroke-width="1"/>
    </clipPath>
    <clipPath id="clip-path-2">
      <rect id="Rectángulo_425964" data-name="Rectángulo 425964" width="6.124" height="12.872" fill="none"/>
    </clipPath>
    <clipPath id="clip-path-3">
      <rect id="Rectángulo_425965" data-name="Rectángulo 425965" width="6.213" height="12.872" fill="none"/>
    </clipPath>
    <clipPath id="clip-path-4">
      <path id="Trazado_1245444" data-name="Trazado 1245444" d="M0,0,165.151,46.479l44.007,137.658L44.007,137.658Z" fill="#6f88da"/>
    </clipPath>
    <clipPath id="clip-path-7">
      <rect id="Rectángulo_425990" data-name="Rectángulo 425990" width="25.092" height="9.646" fill="none"/>
    </clipPath>
    <clipPath id="clip-path-8">
      <rect id="Rectángulo_425986" data-name="Rectángulo 425986" width="4.41" height="9.646" fill="none"/>
    </clipPath>
    <clipPath id="clip-path-9">
      <rect id="Rectángulo_425987" data-name="Rectángulo 425987" width="4.252" height="9.298" fill="none"/>
    </clipPath>
    <clipPath id="clip-path-10">
      <rect id="Rectángulo_425988" data-name="Rectángulo 425988" width="4.092" height="8.95" fill="none"/>
    </clipPath>
    <clipPath id="clip-path-11">
      <rect id="Rectángulo_425989" data-name="Rectángulo 425989" width="3.933" height="8.601" fill="none"/>
    </clipPath>
  </defs>
  <g id="Grupo_1203124" data-name="Grupo 1203124" transform="translate(-285 -1910)">
    <g id="Enmascarar_grupo_1115364" data-name="Enmascarar grupo 1115364" transform="translate(105 -5)" clip-path="url(#clip-path)">
      <path id="Trazado_1245238" data-name="Trazado 1245238" d="M0,0H257.217V80.454H0Z" transform="translate(179.213 1902.001)" fill="#f1f3fb"/>
      <path id="Trazado_1245239" data-name="Trazado 1245239" d="M41.542,0C64.485,0,83.084,35,83.084,78.18s-18.6,78.18-41.542,78.18S0,121.358,0,78.18,18.6,0,41.542,0Z" transform="translate(328.501 1880.968)" fill="#00ffce" opacity="0.14"/>
      <path id="Trazado_1245262" data-name="Trazado 1245262" d="M55.431,0c30.614,0,55.431,46.705,55.431,104.319S86.045,208.639,55.431,208.639,0,161.934,0,104.319,24.817,0,55.431,0Z" transform="translate(149.619 1776.648)" fill="#6f88da" opacity="0.28"/>
      <g id="Grupo_1203078" data-name="Grupo 1203078" transform="translate(375.049 1909.054)">
        <path id="Trazado_1245378" data-name="Trazado 1245378" d="M7.241.493H9.56V.578h-2.3L6.69,1.648l-.032-.06Z" transform="translate(-5.499 -0.331)" fill="#00ffce"/>
        <g id="Grupo_1203077" data-name="Grupo 1203077" transform="translate(0 0)">
          <g id="Grupo_1203076" data-name="Grupo 1203076" clip-path="url(#clip-path-2)">
            <path id="Trazado_1245379" data-name="Trazado 1245379" d="M6.127,3.508c0-.113.049-.2.108-.2s.109.091.109.2-.049.2-.109.2-.108-.091-.108-.2" transform="translate(-5.06 -2.221)" fill="#00ffce"/>
            <path id="Trazado_1245380" data-name="Trazado 1245380" d="M22.7.2c0-.113.049-.2.108-.2s.108.091.108.2-.049.2-.108.2S22.7.317,22.7.2" transform="translate(-18.746 0)" fill="#00ffce"/>
            <path id="Trazado_1245381" data-name="Trazado 1245381" d="M17.916,7.633l.569,1.07h2.3v.086H18.466l-.582-1.1Z" transform="translate(-14.77 -5.132)" fill="#00ffce"/>
            <path id="Trazado_1245382" data-name="Trazado 1245382" d="M17.353,7.306c0,.113.049.2.108.2s.109-.091.109-.2-.049-.2-.109-.2-.108.091-.108.2" transform="translate(-14.331 -4.775)" fill="#00ffce"/>
            <path id="Trazado_1245383" data-name="Trazado 1245383" d="M33.923,10.611c0,.113.049.2.108.2s.108-.091.108-.2-.049-.2-.108-.2-.108.091-.108.2" transform="translate(-28.016 -6.997)" fill="#00ffce"/>
            <path id="Trazado_1245384" data-name="Trazado 1245384" d="M.493,26.451V22.086H.538v4.33l.569,1.071-.032.06Z" transform="translate(-0.407 -14.849)" fill="#00ffce"/>
            <path id="Trazado_1245385" data-name="Trazado 1245385" d="M3.413,38.442c-.06,0-.108-.091-.108-.2s.048-.2.108-.2.108.091.108.2-.048.2-.108.2" transform="translate(-2.73 -25.57)" fill="#00ffce"/>
            <path id="Trazado_1245386" data-name="Trazado 1245386" d="M.108,21.872c-.06,0-.108-.091-.108-.2s.049-.2.108-.2.108.091.108.2-.049.2-.108.2" transform="translate(0 -14.43)" fill="#00ffce"/>
            <path id="Trazado_1245387" data-name="Trazado 1245387" d="M7.633,16.262,8.2,15.191V10.862h.045v4.365l-.582,1.1Z" transform="translate(-6.304 -7.303)" fill="#00ffce"/>
            <path id="Trazado_1245388" data-name="Trazado 1245388" d="M7.21,27.217c.06,0,.108-.091.108-.2s-.049-.2-.108-.2-.108.091-.108.2.049.2.108.2" transform="translate(-5.865 -18.024)" fill="#00ffce"/>
            <path id="Trazado_1245389" data-name="Trazado 1245389" d="M10.515,10.647c.06,0,.108-.091.108-.2s-.049-.2-.108-.2-.108.092-.108.2.049.2.108.2" transform="translate(-8.595 -6.883)" fill="#00ffce"/>
          </g>
        </g>
      </g>
      <g id="Grupo_1203081" data-name="Grupo 1203081" transform="translate(406.543 1909.78)">
        <path id="Trazado_1245390" data-name="Trazado 1245390" d="M9.011.493H6.658V.578H8.992L9.57,1.648l.033-.06Z" transform="translate(-4.565 -0.331)" fill="#00ffce"/>
        <g id="Grupo_1203080" data-name="Grupo 1203080" transform="translate(0 0)">
          <g id="Grupo_1203079" data-name="Grupo 1203079" clip-path="url(#clip-path-3)">
            <path id="Trazado_1245391" data-name="Trazado 1245391" d="M6.347,3.508c0-.113-.049-.2-.11-.2s-.11.091-.11.2.049.2.11.2.11-.091.11-.2" transform="translate(-1.217 -2.221)" fill="#00ffce"/>
            <path id="Trazado_1245392" data-name="Trazado 1245392" d="M22.918.2c0-.113-.049-.2-.11-.2s-.11.091-.11.2.049.2.11.2.11-.091.11-.2" transform="translate(-20.715 0)" fill="#00ffce"/>
            <path id="Trazado_1245393" data-name="Trazado 1245393" d="M20.8,7.633,20.218,8.7H17.884v.086h2.353l.59-1.1Z" transform="translate(-17.774 -5.132)" fill="#00ffce"/>
            <path id="Trazado_1245394" data-name="Trazado 1245394" d="M17.573,7.306c0,.113-.049.2-.11.2s-.11-.091-.11-.2.049-.2.11-.2.11.091.11.2" transform="translate(-14.426 -4.775)" fill="#00ffce"/>
            <path id="Trazado_1245395" data-name="Trazado 1245395" d="M34.143,10.611c0,.113-.049.2-.11.2s-.11-.091-.11-.2.049-.2.11-.2.11.091.11.2" transform="translate(-33.923 -6.997)" fill="#00ffce"/>
            <path id="Trazado_1245396" data-name="Trazado 1245396" d="M1.116,26.451V22.086H1.07v4.33L.493,27.487l.033.06Z" transform="translate(5.01 -14.849)" fill="#00ffce"/>
            <path id="Trazado_1245397" data-name="Trazado 1245397" d="M3.415,38.442c.061,0,.11-.091.11-.2s-.049-.2-.11-.2-.11.091-.11.2.049.2.11.2" transform="translate(2.104 -25.57)" fill="#00ffce"/>
            <path id="Trazado_1245398" data-name="Trazado 1245398" d="M.11,21.872c.061,0,.11-.091.11-.2s-.049-.2-.11-.2-.11.091-.11.2.049.2.11.2" transform="translate(5.993 -14.43)" fill="#00ffce"/>
            <path id="Trazado_1245399" data-name="Trazado 1245399" d="M8.256,16.262l-.577-1.071V10.862H7.633v4.365l.591,1.1Z" transform="translate(-3.392 -7.303)" fill="#00ffce"/>
            <path id="Trazado_1245400" data-name="Trazado 1245400" d="M7.212,27.217c-.061,0-.11-.091-.11-.2s.049-.2.11-.2.11.091.11.2-.049.2-.11.2" transform="translate(-2.364 -18.024)" fill="#00ffce"/>
            <path id="Trazado_1245401" data-name="Trazado 1245401" d="M10.517,10.647c-.061,0-.11-.091-.11-.2s.049-.2.11-.2.11.092.11.2-.049.2-.11.2" transform="translate(-6.253 -6.883)" fill="#00ffce"/>
          </g>
        </g>
      </g>
      <g id="Grupo_1203108" data-name="Grupo 1203108" transform="matrix(0.629, 0.777, -0.777, 0.629, 212.204, 1746.162)" opacity="0.116">
        <g id="Grupo_1203107" data-name="Grupo 1203107" opacity="0.48" clip-path="url(#clip-path-4)">
          <g id="Grupo_1203106" data-name="Grupo 1203106">
            <g id="Grupo_1203105" data-name="Grupo 1203105" clip-path="url(#clip-path-4)">
              <g id="Grupo_1203104" data-name="Grupo 1203104" style="mix-blend-mode: multiply;isolation: isolate">
                <g id="Grupo_1203103" data-name="Grupo 1203103">
                  <g id="Grupo_1203102" data-name="Grupo 1203102" clip-path="url(#clip-path-4)">
                    <path id="Trazado_1245437" data-name="Trazado 1245437" d="M63.092,143.03c-24.662-20.39-36.132-42.5-28.541-55,5.083-8.372,19.382-9.735,36.439-3.468,10.129,3.721,27.409,13.406,40.872,23.892a140.666,140.666,0,0,1,14.881-2.985l2.559-.424c9.684-1.623,14.3-3.781,15.75-7.095a76.357,76.357,0,0,1-8.606-2.194A81.164,81.164,0,0,1,108.5,79.836C96.11,68.858,93.486,58.159,97.3,53.266c3.873-4.972,13.128-4.5,24.762,1.264,11,5.45,24.211,15.914,32.137,28.448a9.094,9.094,0,0,0,2.646-2.331c2.571-3.4,6.581-13.348-11.678-32.363l9.391-4.787c14.534,15.134,26.6,35.885,16.867,48.736-2.373,3.133-6,5.176-10.647,6.1,3,13.537-5.659,18.009-21.021,20.584l-2.589.428c-3.858.634-7.763,1.275-11.356,2.126q.477.58.918,1.153c5.526,7.191,8.829,13.894,9.551,19.383.927,7.047-2.782,11.8-9.45,12.1-7.837.36-18.184-5.074-25.16-13.215-6.537-7.627-8.585-15.523-5.619-21.664a16.213,16.213,0,0,1,5.415-6.214c-9.276-6.549-20.663-13-27.9-15.662C62.3,93.224,52.6,93.944,49.436,99.16c-4.919,8.106,2.806,22.056,20.16,36.406ZM115.5,125.35a11.333,11.333,0,0,0-4.318,4.563,6.808,6.808,0,0,0,1.1,7.544,7.135,7.135,0,0,0,5.32,2.65c2.11-.1,3.346-1.976,3-4.568-.439-3.338-2.933-7.292-5.1-10.19m1.846-61c-2.209-.622-4.46-.79-5.513.563-2.108,2.706,4.019,8.19,4.081,8.246a50.467,50.467,0,0,0,16.9,9.434,51.158,51.158,0,0,0,9.235,2.066c-4.6-8.118-13.307-15.117-20.1-18.481a28.05,28.05,0,0,0-4.6-1.828" transform="translate(0 0)" fill="#6f88da"/>
                  </g>
                </g>
              </g>
            </g>
          </g>
        </g>
      </g>
      <g id="Grupo_1203122" data-name="Grupo 1203122" transform="translate(230.132 1918.957)">
        <g id="Grupo_1203121" data-name="Grupo 1203121" clip-path="url(#clip-path-7)">
          <g id="Grupo_1203111" data-name="Grupo 1203111" opacity="0.32">
            <g id="Grupo_1203110" data-name="Grupo 1203110">
              <g id="Grupo_1203109" data-name="Grupo 1203109" clip-path="url(#clip-path-8)">
                <path id="Trazado_1245438" data-name="Trazado 1245438" d="M1194.3,557.173v8.253l3.774-4.127Z" transform="translate(-1194.084 -556.477)" fill="none" stroke="#fff" stroke-miterlimit="10" stroke-width="4.13"/>
              </g>
            </g>
          </g>
          <g id="Grupo_1203114" data-name="Grupo 1203114" transform="translate(7.053 0.174)" opacity="0.28">
            <g id="Grupo_1203113" data-name="Grupo 1203113">
              <g id="Grupo_1203112" data-name="Grupo 1203112" clip-path="url(#clip-path-9)">
                <path id="Trazado_1245439" data-name="Trazado 1245439" d="M1266.184,561.3l-3.773-4.127v8.253Z" transform="translate(-1262.251 -556.651)" fill="none" stroke="#fff" stroke-miterlimit="10" stroke-width="3.097"/>
              </g>
            </g>
          </g>
          <g id="Grupo_1203117" data-name="Grupo 1203117" transform="translate(14.106 0.348)" opacity="0.24">
            <g id="Grupo_1203116" data-name="Grupo 1203116">
              <g id="Grupo_1203115" data-name="Grupo 1203115" clip-path="url(#clip-path-10)">
                <path id="Trazado_1245440" data-name="Trazado 1245440" d="M1334.3,561.3l-3.773-4.127v8.253Z" transform="translate(-1330.418 -556.825)" fill="none" stroke="#fff" stroke-miterlimit="10" stroke-width="2.065"/>
              </g>
            </g>
          </g>
          <g id="Grupo_1203120" data-name="Grupo 1203120" transform="translate(21.159 0.522)" opacity="0.2">
            <g id="Grupo_1203119" data-name="Grupo 1203119">
              <g id="Grupo_1203118" data-name="Grupo 1203118" clip-path="url(#clip-path-11)">
                <path id="Trazado_1245441" data-name="Trazado 1245441" d="M1398.639,557.173v8.253l3.773-4.127Z" transform="translate(-1398.585 -556.999)" fill="none" stroke="#fff" stroke-miterlimit="10" stroke-width="1.032"/>
              </g>
            </g>
          </g>
        </g>
      </g>
    </g>
    <path id="Trazado_151731" data-name="Trazado 151731" d="M10.969,4.618a6.35,6.35,0,1,0,6.35,6.35,6.357,6.357,0,0,0-6.35-6.35m0-4.618A10.969,10.969,0,1,1,0,10.969,10.969,10.969,0,0,1,10.969,0Z" transform="translate(518.618 1916.031)" fill="#00ffce"/>
    <g id="Grupo_1203123" data-name="Grupo 1203123" transform="translate(537.197 1956.598)">
      <g id="Grupo_80145" data-name="Grupo 80145" transform="translate(3.359)">
        <path id="Trazado_151662" data-name="Trazado 151662" d="M-12997.418-11381.446v2.591" transform="translate(12997.418 11385.574)" fill="none" stroke="#31313c" stroke-linecap="round" stroke-width="2"/>
        <path id="Trazado_151663" data-name="Trazado 151663" d="M-12997.418-11381.446v2.591" transform="translate(12997.418 11381.446)" fill="none" stroke="#31313c" stroke-linecap="round" stroke-width="2"/>
      </g>
      <g id="Grupo_80146" data-name="Grupo 80146" transform="translate(6.718 3.358) rotate(90)">
        <path id="Trazado_151662-2" data-name="Trazado 151662" d="M0,0V2.11" transform="translate(0 4.607)" fill="none" stroke="#31313c" stroke-linecap="round" stroke-width="2"/>
        <path id="Trazado_151663-2" data-name="Trazado 151663" d="M0,0V1.647" fill="none" stroke="#31313c" stroke-linecap="round" stroke-width="2"/>
      </g>
    </g>
  </g>
</svg>
