<svg xmlns="http://www.w3.org/2000/svg" width="317.216" height="198.461" viewBox="0 0 317.216 198.461">
  <g id="_33419015_4486" data-name="33419015_4486" transform="translate(-38.6 -32.694)">
    <g id="Grupo_1206124" data-name="Grupo 1206124" transform="translate(38.6 32.694)">
      <g id="Grupo_1205969" data-name="Grupo 1205969" transform="translate(0 4.523)">
        <g id="Grupo_1205963" data-name="Grupo 1205963" transform="translate(0 6.689)">
          <path id="Trazado_1247950" data-name="Trazado 1247950" d="M245.285,364.046l151.288-89.3.576-.3.62-.257.662-.213.7-.167.724-.124.746-.079.764-.036.774.009.778.052.778.1.772.139.758.182.742.224.715.266.686.308.649.351,149.768,88.4,1.116.787.831.86.542.9.25.919-.045.907-.343.868-.644.8-.949.706-151.288,89.3-.574.3-.624.257-.66.212-.7.167-.723.124-.746.078-.764.035-.774-.008-.78-.053-.778-.1-.77-.139-.759-.182-.74-.223-.715-.266-.686-.308-.649-.351L246.045,370.8l-1.117-.788-.831-.859-.542-.9-.251-.919.045-.908.342-.868.644-.8Z" transform="translate(-243.305 -273.573)" fill="#e5e8e5" fill-rule="evenodd"/>
        </g>
        <g id="Grupo_1205964" data-name="Grupo 1205964" transform="translate(7.604 89.262)">
          <path id="Trazado_1247951" data-name="Trazado 1247951" d="M592.947,798.9v-6.994l-.327.827-.614.763-.9.673L447.07,879.184l-.549.289-.592.244-.63.2-.662.16-.691.118-.71.075-.727.033-.737-.008-.742-.049-.74-.091-.735-.132-.721-.174-.7-.212-.683-.254-.652-.293-.617-.335L293.59,794.6l-1.063-.75-.791-.818-.516-.859-.238-.875v6.994l.238.875.516.859.791.818,1.063.75L436.179,885.75l.617.335.652.293.683.254.7.212.721.174.735.132.74.091.742.05.737.008.727-.034.71-.075.691-.118.662-.16.63-.2.592-.244.549-.289L591.1,801.164l.9-.673.614-.763Z" transform="translate(-290.982 -791.295)" fill="#c9e3f6" fill-rule="evenodd"/>
        </g>
        <g id="Grupo_1205965" data-name="Grupo 1205965" transform="translate(7.604)">
          <path id="Trazado_1247952" data-name="Trazado 1247952" d="M292.867,317.767,436.9,232.753l.549-.288.592-.245.63-.2.663-.159.687-.118.713-.075.726-.034.737.008.742.05.742.091.734.132.723.173.7.213.681.254.652.293.617.334L590.38,317.34l1.062.75.791.818.517.859.238.875-.041.864-.327.827-.614.763-.9.673L447.07,408.783l-.549.289-.592.244-.63.2-.662.159-.691.118-.71.075-.727.034-.737-.008-.742-.049-.74-.091-.735-.132-.721-.174-.7-.212-.683-.254-.652-.293-.617-.335L293.59,324.2l-1.063-.75-.791-.818-.516-.859-.238-.875.043-.864.326-.827.613-.763Z" transform="translate(-290.982 -231.632)" fill="#f1f7fb" fill-rule="evenodd"/>
        </g>
        <g id="Grupo_1205967" data-name="Grupo 1205967" transform="translate(16.156 5.678)">
          <g id="Grupo_1205966" data-name="Grupo 1205966">
            <path id="Trazado_1247953" data-name="Trazado 1247953" d="M344.9,351.21l-.007,0-.028-.018-.038-.028-.026-.022-.022-.02-.02-.022-.022-.026-.028-.037L344.69,351l0-.007-.01-.019-.01-.018-.019-.042,0-.013-.011-.031,0-.01-.007-.022v-.007a.623.623,0,0,1-.018-.126v-.043a.6.6,0,0,1,.018-.126v-.007l.007-.022,0-.01.011-.031,0-.013.019-.041.01-.017.01-.019,0,0,.008-.013.007-.01.01-.015.018-.024.009-.012.012-.013.006-.007.022-.023.033-.031.013-.011.02-.015,0,0,.011-.007.039-.025.6-.354a.6.6,0,0,1,.823.832l.23.136a.6.6,0,0,1-.613,1.04l-1.04-.614Zm4.335-2.2a.6.6,0,0,1-.613-1.04l1.04-.614a.6.6,0,0,1,.613,1.04l-1.04.614Zm4.162-2.456a.6.6,0,1,1-.614-1.04l1.04-.614a.6.6,0,1,1,.614,1.04l-1.04.614Zm4.161-2.456a.6.6,0,0,1-.613-1.04l1.04-.614a.6.6,0,0,1,.613,1.04l-1.04.614Zm4.16-2.456a.6.6,0,1,1-.614-1.04l1.04-.614a.6.6,0,1,1,.614,1.04l-1.04.614Zm4.16-2.457a.6.6,0,1,1-.614-1.04l1.04-.614a.6.6,0,0,1,.614,1.04l-1.04.614Zm4.16-2.456a.6.6,0,0,1-.613-1.04l1.04-.614a.6.6,0,0,1,.613,1.04l-1.04.614Zm4.161-2.456a.6.6,0,1,1-.613-1.04l1.04-.614a.6.6,0,1,1,.614,1.04l-1.04.614Zm4.16-2.456a.6.6,0,1,1-.613-1.04l1.04-.614a.6.6,0,0,1,.613,1.04l-1.04.614Zm4.161-2.456a.6.6,0,1,1-.613-1.04l1.04-.614a.6.6,0,0,1,.613,1.04l-1.04.614Zm4.16-2.455a.6.6,0,0,1-.613-1.04l1.04-.614a.6.6,0,0,1,.613,1.04l-1.04.614Zm4.16-2.455a.6.6,0,0,1-.613-1.04l1.04-.613a.6.6,0,0,1,.613,1.04l-1.04.613ZM395,322a.6.6,0,1,1-.613-1.04l1.04-.614a.6.6,0,1,1,.614,1.04L395,322Zm4.16-2.455a.6.6,0,1,1-.613-1.04l1.04-.614a.6.6,0,1,1,.613,1.04l-1.04.614Zm4.16-2.455a.6.6,0,1,1-.614-1.04l1.04-.613a.6.6,0,1,1,.614,1.04l-1.04.613Zm4.16-2.455a.6.6,0,1,1-.613-1.04l1.04-.614a.6.6,0,1,1,.614,1.04l-1.04.613Zm4.16-2.455a.6.6,0,1,1-.613-1.04l1.04-.614a.6.6,0,1,1,.614,1.04l-1.04.614Zm4.16-2.455a.6.6,0,0,1-.613-1.04l1.04-.614a.6.6,0,0,1,.613,1.04l-1.04.614Zm4.16-2.455a.6.6,0,0,1-.613-1.04l1.04-.614a.6.6,0,0,1,.613,1.04l-1.04.613Zm4.16-2.455a.6.6,0,0,1-.613-1.04l1.04-.614a.6.6,0,0,1,.613,1.04l-1.04.614Zm4.16-2.455a.6.6,0,0,1-.614-1.04l1.04-.614a.6.6,0,0,1,.613,1.04l-1.04.614Zm4.16-2.455a.6.6,0,1,1-.613-1.04l1.04-.614a.6.6,0,1,1,.613,1.04l-1.04.613Zm4.16-2.455a.6.6,0,1,1-.614-1.04l1.04-.614a.6.6,0,1,1,.614,1.04l-1.04.614Zm4.16-2.455a.6.6,0,0,1-.613-1.04l1.04-.614a.6.6,0,0,1,.613,1.04l-1.04.614Zm4.16-2.455a.6.6,0,1,1-.614-1.04l1.04-.614a.6.6,0,1,1,.613,1.04l-1.04.613Zm4.16-2.455a.6.6,0,0,1-.613-1.04l1.04-.614a.6.6,0,0,1,.613,1.04l-1.04.614Zm4.16-2.455a.6.6,0,0,1-.613-1.04l1.04-.614a.6.6,0,0,1,.613,1.04l-1.04.614Zm4.16-2.455a.6.6,0,0,1-.613-1.04l1.04-.614a.6.6,0,1,1,.613,1.04l-1.04.613Zm4.16-2.455a.6.6,0,1,1-.614-1.04l1.04-.614a.6.6,0,1,1,.614,1.04l-1.04.614Zm4.16-2.454a.6.6,0,0,1-.614-1.04l1.04-.614a.6.6,0,0,1,.613,1.04l-1.04.614Zm4.161-2.455a.6.6,0,1,1-.614-1.04l1.04-.614a.6.6,0,0,1,.613,1.04l-1.04.613Zm4.16-2.455a.6.6,0,1,1-.614-1.04l1.04-.614a.6.6,0,1,1,.613,1.04l-1.04.613Zm4.16-2.455a.6.6,0,1,1-.614-1.04l1.04-.613a.6.6,0,1,1,.613,1.04l-1.04.613Zm4.16-2.455a.6.6,0,0,1-.613-1.04l1.04-.613a.6.6,0,0,1,.613,1.04l-1.04.614Zm4.024-1.988a.6.6,0,0,1-.057-1.207l.272-.013h.051l.382,0h.034l.391.027.036,0,.141.018a.6.6,0,0,1-.147,1.2l-.127-.016-.36-.024-.345,0-.271.013Zm1.073-1.188-.078,1.205.081-1.205Zm3.12,2.481a.6.6,0,0,1,.613-1.04l1.04.614a.6.6,0,0,1-.613,1.04l-1.04-.614Zm4.161,2.456a.6.6,0,1,1,.614-1.04l1.04.614a.6.6,0,0,1-.613,1.04l-1.041-.614Zm4.163,2.457a.6.6,0,0,1,.613-1.04l1.04.614a.6.6,0,1,1-.614,1.04l-1.04-.614Zm4.161,2.456a.6.6,0,0,1,.613-1.04l1.04.614a.6.6,0,0,1-.613,1.04l-1.04-.614Zm4.161,2.456a.6.6,0,0,1,.613-1.04l1.04.614a.6.6,0,1,1-.614,1.04l-1.04-.614Zm4.16,2.456a.6.6,0,0,1,.614-1.04l1.04.614a.6.6,0,1,1-.614,1.04l-1.04-.614Zm4.161,2.456a.6.6,0,1,1,.613-1.04l1.04.614a.6.6,0,0,1-.613,1.04l-1.04-.614Zm4.16,2.456a.6.6,0,0,1,.613-1.04l1.04.614a.6.6,0,0,1-.613,1.04l-1.04-.614Zm4.161,2.457a.6.6,0,0,1,.613-1.04l1.04.614a.6.6,0,1,1-.613,1.04l-1.04-.614Zm4.16,2.456a.6.6,0,1,1,.614-1.04l1.04.614a.6.6,0,1,1-.613,1.04l-1.04-.614Zm4.16,2.456a.6.6,0,0,1,.613-1.04l1.04.614a.6.6,0,1,1-.613,1.04l-1.04-.614Zm4.16,2.455a.6.6,0,1,1,.613-1.04l1.04.614a.6.6,0,1,1-.613,1.04l-1.04-.614Zm4.159,2.455a.6.6,0,1,1,.613-1.04l1.04.614a.6.6,0,0,1-.613,1.04l-1.04-.613Zm4.161,2.455a.6.6,0,0,1,.613-1.04l1.04.614a.6.6,0,0,1-.613,1.04l-1.04-.614Zm4.16,2.455a.6.6,0,0,1,.613-1.04l1.04.614a.6.6,0,0,1-.613,1.04l-1.04-.613Zm4.16,2.455a.6.6,0,0,1,.613-1.04l1.04.614a.6.6,0,1,1-.613,1.04l-1.04-.613Zm4.16,2.455a.6.6,0,1,1,.614-1.04l1.04.614a.6.6,0,1,1-.613,1.04l-1.04-.614Zm4.16,2.455a.6.6,0,1,1,.614-1.04l1.04.614a.6.6,0,1,1-.614,1.04l-1.04-.614Zm4.159,2.455a.6.6,0,1,1,.614-1.04l1.04.614a.6.6,0,1,1-.613,1.04l-1.04-.614Zm4.161,2.455a.6.6,0,1,1,.614-1.04l1.04.614a.6.6,0,1,1-.614,1.04l-1.04-.614Zm4.16,2.455a.6.6,0,1,1,.614-1.04l1.04.614a.6.6,0,0,1-.613,1.04l-1.04-.613Zm4.16,2.455a.6.6,0,0,1,.613-1.04l1.04.614a.6.6,0,0,1-.613,1.04l-1.04-.614Zm4.16,2.455a.6.6,0,0,1,.613-1.04l1.04.614a.6.6,0,0,1-.613,1.04l-1.04-.614Zm4.159,2.455a.6.6,0,1,1,.613-1.04l1.04.614a.6.6,0,1,1-.614,1.04l-1.04-.613Zm4.16,2.455a.6.6,0,0,1,.613-1.04l1.04.614a.6.6,0,1,1-.614,1.04l-1.04-.613Zm4.16,2.455a.6.6,0,1,1,.613-1.04l1.04.614a.6.6,0,1,1-.614,1.04l-1.04-.614Zm4.16,2.455a.6.6,0,1,1,.613-1.04l1.04.614a.6.6,0,1,1-.614,1.04l-1.04-.614Zm4.161,2.455a.6.6,0,1,1,.613-1.04l1.04.614a.6.6,0,1,1-.613,1.04l-1.04-.614Zm4.16,2.455a.6.6,0,1,1,.614-1.04l1.04.614a.6.6,0,1,1-.614,1.04l-1.04-.614Zm4.159,2.454a.6.6,0,0,1,.613-1.04l1.04.614a.6.6,0,0,1-.613,1.04l-1.04-.614Zm4.16,2.455a.6.6,0,0,1,.613-1.04l1.04.614a.6.6,0,0,1-.613,1.04l-1.04-.614Zm4.159,2.455a.6.6,0,0,1,.614-1.04l1.04.613a.6.6,0,0,1-.614,1.04l-1.04-.614Zm4.16,2.455a.6.6,0,0,1,.613-1.04l1.04.614a.6.6,0,1,1-.613,1.04l-1.04-.613Zm4.161,2.455a.6.6,0,1,1,.613-1.04l.74.437a.6.6,0,0,1,0,1.04l-.3.178a.6.6,0,0,1-.91-.53l-.144-.085Zm-2.681,1.417a.6.6,0,1,1,.614,1.04l-1.04.614a.6.6,0,1,1-.614-1.04l1.04-.614Zm-4.163,2.456a.6.6,0,0,1,.613,1.04l-1.04.614a.6.6,0,1,1-.614-1.04l1.041-.614ZM616.85,357.1a.6.6,0,1,1,.614,1.04l-1.04.614a.6.6,0,0,1-.613-1.04l1.04-.614Zm-4.161,2.456a.6.6,0,1,1,.613,1.04l-1.04.614a.6.6,0,1,1-.613-1.04l1.04-.614Zm-4.16,2.456a.6.6,0,0,1,.613,1.04l-1.04.614a.6.6,0,1,1-.613-1.04l1.04-.614Zm-4.161,2.457a.6.6,0,1,1,.613,1.04l-1.04.614a.6.6,0,0,1-.613-1.04l1.04-.614Zm-4.161,2.456a.6.6,0,0,1,.613,1.04l-1.04.614a.6.6,0,1,1-.613-1.04l1.04-.614Zm-4.16,2.456a.6.6,0,1,1,.614,1.04l-1.04.614a.6.6,0,1,1-.613-1.04l1.04-.614Zm-4.161,2.457a.6.6,0,1,1,.613,1.04l-1.04.613a.6.6,0,1,1-.613-1.04l1.04-.614Zm-4.16,2.455a.6.6,0,0,1,.613,1.04l-1.04.614a.6.6,0,0,1-.614-1.04l1.04-.614Zm-4.159,2.455a.6.6,0,1,1,.613,1.04l-1.04.613a.6.6,0,0,1-.613-1.04l1.04-.613Zm-4.16,2.455a.6.6,0,0,1,.613,1.04l-1.04.613a.6.6,0,0,1-.613-1.04l1.04-.614Zm-4.16,2.455a.6.6,0,0,1,.613,1.04l-1.04.614a.6.6,0,0,1-.613-1.04l1.04-.614Zm-4.16,2.455a.6.6,0,0,1,.613,1.04l-1.04.613a.6.6,0,1,1-.613-1.04l1.04-.613Zm-4.16,2.456a.6.6,0,1,1,.613,1.04l-1.04.613a.6.6,0,0,1-.613-1.04l1.04-.614Zm-4.161,2.455a.6.6,0,1,1,.613,1.04l-1.04.613a.6.6,0,1,1-.614-1.039l1.04-.614Zm-4.16,2.455a.6.6,0,1,1,.613,1.04l-1.04.613a.6.6,0,1,1-.613-1.04l1.04-.613Zm-4.16,2.456a.6.6,0,1,1,.613,1.04l-1.04.613a.6.6,0,1,1-.613-1.04l1.04-.614Zm-4.16,2.455a.6.6,0,1,1,.614,1.04l-1.04.614a.6.6,0,0,1-.613-1.04l1.04-.613Zm-4.16,2.455a.6.6,0,0,1,.613,1.04l-1.04.613a.6.6,0,0,1-.613-1.04l1.04-.613Zm-4.16,2.456a.6.6,0,0,1,.613,1.04l-1.04.613a.6.6,0,0,1-.613-1.04l1.04-.614Zm-4.161,2.455a.6.6,0,0,1,.613,1.04l-1.04.614a.6.6,0,0,1-.613-1.04l1.04-.613Zm-4.16,2.455a.6.6,0,1,1,.613,1.04l-1.04.613a.6.6,0,1,1-.614-1.04l1.04-.613Zm-4.16,2.456a.6.6,0,1,1,.613,1.04l-1.04.613a.6.6,0,1,1-.614-1.04l1.04-.614Zm-4.16,2.455a.6.6,0,1,1,.614,1.04l-1.04.614a.6.6,0,1,1-.614-1.04l1.04-.613Zm-4.16,2.455a.6.6,0,1,1,.613,1.04l-1.04.614a.6.6,0,1,1-.614-1.04l1.04-.613Zm-4.16,2.456a.6.6,0,1,1,.613,1.04l-1.04.613a.6.6,0,0,1-.613-1.04l1.04-.614Zm-4.16,2.455a.6.6,0,0,1,.613,1.04l-1.04.614a.6.6,0,0,1-.613-1.04l1.04-.613Zm-4.161,2.455a.6.6,0,0,1,.613,1.04l-1.04.614a.6.6,0,0,1-.613-1.04l1.04-.614Zm-4.16,2.455a.6.6,0,0,1,.613,1.04l-1.04.614a.6.6,0,1,1-.613-1.04l1.04-.614Zm-4.16,2.455a.6.6,0,1,1,.614,1.04l-1.04.614a.6.6,0,1,1-.613-1.04l1.04-.614Zm-4.16,2.455a.6.6,0,1,1,.613,1.04l-1.04.614a.6.6,0,1,1-.613-1.04l1.04-.614Zm-4.16,2.455a.6.6,0,1,1,.613,1.04l-1.04.614a.6.6,0,1,1-.614-1.04l1.04-.614Zm-4.011,2.136a.6.6,0,0,1,.127,1.2l-.273.028h-.01l-.025,0-.345.016h-.051l-.381,0h-.034l-.189-.013a.6.6,0,0,1,.081-1.205l.174.012.344,0,.323-.015.26-.027Zm-4.206-1.086a.6.6,0,0,1-.613,1.04l-1.04-.614a.6.6,0,0,1,.613-1.04l1.04.614Zm-4.163-2.456a.6.6,0,1,1-.613,1.04l-1.04-.614a.6.6,0,1,1,.613-1.04l1.04.614Zm-4.161-2.456a.6.6,0,0,1-.613,1.04l-1.04-.614a.6.6,0,1,1,.613-1.04l1.04.614Zm-4.161-2.456a.6.6,0,1,1-.614,1.04l-1.04-.614a.6.6,0,0,1,.613-1.04l1.04.614Zm-4.161-2.456a.6.6,0,1,1-.613,1.04l-1.04-.614a.6.6,0,1,1,.613-1.04l1.04.614Zm-4.16-2.456a.6.6,0,0,1-.613,1.04l-1.04-.614a.6.6,0,0,1,.613-1.04l1.04.614Zm-4.16-2.458a.6.6,0,1,1-.614,1.04l-1.04-.614a.6.6,0,0,1,.613-1.04l1.04.614Zm-4.161-2.456a.6.6,0,1,1-.613,1.04l-1.04-.614a.6.6,0,1,1,.614-1.04l1.04.614Zm-4.16-2.456a.6.6,0,0,1-.613,1.04l-1.04-.614a.6.6,0,0,1,.613-1.04l1.04.614Zm-4.161-2.456a.6.6,0,0,1-.613,1.04l-1.04-.614a.6.6,0,1,1,.614-1.04l1.04.613Zm-4.16-2.455a.6.6,0,1,1-.613,1.04l-1.04-.614a.6.6,0,1,1,.614-1.04l1.04.614Zm-4.16-2.456a.6.6,0,1,1-.613,1.04l-1.04-.614a.6.6,0,1,1,.614-1.04l1.04.613Zm-4.16-2.455a.6.6,0,1,1-.613,1.04l-1.04-.614a.6.6,0,1,1,.614-1.04l1.04.613Zm-4.16-2.455a.6.6,0,1,1-.613,1.04l-1.04-.613a.6.6,0,1,1,.613-1.04l1.04.614Zm-4.16-2.456a.6.6,0,1,1-.614,1.04l-1.04-.614a.6.6,0,0,1,.613-1.04l1.04.614Zm-4.16-2.455a.6.6,0,0,1-.613,1.04l-1.04-.614a.6.6,0,0,1,.613-1.04l1.04.613Zm-4.16-2.455a.6.6,0,0,1-.613,1.04l-1.04-.613a.6.6,0,0,1,.613-1.04l1.04.614Zm-4.16-2.456a.6.6,0,0,1-.613,1.039l-1.04-.613a.6.6,0,1,1,.614-1.039l1.04.614Zm-4.16-2.455a.6.6,0,1,1-.613,1.04l-1.04-.614a.6.6,0,1,1,.613-1.04l1.04.613Zm-4.16-2.455a.6.6,0,1,1-.614,1.04l-1.04-.613a.6.6,0,1,1,.613-1.04l1.04.613Zm-4.16-2.456a.6.6,0,1,1-.614,1.04l-1.04-.614a.6.6,0,1,1,.613-1.04l1.04.614Zm-4.16-2.455a.6.6,0,1,1-.613,1.04l-1.04-.614a.6.6,0,1,1,.613-1.04l1.04.613Zm-4.16-2.455a.6.6,0,1,1-.614,1.04l-1.04-.613a.6.6,0,0,1,.613-1.04l1.04.613Zm-4.16-2.455a.6.6,0,0,1-.613,1.04l-1.04-.614a.6.6,0,0,1,.613-1.04l1.04.614Zm-4.16-2.455a.6.6,0,0,1-.613,1.04l-1.04-.614a.6.6,0,0,1,.613-1.04l1.04.613Zm-4.16-2.455a.6.6,0,0,1-.613,1.04l-1.04-.613a.6.6,0,0,1,.613-1.04l1.04.614Zm-4.16-2.455a.6.6,0,1,1-.614,1.04l-1.04-.613a.6.6,0,1,1,.613-1.04l1.04.614Zm-4.16-2.455a.6.6,0,1,1-.614,1.04l-1.04-.614a.6.6,0,1,1,.614-1.04l1.04.613Zm-4.16-2.455a.6.6,0,1,1-.614,1.04l-1.04-.614a.6.6,0,1,1,.614-1.04l1.04.614Zm-4.16-2.455a.6.6,0,1,1-.614,1.04l-1.04-.614a.6.6,0,1,1,.614-1.04l1.04.614Zm-4.16-2.454a.6.6,0,1,1-.614,1.04l-1.04-.614a.6.6,0,0,1,.613-1.04l1.04.614Zm-4.16-2.455a.6.6,0,0,1-.613,1.04l-1.04-.614a.6.6,0,0,1,.613-1.04l1.04.614Zm-4.16-2.455a.6.6,0,0,1-.613,1.04l-1.04-.613a.6.6,0,0,1,.613-1.04Z" transform="translate(-344.602 -267.231)" fill="#fff" fill-rule="evenodd"/>
          </g>
        </g>
        <g id="Grupo_1205968" data-name="Grupo 1205968" transform="translate(158.608 89.875)">
          <path id="Trazado_1247954" data-name="Trazado 1247954" d="M1386.877,797.4l-144.032,85.013-.549.289-.592.244-.63.2-.662.159-.691.118-.71.075-.727.033-.525-.006v6.994l.525.006.727-.033.71-.075.691-.118.662-.159.63-.2.592-.244.549-.289,144.032-85.013.9-.673.614-.763.327-.827v-6.994l-.327.827-.614.763Z" transform="translate(-1237.76 -795.138)" fill="#b7d9f2" fill-rule="evenodd"/>
        </g>
      </g>
      <g id="Grupo_1205970" data-name="Grupo 1205970" transform="translate(152.924 140.688)">
        <path id="Trazado_1247955" data-name="Trazado 1247955" d="M1218.063,1103.785a23.049,23.049,0,0,1-11.274-2.7c-6.224-3.592-6.224-9.421,0-13.018a24.929,24.929,0,0,1,22.546,0c6.221,3.6,6.227,9.426,0,13.018A23.04,23.04,0,0,1,1218.063,1103.785Z" transform="translate(-1202.121 -1085.376)" fill="#c9e3f6" fill-rule="evenodd"/>
      </g>
      <g id="Grupo_1205990" data-name="Grupo 1205990" transform="translate(33.37 45.742)">
        <g id="Grupo_1205971" data-name="Grupo 1205971" transform="translate(8.406 35.644)">
          <path id="Trazado_1247956" data-name="Trazado 1247956" d="M505.239,713.557l3.316,16.839c0,2.107,3.036,3.816,6.78,3.816s6.779-1.709,6.779-3.816l3.317-16.839Z" transform="translate(-505.239 -713.557)" fill="#80a8d8" fill-rule="evenodd"/>
        </g>
        <g id="Grupo_1205972" data-name="Grupo 1205972" transform="translate(8.406 29.962)">
          <path id="Trazado_1247957" data-name="Trazado 1247957" d="M525.433,683.613c0,3.139-4.52,5.683-10.1,5.683s-10.1-2.544-10.1-5.683,4.52-5.682,10.1-5.682S525.433,680.475,525.433,683.613Z" transform="translate(-505.24 -677.931)" fill="#a0c6e9" fill-rule="evenodd"/>
        </g>
        <g id="Grupo_1205973" data-name="Grupo 1205973" transform="translate(9.907 30.571)">
          <path id="Trazado_1247958" data-name="Trazado 1247958" d="M523.247,683.693c4.156,0,7.621,1.66,8.422,3.864a2.823,2.823,0,0,0,.173-.971c0-2.673-3.848-4.837-8.595-4.837s-8.6,2.164-8.6,4.837a2.81,2.81,0,0,0,.174.971C515.625,685.353,519.09,683.693,523.247,683.693Z" transform="translate(-514.651 -681.749)" fill="#80a8d8" fill-rule="evenodd"/>
        </g>
        <g id="Grupo_1205974" data-name="Grupo 1205974" transform="translate(10.082 32.515)">
          <path id="Trazado_1247959" data-name="Trazado 1247959" d="M524.166,701.666c4.156,0,7.621-1.66,8.422-3.867-.8-2.2-4.266-3.864-8.422-3.864s-7.622,1.66-8.421,3.864C516.544,700.006,520.009,701.666,524.166,701.666Z" transform="translate(-515.745 -693.935)" fill="#6e96ce" fill-rule="evenodd"/>
        </g>
        <g id="Grupo_1205975" data-name="Grupo 1205975" transform="translate(9.503 13.384)">
          <path id="Trazado_1247960" data-name="Trazado 1247960" d="M512.117,573.987a19.769,19.769,0,0,1,2.79,4.56c1.322,2.908,4.881,19.672,4.881,19.672a5.31,5.31,0,0,1,1.524-.776,3.8,3.8,0,0,0,1.357-.8s-2.5-12.435-4.264-15.875C515.336,574.774,512.118,573.987,512.117,573.987Z" transform="translate(-512.117 -573.987)" fill="#789fd3" fill-rule="evenodd"/>
        </g>
        <g id="Grupo_1205976" data-name="Grupo 1205976" transform="translate(5.746 4.776)">
          <path id="Trazado_1247961" data-name="Trazado 1247961" d="M493.755,524.9s-1.478-1.256-1.8-1.558c-1.06-1-2.265-2.381-3.394-3.317,2.322-.219,6.788,2.989,6.788,2.989Z" transform="translate(-488.561 -520.016)" fill="#b7d9f2" fill-rule="evenodd"/>
        </g>
        <g id="Grupo_1205977" data-name="Grupo 1205977" transform="translate(12.293 1.042)">
          <path id="Trazado_1247962" data-name="Trazado 1247962" d="M529.606,502.4s.625-4.152,2.95-5.8a47.927,47.927,0,0,1-.9,6.733Z" transform="translate(-529.606 -496.606)" fill="#b7d9f2" fill-rule="evenodd"/>
        </g>
        <g id="Grupo_1205978" data-name="Grupo 1205978" transform="translate(4.269)">
          <path id="Trazado_1247963" data-name="Trazado 1247963" d="M484.808,501.042c-1.161-1.309-5.511-2.867-5.511-2.867a7.743,7.743,0,0,1,3.334-.763,6.645,6.645,0,0,1,3.264.763,11.372,11.372,0,0,1-1.088-2.752c-.435-2.163.9-5.352.9-5.352a18.277,18.277,0,0,1,1.784,3.674c.19,1.069.789,3.012.789,3.012a9.663,9.663,0,0,1,1.894-2.7,13.35,13.35,0,0,1,2.9-2.006,6.336,6.336,0,0,0-1.667,3.37c-.364,2.752,1.44,6-.671,7.67C488.341,504.989,485.919,502.294,484.808,501.042Z" transform="translate(-479.297 -490.071)" fill="#c9e3f6" fill-rule="evenodd"/>
        </g>
        <g id="Grupo_1205979" data-name="Grupo 1205979" transform="translate(14.619 12.881)">
          <path id="Trazado_1247964" data-name="Trazado 1247964" d="M545.278,570.976s-.852-.561-1.088.557c.382.9,2.474,5.011,2.846,8.44s1.266,13.776,1.266,13.776l1-.2s-.862-11.328-1.685-15.448A30.864,30.864,0,0,0,545.278,570.976Z" transform="translate(-544.19 -570.835)" fill="#789fd3" fill-rule="evenodd"/>
        </g>
        <g id="Grupo_1205980" data-name="Grupo 1205980" transform="translate(11.464 21.47)">
          <path id="Trazado_1247965" data-name="Trazado 1247965" d="M524.414,625.615a12.306,12.306,0,0,1,2.484,3.179c1.087,1.99,3.9,13.354,3.9,13.354l.849-.016s-2.7-10.908-3.59-13.125a16.751,16.751,0,0,0-2.828-4.321Z" transform="translate(-524.414 -624.686)" fill="#8eb6e1" fill-rule="evenodd"/>
        </g>
        <g id="Grupo_1205981" data-name="Grupo 1205981" transform="translate(19.435 18.018)">
          <path id="Trazado_1247966" data-name="Trazado 1247966" d="M576.774,619.578a7.551,7.551,0,0,1-1.3-3.179c-.349-1.99,1.052-13.354,1.052-13.354l-.854.016s-1.344,10.908-1.279,13.125a10.915,10.915,0,0,0,1.225,4.321Z" transform="translate(-574.387 -603.045)" fill="#789fd3" fill-rule="evenodd"/>
        </g>
        <g id="Grupo_1205982" data-name="Grupo 1205982" transform="translate(6.285 16.907)">
          <path id="Trazado_1247967" data-name="Trazado 1247967" d="M491.939,600.038s3.031,2.738,4.343,2.557a2.147,2.147,0,0,0,2.086-2.238c-.115-1.149-4.122-4.279-4.122-4.279Z" transform="translate(-491.939 -596.078)" fill="#b7d9f2" fill-rule="evenodd"/>
        </g>
        <g id="Grupo_1205983" data-name="Grupo 1205983" transform="translate(0 9.882)">
          <path id="Trazado_1247968" data-name="Trazado 1247968" d="M458.283,558.913a8.073,8.073,0,0,1,0-3.854,5.734,5.734,0,0,1,2.275-3.026,29.356,29.356,0,0,0,.566,3.439c.4,1.7.659,3.441.659,3.441a6.27,6.27,0,0,1,2.612-.581,7.736,7.736,0,0,1,3.407,1.329,6.567,6.567,0,0,1-2.556,1.38c-1.5.386-3.14.844-3.14.844s.66,1.765,1.054,3.12a25.607,25.607,0,0,1,.589,3.924,17.845,17.845,0,0,1-3.191-2.872c-.677-1.052-1.74-2.437-1.74-2.437a5.841,5.841,0,0,0-2.444,1.955,7.573,7.573,0,0,0-1.479,3.207s-1.395-2.812-.619-4.165a10.968,10.968,0,0,1,2.948-2.755s-1.322-.434-2.329-.821-2.362-1.095-2.362-1.095a2.865,2.865,0,0,1,2.362-1.614A12.872,12.872,0,0,1,458.283,558.913Z" transform="translate(-452.533 -552.032)" fill="#c9e3f6" fill-rule="evenodd"/>
        </g>
        <g id="Grupo_1205984" data-name="Grupo 1205984" transform="translate(2.951 14.636)">
          <path id="Trazado_1247969" data-name="Trazado 1247969" d="M474.32,585.369a9.133,9.133,0,0,0-1.886-.476,2.832,2.832,0,0,0-1.4.115l1.654.97a12.482,12.482,0,0,0,1.584.6s-1.016.58-1.354.821a9.722,9.722,0,0,0-.993.967s2.154-.821,2.348-.87a4.7,4.7,0,0,0,.725-.374,10.074,10.074,0,0,0,.967,1.86,11.4,11.4,0,0,0,1.16,1.269s-.271-1.6-.45-2.18-.335-1.316-.335-1.316a3.275,3.275,0,0,1,1.413-1.011c1.124-.371,2.193-.689,2.193-.689a3.627,3.627,0,0,0-3.933.318,14.818,14.818,0,0,1-.919-3.532A16.543,16.543,0,0,0,474.32,585.369Z" transform="translate(-471.033 -581.837)" fill="#b7d9f2" fill-rule="evenodd"/>
        </g>
        <g id="Grupo_1205985" data-name="Grupo 1205985" transform="translate(2.95 28.317)">
          <path id="Trazado_1247970" data-name="Trazado 1247970" d="M471.032,669.808a5.637,5.637,0,0,1,4.436-2.191c3-.056,7.882,5.218,9.358,8.018.2.377,1.953,2.58,1.953,2.58s-1.058.739-2.825-1.412S476.487,668.463,471.032,669.808Z" transform="translate(-471.032 -667.616)" fill="#8eb6e1" fill-rule="evenodd"/>
        </g>
        <g id="Grupo_1205986" data-name="Grupo 1205986" transform="translate(18.697 14.171)">
          <path id="Trazado_1247971" data-name="Trazado 1247971" d="M569.765,601.9a49.117,49.117,0,0,1,.594-8.115c.684-4.061,2.949-9.516,5.111-11.82a12.4,12.4,0,0,1,5.752-3.045s-4.175,5.945-4.953,7.891-2.951,10.14-3.241,11.445-.8,3.34-.8,3.34A2.023,2.023,0,0,1,569.765,601.9Z" transform="translate(-569.761 -578.921)" fill="#8eb6e1" fill-rule="evenodd"/>
        </g>
        <g id="Grupo_1205987" data-name="Grupo 1205987" transform="translate(19.731 17.944)">
          <path id="Trazado_1247972" data-name="Trazado 1247972" d="M583,602.579s-3.359,4.892-4.194,8.462-2.56,11.039-2.56,11.039l.752-.152s1.747-8.077,2.52-10.887A74.841,74.841,0,0,1,583,602.579Z" transform="translate(-576.245 -602.579)" fill="#789fd3" fill-rule="evenodd"/>
        </g>
        <g id="Grupo_1205988" data-name="Grupo 1205988" transform="translate(7.147 30.069)">
          <path id="Trazado_1247973" data-name="Trazado 1247973" d="M497.345,678.732a6.188,6.188,0,0,1,2.612,1.084c1.256.919,5.262,6.223,7.6,7.522a3.494,3.494,0,0,0,.688.234,35.624,35.624,0,0,1-4.71-4.679C501.926,680.553,499.811,677.987,497.345,678.732Z" transform="translate(-497.345 -678.601)" fill="#789fd3" fill-rule="evenodd"/>
        </g>
        <g id="Grupo_1205989" data-name="Grupo 1205989" transform="translate(20.046 8.984)">
          <path id="Trazado_1247974" data-name="Trazado 1247974" d="M582.134,546.4a27.242,27.242,0,0,0-3.766,6.972c-.872,3.1,2.4,3.665,2.978.564A68.44,68.44,0,0,0,582.134,546.4Z" transform="translate(-578.221 -546.399)" fill="#c9e3f6" fill-rule="evenodd"/>
        </g>
      </g>
      <g id="Grupo_1206038" data-name="Grupo 1206038" transform="translate(116.399 17.742)">
        <g id="Grupo_1205991" data-name="Grupo 1205991" transform="translate(0.399 63.111)">
          <path id="Trazado_1247975" data-name="Trazado 1247975" d="M989.429,726.122a19.961,19.961,0,0,1-9.764-2.335c-5.393-3.114-5.393-8.161,0-11.276q.158-.09.32-.179c.049.8.093,1.617.128,2.458a1.926,1.926,0,0,0,.1.333,4.96,4.96,0,0,0,.031,2.412c1.261,1.393,2.974,4.137,6.307,4.138q.177,0,.36-.011c1.444-.269,1.848-.971,1.3-2.07-.514-1.033-2-2.023-2.87-3.716a1.4,1.4,0,0,0,.08-.117,24.982,24.982,0,0,1-.376-5.171,22.739,22.739,0,0,1,2.967-.369c-.024.193-.051.384-.078.574.085,1.3,1.63,1.918,3.032,1.918,1.175,0,2.249-.435,2.282-1.272-.011-.321-.021-.639-.028-.956a17.811,17.811,0,0,1,5.973,2.03c5.392,3.114,5.392,8.162,0,11.276A19.969,19.969,0,0,1,989.429,726.122Z" transform="translate(-975.62 -710.218)" fill="#c9e3f6" fill-rule="evenodd"/>
        </g>
        <g id="Grupo_1205992" data-name="Grupo 1205992" transform="translate(13.446 8.199)">
          <path id="Trazado_1247976" data-name="Trazado 1247976" d="M1057.42,370.674c.581.544,1.087,1.032,1.549,1.493,2.646,2.618,3.789,3.909,7.937,5.264a28.823,28.823,0,0,0,8.232,3.356,25.574,25.574,0,0,0,3.244.6c1.254.24,2-2.249.987-2.96-3.863-1.668-5.937-3.134-10.14-4.35a71.1,71.1,0,0,0-8.906-8.151Z" transform="translate(-1057.42 -365.925)" fill="#c9e3f6" fill-rule="evenodd"/>
        </g>
        <g id="Grupo_1205993" data-name="Grupo 1205993" transform="translate(34.227 20.701)">
          <path id="Trazado_1247977" data-name="Trazado 1247977" d="M1187.983,446.462a10.028,10.028,0,0,0,3.653,2.584l1.86.189c.75.118,1,.02,1.071-.091a.176.176,0,0,0,.006-.176c1.057.2,1.142-.3.854-.424.653.215,1.031-.3.665-.489.424-.04.588-.516-.117-.64l-2.153-.418a6.371,6.371,0,0,1-.921-.606,1.733,1.733,0,0,1-.45-.607,4.238,4.238,0,0,0,1.416-.874l.059-.085c.2-.306.065-.652-.34-.463a6.409,6.409,0,0,1-2.167.678,9.625,9.625,0,0,0-2.811-.118c-.678.325-1.052.761-.821,1.227Z" transform="translate(-1187.719 -444.307)" fill="#f4ae92" fill-rule="evenodd"/>
        </g>
        <g id="Grupo_1205994" data-name="Grupo 1205994" transform="translate(34.296 22.542)">
          <path id="Trazado_1247978" data-name="Trazado 1247978" d="M1194.432,458.991a3.791,3.791,0,0,1-.578-.053l-1.86-.189a8.786,8.786,0,0,1-3.012-1.957c-.223-.205-.44-.416-.641-.626l-.195-.313a3.81,3.81,0,0,1,2.1.823c2.063,2.062,2.28,2.024,4.679,2.173C1194.874,458.922,1194.745,458.992,1194.432,458.991Z" transform="translate(-1188.146 -455.852)" fill="#f09172" fill-rule="evenodd"/>
        </g>
        <g id="Grupo_1205995" data-name="Grupo 1205995" transform="translate(37.994 21.113)">
          <path id="Trazado_1247979" data-name="Trazado 1247979" d="M1212.743,448.565a2.4,2.4,0,0,1-1.409-.659.4.4,0,0,0,.075.006,5.822,5.822,0,0,0,2.359-1.017l.007.1-.059.085a4.237,4.237,0,0,1-1.416.874h0A1.768,1.768,0,0,0,1212.743,448.565Z" transform="translate(-1211.334 -446.895)" fill="#f09172" fill-rule="evenodd"/>
        </g>
        <g id="Grupo_1205996" data-name="Grupo 1205996" transform="translate(18.292 14.429)">
          <path id="Trazado_1247980" data-name="Trazado 1247980" d="M1100.675,413.619a28.818,28.818,0,0,1-8.232-3.356,20.689,20.689,0,0,1-2.741-1.086c-.51-1.54-1.308-2.724-1.9-4.19,1.9,1.97,3.789,3.655,5.866,3.976C1094.9,410.863,1097.485,412.337,1100.675,413.619Z" transform="translate(-1087.803 -404.988)" fill="#b7d9f2" fill-rule="evenodd"/>
        </g>
        <g id="Grupo_1205997" data-name="Grupo 1205997" transform="translate(7.889 16.481)">
          <path id="Trazado_1247981" data-name="Trazado 1247981" d="M1023.736,417.853l-1.156,41.2c2.431-4.427,5.962-5.567,10.484-3.736l.918-21.917-1.171-6.619-.379-8.074Z" transform="translate(-1022.58 -417.853)" fill="#8eb6e1" fill-rule="evenodd"/>
        </g>
        <g id="Grupo_1205998" data-name="Grupo 1205998" transform="translate(5.63 5.504)">
          <path id="Trazado_1247982" data-name="Trazado 1247982" d="M1010.375,349.027a8.282,8.282,0,0,0-1.372,8.3c1.882,4.718,4.392-4.112,4.392-4.112Z" transform="translate(-1008.417 -349.027)" fill="#101e3b" fill-rule="evenodd"/>
        </g>
        <g id="Grupo_1205999" data-name="Grupo 1205999" transform="translate(13.125 62.152)">
          <path id="Trazado_1247983" data-name="Trazado 1247983" d="M1055.541,705.371a5.548,5.548,0,0,0,0,2.387,2.715,2.715,0,0,0,1.865,1.67c1.26.958,1.761,2.589,3.354,3.062,1.825.541,2.929-.169,2.784-1.255-.251-1.872-2.37-2.7-3.378-4.868l-.916-2.164h-3.263Z" transform="translate(-1055.411 -704.203)" fill="#101e3b" fill-rule="evenodd"/>
        </g>
        <g id="Grupo_1206000" data-name="Grupo 1206000" transform="translate(10.883 26.237)">
          <path id="Trazado_1247984" data-name="Trazado 1247984" d="M1041.35,489.6l2.229,11.873c-.661,2.694.431,9.46-.4,15,.156,2.384,5.24,2.483,5.313.645a100.858,100.858,0,0,1,.845-15.247c1.49-4.52,1.1-14.489-1.788-22.847l-5.861,3.029Z" transform="translate(-1041.35 -479.02)" fill="#005098" fill-rule="evenodd"/>
        </g>
        <g id="Grupo_1206001" data-name="Grupo 1206001" transform="translate(4.867 66.311)">
          <path id="Trazado_1247985" data-name="Trazado 1247985" d="M1004.1,731.036a5.141,5.141,0,0,0-.313,3.361c1.3,1.443,3.094,4.333,6.667,4.127,1.444-.269,1.848-.971,1.3-2.07-.574-1.155-2.364-2.255-3.147-4.341l-.9-1.833Z" transform="translate(-1003.631 -730.28)" fill="#101e3b" fill-rule="evenodd"/>
        </g>
        <g id="Grupo_1206002" data-name="Grupo 1206002" transform="translate(4.024 27.37)">
          <path id="Trazado_1247986" data-name="Trazado 1247986" d="M1012.062,487.024a17.464,17.464,0,0,1-1.228,4.917c-.944,2.247-2.336,3.939-3.963,4.16-.184,6.819.352,13.819-1.528,16.327-1.071,5.477-1.624,10.767-.819,14.974-.862,1.41-4.112,1.246-5.081-.376a1.888,1.888,0,0,1-.229-.592c-.3-7.3-1.4-12.993,1.082-16.986l-1.6-12.963c-.864-4.587-.108-6.953,2.274-9.17q.429-.4.93-.8l9.885-.4Z" transform="translate(-998.344 -486.121)" fill="#005098" fill-rule="evenodd"/>
        </g>
        <g id="Grupo_1206003" data-name="Grupo 1206003" transform="translate(3.662 7.43)">
          <path id="Trazado_1247987" data-name="Trazado 1247987" d="M1012.877,374.074a2.6,2.6,0,0,1-3,2.471c-.006,1.356-.421,3.251,0,4.5a4.965,4.965,0,0,1-3.377,3.338,8.4,8.4,0,0,1-7.438-2.143c.342-2.519-.51-5.746-1.4-8.451-.685-2.092-1.392-3.874-1.585-4.771a26.876,26.876,0,0,1,5.724-5.245c2.1-1.466,3.074-3.331,5.476-2.432s2.683,5.683,3.565,7.569S1012.869,372.11,1012.877,374.074Z" transform="translate(-996.075 -361.105)" fill="#4385c6" fill-rule="evenodd"/>
        </g>
        <g id="Grupo_1206004" data-name="Grupo 1206004" transform="translate(4.392 56.578)">
          <path id="Trazado_1247988" data-name="Trazado 1247988" d="M1001.93,681.133l-.549-.177a1.888,1.888,0,0,1-.229-.592c-.149-3.665-.5-6.924-.5-9.766,0-.457.009-.9.03-1.339a7.692,7.692,0,0,0,1.768,1.281A54.64,54.64,0,0,0,1001.93,681.133Z" transform="translate(-1000.651 -669.258)" fill="#005098" fill-rule="evenodd"/>
        </g>
        <g id="Grupo_1206005" data-name="Grupo 1206005" transform="translate(17.27 22.9)">
          <path id="Trazado_1247989" data-name="Trazado 1247989" d="M1081.4,461.133c0-1.018.181-2.142.188-3.039h0C1081.583,458.976,1081.4,460.107,1081.4,461.133Z" transform="translate(-1081.4 -458.095)" fill="#868685" fill-rule="evenodd"/>
        </g>
        <g id="Grupo_1206006" data-name="Grupo 1206006" transform="translate(14.385 28.301)">
          <path id="Trazado_1247990" data-name="Trazado 1247990" d="M1063.31,500.259c0-.058,0-.118.007-.176a9.114,9.114,0,0,0,2.122-3.233,17.463,17.463,0,0,0,1.225-4.889h0a17.463,17.463,0,0,1-1.225,4.889A8.3,8.3,0,0,1,1063.31,500.259Z" transform="translate(-1063.31 -491.961)" fill="#005098" fill-rule="evenodd"/>
        </g>
        <g id="Grupo_1206007" data-name="Grupo 1206007" transform="translate(14.343 27.37)">
          <path id="Trazado_1247991" data-name="Trazado 1247991" d="M1063.1,495.177c.074-1.968.07-3.9-.048-5.791a5.045,5.045,0,0,0,3.115-3.263h0l.283.9c0,.01,0,.019,0,.028a17.464,17.464,0,0,1-1.225,4.889A9.129,9.129,0,0,1,1063.1,495.177Z" transform="translate(-1063.047 -486.123)" fill="#005098" fill-rule="evenodd"/>
        </g>
        <g id="Grupo_1206008" data-name="Grupo 1206008" transform="translate(13.652 22.659)">
          <path id="Trazado_1247992" data-name="Trazado 1247992" d="M1059.407,464.558q-.1-1.641-.33-3.233c-.032-.224-.067-.446-.1-.668l.184.637-.4-1.824-.039-.184a.01.01,0,0,1,0,0,2.946,2.946,0,0,0,2.936-2.7l.871.241c-.008.9-.188,2.021-.188,3.038a4.546,4.546,0,0,0,.188,1.432A5.045,5.045,0,0,1,1059.407,464.558Z" transform="translate(-1058.715 -456.584)" fill="#4385c6" fill-rule="evenodd"/>
        </g>
        <g id="Grupo_1206009" data-name="Grupo 1206009" transform="translate(5.246 20.1)">
          <path id="Trazado_1247993" data-name="Trazado 1247993" d="M1006.132,440.94c-.042-.13-.083-.257-.125-.385l.053-.013C1006.086,440.677,1006.111,440.809,1006.132,440.94Z" transform="translate(-1006.007 -440.542)" fill="#dc072f" fill-rule="evenodd"/>
        </g>
        <g id="Grupo_1206010" data-name="Grupo 1206010" transform="translate(2.706 9.383)">
          <path id="Trazado_1247994" data-name="Trazado 1247994" d="M999.781,423.342a15.332,15.332,0,0,1-5.793-1.3,6.39,6.39,0,0,1-3.9-4.831c1.437-5.531,1.222-12.3.954-19.662-.313-5.631,3.171-8.125,1.358-14.665a22.726,22.726,0,0,0-1.358-3.572c1.015-1.5,3.485-3.61,5.413-5.96-.955,3.048.482,7.14,2.987,10.882a26.86,26.86,0,0,1,1.592,5.1l.039.184c.123.611.232,1.23.321,1.855C1002.814,401.154,1000.28,412.488,999.781,423.342Z" transform="translate(-990.086 -373.348)" fill="#c9e3f6" fill-rule="evenodd"/>
        </g>
        <g id="Grupo_1206011" data-name="Grupo 1206011" transform="translate(11.522 7.326)">
          <path id="Trazado_1247995" data-name="Trazado 1247995" d="M1055.015,404.055c-.6,2.666-.912,5.229-3.436,5.8-1.191-11.131.435-18.237.527-26.431.006-.527.006-1.057,0-1.592q0-.384-.017-.778c0-.19-.008-.38-.02-.569,0-.173-.011-.343-.019-.516-.006-.123-.011-.248-.02-.374-.011-.19-.022-.379-.034-.572q-.074-1.139-.2-2.326c-.025-.226-.053-.452-.081-.674a56.375,56.375,0,0,0-1.1-6.119,27.745,27.745,0,0,0-5.246-8.465,4.067,4.067,0,0,1,6.036.887c-.421,5.389,2.164,6.811,2.928,10.517a2.678,2.678,0,0,1-.529,2.279,2.454,2.454,0,0,1-.993.691l-.036.017-.045,4.113a25.03,25.03,0,0,1,1.25,8.074C1054.162,392.83,1054.05,398.536,1055.015,404.055Z" transform="translate(-1045.359 -360.451)" fill="#c9e3f6" fill-rule="evenodd"/>
        </g>
        <g id="Grupo_1206012" data-name="Grupo 1206012" transform="translate(13.692 25.545)">
          <path id="Trazado_1247996" data-name="Trazado 1247996" d="M1059.365,476.5l-.184-.637c-.066-.4-.14-.795-.218-1.187Z" transform="translate(-1058.963 -474.681)" fill="#4385c6" fill-rule="evenodd"/>
        </g>
        <g id="Grupo_1206013" data-name="Grupo 1206013" transform="translate(2.707 17.521)">
          <path id="Trazado_1247997" data-name="Trazado 1247997" d="M993.989,464.923c-.142-.068-.283-.139-.419-.213a7.691,7.691,0,0,1-1.768-1.281,5.826,5.826,0,0,1-1.714-3.337,40.976,40.976,0,0,0,1.112-9l.36.445a.4.4,0,0,0,.333.213.213.213,0,0,0,.217-.213l.249.273c-.391,5.141-.051,9.872,1.63,13.116ZM992.6,449.329a5.182,5.182,0,0,1-.234-.713l-.019-.08a2.006,2.006,0,0,1-.048-.423.982.982,0,0,1,.109-.482,1.239,1.239,0,0,1,.4-.07h.016q-.125.888-.227,1.767h0Zm.411-3.022a5.032,5.032,0,0,0-.812-.5l-1-.521c-.037-1.584-.095-3.206-.155-4.857-.014-.242-.02-.478-.02-.71,0-4.02,1.9-6.457,1.9-10.32a13.468,13.468,0,0,0-.526-3.636l1.063-1.394c2.187,3.328,3.3,7.892,6.888,7.892a4.7,4.7,0,0,0,.684-.052l.039.184c.078.393.152.789.218,1.187v0a13.921,13.921,0,0,0-1.955-.153,6.659,6.659,0,0,0-3.554.884C992.642,436.477,992.477,442.186,993.01,446.307Z" transform="translate(-990.088 -424.372)" fill="#b7d9f2" fill-rule="evenodd"/>
        </g>
        <g id="Grupo_1206014" data-name="Grupo 1206014" transform="translate(0 14.613)">
          <path id="Trazado_1247998" data-name="Trazado 1247998" d="M976.762,406.887a27.637,27.637,0,0,0-3.442,11.63,24.551,24.551,0,0,0,1.464,11.869,2.085,2.085,0,0,1,1.978-.515c.234-4.2.515-8.268,0-10.444l3.165-6.924C982.1,407.755,978.543,404.626,976.762,406.887Z" transform="translate(-973.117 -406.136)" fill="#c9e3f6" fill-rule="evenodd"/>
        </g>
        <g id="Grupo_1206015" data-name="Grupo 1206015" transform="translate(1.665 38.086)">
          <path id="Trazado_1247999" data-name="Trazado 1247999" d="M989.389,556.838a.576.576,0,0,1-.673-.089c-.529-.551-1.083-.987-1.8-.742a1.321,1.321,0,0,0-.061.9l.019.08a13.689,13.689,0,0,0,1.258,2.8.308.308,0,0,1-.073.373.425.425,0,0,1-.491.013c.029.284-.337.392-.583.134l-.367-.4c-.042.328-.43.236-.551,0l-.694-.861a6.483,6.483,0,0,1-1.2-1.628c-.045-.089-.093-.179-.138-.271a9.7,9.7,0,0,1-.481-3.062c.24-.847,1-.972,1.979-.513l1.173.609a15.814,15.814,0,0,1,2.82,2.253C989.626,556.566,989.547,556.742,989.389,556.838Z" transform="translate(-983.559 -553.312)" fill="#f4ae92" fill-rule="evenodd"/>
        </g>
        <g id="Grupo_1206016" data-name="Grupo 1206016" transform="translate(2.285 41.952)">
          <path id="Trazado_1248000" data-name="Trazado 1248000" d="M990.569,580.831a.437.437,0,0,1-.313-.145l-.117-.129-.249-.273a.213.213,0,0,1-.217.213.4.4,0,0,1-.334-.213l-.359-.445-.335-.416a6.482,6.482,0,0,1-1.2-1.628,1.47,1.47,0,0,0,.563.11,2.625,2.625,0,0,0,1.189-.353c.507,1.176,1.418,2.77,2.131,2.986a.371.371,0,0,1-.245.084.46.46,0,0,1-.246-.071h0a.289.289,0,0,1,0,.032A.252.252,0,0,1,990.569,580.831Z" transform="translate(-987.446 -577.552)" fill="#f09172" fill-rule="evenodd"/>
        </g>
        <g id="Grupo_1206017" data-name="Grupo 1206017" transform="translate(5.444 40.71)">
          <path id="Trazado_1248001" data-name="Trazado 1248001" d="M1009.034,570.739a.632.632,0,0,1-.406-.16,2.1,2.1,0,0,0-1.379-.812h0a2.1,2.1,0,0,1,1.379.812A.635.635,0,0,0,1009.034,570.739Z" transform="translate(-1007.249 -569.767)" fill="#d7d8d8" fill-rule="evenodd"/>
        </g>
        <g id="Grupo_1206018" data-name="Grupo 1206018" transform="translate(4.671 40.389)">
          <path id="Trazado_1248002" data-name="Trazado 1248002" d="M1002.7,569.045l-.293-1.249a1.777,1.777,0,0,1,.409-.048c1.083,0,1.862,1,2.411,1.223a.521.521,0,0,1-.263.07.634.634,0,0,1-.406-.16,2.1,2.1,0,0,0-1.378-.812h-.016a1.241,1.241,0,0,0-.4.07.982.982,0,0,0-.109.482A2.03,2.03,0,0,0,1002.7,569.045Z" transform="translate(-1002.404 -567.749)" fill="#f09172" fill-rule="evenodd"/>
        </g>
        <g id="Grupo_1206019" data-name="Grupo 1206019" transform="translate(18.963 21.995)">
          <path id="Trazado_1248003" data-name="Trazado 1248003" d="M1092.01,453.115a4.04,4.04,0,0,0,.993-.691A2.46,2.46,0,0,1,1092.01,453.115Z" transform="translate(-1092.01 -452.424)" fill="#e7e8ea" fill-rule="evenodd"/>
        </g>
        <g id="Grupo_1206020" data-name="Grupo 1206020" transform="translate(18.269 29.6)">
          <path id="Trazado_1248004" data-name="Trazado 1248004" d="M1087.66,500.8h0c0-.232,0-.464,0-.7C1087.663,500.34,1087.663,500.572,1087.66,500.8Z" transform="translate(-1087.66 -500.108)" fill="#8d8d8b" fill-rule="evenodd"/>
        </g>
        <g id="Grupo_1206021" data-name="Grupo 1206021" transform="translate(18.269 30.296)">
          <path id="Trazado_1248005" data-name="Trazado 1248005" d="M1087.66,504.47h0Z" transform="translate(-1087.66 -504.469)" fill="#00889f" fill-rule="evenodd"/>
        </g>
        <g id="Grupo_1206022" data-name="Grupo 1206022" transform="translate(17.872 22.703)">
          <path id="Trazado_1248006" data-name="Trazado 1248006" d="M1087.433,469.05c-.463-2.013-1.007-3.813-1.863-4.593h0c0-.232,0-.463,0-.7q0-.447-.007-.9h0q0-.389-.017-.778h0c0-.19-.008-.379-.02-.569h0c0-.173-.011-.346-.018-.516h0c0-.126-.011-.251-.02-.374h0c-.008-.193-.019-.382-.034-.572h0q-.07-1.175-.2-2.326h0c-.025-.226-.053-.452-.081-.674.057,0,.115.007.173.007a2.143,2.143,0,0,0,.882-.2l-.045,4.113A25.056,25.056,0,0,1,1087.433,469.05Z" transform="translate(-1085.174 -456.863)" fill="#b7d9f2" fill-rule="evenodd"/>
        </g>
        <g id="Grupo_1206023" data-name="Grupo 1206023" transform="translate(11.299 8.081)">
          <path id="Trazado_1248007" data-name="Trazado 1248007" d="M1043.96,365.513a33.447,33.447,0,0,1,6.276,12.41l-.877-8.48-1.3.3.651-.976-4.159-3.582Z" transform="translate(-1043.96 -365.187)" fill="#b7d9f2" fill-rule="evenodd"/>
        </g>
        <g id="Grupo_1206024" data-name="Grupo 1206024" transform="translate(8.64 7.026)">
          <path id="Trazado_1248008" data-name="Trazado 1248008" d="M1028.3,358.569c-.318,1.093-.6,2.613-1,3.742-.239,1.286,2.143,3.854,3.732,3.739,1.124-.222,1.1-2.41,1.266-3.738Z" transform="translate(-1027.286 -358.569)" fill="#f4ae92" fill-rule="evenodd"/>
        </g>
        <g id="Grupo_1206025" data-name="Grupo 1206025" transform="translate(7.602 9.383)">
          <path id="Trazado_1248009" data-name="Trazado 1248009" d="M1022.253,373.349c-1.575,1.2-1.721,3.76-1.2,6.94h1.391l-1.141,1.2c2.11,1.205,3.815,4.268,5.471,7.552C1025.995,382.206,1021.011,376.733,1022.253,373.349Z" transform="translate(-1020.781 -373.349)" fill="#b7d9f2" fill-rule="evenodd"/>
        </g>
        <g id="Grupo_1206026" data-name="Grupo 1206026" transform="translate(11.998 11.605)">
          <path id="Trazado_1248010" data-name="Trazado 1248010" d="M1049.742,390.966a1.892,1.892,0,0,1-1.4-.805,1.7,1.7,0,0,0,.283.025c.036,0,.071,0,.105,0,.91-.179,1.068-1.645,1.182-2.9q.529.84,1.007,1.708c.129.9.046,1.591-.667,1.876A1.353,1.353,0,0,1,1049.742,390.966Z" transform="translate(-1048.346 -387.278)" fill="#4385c6" fill-rule="evenodd"/>
        </g>
        <g id="Grupo_1206027" data-name="Grupo 1206027" transform="translate(12.039 8.211)">
          <path id="Trazado_1248011" data-name="Trazado 1248011" d="M1050.5,367.63,1048.6,366l1.87,1.036C1050.468,367.23,1050.478,367.43,1050.5,367.63Z" transform="translate(-1048.599 -365.996)" fill="#e7e8ea" fill-rule="evenodd"/>
        </g>
        <g id="Grupo_1206028" data-name="Grupo 1206028" transform="translate(9.884 7.019)">
          <path id="Trazado_1248012" data-name="Trazado 1248012" d="M1036.487,360.055l-1.4-1.307c0-.075,0-.151,0-.225l1.914,1.06c-.067.051-.131.1-.195.161l-.3.168.062.079Z" transform="translate(-1035.088 -358.523)" fill="#e88139" fill-rule="evenodd"/>
        </g>
        <g id="Grupo_1206029" data-name="Grupo 1206029" transform="translate(11.283 8.486)">
          <path id="Trazado_1248013" data-name="Trazado 1248013" d="M1044.331,368.226l-.469-.439.077-.065C1044.072,367.889,1044.2,368.057,1044.331,368.226Z" transform="translate(-1043.862 -367.722)" fill="#e50033" fill-rule="evenodd"/>
        </g>
        <g id="Grupo_1206030" data-name="Grupo 1206030" transform="translate(11.604 8.078)">
          <path id="Trazado_1248014" data-name="Trazado 1248014" d="M1045.87,365.329c.064-.056.128-.11.194-.161l.048.026Z" transform="translate(-1045.87 -365.168)" fill="#e7e8ea" fill-rule="evenodd"/>
        </g>
        <g id="Grupo_1206031" data-name="Grupo 1206031" transform="translate(11.299 8.104)">
          <path id="Trazado_1248015" data-name="Trazado 1248015" d="M1047.24,370.538q-.477-.867-1.007-1.708c.027-.3.051-.582.083-.836l-1.9-1.78q-.193-.253-.391-.5l-.062-.079.3-.168.242-.135.193.106,1.9,1.634C1046.7,368.313,1047.1,369.553,1047.24,370.538Z" transform="translate(-1043.963 -365.33)" fill="#c6c5c6" fill-rule="evenodd"/>
        </g>
        <g id="Grupo_1206032" data-name="Grupo 1206032" transform="translate(9.888 7.244)">
          <path id="Trazado_1248016" data-name="Trazado 1248016" d="M1037.51,367.2a1.707,1.707,0,0,1-.283-.025c-1.232-1.474-2.054-4.69-2.112-7.243l1.4,1.307.469.439,1.9,1.78c-.032.253-.057.538-.083.836-.115,1.257-.273,2.724-1.182,2.9C1037.58,367.2,1037.545,367.2,1037.51,367.2Z" transform="translate(-1035.115 -359.935)" fill="#f09172" fill-rule="evenodd"/>
        </g>
        <g id="Grupo_1206033" data-name="Grupo 1206033" transform="translate(6.886 0.06)">
          <path id="Trazado_1248017" data-name="Trazado 1248017" d="M1019.433,323.608c1.123,1.406,2.338,2.607,4.322,2.318.735-.107,1.417-1.2,1.359-5.594a7.463,7.463,0,0,0-1.5-4.062,4.226,4.226,0,0,0-4.219-1.255,3.775,3.775,0,0,0-3.068,4.427C1016.843,322.412,1018.12,323.513,1019.433,323.608Z" transform="translate(-1016.291 -314.892)" fill="#f4ae92" fill-rule="evenodd"/>
        </g>
        <g id="Grupo_1206034" data-name="Grupo 1206034" transform="translate(6.608)">
          <path id="Trazado_1248018" data-name="Trazado 1248018" d="M1017.224,323.02a1.757,1.757,0,0,0,.952-.813,5.409,5.409,0,0,0,.6-2.429c2.053-.21,4.223-1.708,4.223-2.4-.093-.952-.677-1.821-2.425-2.515a4.349,4.349,0,0,0-5.067,1.232c-2.171,2.36-.21,6.526,1.634,7.282Z" transform="translate(-1014.549 -314.517)" fill="#101e3b" fill-rule="evenodd"/>
        </g>
        <g id="Grupo_1206035" data-name="Grupo 1206035" transform="translate(12.335 4.621)">
          <path id="Trazado_1248019" data-name="Trazado 1248019" d="M1053.939,345.033a1.064,1.064,0,0,1-.52.533c-.338.109-.495-.335-.5-.728a.546.546,0,0,1,.145-.362c.141-.133.273-.278.4-.418.205-.226.3-.373.432-.416.038-.012.087-.02.117.079a1.788,1.788,0,0,1-.07,1.312Zm-1.692,1.3a1.188,1.188,0,0,1-.672.557.83.83,0,0,1-.789-.1.687.687,0,0,1-.225-.545c0-.294.32-.461.844-.7.228-.1.456-.232.681-.352s.263-.024.29.1a1.564,1.564,0,0,1-.129,1.05Zm1.861-2.683c-.183-.483-.579.214-1.106.731a.653.653,0,0,0-.169.351.743.743,0,0,0-.426.322c-.052-.09-.278-.022-.362.028-.7.424-1.587.584-1.59,1.178,0,1.4,2.392.918,2.023-1.019l-.008-.04a.569.569,0,0,1,.343-.26v.046c.138,1.019.79.827,1.173.172A1.952,1.952,0,0,0,1054.108,343.654Z" transform="translate(-1050.455 -343.491)" fill="#072b5d" fill-rule="evenodd"/>
        </g>
        <g id="Grupo_1206036" data-name="Grupo 1206036" transform="translate(9.184 7.166)">
          <path id="Trazado_1248020" data-name="Trazado 1248020" d="M1033.923,359.719l-3.147.076-.077-.152,3.273-.2Z" transform="translate(-1030.7 -359.446)" fill="#072b5d" fill-rule="evenodd"/>
        </g>
        <g id="Grupo_1206037" data-name="Grupo 1206037" transform="translate(8.119 7.085)">
          <path id="Trazado_1248021" data-name="Trazado 1248021" d="M1025.649,359.8a2.487,2.487,0,0,0-.493-.6,1.033,1.033,0,0,0-.717-.257.483.483,0,0,0-.2.054.469.469,0,0,0-.219.4,1.077,1.077,0,0,0,.11.458,2.1,2.1,0,0,0,.505.739,1.271,1.271,0,0,0,.814.342.478.478,0,0,0,.331-.1.41.41,0,0,0,.121-.238A1.168,1.168,0,0,0,1025.649,359.8Z" transform="translate(-1024.019 -358.941)" fill="#f4ae92" fill-rule="evenodd"/>
        </g>
      </g>
      <g id="Grupo_1206077" data-name="Grupo 1206077" transform="translate(77.89 36.984)">
        <g id="Grupo_1206039" data-name="Grupo 1206039" transform="translate(0 67.066)">
          <path id="Trazado_1248022" data-name="Trazado 1248022" d="M744.062,869.969a17.925,17.925,0,0,1-8.765-2.1c-4.839-2.793-4.839-7.324,0-10.121a19.384,19.384,0,0,1,17.527,0c4.836,2.8,4.842,7.328,0,10.121A17.914,17.914,0,0,1,744.062,869.969Z" transform="translate(-731.668 -855.658)" fill="#c9e3f6" fill-rule="evenodd"/>
        </g>
        <g id="Grupo_1206076" data-name="Grupo 1206076" transform="translate(1.811)">
          <g id="Grupo_1206040" data-name="Grupo 1206040" transform="translate(14.252 14.521)">
            <path id="Trazado_1248023" data-name="Trazado 1248023" d="M832.815,526.4a.521.521,0,0,1-.218.416c-.121.07-.219,0-.219-.164a.522.522,0,0,1,.219-.417C832.718,526.16,832.815,526.235,832.815,526.4Z" transform="translate(-832.379 -526.204)" fill="#422825" fill-rule="evenodd"/>
          </g>
          <g id="Grupo_1206041" data-name="Grupo 1206041" transform="translate(14.397 14.683)">
            <path id="Trazado_1248024" data-name="Trazado 1248024" d="M833.558,527.342a.322.322,0,0,1-.134.257c-.074.043-.134,0-.134-.1a.323.323,0,0,1,.134-.257C833.5,527.2,833.558,527.243,833.558,527.342Z" transform="translate(-833.29 -527.224)" fill="#90665f" fill-rule="evenodd"/>
          </g>
          <g id="Grupo_1206042" data-name="Grupo 1206042" transform="translate(9.764 10.6)">
            <path id="Trazado_1248025" data-name="Trazado 1248025" d="M811.329,518.665a7.394,7.394,0,0,0,2.122-4.006c-1.339-2.421-2.674-11.033-5.976-12.609a3.5,3.5,0,0,0-3.23-.092l4.493,10.542S810.666,517.921,811.329,518.665Z" transform="translate(-804.244 -501.621)" fill="#b7d9f2" fill-rule="evenodd"/>
          </g>
          <g id="Grupo_1206043" data-name="Grupo 1206043" transform="translate(8.52 44.311)">
            <path id="Trazado_1248026" data-name="Trazado 1248026" d="M802.509,712.986s-.583,3.677-.606,5.322a21.8,21.8,0,0,1-.411,4.4c-.338,1.909-.844,9.569-.857,12.1s1.541,4.887,2.119,5.8-1.258,2.346-2.653,1.012-1.541-1.6-2.328-2.014-1.37-2.22-.748-4.217.319-5.937-.342-9.389.3-7.839-.087-8.871S802.509,712.986,802.509,712.986Z" transform="translate(-796.442 -712.986)" fill="#f4ae92" fill-rule="evenodd"/>
          </g>
          <g id="Grupo_1206044" data-name="Grupo 1206044" transform="translate(8.191 67.512)">
            <path id="Trazado_1248027" data-name="Trazado 1248027" d="M801.018,862.879a25.8,25.8,0,0,1,2.291,2.128c.574.7-1.2,1.725-2.894,1.136s-3.08-2.182-4.421-3.381c-1.314-1.176-1.674-1.6-1.608-2.944a2.631,2.631,0,0,1,.717-1.362s.418,2.734,2.346,3.88C799.287,863.428,800.044,863.6,801.018,862.879Z" transform="translate(-794.378 -858.455)" fill="#101e3b" fill-rule="evenodd"/>
          </g>
          <g id="Grupo_1206045" data-name="Grupo 1206045" transform="translate(2.4 43.622)">
            <path id="Trazado_1248028" data-name="Trazado 1248028" d="M764.886,712.324s-.2,3.7-.23,5.341a13.714,13.714,0,0,1-.772,4.047c-.487,1.877-.86,9.9-.873,12.435s1.54,4.889,2.119,5.8-1.259,2.345-2.653,1.011a10.051,10.051,0,0,0-2.328-2.014c-.788-.418-1.372-2.22-.748-4.215s.319-5.938-.342-9.391.44-7.86.2-8.936c-.592-2.645-2.021-6.719-.533-7.61C760.283,707.86,764.886,712.324,764.886,712.324Z" transform="translate(-758.068 -708.666)" fill="#f4ae92" fill-rule="evenodd"/>
          </g>
          <g id="Grupo_1206046" data-name="Grupo 1206046" transform="translate(2.822 70.48)">
            <path id="Trazado_1248029" data-name="Trazado 1248029" d="M767.353,881.491a25.627,25.627,0,0,1,2.29,2.128c.573.7-1.2,1.725-2.894,1.136s-3.08-2.183-4.421-3.382c-1.315-1.176-1.674-1.6-1.609-2.944a2.637,2.637,0,0,1,.717-1.363s.418,2.735,2.346,3.88C765.622,882.04,766.379,882.208,767.353,881.491Z" transform="translate(-760.714 -877.066)" fill="#101e3b" fill-rule="evenodd"/>
          </g>
          <g id="Grupo_1206047" data-name="Grupo 1206047" transform="translate(1.558 27.769)">
            <path id="Trazado_1248030" data-name="Trazado 1248030" d="M766.826,613.268s.15,2.621.218,6.007a72.863,72.863,0,0,1-.561,9.118s-6.181,4.783-8.377,4a11.16,11.16,0,0,1-5.316-4.051s-.082-9.485,1.665-15.68S766.688,610.034,766.826,613.268Z" transform="translate(-752.789 -609.27)" fill="#005098" fill-rule="evenodd"/>
          </g>
          <g id="Grupo_1206048" data-name="Grupo 1206048" transform="translate(0.83 9.841)">
            <path id="Trazado_1248031" data-name="Trazado 1248031" d="M748.4,503.395c.325-1.3,4.291-4.014,4.291-4.014s2.215,1.766,3,2.378a20.042,20.042,0,0,1,2.1,2.215l.018,0a16.959,16.959,0,0,0-.941-4.341,8.025,8.025,0,0,1,.127-2.609s.31-.078.759-.159c.674.748,2,2.73,2.719,3.552.693.792,3.388,3.267,2.628,5.827a20.919,20.919,0,0,1-.906,2.362,11.533,11.533,0,0,0-.366,4.166,27.265,27.265,0,0,0,1.234,4.567s-2.882,3.339-5.973,3.2a10.285,10.285,0,0,1-6.167-2.708,57.391,57.391,0,0,0,.748-7.712S747.323,507.674,748.4,503.395Z" transform="translate(-748.227 -496.862)" fill="#4385c6" fill-rule="evenodd"/>
          </g>
          <g id="Grupo_1206049" data-name="Grupo 1206049" transform="translate(9.943 10.559)">
            <path id="Trazado_1248032" data-name="Trazado 1248032" d="M805.366,502.576s2.383,3.2,3.392,4.929c.753,1.285.8,7.493.769,10.573-.009,1.052.836,24.694.836,24.694s2.235-1.316,2.563-2.5c.395-6.175-.958-14.532-1.682-21.278-.12-1.112-.283-3.884-.352-5.558-.137-3.387,1.091-4.383-.268-6.86a24.583,24.583,0,0,0-4.491-5.212Z" transform="translate(-805.366 -501.365)" fill="#c9e3f6" fill-rule="evenodd"/>
          </g>
          <g id="Grupo_1206050" data-name="Grupo 1206050" transform="translate(0.464 13.28)">
            <path id="Trazado_1248033" data-name="Trazado 1248033" d="M749.432,518.424s3.562,3.109,4.882,5.871,1.946,14.21,1.946,14.21.478,15.464.147,19.9c-3.453,3.068-9.021-.577-10.112-1.464,0-3.643.449-11.236.729-15.025.166-2.275,1.221-4.777.462-8.554-1.373-6.83-1.683-10.037-1.515-10.943C746.429,519.977,749.432,518.424,749.432,518.424Z" transform="translate(-745.929 -518.424)" fill="#c9e3f6" fill-rule="evenodd"/>
          </g>
          <g id="Grupo_1206051" data-name="Grupo 1206051" transform="translate(9.943 11.601)">
            <path id="Trazado_1248034" data-name="Trazado 1248034" d="M805.366,508.065a33.866,33.866,0,0,1,2.819,5.192,89.65,89.65,0,0,1,1.348,9.01s.424-3.026.54-3.949,0-3.872,0-3.872l-.81-.352.528-1.953s-1.093-1.674-2.045-2.884-1.2-1.223-1.378-1.333S805.366,508.065,805.366,508.065Z" transform="translate(-805.366 -507.896)" fill="#b7d9f2" fill-rule="evenodd"/>
          </g>
          <g id="Grupo_1206052" data-name="Grupo 1206052" transform="translate(9.364 5.192)">
            <path id="Trazado_1248035" data-name="Trazado 1248035" d="M806.575,467.715a9.929,9.929,0,0,1-.151,3.031,8.457,8.457,0,0,1-.749,1.984l-3.942-1.831Z" transform="translate(-801.733 -467.715)" fill="#101e3b" fill-rule="evenodd"/>
          </g>
          <g id="Grupo_1206053" data-name="Grupo 1206053" transform="translate(5.009 5.983)">
            <path id="Trazado_1248036" data-name="Trazado 1248036" d="M779.244,476.99a13.84,13.84,0,0,0,.365,3.421,6.626,6.626,0,0,1,.467,3.554,19.642,19.642,0,0,1-2.621-2.331c-.832-.792-3.03-2.366-3.03-2.366l.4-6.593Z" transform="translate(-774.426 -472.674)" fill="#f09172" fill-rule="evenodd"/>
          </g>
          <g id="Grupo_1206054" data-name="Grupo 1206054" transform="translate(5.689 1.684)">
            <path id="Trazado_1248037" data-name="Trazado 1248037" d="M780.552,446.372a3.961,3.961,0,0,1,6.071,2.4c1.139,3.806-2.474,8.315-4.24,7.434a7.6,7.6,0,0,1-3.54-4.176A5.928,5.928,0,0,1,780.552,446.372Z" transform="translate(-778.69 -445.718)" fill="#f4ae92" fill-rule="evenodd"/>
          </g>
          <g id="Grupo_1206055" data-name="Grupo 1206055" transform="translate(3.095)">
            <path id="Trazado_1248038" data-name="Trazado 1248038" d="M763.822,438.363a8.058,8.058,0,0,1,3.215-2.919c2.133-.76,3.535.051,5.417,1.959a5.422,5.422,0,0,1,1.515,4.5s-3.149,2.024-5,2.315a4.952,4.952,0,0,1-2.678-.8c-.127.931-.26,1.988-.284,2.493a14.316,14.316,0,0,0,.206,2.5s-2.719-.655-3.466-1.879S762.63,440.325,763.822,438.363Z" transform="translate(-762.425 -435.16)" fill="#101e3b" fill-rule="evenodd"/>
          </g>
          <g id="Grupo_1206056" data-name="Grupo 1206056" transform="translate(11.404 20.073)">
            <path id="Trazado_1248039" data-name="Trazado 1248039" d="M824.944,561.259l-.288-.164,0,.006a.372.372,0,0,0-.418-.034l-4.521,2.61a5.279,5.279,0,0,0-2.069,2.187l-3.081,6.089a.326.326,0,0,0,.453.43l4.093-2.364a7.621,7.621,0,0,0,2.986-3.155l2.535-5.011.177.2Z" transform="translate(-814.526 -561.018)" fill="#8eb6e1" fill-rule="evenodd"/>
          </g>
          <g id="Grupo_1206057" data-name="Grupo 1206057" transform="translate(11.756 20.263)">
            <path id="Trazado_1248040" data-name="Trazado 1248040" d="M817.221,573.579l4.093-2.363a7.6,7.6,0,0,0,2.986-3.155l2.676-5.29a.385.385,0,0,0-.536-.507l-4.522,2.61a5.282,5.282,0,0,0-2.069,2.188l-3.081,6.087A.326.326,0,0,0,817.221,573.579Z" transform="translate(-816.732 -562.21)" fill="#789fd3" fill-rule="evenodd"/>
          </g>
          <g id="Grupo_1206058" data-name="Grupo 1206058" transform="translate(18.417 23.599)">
            <path id="Trazado_1248041" data-name="Trazado 1248041" d="M861.183,583.158c.623.114.419,1.715-.361,2.464s-2.051,1.123-2.295.2A2.43,2.43,0,0,1,861.183,583.158Z" transform="translate(-858.493 -583.122)" fill="#f4ae92" fill-rule="evenodd"/>
          </g>
          <g id="Grupo_1206059" data-name="Grupo 1206059" transform="translate(17.599 20.475)">
            <path id="Trazado_1248042" data-name="Trazado 1248042" d="M853.368,566.631l2.543-1.468.88-1.628L854.25,565Z" transform="translate(-853.368 -563.535)" fill="#6e96ce" fill-rule="evenodd"/>
          </g>
          <g id="Grupo_1206060" data-name="Grupo 1206060" transform="translate(17.667 20.024)">
            <path id="Trazado_1248043" data-name="Trazado 1248043" d="M857.148,561.161l-.821-.451-2.535,1.455.815.464Z" transform="translate(-853.792 -560.71)" fill="#8eb6e1" fill-rule="evenodd"/>
          </g>
          <g id="Grupo_1206061" data-name="Grupo 1206061" transform="translate(17.34 21.479)">
            <path id="Trazado_1248044" data-name="Trazado 1248044" d="M852.067,569.831l.815.464L852,571.923l-.26-.228.642-1.253-.482-.293Z" transform="translate(-851.74 -569.831)" fill="#80a8d8" fill-rule="evenodd"/>
          </g>
          <g id="Grupo_1206062" data-name="Grupo 1206062" transform="translate(2.577 34.964)">
            <path id="Trazado_1248045" data-name="Trazado 1248045" d="M763.412,654.383l.9,1.284-4.536,3.851-.6-1.465Z" transform="translate(-759.18 -654.383)" fill="#b7d9f2" fill-rule="evenodd"/>
          </g>
          <g id="Grupo_1206063" data-name="Grupo 1206063" transform="translate(3.372 12.575)">
            <path id="Trazado_1248046" data-name="Trazado 1248046" d="M765.8,514.006l-1.636,1.063a12.2,12.2,0,0,1,2.046,2.65c.51,1.128,1.171,3.075,1.171,3.075l1.743.36-.689,1.329,2.8,7.443s.8-6.437-1.077-10.344A14.725,14.725,0,0,0,765.8,514.006Z" transform="translate(-764.166 -514.006)" fill="#b7d9f2" fill-rule="evenodd"/>
          </g>
          <g id="Grupo_1206064" data-name="Grupo 1206064" transform="translate(11.191 11.424)">
            <path id="Trazado_1248047" data-name="Trazado 1248047" d="M814.894,509.106a3.866,3.866,0,0,0-1.393-2.316c-.1.089-.2.173-.31.253a3.462,3.462,0,0,1,1.317,2.139c.362,1.853,1.267,6.524,1.267,6.524l.385-.075S815.256,510.961,814.894,509.106Z" transform="translate(-813.191 -506.79)" fill="#789fd3" fill-rule="evenodd"/>
          </g>
          <g id="Grupo_1206065" data-name="Grupo 1206065" transform="translate(13.086 19.714)">
            <path id="Trazado_1248048" data-name="Trazado 1248048" d="M825.068,560.041c0,.7.4,1.274.882,1.274s.88-.571.88-1.274-.393-1.273-.88-1.273S825.068,559.338,825.068,560.041Z" transform="translate(-825.068 -558.768)" fill="#fff" fill-rule="evenodd"/>
          </g>
          <g id="Grupo_1206066" data-name="Grupo 1206066" transform="translate(13.437 19.963)">
            <path id="Trazado_1248049" data-name="Trazado 1248049" d="M827.271,561.372c0,.576.324,1.044.723,1.044s.723-.468.723-1.044-.324-1.044-.723-1.044S827.271,560.8,827.271,561.372Z" transform="translate(-827.271 -560.328)" fill="#789fd3" fill-rule="evenodd"/>
          </g>
          <g id="Grupo_1206067" data-name="Grupo 1206067" transform="translate(13.936 19.942)">
            <path id="Trazado_1248050" data-name="Trazado 1248050" d="M831.176,560.445a.6.6,0,0,0-.68-.214c-.277.111.127,2.052.127,2.052s.388.083.689-.468A1.31,1.31,0,0,0,831.176,560.445Z" transform="translate(-830.399 -560.193)" fill="#789fd3" fill-rule="evenodd"/>
          </g>
          <g id="Grupo_1206068" data-name="Grupo 1206068" transform="translate(13.794 20.092)">
            <path id="Trazado_1248051" data-name="Trazado 1248051" d="M829.508,562.053c0,.5.283.915.633.915s.634-.41.634-.915-.283-.915-.634-.915S829.508,561.547,829.508,562.053Z" transform="translate(-829.508 -561.138)" fill="#fff" fill-rule="evenodd"/>
          </g>
          <g id="Grupo_1206069" data-name="Grupo 1206069" transform="translate(4.568 12.504)">
            <path id="Trazado_1248052" data-name="Trazado 1248052" d="M774.921,522.942a31.748,31.748,0,0,0-1.953-4.814c-1.112-2.25-1-3.448-.715-4.057a1.864,1.864,0,0,1,.212-.331,2.027,2.027,0,0,1-.356-.182,2.1,2.1,0,0,0-.205.335c-.479,1-.239,2.484.712,4.41a30.976,30.976,0,0,1,1.911,4.714l.075-.03q.176-.038.008.029A.958.958,0,0,1,774.921,522.942Z" transform="translate(-771.665 -513.557)" fill="#789fd3" fill-rule="evenodd"/>
          </g>
          <g id="Grupo_1206070" data-name="Grupo 1206070" transform="translate(5.952 22.722)">
            <path id="Trazado_1248053" data-name="Trazado 1248053" d="M780.714,579.957l3.369-1.5-.375-.836-3.368,1.5Z" transform="translate(-780.34 -577.623)" fill="#b7d9f2" fill-rule="evenodd"/>
          </g>
          <g id="Grupo_1206071" data-name="Grupo 1206071" transform="translate(5.88 21.509)">
            <path id="Trazado_1248054" data-name="Trazado 1248054" d="M782.315,578.559l.4-.31a14.308,14.308,0,0,1-2.076-4.29,4.574,4.574,0,0,1-.183-2.165,1.449,1.449,0,0,1,1.075-1.177c.829-.242,1.893-.166,2.779,2.535a8.311,8.311,0,0,1,.394,4.515l.489.145a8.692,8.692,0,0,0-.4-4.819c-.776-2.365-1.89-3.3-3.406-2.867a1.966,1.966,0,0,0-1.43,1.558,5.047,5.047,0,0,0,.19,2.415A14.534,14.534,0,0,0,782.315,578.559Z" transform="translate(-779.888 -570.022)" fill="#fff" fill-rule="evenodd"/>
          </g>
          <g id="Grupo_1206072" data-name="Grupo 1206072" transform="translate(10.485 28.767)">
            <path id="Trazado_1248055" data-name="Trazado 1248055" d="M808.761,616.007a.46.46,0,1,0,.437-.482A.459.459,0,0,0,808.761,616.007Z" transform="translate(-808.761 -615.524)" fill="#93928c" fill-rule="evenodd"/>
          </g>
          <g id="Grupo_1206073" data-name="Grupo 1206073" transform="translate(8.048 29.431)">
            <path id="Trazado_1248056" data-name="Trazado 1248056" d="M793.482,620.171a.46.46,0,1,0,.437-.482A.46.46,0,0,0,793.482,620.171Z" transform="translate(-793.481 -619.688)" fill="#93928c" fill-rule="evenodd"/>
          </g>
          <g id="Grupo_1206074" data-name="Grupo 1206074" transform="translate(10.372 27.752)">
            <path id="Trazado_1248057" data-name="Trazado 1248057" d="M810.062,610.256a13.008,13.008,0,0,1,2.561-.932c1.142-.233,2.4-.454,1.368,1.231s-3.811,2.606-4.413,2.636a13.21,13.21,0,0,0-1.524.22Z" transform="translate(-808.054 -609.164)" fill="#f4ae92" fill-rule="evenodd"/>
          </g>
          <g id="Grupo_1206075" data-name="Grupo 1206075" transform="translate(0 14.479)">
            <path id="Trazado_1248058" data-name="Trazado 1248058" d="M755.65,539.215s-6.555-1.676-7-1.7c-.3-2.517-.258-5.231-.509-7.462a10.666,10.666,0,0,0-.108-1.318c-.264-1.421-1.869-3.078-2.629-2.753a3.679,3.679,0,0,0-2.366,3.517,42.306,42.306,0,0,0,1.545,10.784c.6,1.736,2.988,2.8,4.427,3.023a21.727,21.727,0,0,0,5.811.437C756.279,542.849,755.65,539.216,755.65,539.215Z" transform="translate(-743.022 -525.942)" fill="#b7d9f2" fill-rule="evenodd"/>
          </g>
        </g>
      </g>
      <g id="Grupo_1206078" data-name="Grupo 1206078" transform="translate(192.321 88.491)">
        <path id="Trazado_1248059" data-name="Trazado 1248059" d="M1476.671,786.868,1450.214,771.5a1.858,1.858,0,0,1-1.075-1.53v-2c.007-.361.147-.211.419-.062a1.03,1.03,0,0,0,1.1,0l23.219-8.932a6.91,6.91,0,0,1,6.216-.256l17.781,10.417c.257.149.48-.08.657-.308s.327-.487.4-.273c.046.138.016,1.967.019,2.109a2.531,2.531,0,0,1-1.521,2.061l-14.543,13.88A6.909,6.909,0,0,1,1476.671,786.868Z" transform="translate(-1449.139 -758.104)" fill="#80a8d8" fill-rule="evenodd"/>
      </g>
      <g id="Grupo_1206079" data-name="Grupo 1206079" transform="translate(192.321 86.529)">
        <path id="Trazado_1248060" data-name="Trazado 1248060" d="M1476.668,774.567,1450.212,759.2c-1.593-.92-1.394-2.527.446-3.589l23.219-8.931a6.907,6.907,0,0,1,6.216-.257l17.781,10.417c1.593.92,1.393,2.527-.446,3.589l-14.543,13.879A6.907,6.907,0,0,1,1476.668,774.567Z" transform="translate(-1449.136 -745.803)" fill="#c9e3f6" fill-rule="evenodd"/>
      </g>
      <g id="Grupo_1206080" data-name="Grupo 1206080" transform="translate(205.364 86.529)">
        <path id="Trazado_1248061" data-name="Trazado 1248061" d="M1567.688,758.4a1.847,1.847,0,0,0-1.075-1.559,1.846,1.846,0,0,1,1.075,1.559Zm-1.075-1.559-17.781-10.417a5.5,5.5,0,0,0-2.7-.621,7.226,7.226,0,0,0-3.516.879l-11.7,4.5h0l11.7-4.5a7.231,7.231,0,0,1,3.516-.878,5.5,5.5,0,0,1,2.7.621Z" transform="translate(-1530.918 -745.803)" fill="#dcecf9" fill-rule="evenodd"/>
      </g>
      <g id="Grupo_1206081" data-name="Grupo 1206081" transform="translate(205.364 86.529)">
        <path id="Trazado_1248062" data-name="Trazado 1248062" d="M1559,767.267a4.472,4.472,0,0,1-1.266-.469l-26.456-15.366a2.874,2.874,0,0,1-.363-.251l11.7-4.5a7.224,7.224,0,0,1,3.516-.879,5.5,5.5,0,0,1,2.7.621l17.781,10.417a1.847,1.847,0,0,1,1.075,1.559,2.437,2.437,0,0,1-1.334,1.916c-.06.039-.123.077-.188.114h0Z" transform="translate(-1530.92 -745.804)" fill="#b7d9f2" fill-rule="evenodd"/>
      </g>
      <g id="Grupo_1206082" data-name="Grupo 1206082" transform="translate(192.321 98.182)">
        <path id="Trazado_1248063" data-name="Trazado 1248063" d="M1497.432,821.51l-14.543,13.879a6.906,6.906,0,0,1-6.216.258l-26.456-15.365a1.905,1.905,0,0,1-1.063-1.412,1.78,1.78,0,0,0,1.063,1.746l26.456,15.365a6.906,6.906,0,0,0,6.216-.258l14.543-13.879c1.077-.621,1.586-1.429,1.509-2.177A2.713,2.713,0,0,1,1497.432,821.51Z" transform="translate(-1449.141 -818.869)" fill="#fff" fill-rule="evenodd"/>
      </g>
      <g id="Grupo_1206083" data-name="Grupo 1206083" transform="translate(182.302 1.003)">
        <path id="Trazado_1248064" data-name="Trazado 1248064" d="M1464.915,324.7l-71.936-41.566c-3.677-2.123-6.658-7.82-6.658-12.723V215.395c0-4.9,2.981-7.157,6.658-5.034l71.936,41.566c3.677,2.124,6.659,7.82,6.659,12.723v55.017C1471.573,324.57,1468.593,326.824,1464.915,324.7Z" transform="translate(-1386.32 -209.562)" fill="#a0c6e9" fill-rule="evenodd"/>
      </g>
      <g id="Grupo_1206084" data-name="Grupo 1206084" transform="translate(186.041 5.294)">
        <path id="Trazado_1248065" data-name="Trazado 1248065" d="M1485.479,343.485l-70.923-40.974a11.323,11.323,0,0,1-4.79-9.485V237.648a1.181,1.181,0,0,1,1.778-1.017l.209.122,71,41.026c3.523,2.031,4.79,5.639,4.79,9.485v55.2a1.275,1.275,0,0,1-1.906,1.106C1485.566,343.536,1485.513,343.506,1485.479,343.485Z" transform="translate(-1409.765 -236.468)" fill="#80a8d8" fill-rule="evenodd"/>
      </g>
      <g id="Grupo_1206085" data-name="Grupo 1206085" transform="translate(186.041 5.294)">
        <path id="Trazado_1248066" data-name="Trazado 1248066" d="M1486.791,342.468a.529.529,0,0,1-.529.527.519.519,0,0,1-.259-.071l-71.074-41.061a10.552,10.552,0,0,1-4.416-8.838V237.648a.435.435,0,0,1,.435-.432.428.428,0,0,1,.217.061l71.209,41.15c3.651,2.1,4.417,5.968,4.417,8.838v55.2Zm-4.042-64.688-71-41.026-.209-.122a1.181,1.181,0,0,0-1.778,1.017v55.378a11.322,11.322,0,0,0,4.79,9.485l70.923,40.974.156.089a1.275,1.275,0,0,0,1.906-1.106v-55.2C1487.541,283.419,1486.273,279.811,1482.75,277.78Z" transform="translate(-1409.765 -236.468)" fill="#789fd3" fill-rule="evenodd"/>
      </g>
      <g id="Grupo_1206086" data-name="Grupo 1206086" transform="translate(184.814)">
        <path id="Trazado_1248067" data-name="Trazado 1248067" d="M1480.04,245.641,1408.1,204.075a4.5,4.5,0,0,0-3.9-.572c-.139.054-2,1.04-2.127,1.112l-.01.006a4.354,4.354,0,0,1,4.145.456l71.936,41.566c3.677,2.124,6.659,7.82,6.659,12.724v55.017c0,3.06-1.162,5.087-2.928,5.664a1.11,1.11,0,0,0,.583-.2c.084-.048,2.1-1.185,2.18-1.241,1.265-.886,2.052-2.706,2.052-5.227V258.364C1486.7,253.46,1483.718,247.764,1480.04,245.641Z" transform="translate(-1402.071 -203.276)" fill="#80a8d8" fill-rule="evenodd"/>
      </g>
      <g id="Grupo_1206087" data-name="Grupo 1206087" transform="translate(185.269 0.85)">
        <path id="Trazado_1248068" data-name="Trazado 1248068" d="M1480.87,250.963,1408.935,209.4a4.417,4.417,0,0,0-4.011-.512,4.917,4.917,0,0,1,3.212.752l71.936,41.566c3.678,2.124,6.659,7.82,6.659,12.724v55.016c0,2.892-1.042,4.852-2.649,5.547,2.055-.326,3.447-2.437,3.447-5.787V263.686C1487.529,258.782,1484.548,253.086,1480.87,250.963Z" transform="translate(-1404.924 -208.605)" fill="#fff" fill-rule="evenodd"/>
      </g>
      <g id="Grupo_1206088" data-name="Grupo 1206088" transform="translate(202.895 64.264)">
        <path id="Trazado_1248069" data-name="Trazado 1248069" d="M1536.258,618.4l-20.822-12.2v1.962l20.822,12.2V618.4Zm-15.271-5.006v1.292l-5.551-3.269v-1.292l5.551,3.269Zm.923,1.826v-1.293l10.882,6.279V621.5l-10.882-6.279Zm21.461,12.373,6.2,3.563v-1.292l-6.2-3.563v1.292Zm-9.656-5.56,3.881,2.226v-1.292l-3.881-2.226v1.292Zm4.806,2.759,3.927,2.267v-1.292l-3.927-2.268v1.293Zm11.978,6.9,3.662,2.1V632.5l-3.662-2.1v1.293Zm4.587,2.636,1.527.882v-1.292l-1.527-.882Z" transform="translate(-1515.435 -606.202)" fill="#fff" fill-rule="evenodd"/>
      </g>
      <g id="Grupo_1206100" data-name="Grupo 1206100" transform="translate(64.671 5.801)">
        <g id="Grupo_1206089" data-name="Grupo 1206089" transform="translate(5.05 32.738)">
          <path id="Trazado_1248070" data-name="Trazado 1248070" d="M680.447,448.776l10.479,6.021-3.7-9.885Z" transform="translate(-680.447 -444.912)" fill="#c9e3f6" fill-rule="evenodd"/>
        </g>
        <g id="Grupo_1206090" data-name="Grupo 1206090" transform="translate(3.769 36.865)">
          <path id="Trazado_1248071" data-name="Trazado 1248071" d="M684.174,476.546l-3.446-1.352-8.314-4.406,2.825.623Z" transform="translate(-672.414 -470.788)" fill="#a0c6e9" fill-rule="evenodd"/>
        </g>
        <g id="Grupo_1206091" data-name="Grupo 1206091" transform="translate(1.719 0.999)">
          <path id="Trazado_1248072" data-name="Trazado 1248072" d="M659.624,285.175l-.063-22.329L688.9,245.908l.064,22.329-7.536,4.35-21.8,12.588ZM666.3,268.35h0a3.16,3.16,0,0,0-1.433,2.483c0,.912.648,1.282,1.442.823a3.161,3.161,0,0,0,1.434-2.484c0-.912-.65-1.281-1.443-.822Zm7.953-4.592h0a3.16,3.16,0,0,0-1.433,2.483c0,.912.648,1.282,1.442.824a3.163,3.163,0,0,0,1.434-2.484c0-.912-.649-1.281-1.443-.823Zm7.963-1.286h0a3.16,3.16,0,0,0,1.433-2.483c0-.912-.649-1.282-1.442-.824a3.162,3.162,0,0,0-1.434,2.484C680.778,262.563,681.424,262.932,682.218,262.473Z" transform="translate(-659.56 -245.908)" fill="#c9e3f6" fill-rule="evenodd"/>
        </g>
        <g id="Grupo_1206092" data-name="Grupo 1206092" transform="translate(22.934 14.06)">
          <path id="Trazado_1248073" data-name="Trazado 1248073" d="M794.01,328c.793-.458,1.439-.089,1.442.824a3.159,3.159,0,0,1-1.433,2.483c-.794.458-1.441.09-1.443-.823A3.161,3.161,0,0,1,794.01,328Z" transform="translate(-792.576 -327.804)" fill="#fffaec" fill-rule="evenodd"/>
        </g>
        <g id="Grupo_1206093" data-name="Grupo 1206093" transform="translate(14.981 18.652)">
          <path id="Trazado_1248074" data-name="Trazado 1248074" d="M744.147,356.791c.795-.459,1.441-.089,1.443.823a3.163,3.163,0,0,1-1.434,2.484c-.794.458-1.44.089-1.442-.824A3.16,3.16,0,0,1,744.147,356.791Z" transform="translate(-742.714 -356.593)" fill="#fffaec" fill-rule="evenodd"/>
        </g>
        <g id="Grupo_1206094" data-name="Grupo 1206094" transform="translate(7.029 23.244)">
          <path id="Trazado_1248075" data-name="Trazado 1248075" d="M694.287,385.58c.793-.458,1.441-.09,1.443.822a3.161,3.161,0,0,1-1.434,2.484c-.794.459-1.44.089-1.442-.823A3.16,3.16,0,0,1,694.287,385.58Z" transform="translate(-692.854 -385.383)" fill="#fffaec" fill-rule="evenodd"/>
        </g>
        <g id="Grupo_1206095" data-name="Grupo 1206095">
          <path id="Trazado_1248076" data-name="Trazado 1248076" d="M679.842,240.646l-1.719-1-29.338,16.939,1.719,1Z" transform="translate(-648.785 -239.647)" fill="#a0c6e9" fill-rule="evenodd"/>
        </g>
        <g id="Grupo_1206096" data-name="Grupo 1206096" transform="translate(0 16.939)">
          <path id="Trazado_1248077" data-name="Trazado 1248077" d="M650.5,346.85l-1.719-1,.063,22.329,1.719,1Z" transform="translate(-648.785 -345.851)" fill="#a0c6e9" fill-rule="evenodd"/>
        </g>
        <g id="Grupo_1206097" data-name="Grupo 1206097" transform="translate(14.981 18.652)">
          <path id="Trazado_1248078" data-name="Trazado 1248078" d="M744.157,360.1c-.794.458-1.44.089-1.442-.824a3.16,3.16,0,0,1,1.433-2.483c.795-.459,1.441-.09,1.443.823A3.164,3.164,0,0,1,744.157,360.1Z" transform="translate(-742.715 -356.593)" fill="#fff" fill-rule="evenodd"/>
        </g>
        <g id="Grupo_1206098" data-name="Grupo 1206098" transform="translate(22.934 14.06)">
          <path id="Trazado_1248079" data-name="Trazado 1248079" d="M792.576,330.485A3.161,3.161,0,0,1,794.01,328c.793-.458,1.439-.089,1.442.824a3.159,3.159,0,0,1-1.433,2.483C793.225,331.766,792.578,331.4,792.576,330.485Z" transform="translate(-792.576 -327.804)" fill="#fff" fill-rule="evenodd"/>
        </g>
        <g id="Grupo_1206099" data-name="Grupo 1206099" transform="translate(7.028 23.244)">
          <path id="Trazado_1248080" data-name="Trazado 1248080" d="M694.295,388.886c-.794.459-1.44.089-1.442-.823a3.16,3.16,0,0,1,1.433-2.483c.793-.458,1.441-.09,1.443.822A3.16,3.16,0,0,1,694.295,388.886Z" transform="translate(-692.853 -385.383)" fill="#fff" fill-rule="evenodd"/>
        </g>
      </g>
      <g id="Grupo_1206102" data-name="Grupo 1206102" transform="translate(193.554 27.51)">
        <g id="Grupo_1206101" data-name="Grupo 1206101">
          <path id="Trazado_1248081" data-name="Trazado 1248081" d="M1457.179,377.646a.6.6,0,1,1,.585-1.052l4.081,2.262,1.709-2.623a.6.6,0,0,1,1.1.25l.67,5.066,1.834-5.377a.6.6,0,0,1,1.169.127l1.157,7.233.812-1.491a.6.6,0,0,1,1.1.111l1.1,3.582,4.106.158a.6.6,0,0,1,.485.277l2.133,3.042,1.258-3.4a.6.6,0,0,1,1.14.019l2.5,7.59,3.138-2.493a.6.6,0,0,1,.788.033l2.828,2.662,2.161-3.276a.6.6,0,0,1,1.1.274h0l.781,8.15,2.061-9.549a.6.6,0,0,1,1.191.074l1,8.154,2.182-.385a.6.6,0,0,1,.652.343l1.737,3.353,4.079.205a.6.6,0,0,1,.518.349h0l2.984,6.455,3,.244a.6.6,0,0,1,.284.1l5.469,3.032a.6.6,0,1,1-.585,1.052l-5.39-2.988-3.221-.262h0a.6.6,0,0,1-.5-.348l-2.979-6.445-4.049-.2a.6.6,0,0,1-.519-.326l-1.7-3.29-2.347.414-.056.009a.6.6,0,0,1-.672-.526l-.645-5.258-2.125,9.848h0a.6.6,0,0,1-1.187-.07l-.99-10.317-1.592,2.415a.6.6,0,0,1-.939.145l-2.969-2.794-3.375,2.682a.6.6,0,0,1-.979-.258l-2.231-6.772-1.057,2.86h0a.59.59,0,0,1-.22.286.6.6,0,0,1-.837-.148l-2.635-3.758-4.22-.163a.6.6,0,0,1-.57-.425l-.8-2.622-.972,1.784a.6.6,0,0,1-1.123-.194l-1.057-6.613-1.881,5.517h0a.6.6,0,0,1-1.166-.115l-.794-6-1.128,1.731a.6.6,0,0,1-.8.2l-4.571-2.534Zm11.15-1.347-.028.259a.62.62,0,0,0,.028-.259Zm30.45,22.44-.025,0Z" transform="translate(-1456.87 -375.762)" fill="#fff" fill-rule="evenodd"/>
        </g>
      </g>
      <g id="Grupo_1206104" data-name="Grupo 1206104" transform="translate(193.554 44.583)">
        <g id="Grupo_1206103" data-name="Grupo 1206103">
          <path id="Trazado_1248082" data-name="Trazado 1248082" d="M1457.179,484.691a.6.6,0,1,1,.585-1.052l4.081,2.262,1.709-2.623a.6.6,0,0,1,1.1.25l.67,5.066,1.834-5.377a.6.6,0,0,1,1.169.127l1.157,7.233.812-1.492a.6.6,0,0,1,1.1.111l1.1,3.582,4.106.158a.6.6,0,0,1,.485.277l2.133,3.042,1.258-3.4a.6.6,0,0,1,1.14.019l2.5,7.59,3.138-2.493a.6.6,0,0,1,.788.033l2.828,2.662,2.161-3.276a.6.6,0,0,1,1.1.274h0l.781,8.15,2.061-9.549a.6.6,0,0,1,1.191.074l1,8.154,2.182-.385a.6.6,0,0,1,.652.343l1.737,3.352,4.079.205a.6.6,0,0,1,.518.349h0l2.984,6.455,3,.244a.6.6,0,0,1,.284.1l5.469,3.032a.6.6,0,1,1-.585,1.052l-5.39-2.988-3.221-.262h0a.6.6,0,0,1-.5-.348l-2.979-6.445-4.049-.2a.6.6,0,0,1-.519-.326l-1.7-3.29-2.347.414-.056.009a.6.6,0,0,1-.672-.526l-.645-5.258-2.125,9.848h0a.6.6,0,0,1-1.187-.07l-.99-10.316-1.592,2.415a.6.6,0,0,1-.939.145l-2.969-2.794-3.375,2.682a.6.6,0,0,1-.979-.258l-2.231-6.772-1.057,2.86h0a.59.59,0,0,1-.22.286.6.6,0,0,1-.837-.149l-2.635-3.758-4.22-.162a.6.6,0,0,1-.57-.425l-.8-2.622-.972,1.784a.6.6,0,0,1-1.123-.194l-1.057-6.613-1.881,5.517h0a.6.6,0,0,1-1.166-.115l-.794-6-1.128,1.73a.6.6,0,0,1-.8.2l-4.571-2.534Zm11.15-1.347-.028.259a.621.621,0,0,0,.028-.259Zm30.45,22.44-.025,0Z" transform="translate(-1456.87 -482.807)" fill="#fff" fill-rule="evenodd"/>
        </g>
      </g>
      <g id="Grupo_1206109" data-name="Grupo 1206109" transform="translate(166.96 4.58)">
        <g id="Grupo_1206105" data-name="Grupo 1206105" transform="translate(2.513)">
          <path id="Trazado_1248083" data-name="Trazado 1248083" d="M1306.544,234.123l-.521-.592,2.189-1.151.074-.039.147-.077.007.007c4.078-1.911,8.525,6.57,9.017,7.54l.9-.475.147-.077.049-.027h0c1.831-.907,5.724-1.668,9.082,5.494,2.545,5.427,1.437,8.662-.38,10.534-.118.121-.238.238-.361.348a8.208,8.208,0,0,1-1.718,1.17l0,0-3.036,1.562-.22-.475c-1.964.6-4.424,1.657-4.424,1.657s-3.6-5.7-5.566-8.393a45.033,45.033,0,0,1-3.833-6.379q-.185-.379-.36-.765C1306.173,240.549,1305.138,236.706,1306.544,234.123Z" transform="translate(-1305.881 -231.991)" fill="#a0c6e9" fill-rule="evenodd"/>
        </g>
        <g id="Grupo_1206106" data-name="Grupo 1206106" transform="translate(0 1.301)">
          <path id="Trazado_1248084" data-name="Trazado 1248084" d="M1297.472,245.149l2.136,14.58,1.338-2.4,1.582.91,1.465-9.325,2.136,14.581,1.337-2.4,4.041,2.333c1.817-1.872,2.925-5.106.381-10.533-4.569-9.746-10.136-4.821-10.136-4.821s-5.567-11.353-10.136-6.883c-2.542,2.487-1.438,7,.376,10.964l4.015,2.317Z" transform="translate(-1290.125 -240.149)" fill="#c9e3f6" fill-rule="evenodd"/>
        </g>
        <g id="Grupo_1206107" data-name="Grupo 1206107" transform="translate(2.227 9.117)">
          <path id="Trazado_1248085" data-name="Trazado 1248085" d="M1317.688,306.136l-1.937-13.219-1.141,7.265-1.676-.968-1.768,3.158-1.937-13.219-1.141,7.265-4-2.31a45.085,45.085,0,0,0,3.832,6.38c1.965,2.692,5.567,8.393,5.567,8.393a42.668,42.668,0,0,1,5.567-1.965,8.854,8.854,0,0,0,3.828-1.95l-3.436-1.984Z" transform="translate(-1304.089 -289.152)" fill="#c9e3f6" fill-rule="evenodd"/>
        </g>
        <g id="Grupo_1206108" data-name="Grupo 1206108" transform="translate(1.867 6.301)">
          <path id="Trazado_1248086" data-name="Trazado 1248086" d="M1317.307,287.445l-1.337,2.4-2.136-14.581-1.465,9.325-1.582-.91-1.338,2.4-2.136-14.58-1.465,9.324-4.014-2.318c.118.258.237.514.36.766l4,2.309,1.141-7.265,1.937,13.22,1.767-3.158,1.676.968,1.141-7.265,1.937,13.219,1.76-3.156,3.436,1.984c.123-.11.243-.227.361-.348Z" transform="translate(-1301.834 -271.499)" fill="#fff" fill-rule="evenodd"/>
        </g>
      </g>
      <g id="Grupo_1206123" data-name="Grupo 1206123" transform="translate(150.807 63.916)">
        <g id="Grupo_1206110" data-name="Grupo 1206110" transform="translate(16.012 79.577)">
          <path id="Trazado_1248087" data-name="Trazado 1248087" d="M1290.875,1102.96l-.891,3.118s-1.67,3.042,0,4.044,6.457-.631,6.457-.631,5.863-1.485,4.417-4.527c0,0-.943-1.484-3.459-.742s-3.518-.966-3.518-.966Z" transform="translate(-1289.242 -1102.96)" fill="#101e3b" fill-rule="evenodd"/>
        </g>
        <g id="Grupo_1206111" data-name="Grupo 1206111" transform="translate(10.346 40.614)">
          <path id="Trazado_1248088" data-name="Trazado 1248088" d="M1269.7,883.972c-1.54,3.394-3.593,11.494-4.377,14.522l-.009.062c-.036.131-.058.228-.085.321-.107.405-.174.668-.2.756-1.2,3.612-4.9,1.113-4.9,1.113-.815-9.2,4.23-18.7,4.23-18.7l-1.345-4.633-1.176-4.051v6.345c0,3.433-1.915,12.032-3.126,17.113-.329,1.4-.606,2.525-.779,3.208-.111.463-.178.72-.178.72l-3.732-.6c-.053-.254-.1-.521-.138-.8-.931-6.787,2.458-21.834,2.458-21.834l-1.781-6.978a15.809,15.809,0,0,1,1.412-11.873l12.838,8.6.891.6S1271.558,879.888,1269.7,883.972Z" transform="translate(-1253.72 -858.665)" fill="#005098" fill-rule="evenodd"/>
        </g>
        <g id="Grupo_1206112" data-name="Grupo 1206112" transform="translate(9.788 80.439)">
          <path id="Trazado_1248089" data-name="Trazado 1248089" d="M1251.579,1117.376a1.016,1.016,0,0,1-1.262-1.077c-.037-1.336-.632-7.348,1.558-7.83s3.117.817,3.377,2.412.667,5.344.667,5.344a.825.825,0,0,1-.891.816C1254.14,1117.042,1251.579,1117.376,1251.579,1117.376Z" transform="translate(-1250.216 -1108.367)" fill="#101e3b" fill-rule="evenodd"/>
        </g>
        <g id="Grupo_1206113" data-name="Grupo 1206113" transform="translate(20.648 12.115)">
          <path id="Trazado_1248090" data-name="Trazado 1248090" d="M1318.31,690.518l1.633-3.636s-.965-2.932.668-4.675,5.121-2.226,5.121-2.226,1.781,2.412,1.67,4.007-.78,5.418-1.707,5.715-1.141.381-1.41,1.188a12.715,12.715,0,0,0-.106,3.087Z" transform="translate(-1318.31 -679.981)" fill="#f4ae92" fill-rule="evenodd"/>
        </g>
        <g id="Grupo_1206114" data-name="Grupo 1206114" transform="translate(38.331 37.405)">
          <path id="Trazado_1248091" data-name="Trazado 1248091" d="M1429.18,841.219l2.1-.724a4.161,4.161,0,0,0,1.224-.816,1.561,1.561,0,0,1,1.336-.835,3.876,3.876,0,0,0,1.6-.241c.3-.167.946.056.445.594l1.948-.185.743.167.241.2c.2.244.091.481-.271.5h-.563l-1.151.185.093.224,1-.094.495.117.4.311c.244.326.115.649-.213.525l-.436-.21h-1.113l-.111.278h.99l.55.278.185.316c.142.3-.032.568-.311.38l-.431-.307-1-.036-.372.371.05.069.663.215.327.419c.223.367-.056.694-.39.427l-.333-.278a9.49,9.49,0,0,1-3.21,0c-.78-.353-3.284.167-3.377.129S1429.18,841.219,1429.18,841.219Z" transform="translate(-1429.18 -838.548)" fill="#f4ae92" fill-rule="evenodd"/>
        </g>
        <g id="Grupo_1206115" data-name="Grupo 1206115" transform="translate(3.512)">
          <path id="Trazado_1248092" data-name="Trazado 1248092" d="M1210.87,613.85l.863-2.421a36.354,36.354,0,0,1,.222-4.147,5.048,5.048,0,0,1,.483-1.2c.195-.4.44-.5.659-.251l.612-.807c.266-.216.631-.278.749-.033l.447-.5c.4-.468.807-.468.687-.018l-.77,2.449,1.276-2.469c.348-.629.793-.527.635.048a31.221,31.221,0,0,0-1.076,3.45,6.409,6.409,0,0,0,0,1.142,2.4,2.4,0,0,0,.835-.918c.278-.584,1.058-1.141,1.281-.835s-.612,1.029-.668,1.42-.331,1.7-.944,2.032-2,1.078-2.181,2.25a20.32,20.32,0,0,1-.464,2.147Z" transform="translate(-1210.87 -604.021)" fill="#f4ae92" fill-rule="evenodd"/>
        </g>
        <g id="Grupo_1206116" data-name="Grupo 1206116" transform="translate(0 8.042)">
          <path id="Trazado_1248093" data-name="Trazado 1248093" d="M1206.789,668.942c-.148,0-2.672-2.613-2.672-2.613s-6.754-2.026-9.649-1.988c0,0,1.634-8.869,1.522-9.314a5.77,5.77,0,0,0-3.488-.446s-4.453,9.649-3.525,13.471c0,0,2.729,3.433,11.608,4.811l.029,4.643c.03,4.644,6.175-7.784,6.175-7.784v-.778Z" transform="translate(-1188.849 -654.441)" fill="#c9e3f6" fill-rule="evenodd"/>
        </g>
        <g id="Grupo_1206117" data-name="Grupo 1206117" transform="translate(4.187 19.926)">
          <path id="Trazado_1248094" data-name="Trazado 1248094" d="M1215.1,774.024s6.525,5.046,12.241,6.381a13.939,13.939,0,0,0,3.678.253c3.118-.148,6.8-1.073,8.878-3.013.733-4.873,1.349-7.782-1.756-20.583,0,0-1.392-6.265-.542-11.219l.031-.2a11.737,11.737,0,0,1,.511-1.935c1.842-5.045,3.1-5.52,3.1-5.52a38.458,38.458,0,0,0-7.565-5.742c-3.567-1.8-6.013-3.314-7.5-3.487s-3.215,5.637-3.561,12.119C1221.9,754.431,1219.185,759.736,1215.1,774.024Z" transform="translate(-1215.1 -728.953)" fill="#b7d9f2" fill-rule="evenodd"/>
        </g>
        <g id="Grupo_1206118" data-name="Grupo 1206118" transform="translate(19.584 20.842)">
          <path id="Trazado_1248095" data-name="Trazado 1248095" d="M1311.64,735.618a3.738,3.738,0,0,1,1.919-.917c-.6.988,4.015,3.1,4.989,3.011,0,0,.07.618.437,2.336C1314.3,737.719,1312.476,736.345,1311.64,735.618Z" transform="translate(-1311.64 -734.7)" fill="#fff" fill-rule="evenodd"/>
        </g>
        <g id="Grupo_1206119" data-name="Grupo 1206119" transform="translate(20.419 10.335)">
          <path id="Trazado_1248096" data-name="Trazado 1248096" d="M1317.9,678.948a2.424,2.424,0,0,0,1.874,1.669c1.54.316,3.046,1.242,4.325-2.209l.944-.982.816-3.025s2.115-2.764-.185-4.6-5.418-.946-7.551,1.429-.965,5.37-.613,6.368A7.212,7.212,0,0,1,1317.9,678.948Z" transform="translate(-1316.874 -668.819)" fill="#101e3b" fill-rule="evenodd"/>
        </g>
        <g id="Grupo_1206120" data-name="Grupo 1206120" transform="translate(27.257 17.834)">
          <path id="Trazado_1248097" data-name="Trazado 1248097" d="M1360.9,716.392a.557.557,0,0,0-.132-.5.359.359,0,0,0-.388,0,.823.823,0,0,0-.272.3,2.552,2.552,0,0,0-.288,1.875.706.706,0,0,0,.4.558.555.555,0,0,0,.62-.363,1.416,1.416,0,0,0,0-.819A5.2,5.2,0,0,1,1360.9,716.392Z" transform="translate(-1359.75 -715.84)" fill="#f4ae92" fill-rule="evenodd"/>
        </g>
        <g id="Grupo_1206121" data-name="Grupo 1206121" transform="translate(18.825 33.779)">
          <path id="Trazado_1248098" data-name="Trazado 1248098" d="M1308.161,853.665a10.684,10.684,0,0,0-1.281-.253c9.105-8.538,3.178-32.153,6.684-37.6l1.208,2.834-.031.2a21.488,21.488,0,0,0-.275,3.6,39.877,39.877,0,0,0,.817,7.617c1.8,7.426,2.35,11.523,2.351,14.605a37.073,37.073,0,0,1-.595,5.978C1314.957,852.593,1311.279,853.516,1308.161,853.665Z" transform="translate(-1306.88 -815.813)" fill="#b7d9f2" fill-rule="evenodd"/>
        </g>
        <g id="Grupo_1206122" data-name="Grupo 1206122" transform="translate(25.511 28.92)">
          <path id="Trazado_1248099" data-name="Trazado 1248099" d="M1348.8,790.208s.074,9.209,3.191,11.138,12.246-2.523,12.246-2.523.52-2.152-.519-3.043l-8.832.789s.391-9.469-1.262-10.981S1348.8,790.208,1348.8,790.208Z" transform="translate(-1348.8 -785.347)" fill="#c9e3f6" fill-rule="evenodd"/>
        </g>
      </g>
    </g>
  </g>
</svg>
