<svg id="Grupo_1205555" data-name="Grupo 1205555" xmlns="http://www.w3.org/2000/svg" xmlns:xlink="http://www.w3.org/1999/xlink" width="85" height="85" viewBox="0 0 85 85">
  <defs>
    <clipPath id="clip-path">
      <rect id="Rectángulo_421141" data-name="Rectángulo 421141" width="62.089" height="57.894" fill="none"/>
    </clipPath>
  </defs>
  <circle id="Elipse_11383" data-name="Elipse 11383" cx="42.5" cy="42.5" r="42.5" transform="translate(0 0)" fill="#c5cff0" opacity="0.71"/>
  <circle id="Elipse_11384" data-name="Elipse 11384" cx="35.608" cy="35.608" r="35.608" transform="translate(6.892 6.892)" fill="#fff"/>
  <g id="Grupo_1175373" data-name="Grupo 1175373" transform="translate(11.456 13.553)">
    <g id="Grupo_1175373-2" data-name="Grupo 1175373" transform="translate(0 0)" clip-path="url(#clip-path)">
      <path id="Trazado_1039109" data-name="Trazado 1039109" d="M28.992,54.516l-.042-1.863h.042c.2,0,.393,0,.588-.009l.042,1.865c-.209.005-.42.007-.63.007m-1.97-.072c-.227-.014-.451-.035-.674-.056l.179-1.856c.209.021.416.039.627.054Zm4.528-.049-.179-1.856c.211-.021.42-.044.629-.068l.219,1.852c-.223.026-.446.051-.669.072m-7.115-.269c-.225-.037-.448-.079-.669-.125l.367-1.828c.2.042.407.081.613.114Zm9.694-.105-.358-1.83c.205-.04.411-.084.613-.128l.407,1.817c-.219.049-.441.1-.662.14m-12.242-.464c-.218-.06-.434-.125-.648-.19l.541-1.784c.2.061.4.119.606.176Zm14.771-.163-.536-1.786c.2-.06.4-.125.6-.19l.581,1.772c-.214.07-.43.139-.648.2m-17.247-.657c-.209-.081-.416-.165-.623-.249l.715-1.723c.193.081.388.158.583.234Zm19.707-.218-.708-1.724c.193-.081.386-.162.578-.248l.757,1.7c-.207.091-.416.181-.627.267m-22.082-.838c-.2-.1-.4-.205-.6-.313l.883-1.642c.184.1.369.195.555.288ZM41.482,51.4,40.6,49.761c.186-.1.369-.2.551-.3l.92,1.622c-.195.111-.393.219-.593.325m-26.711-1.01c-.191-.119-.379-.242-.567-.367l1.039-1.549c.174.116.349.23.527.344Zm28.95-.328-1.034-1.55c.174-.116.348-.235.52-.356l1.071,1.526c-.183.128-.369.256-.557.381M12.643,48.9c-.177-.139-.355-.279-.529-.423L13.3,47.035c.162.132.325.262.49.392Zm33.173-.381-1.178-1.443c.162-.132.323-.267.481-.4l1.217,1.414c-.172.147-.344.293-.52.434M10.669,47.193c-.163-.156-.325-.313-.483-.472L11.5,45.4c.149.147.3.295.451.439Zm37.083-.427-1.319-1.319c.151-.149.3-.3.442-.451l1.347,1.291c-.155.162-.313.321-.471.479M8.873,45.309c-.149-.172-.295-.344-.437-.521l1.442-1.18c.132.16.265.321.4.478ZM49.5,44.842l-1.436-1.187c.133-.162.263-.325.393-.49l1.468,1.15c-.139.177-.281.353-.425.527M7.263,43.253c-.13-.184-.256-.37-.383-.558l1.55-1.036c.118.176.235.348.358.52Zm43.8-.5-1.547-1.039c.118-.174.232-.349.346-.527l1.57,1.006c-.121.186-.242.376-.369.56m-45.2-1.7c-.112-.2-.221-.4-.328-.6l1.644-.88c.1.184.2.369.3.548Zm46.544-.53-1.642-.883c.1-.184.2-.37.291-.557l1.663.843c-.1.2-.205.4-.313.6m-47.722-1.8c-.091-.207-.181-.413-.267-.623l1.721-.713c.083.195.165.388.249.581Zm48.842-.548-1.719-.718c.079-.193.158-.386.234-.581l1.737.676c-.081.209-.165.418-.251.623M3.746,36.288c-.07-.214-.139-.43-.2-.648L5.326,35.1c.061.2.125.4.191.6Zm50.67-.56-1.782-.548c.061-.2.119-.4.176-.6l1.8.5c-.06.219-.123.435-.19.651M3.05,33.771c-.049-.219-.095-.439-.139-.658l1.828-.363c.042.207.086.414.13.618Zm52-.572-1.828-.369c.042-.205.081-.413.118-.618l1.835.323c-.039.221-.079.442-.125.664M2.606,31.2c-.028-.223-.053-.448-.074-.673l1.856-.179c.019.207.042.416.068.623Zm52.837-.583-1.856-.188c.023-.207.04-.414.056-.623l1.86.137c-.018.225-.037.451-.06.674M2.415,28.607c-.005-.225-.009-.45-.009-.676l0-.184,1.863.016v.169c0,.211,0,.42.007.629Zm51.3-.592,0-.1c0-.169,0-.349-.007-.53l1.865-.04c0,.193.005.39.005.586ZM4.348,25.968l-1.86-.147c.019-.227.039-.45.061-.673l1.854.191c-.021.209-.04.418-.056.629M53.6,25.592c-.021-.209-.044-.418-.068-.625l1.852-.221c.026.223.049.448.07.671ZM4.655,23.562,2.82,23.236c.039-.223.081-.444.126-.665l1.826.376c-.042.205-.081.411-.118.616m48.6-.37c-.039-.205-.081-.409-.126-.613l1.819-.406c.049.219.095.442.139.664ZM5.2,21.2,3.4,20.7c.061-.218.125-.434.191-.648l1.782.55c-.063.2-.123.4-.179.6m47.483-.362c-.06-.2-.123-.4-.188-.6l1.772-.578c.07.214.137.428.2.644ZM5.97,18.9l-1.737-.681c.083-.209.169-.416.255-.623l1.717.725c-.081.191-.16.385-.235.579m45.9-.351c-.079-.2-.162-.39-.246-.583l1.707-.746c.091.205.179.414.265.622ZM6.963,16.7,5.3,15.851c.1-.2.207-.4.314-.6l1.638.89c-.1.183-.2.369-.293.555m43.88-.342c-.1-.184-.2-.369-.3-.551l1.624-.917c.111.195.219.393.325.6ZM8.171,14.6,6.6,13.592c.123-.19.248-.378.374-.565l1.542,1.05c-.118.172-.232.346-.344.522M49.6,14.274c-.116-.176-.235-.351-.356-.523l1.529-1.069c.128.186.255.37.379.558ZM9.577,12.627,8.111,11.475c.14-.179.281-.353.425-.527l1.436,1.189c-.133.163-.265.325-.4.49m38.584-.307c-.132-.163-.267-.323-.4-.485l1.417-1.21q.219.255.432.516ZM11.168,10.8,9.825,9.508q.232-.242.474-.479l1.31,1.324c-.149.147-.3.3-.441.448m35.371-.284c-.148-.149-.3-.295-.45-.441l1.294-1.343c.162.156.323.313.481.474ZM12.931,9.138l-1.21-1.419c.17-.146.342-.29.518-.432l1.176,1.447c-.163.132-.325.267-.485.4m31.821-.255c-.162-.133-.325-.265-.492-.4l1.154-1.466c.177.139.351.281.525.425ZM14.85,7.65,13.781,6.123c.184-.128.372-.255.56-.379L15.37,7.3c-.176.116-.348.234-.52.353m27.963-.221c-.176-.118-.351-.232-.529-.346l1.008-1.57c.188.121.376.244.562.37ZM16.9,6.362l-.911-1.626c.195-.111.393-.218.593-.323l.871,1.647c-.186.1-.37.2-.553.3m23.838-.188c-.184-.1-.369-.2-.557-.29l.846-1.663c.2.1.4.207.6.313ZM19.073,5.28l-.746-1.708q.308-.134.622-.263l.708,1.724c-.2.081-.39.163-.583.248m19.485-.151c-.193-.081-.386-.16-.583-.237l.681-1.735c.209.083.416.167.623.253ZM21.343,4.416l-.578-1.773c.214-.068.43-.137.646-.2l.53,1.788c-.2.06-.4.121-.6.188M36.284,4.3c-.2-.063-.406-.121-.609-.181l.513-1.791c.216.06.43.123.643.188Zm-12.6-.523-.406-1.819c.221-.049.442-.095.665-.139L24.3,3.654c-.2.04-.409.083-.611.126M33.937,3.7c-.205-.04-.411-.081-.618-.116l.32-1.837c.223.039.444.081.665.125ZM26.07,3.38l-.218-1.851c.223-.026.446-.051.673-.072l.17,1.858c-.209.019-.416.04-.625.065m5.47-.04c-.209-.021-.42-.04-.63-.058l.149-1.858c.223.018.446.037.669.06Zm-3.05-.125L28.451,1.35c.179,0,.36-.005.541-.005h.13V3.21h-.13c-.169,0-.335,0-.5.005" transform="translate(1.819 1.017)" fill="#6f88da"/>
      <path id="Trazado_1039110" data-name="Trazado 1039110" d="M19.036,36.157,18.869,34.3A25.861,25.861,0,0,0,34.7,26.949l1.31,1.326a27.734,27.734,0,0,1-16.976,7.882" transform="translate(14.263 20.371)" fill="#6f88da"/>
      <path id="Trazado_1039111" data-name="Trazado 1039111" d="M44.319,26.469A25.769,25.769,0,0,0,16.337,3.119L16.086.334A28.559,28.559,0,0,1,47.1,26.218Z" transform="translate(12.16 0.163)" fill="#6f88da"/>
      <path id="Trazado_1039112" data-name="Trazado 1039112" d="M27.567,49.834a23.318,23.318,0,1,1,2.111-.095q-1.064.095-2.111.095M27.624,4.14q-1.022,0-2.051.093a22.3,22.3,0,1,0,2.051-.093" transform="translate(3.228 2.425)" fill="#d0d0d0"/>
      <path id="Trazado_1039113" data-name="Trazado 1039113" d="M40.318,26.289h-2.8A20,20,0,0,0,17.547,6.315v-2.8A22.8,22.8,0,0,1,40.318,26.289" transform="translate(13.264 2.659)" fill="#d0d0d0"/>
      <rect id="Rectángulo_421136" data-name="Rectángulo 421136" width="0.932" height="3.294" transform="translate(30.346)" fill="#596daf"/>
      <rect id="Rectángulo_421137" data-name="Rectángulo 421137" width="0.932" height="3.294" transform="translate(30.346 54.6)" fill="#596daf"/>
      <rect id="Rectángulo_421138" data-name="Rectángulo 421138" width="12.614" height="0.932" transform="translate(0 28.481)" fill="#6f88da"/>
      <rect id="Rectángulo_421139" data-name="Rectángulo 421139" width="12.614" height="0.932" transform="translate(49.007 28.481)" fill="#6f88da"/>
      <rect id="Rectángulo_421140" data-name="Rectángulo 421140" width="0.932" height="6.169" transform="translate(61.156 25.863)" fill="#6f88da"/>
      <path id="Trazado_1039114" data-name="Trazado 1039114" d="M11.619,35.445a30.465,30.465,0,0,1-5.027-4.323A30.278,30.278,0,0,1,2.7,25.957l2.4-1.435a27.579,27.579,0,0,0,3.533,4.69A27.459,27.459,0,0,0,13.2,33.138Z" transform="translate(2.042 18.536)" fill="#d0d0d0"/>
      <path id="Trazado_1039115" data-name="Trazado 1039115" d="M27.259,47.724l-.014-.932.367-.007.028.931Zm-.953-.005L25.93,47.7l.04-.932.37.016Zm2.283-.053-.068-.931.363-.03.083.929Zm-3.61-.028L24.6,47.6l.1-.927.367.037Zm4.936-.111-.123-.925.362-.051.135.922Zm-6.255-.047-.378-.06.158-.92.356.058Zm7.566-.174-.183-.913.36-.076.193.913Zm-8.878-.067-.37-.083.212-.908.355.081Zm10.175-.232-.237-.9.355-.1.248.9Zm-11.468-.086-.365-.105.267-.894.351.1ZM33.8,46.63l-.293-.885.348-.119.309.881Zm-14.016-.107-.356-.126.32-.876.344.125Zm15.271-.351-.348-.866.341-.139.36.859Zm-16.514-.123L18.2,45.9l.37-.855.337.144Zm17.738-.411-.4-.841.332-.162.413.838ZM17.336,45.5,17,45.33l.427-.831.323.165Zm20.13-.471-.451-.815.32-.179.464.808ZM16.16,44.879l-.328-.19.474-.8.318.183Zm22.455-.527-.5-.788.306-.2.513.778Zm-23.589-.165-.316-.211.523-.771.306.2Zm24.692-.581-.546-.755.293-.218.56.746Zm-25.784-.179-.3-.228.569-.739.29.219Zm26.839-.632-.59-.723c.095-.075.188-.151.277-.23l.608.708c-.1.083-.2.165-.295.246M12.894,42.6c-.1-.081-.2-.165-.291-.249l.615-.7c.09.079.181.156.272.235Zm28.885-.683-.634-.683.262-.249.651.669Zm-29.877-.2c-.093-.088-.184-.176-.276-.267l.655-.662c.086.084.172.169.26.249Zm30.823-.729-.673-.644.251-.265.683.634Zm-31.763-.219-.256-.279.7-.625.244.27ZM43.619,40l-.715-.6.235-.281.718.593Zm-33.533-.232-.241-.3.73-.578.228.281Zm34.361-.809L43.7,38.4l.214-.293.757.546ZM9.271,38.712,9.049,38.4l.764-.536.214.3Zm35.938-.846-.78-.509.2-.306.788.5ZM8.52,37.611l-.2-.321.792-.49.195.309Zm37.387-.876-.811-.462.181-.32.816.451ZM7.839,36.468l-.183-.339.825-.435.172.318Zm38.693-.9L45.7,35.15l.158-.327.843.4ZM7.226,35.28l-.16-.344.848-.386.155.33Zm39.857-.924-.859-.362.139-.337.866.349ZM6.69,34.061,6.552,33.7l.869-.334.133.337Zm40.872-.946-.881-.309.119-.344.887.29ZM6.23,32.809l-.118-.367L7,32.165l.112.346Zm41.733-.964-.9-.253.1-.353.9.241ZM5.847,31.529l-.095-.367.9-.227.091.355Zm42.442-.976-.913-.2L47.45,30l.915.181ZM5.542,30.235l-.072-.376.917-.167.07.358Zm42.99-.99-.924-.142.054-.362.922.128ZM5.319,28.921l-.049-.378.925-.112.047.36Zm43.374-1-.927-.086.028-.363.932.07ZM5.177,27.6l-.025-.381.927-.054.026.363Zm43.6-1-.932-.03.009-.363.932.014ZM5.114,26.268l0-.381.932-.083,0,.446Zm42.732-.978-.014-.363.934-.042.012.379ZM6.067,24.9l-.934-.044.021-.379.931.058Zm41.7-.88-.035-.362.927-.1.037.379Zm-41.608-.4-.927-.095.044-.379.925.116Zm41.457-.869-.058-.36.922-.155.06.374Zm-41.283-.39-.918-.158.068-.372L6.4,22ZM47.392,21.5l-.077-.356.906-.211.084.372Zm-40.8-.386L5.682,20.9l.09-.37.9.228Zm40.5-.852-.1-.349.9-.265.1.365ZM6.917,19.88l-.894-.265.112-.365.888.284Zm39.792-.834-.123-.344.874-.321.128.358Zm-39.39-.372-.871-.323L6.58,18l.871.335Zm38.935-.822-.142-.335.852-.376.151.351Zm-38.46-.358-.853-.376.155-.346.848.39Zm37.935-.806-.167-.327.829-.425.174.341ZM8.341,16.346l-.829-.427.176-.335.824.439Zm36.79-.787-.183-.313.8-.479.193.332ZM8.957,15.232l-.8-.476.2-.325.792.49Zm35.508-.762-.2-.3.769-.525.211.318ZM9.64,14.156l-.773-.52.218-.316.76.539Zm34.1-.732-.219-.291.737-.569.23.3Zm-33.35-.3-.737-.571.234-.3.729.583Zm32.556-.7-.237-.279.706-.609.246.286Zm-31.749-.281-.7-.615.251-.283.694.625Zm30.9-.669-.251-.263.664-.653.263.274Zm-30.028-.269-.667-.65c.09-.093.181-.183.272-.272l.651.669c-.086.083-.172.169-.256.253m29.122-.627-.265-.242.618-.7.283.256Zm-28.2-.253-.629-.69c.095-.086.191-.17.288-.255l.609.706c-.09.077-.181.158-.269.239M40.226,9.74c-.093-.077-.186-.153-.281-.227l.578-.734c.1.079.2.16.3.242ZM13.958,9.506l-.579-.73.3-.235.567.741ZM39.22,8.959l-.295-.209.536-.766.307.221ZM14.983,8.743l-.537-.76.314-.218.522.773Zm23.185-.5-.309-.191.486-.8.323.2Zm-22.119-.2-.49-.794c.109-.068.218-.133.328-.2l.471.8Zm21.023-.45-.318-.174.439-.824.332.181ZM17.156,7.412l-.437-.824.339-.176.421.831Zm18.788-.4-.328-.155.39-.846.341.162ZM18.3,6.848,17.918,6l.348-.153.37.855ZM34.781,6.5l-.341-.135.339-.869.349.139Zm-15.3-.144-.328-.871L19.5,5.35l.321.876Zm14.107-.3-.349-.114.288-.887.356.116Zm-12.9-.123-.274-.89.362-.111.265.894Zm11.68-.244L32.01,5.6l.232-.9.365.095Zm-10.453-.1-.219-.906.37-.086.205.908ZM31.124,5.4l-.356-.07.17-.917.372.072Zm-7.961-.076-.172-.917.378-.065.151.92Zm6.706-.14-.362-.047.116-.925L30,4.26Zm-5.447-.053-.111-.924.378-.042.093.927ZM28.6,5.045l-.363-.025.061-.931.378.026Zm-2.915-.026-.046-.931.372-.019L26.054,5Zm1.644-.033-.367,0,.007-.932.374,0Z" transform="translate(3.863 3.06)" fill="#6f88da"/>
      <g id="icons" transform="translate(16.243 16.447)">
        <g id="Grupo_1206129" data-name="Grupo 1206129" transform="translate(9.765 23.817)">
          <path id="Trazado_1248132" data-name="Trazado 1248132" d="M21.261,60.576H19.088a.388.388,0,1,1,0-.776h2.173a.388.388,0,1,1,0,.776Z" transform="translate(-18.7 -59.8)"/>
        </g>
        <g id="Grupo_1206130" data-name="Grupo 1206130" transform="translate(7.592 16.366)">
          <path id="Trazado_1248133" data-name="Trazado 1248133" d="M15.622,41.376H13.488a.388.388,0,0,1,0-.776h2.134a.388.388,0,0,1,0,.776Z" transform="translate(-13.1 -40.6)"/>
        </g>
        <g id="Grupo_1206131" data-name="Grupo 1206131" transform="translate(7.592 14.038)">
          <path id="Trazado_1248134" data-name="Trazado 1248134" d="M15.972,35.376H13.488a.388.388,0,1,1,0-.776h2.483a.388.388,0,1,1,0,.776Z" transform="translate(-13.1 -34.6)"/>
        </g>
        <g id="Grupo_1206143" data-name="Grupo 1206143" transform="translate(4.1 1)">
          <g id="Grupo_1206132" data-name="Grupo 1206132" transform="translate(0.039 0)">
            <path id="Trazado_1248135" data-name="Trazado 1248135" d="M16.384,25.873H6.3a2.138,2.138,0,0,1-2.1-2.1V3.1A2.079,2.079,0,0,1,6.257,1H16.346a2.087,2.087,0,0,1,2.1,2.1V9.149a.388.388,0,1,1-.776,0V3.1a1.36,1.36,0,0,0-1.319-1.319H6.257A1.3,1.3,0,0,0,4.976,3.1V23.778A1.36,1.36,0,0,0,6.3,25.1H16.384A1.36,1.36,0,0,0,17.7,23.778V13.689a.388.388,0,1,1,.776,0V23.778A2.138,2.138,0,0,1,16.384,25.873Z" transform="translate(-4.2 -1)"/>
          </g>
          <g id="Grupo_1206133" data-name="Grupo 1206133" transform="translate(0 21.575)">
            <path id="Trazado_1248136" data-name="Trazado 1248136" d="M17.992,57.376H4.488a.388.388,0,1,1,0-.776h13.5a.388.388,0,1,1,0,.776Z" transform="translate(-4.1 -56.6)"/>
          </g>
          <g id="Grupo_1206134" data-name="Grupo 1206134" transform="translate(3.88 0)">
            <path id="Trazado_1248137" data-name="Trazado 1248137" d="M19.145,3.483H15.613A1.491,1.491,0,0,1,14.1,1.97V1.388A.367.367,0,0,1,14.488,1H20.27a.367.367,0,0,1,.388.388v.543A1.524,1.524,0,0,1,19.145,3.483ZM14.876,1.776V1.97a.763.763,0,0,0,.737.737h3.531a.746.746,0,0,0,.737-.776V1.776Z" transform="translate(-14.1 -1)"/>
          </g>
          <g id="Grupo_1206135" data-name="Grupo 1206135" transform="translate(6.931 12.244)">
            <path id="Trazado_1248138" data-name="Trazado 1248138" d="M22.364,39.478a.353.353,0,0,1-.31-.155.4.4,0,0,1-.078-.349,22.989,22.989,0,0,0,.582-2.677,9.612,9.612,0,0,1,.388-1.669,3.271,3.271,0,0,1,1.9-2.018,2.38,2.38,0,0,1,2.057.543c.543.466,1.513,1.746-.349,4.152a6.824,6.824,0,0,1-4.191,2.173Zm3.027-6.131a.66.66,0,0,0-.272.039,2.553,2.553,0,0,0-1.4,1.552c-.078.155-.194.892-.349,1.513a20.991,20.991,0,0,1-.466,2.134,5.7,5.7,0,0,0,3.066-1.746c1.048-1.358,1.242-2.445.466-3.066A1.526,1.526,0,0,0,25.391,33.347Z" transform="translate(-21.961 -32.553)"/>
          </g>
          <g id="Grupo_1206136" data-name="Grupo 1206136" transform="translate(9.757 0.534)">
            <path id="Trazado_1248139" data-name="Trazado 1248139" d="M31.75,16.82a.552.552,0,0,1-.233-.078.375.375,0,0,1-.078-.543L40.248,3.937a.513.513,0,0,0-.815-.621L29.926,14.763a.385.385,0,0,1-.582-.5L38.812,2.85A1.322,1.322,0,0,1,40.6,2.618,1.3,1.3,0,0,1,40.869,4.4L32.06,16.665a.353.353,0,0,1-.31.155Z" transform="translate(-29.245 -2.375)"/>
          </g>
          <g id="Grupo_1206137" data-name="Grupo 1206137" transform="translate(15.204 5.93)">
            <path id="Trazado_1248140" data-name="Trazado 1248140" d="M44.3,19.936a.378.378,0,0,1-.388-.31l-.621-2.872a.4.4,0,0,1,.776-.155l.621,2.872a.393.393,0,0,1-.31.466Z" transform="translate(-43.281 -16.281)"/>
          </g>
          <g id="Grupo_1206138" data-name="Grupo 1206138" transform="translate(4.113 5.122)">
            <path id="Trazado_1248141" data-name="Trazado 1248141" d="M20.4,18.08H15.088a.367.367,0,0,1-.388-.388v-3.1a.367.367,0,0,1,.388-.388H20.4a.367.367,0,0,1,.388.388v3.1A.367.367,0,0,1,20.4,18.08ZM15.476,17.3h4.54V14.976h-4.54Z" transform="translate(-14.7 -14.2)"/>
          </g>
          <g id="Grupo_1206139" data-name="Grupo 1206139" transform="translate(3.492 10.671)">
            <path id="Trazado_1248142" data-name="Trazado 1248142" d="M18.106,29.276H13.488a.388.388,0,1,1,0-.776h4.618a.388.388,0,1,1,0,.776Z" transform="translate(-13.1 -28.5)"/>
          </g>
          <g id="Grupo_1206140" data-name="Grupo 1206140" transform="translate(19.014 10.011)">
            <path id="Trazado_1248143" data-name="Trazado 1248143" d="M53.488,36.7a.367.367,0,0,1-.388-.388V27.188a.388.388,0,0,1,.776,0v9.119A.367.367,0,0,1,53.488,36.7Z" transform="translate(-53.1 -26.8)"/>
          </g>
          <g id="Grupo_1206141" data-name="Grupo 1206141" transform="translate(21.42 6.48)">
            <path id="Trazado_1248144" data-name="Trazado 1248144" d="M59.688,31.126a.367.367,0,0,1-.388-.388V18.088a.388.388,0,1,1,.776,0v12.65A.367.367,0,0,1,59.688,31.126Z" transform="translate(-59.3 -17.7)"/>
          </g>
          <g id="Grupo_1206142" data-name="Grupo 1206142" transform="translate(16.608 13.62)">
            <path id="Trazado_1248145" data-name="Trazado 1248145" d="M47.288,42.386A.367.367,0,0,1,46.9,42v-5.51a.388.388,0,0,1,.776,0V42A.367.367,0,0,1,47.288,42.386Z" transform="translate(-46.9 -36.1)"/>
          </g>
        </g>
      </g>
    </g>
  </g>
</svg>
