<svg xmlns="http://www.w3.org/2000/svg" xmlns:xlink="http://www.w3.org/1999/xlink" width="242" height="207.098" viewBox="0 0 242 207.098">
  <defs>
    <clipPath id="clip-path">
      <rect id="Rectángulo_426616" data-name="Rectángulo 426616" width="242" height="207.098" fill="none"/>
    </clipPath>
    <clipPath id="clip-path-3">
      <rect id="Rectángulo_426588" data-name="Rectángulo 426588" width="100.953" height="52.521" fill="none"/>
    </clipPath>
    <clipPath id="clip-path-4">
      <path id="Trazado_1247127" data-name="Trazado 1247127" d="M65.02,16.489,49.556,18.623s-8.606,4.021-9.249,15.521,8.927,34.794,8.927,34.794S66.363,52.939,71,46.694c1.113-.6,2.232-1.175,3.317-1.82l-4.1-17.5c-1.48-6.321-1.253-11.982.535-15.98q-2.118-.6-4.233-1.209a22.589,22.589,0,0,0-1.5,6.3" transform="translate(-40.276 -10.188)" fill="none"/>
    </clipPath>
    <linearGradient id="linear-gradient" x1="-0.274" y1="3.339" x2="-0.261" y2="3.339" gradientUnits="objectBoundingBox">
      <stop offset="0" stop-color="#9fb005"/>
      <stop offset="0.112" stop-color="#9fb005"/>
      <stop offset="0.277" stop-color="#a7b909"/>
      <stop offset="0.565" stop-color="#b0c20e"/>
      <stop offset="0.986" stop-color="#b3c510"/>
      <stop offset="1" stop-color="#b3c510"/>
    </linearGradient>
    <clipPath id="clip-path-6">
      <path id="Trazado_1247130" data-name="Trazado 1247130" d="M70.231,47.325,61.7,52.248a14.635,14.635,0,0,0-6.939,15.986L61,95.059s-.322,13.08,8.042,23.7,16.084,14.582,21.66,15.869,12.223.643,15.119-2.144c2.01-1.936,3.863-8.57,4.809-12.448a23.71,23.71,0,0,0,3.491,1.171c.095-.353.179-.71.281-1.061.3-1.041.671-2.074,1.043-3.109-11.311-2.59-23.378-17.017-26.946-32.261L85.576,72.3,80.8,51.9a7.162,7.162,0,0,0-10.568-4.576" transform="translate(-54.383 -46.359)" fill="none"/>
    </clipPath>
    <linearGradient id="linear-gradient-2" x1="-0.298" y1="1.612" x2="-0.289" y2="1.612" xlink:href="#linear-gradient"/>
    <clipPath id="clip-path-7">
      <path id="Trazado_1247131" data-name="Trazado 1247131" d="M80.414,0a14.987,14.987,0,0,0-4.442.667l-.11-.019C64.818,4.08,46.8,17.108,46.8,17.108H56.883s14.9,4.611,19.3,6.648S93.339,44.73,93.339,44.73s15.119,64.832,15.28,66.763-2.172,14.715-2.172,14.715-6.916,4.424-4.878,6.136c10.462-3.07,23.159-12.19,28.486-16.255a13.1,13.1,0,0,0,2.552-2c3.054-3.094,4.991-7.746,5.789-12.316.688-3.944,1.8-11.006.192-18.3-1.191-5.4-10.188-44.8-10.188-44.8-1.19-5.083-4.687-10.426-7.366-15.016C114.87,13.1,102.729,4.5,93.789,2.526L84.352.44A18.065,18.065,0,0,0,80.511,0Z" transform="translate(-46.804)" fill="none"/>
    </clipPath>
    <linearGradient id="linear-gradient-3" x1="-0.103" y1="1.374" x2="-0.097" y2="1.374" gradientUnits="objectBoundingBox">
      <stop offset="0" stop-color="#d7f526"/>
      <stop offset="0.468" stop-color="#d7f526"/>
      <stop offset="0.473" stop-color="#d8f526"/>
      <stop offset="0.532" stop-color="#e5f62a"/>
      <stop offset="0.586" stop-color="#eaf72c"/>
      <stop offset="0.643" stop-color="#eaf72d"/>
      <stop offset="0.684" stop-color="#e4f62a"/>
      <stop offset="0.8" stop-color="#d7f526"/>
      <stop offset="1" stop-color="#d7f526"/>
    </linearGradient>
    <clipPath id="clip-path-9">
      <rect id="Rectángulo_426594" data-name="Rectángulo 426594" width="44.633" height="22.686" fill="none"/>
    </clipPath>
    <clipPath id="clip-path-10">
      <rect id="Rectángulo_426595" data-name="Rectángulo 426595" width="2.788" height="2.559" fill="none"/>
    </clipPath>
    <clipPath id="clip-path-11">
      <rect id="Rectángulo_426596" data-name="Rectángulo 426596" width="2.295" height="2.028" fill="none"/>
    </clipPath>
    <clipPath id="clip-path-12">
      <rect id="Rectángulo_426597" data-name="Rectángulo 426597" width="2.441" height="2.358" fill="none"/>
    </clipPath>
    <clipPath id="clip-path-13">
      <rect id="Rectángulo_426598" data-name="Rectángulo 426598" width="1.84" height="3.346" fill="none"/>
    </clipPath>
    <clipPath id="clip-path-14">
      <rect id="Rectángulo_426599" data-name="Rectángulo 426599" width="0.058" height="0.131" fill="none"/>
    </clipPath>
    <clipPath id="clip-path-15">
      <rect id="Rectángulo_426600" data-name="Rectángulo 426600" width="17.517" height="5.702" fill="none"/>
    </clipPath>
    <clipPath id="clip-path-16">
      <rect id="Rectángulo_426601" data-name="Rectángulo 426601" width="5.733" height="3.408" fill="none"/>
    </clipPath>
    <clipPath id="clip-path-17">
      <rect id="Rectángulo_426602" data-name="Rectángulo 426602" width="7.73" height="35.354" fill="none"/>
    </clipPath>
    <clipPath id="clip-path-18">
      <rect id="Rectángulo_426603" data-name="Rectángulo 426603" width="7.362" height="40.811" fill="none"/>
    </clipPath>
    <clipPath id="clip-path-19">
      <rect id="Rectángulo_426604" data-name="Rectángulo 426604" width="1.826" height="20.346" fill="none"/>
    </clipPath>
    <clipPath id="clip-path-20">
      <rect id="Rectángulo_426605" data-name="Rectángulo 426605" width="4.969" height="6.456" fill="none"/>
    </clipPath>
    <clipPath id="clip-path-21">
      <rect id="Rectángulo_426606" data-name="Rectángulo 426606" width="3.715" height="5.231" fill="none"/>
    </clipPath>
    <clipPath id="clip-path-22">
      <rect id="Rectángulo_426607" data-name="Rectángulo 426607" width="2.211" height="4.087" fill="none"/>
    </clipPath>
    <clipPath id="clip-path-23">
      <rect id="Rectángulo_426608" data-name="Rectángulo 426608" width="2.783" height="4.508" fill="none"/>
    </clipPath>
    <clipPath id="clip-path-24">
      <rect id="Rectángulo_426609" data-name="Rectángulo 426609" width="0.053" height="0.042" fill="none"/>
    </clipPath>
    <clipPath id="clip-path-25">
      <rect id="Rectángulo_426610" data-name="Rectángulo 426610" width="4.922" height="3.199" fill="none"/>
    </clipPath>
    <clipPath id="clip-path-26">
      <rect id="Rectángulo_426611" data-name="Rectángulo 426611" width="4.312" height="17.818" fill="none"/>
    </clipPath>
    <clipPath id="clip-path-27">
      <rect id="Rectángulo_426612" data-name="Rectángulo 426612" width="77.555" height="55.226" fill="none"/>
    </clipPath>
    <clipPath id="clip-path-28">
      <rect id="Rectángulo_426613" data-name="Rectángulo 426613" width="15.598" height="17.753" fill="none"/>
    </clipPath>
    <clipPath id="clip-path-29">
      <rect id="Rectángulo_426614" data-name="Rectángulo 426614" width="70.556" height="33.91" fill="none"/>
    </clipPath>
  </defs>
  <g id="Grupo_1205038" data-name="Grupo 1205038" clip-path="url(#clip-path)">
    <g id="Grupo_1204964" data-name="Grupo 1204964">
      <g id="Grupo_1204963" data-name="Grupo 1204963" clip-path="url(#clip-path)">
        <path id="Trazado_1247122" data-name="Trazado 1247122" d="M201.682,195.525c-45.934,26.519-120.64,26.385-166.862-.3s-46.456-69.818-.523-96.338,120.641-26.384,166.863.3,46.456,69.818.522,96.338" transform="translate(0 -8.229)" fill="#b3caf5"/>
        <path id="Trazado_1247123" data-name="Trazado 1247123" d="M201.682,185.1c-45.934,26.52-120.64,26.385-166.862-.3s-46.456-69.818-.523-96.338,120.641-26.384,166.863.3,46.456,69.818.522,96.338" transform="translate(0 -7.144)" fill="#ecf2fd"/>
        <path id="Trazado_1247124" data-name="Trazado 1247124" d="M200.363,182.908C155.3,208.928,82,208.8,36.646,182.613s-45.581-68.5-.512-94.522S154.5,62.2,199.85,88.386s45.58,68.5.512,94.522" transform="translate(-0.258 -7.144)" fill="#e1eafb"/>
        <g id="Grupo_1204962" data-name="Grupo 1204962" transform="translate(22.591 85.962)" style="mix-blend-mode: multiply;isolation: isolate">
          <g id="Grupo_1204961" data-name="Grupo 1204961">
            <g id="Grupo_1204960" data-name="Grupo 1204960" clip-path="url(#clip-path-3)">
              <path id="Trazado_1247125" data-name="Trazado 1247125" d="M121.207,123.359,78.678,98.8c-4.542-2.622-11.222-3.414-17.667-2.487-6.927-1.066-15.2.2-21.224,3.681l-7.542,4.354c-8.492,4.9-9.423,12.388-2.069,16.635l42.53,24.554a24.289,24.289,0,0,0,11.312,2.84c3.008.081,9,.134,11.739.011,5.529-.248,11.319-1.434,15.84-4.045l7.541-4.354c8.493-4.9,9.424-12.388,2.069-16.634" transform="translate(-25.215 -95.945)" fill="#d9dbe2"/>
            </g>
          </g>
        </g>
        <path id="Trazado_1247126" data-name="Trazado 1247126" d="M111.945,57.579,108.877,49.5l-.711-.844.344-.29.774.939,3.083,8.119Z" transform="translate(-11.254 -5.032)" fill="#b8b8b8"/>
      </g>
    </g>
    <g id="Grupo_1204966" data-name="Grupo 1204966" transform="translate(36.086 9.128)">
      <g id="Grupo_1204965" data-name="Grupo 1204965" clip-path="url(#clip-path-4)">
        <rect id="Rectángulo_426590" data-name="Rectángulo 426590" width="68.205" height="59.384" transform="translate(-26.051 44.063) rotate(-60)" fill="url(#linear-gradient)"/>
      </g>
    </g>
    <g id="Grupo_1204968" data-name="Grupo 1204968">
      <g id="Grupo_1204967" data-name="Grupo 1204967" clip-path="url(#clip-path)">
        <path id="Trazado_1247128" data-name="Trazado 1247128" d="M82.189,85.11q-.886-1.864-1.767-3.732Q79.608,79.65,78.8,77.92l1.911-5.385-4.776-20.4a7.1,7.1,0,0,0-3.139-4.408l.384-1.363-4.284.23-.013.01a7.1,7.1,0,0,0-3.517.955L56.837,52.48A14.635,14.635,0,0,0,49.9,68.467Q52.342,78.983,54.784,89.5c.374,1.606.734,3.214,1.119,4.817.371,1.54.943,1.376,2.544,1.589,2.338.312,4.654.766,7,1.011a19.044,19.044,0,0,0,9.5-1.007,20.443,20.443,0,0,0,4.379-2.748q1.929-1.5,3.727-3.148a4.356,4.356,0,0,0,1.606-2.381c-1.726-.2-1.74-.989-2.468-2.521" transform="translate(-5.152 -4.824)" fill="#a6bd14"/>
        <path id="Trazado_1247129" data-name="Trazado 1247129" d="M69.948,95.994a28.22,28.22,0,0,1-2.96-.166c-1.372-.143-2.768-.365-4.118-.579-.951-.151-1.9-.3-2.857-.429-.22-.029-.419-.051-.6-.072-1.015-.114-1.015-.114-1.189-.839-.259-1.078-.507-2.158-.756-3.24l-5.248-22.6A13.663,13.663,0,0,1,58.731,53.06L67.2,47.99a7.843,7.843,0,0,1,3.3-1.408l.306-.025,2.878-.063L73.2,47.927l.564.357a6.225,6.225,0,0,1,2.746,3.856l4.716,20.147L79.278,77.77l.155.332q.808,1.732,1.624,3.462.882,1.869,1.769,3.734c.116.244.213.468.3.674A3.246,3.246,0,0,0,84.9,88.063a6.453,6.453,0,0,1-1.007,1.093c-1.173,1.078-2.408,2.121-3.671,3.1a19.873,19.873,0,0,1-4.184,2.632A15.2,15.2,0,0,1,69.948,95.994Z" transform="translate(-5.395 -4.838)" fill="#c1dc17"/>
      </g>
    </g>
    <g id="Grupo_1204970" data-name="Grupo 1204970" transform="translate(48.725 41.535)">
      <g id="Grupo_1204969" data-name="Grupo 1204969" clip-path="url(#clip-path-6)">
        <rect id="Rectángulo_426592" data-name="Rectángulo 426592" width="98.586" height="108.621" transform="translate(-39.854 22.388) rotate(-30)" fill="url(#linear-gradient-2)"/>
      </g>
    </g>
    <g id="Grupo_1204972" data-name="Grupo 1204972" transform="translate(41.934)">
      <g id="Grupo_1204971" data-name="Grupo 1204971" clip-path="url(#clip-path-7)">
        <rect id="Rectángulo_426593" data-name="Rectángulo 426593" width="147.052" height="161.31" transform="matrix(0.866, -0.5, 0.5, 0.866, -57.307, 33.086)" fill="url(#linear-gradient-3)"/>
      </g>
    </g>
    <g id="Grupo_1205037" data-name="Grupo 1205037">
      <g id="Grupo_1205036" data-name="Grupo 1205036" clip-path="url(#clip-path)">
        <path id="Trazado_1247132" data-name="Trazado 1247132" d="M95.6,134.991a18.441,18.441,0,0,1-3.978-.451l-4.947-1.093c-12.828-2.835-26.459-18.788-30.385-35.564L55.546,94.7a4.144,4.144,0,0,1-4.981-3.092L39.478,44.251c-2.336-9.978-.918-18.494,3.889-23.363,3.431-3.474,8.341-4.722,13.82-3.509l9.435,2.084C79.451,22.3,93.083,38.252,97.01,55.027l12.322,52.641c2.336,9.978.918,18.493-3.889,23.363a13.49,13.49,0,0,1-9.842,3.96M53.1,65.172l7.443,31.716c3.581,15.3,15.728,29.789,27.077,32.3l4.947,1.093c4.017.887,7.4.088,9.771-2.316,3.677-3.722,1.573-9.963-.384-18.325L89.63,57c-3.582-15.3-12.6-30.764-23.949-33.273l-9.435-2.084c-4.021-.887-7.4-.089-9.772,2.315-3.677,3.722-4.7,10.937-2.745,19.3L48.74,65.4Z" transform="translate(-3.993 -1.761)" fill="#c1dc17"/>
        <path id="Trazado_1247133" data-name="Trazado 1247133" d="M94.519,134.738a17.537,17.537,0,0,1-3.784-.431l-4.947-1.092c-12.525-2.768-25.851-18.422-29.706-34.894l-.949-4.053-.873.2a3.243,3.243,0,0,1-3.9-2.423L39.27,44.688c-2.264-9.673-.932-17.884,3.655-22.53a12.614,12.614,0,0,1,9.205-3.694,17.625,17.625,0,0,1,3.784.431l9.434,2.085C77.873,23.746,91.2,39.4,95.057,55.874l12.321,52.64c2.265,9.673.933,17.884-3.655,22.53a12.617,12.617,0,0,1-9.2,3.694m-35.931-37c3.652,15.6,16.1,30.392,27.757,32.967L91.29,131.8a15.161,15.161,0,0,0,3.243.373,10.076,10.076,0,0,0,7.359-2.935c3.61-3.655,2.243-9.279.512-16.4-.217-.891-.44-1.811-.661-2.757L89.421,57.436c-3.5-14.961-12.475-31.258-24.628-33.944l-9.435-2.084a15.076,15.076,0,0,0-3.245-.373,10.069,10.069,0,0,0-7.358,2.933c-3.895,3.941-5.008,11.468-2.98,20.133l5.176,22.879,3.7,13.252L48.664,65.315l2.225.133Z" transform="translate(-3.974 -1.921)" fill="#a6bd14"/>
        <path id="Trazado_1247134" data-name="Trazado 1247134" d="M134.348,110.559h0c7.145-4.125,11.21-15.419,9.033-25.1L134.6,46.434c-2.178-9.679-9.806-14.221-16.951-10.1s-11.21,15.421-9.033,25.1l8.782,39.029c2.177,9.678,9.806,14.221,16.951,10.095" transform="translate(-11.24 -3.622)" fill="#47404b"/>
        <path id="Trazado_1247135" data-name="Trazado 1247135" d="M131.447,108.7c-3.988,0-7.377-3.608-8.633-9.194L114.3,61.657c-1.848-8.217,1.584-18.041,7.5-21.454a7.744,7.744,0,0,1,3.881-1.123c3.988,0,7.377,3.608,8.633,9.193l8.518,37.854c1.849,8.216-1.584,18.041-7.5,21.454a7.741,7.741,0,0,1-3.881,1.123" transform="translate(-11.84 -4.066)" fill="#554f59"/>
        <path id="Trazado_1247136" data-name="Trazado 1247136" d="M117.943,62.329c-.678-2.637.484-6.066,2.87-7.2a4.234,4.234,0,0,1,4.241.678c.53-1.632,1.376-3.344,2.9-4.069,2.385-1.132,4.978.515,5.769,3.1,2.338,7.629-4.178,16.936-4.178,16.936s-9.6-1.658-11.606-9.444" transform="translate(-12.252 -5.346)" fill="#f63951"/>
        <g id="Grupo_1204975" data-name="Grupo 1204975" transform="translate(28.726 143.041)" style="mix-blend-mode: multiply;isolation: isolate">
          <g id="Grupo_1204974" data-name="Grupo 1204974">
            <g id="Grupo_1204973" data-name="Grupo 1204973" clip-path="url(#clip-path-9)">
              <path id="Trazado_1247137" data-name="Trazado 1247137" d="M35.982,161.917c5.2-3.005,13.613-3.02,18.785-.034A8.847,8.847,0,0,1,57.7,164.46c5.05-.648,10.529.148,14.441,2.407,6.1,3.524,6.072,9.256-.069,12.8S56,183.233,49.9,179.708a8.85,8.85,0,0,1-4.293-4.722,19.257,19.257,0,0,1-9.685-2.221c-5.171-2.986-5.145-7.843.059-10.848" transform="translate(-32.062 -159.653)" fill="#efefef"/>
            </g>
          </g>
        </g>
        <path id="Trazado_1247138" data-name="Trazado 1247138" d="M69.038,102.891a21.04,21.04,0,0,0,1.421,4.152c.686,1.1,2.241,1.5,4.766,1.372a18.04,18.04,0,0,0,5.3-1.337,9.459,9.459,0,0,0,1.791-.228,13.709,13.709,0,0,0,2.191-.736,22.111,22.111,0,0,0,1.9-1.763.636.636,0,0,0,.094-.669.428.428,0,0,0-.147-.166l-.006,0-.018-.01a.266.266,0,0,0-.055-.03c-.171-.069-.587.2-.822.371a.614.614,0,0,1-.049.042.352.352,0,0,0-.054.042l-.059.042-.007.007-.056.039-.732.48-.093-.326,1.826-1.318a4.2,4.2,0,0,0,.692-.611.265.265,0,0,0,.051-.107c.035-.214.015-.562-.257-.629a.7.7,0,0,0-.45.124l-.047.029a1.877,1.877,0,0,0-.249.176l-1.735,1.187.035-.34,2.054-1.534s.4-.265.365-.562a.488.488,0,0,0-.489-.441,2.411,2.411,0,0,0-.553.333l-.08.056c-.758.531-1.908,1.425-1.908,1.425l-.163-.144,1.082-1.045a7.2,7.2,0,0,0,1.181-1.03.094.094,0,0,0,.006-.027.483.483,0,0,0-.487-.465,6.764,6.764,0,0,0-1.738,1.072c-.073.06-.477.412-.893.772l0,0a.647.647,0,0,1-.049.045l-.946.818-.158-.067.325-1.024s.806-.952.814-1.22a.969.969,0,0,0-.245-.687l0,0a.221.221,0,0,0-.151-.047c-.263.021-1.051.8-1.122.805s-1.172,1.5-1.517,1.777-.624,1.963-.624,1.963l-.317.3a.674.674,0,0,1-.473.3,26.569,26.569,0,0,1-3.574-.778,11.9,11.9,0,0,1-.527-1.821l-.486-.24-3.023-1.5-1.449,3.018Z" transform="translate(-7.183 -10.292)" fill="#ffc2b3"/>
        <g id="Grupo_1204978" data-name="Grupo 1204978" transform="translate(76.944 91.951)" style="mix-blend-mode: multiply;isolation: isolate">
          <g id="Grupo_1204977" data-name="Grupo 1204977">
            <g id="Grupo_1204976" data-name="Grupo 1204976" clip-path="url(#clip-path-10)">
              <path id="Trazado_1247139" data-name="Trazado 1247139" d="M87.977,103.24a4.205,4.205,0,0,0,.691-.611,3.115,3.115,0,0,1-.3.218l-2.108,1.529-.332.263-.049.549,1.1-.784-.732.48-.093-.326Z" transform="translate(-85.88 -102.629)" fill="#f2d5d5"/>
            </g>
          </g>
        </g>
        <g id="Grupo_1204981" data-name="Grupo 1204981" transform="translate(76.84 90.857)" style="mix-blend-mode: multiply;isolation: isolate">
          <g id="Grupo_1204980" data-name="Grupo 1204980">
            <g id="Grupo_1204979" data-name="Grupo 1204979" clip-path="url(#clip-path-11)">
              <path id="Trazado_1247140" data-name="Trazado 1247140" d="M86,102.942l2.054-1.534-1.965,1.352-.118,0-.129.247-.082.425.749-.443,1.441-1.075a1.929,1.929,0,0,0-.249.177l-1.735,1.187Z" transform="translate(-85.763 -101.408)" fill="#f2d5d5"/>
            </g>
          </g>
        </g>
        <g id="Grupo_1204984" data-name="Grupo 1204984" transform="translate(76.127 89.45)" style="mix-blend-mode: multiply;isolation: isolate">
          <g id="Grupo_1204983" data-name="Grupo 1204983">
            <g id="Grupo_1204982" data-name="Grupo 1204982" clip-path="url(#clip-path-12)">
              <path id="Trazado_1247141" data-name="Trazado 1247141" d="M87.409,99.838a4.122,4.122,0,0,1-.751.531l-1.251,1.059-.44.52.227.248,2.023-1.564c-.758.531-1.908,1.425-1.908,1.425l-.163-.144,1.082-1.045a7.2,7.2,0,0,0,1.181-1.03" transform="translate(-84.968 -99.838)" fill="#f2d5d5"/>
            </g>
          </g>
        </g>
        <g id="Grupo_1204987" data-name="Grupo 1204987" transform="translate(73.599 88.671)" style="mix-blend-mode: multiply;isolation: isolate">
          <g id="Grupo_1204986" data-name="Grupo 1204986">
            <g id="Grupo_1204985" data-name="Grupo 1204985" clip-path="url(#clip-path-13)">
              <path id="Trazado_1247142" data-name="Trazado 1247142" d="M83.985,99.655a.965.965,0,0,0-.245-.687.865.865,0,0,1,.141.575,2.508,2.508,0,0,1-.68,1.02,4.449,4.449,0,0,0-.408.955l-.5.268-.147.457s.616.143.677.022c.051-.1.913-.914,1.127-1.116l-.945.817-.158-.066.324-1.024s.807-.952.814-1.22" transform="translate(-82.146 -98.968)" fill="#f2d5d5"/>
            </g>
          </g>
        </g>
        <g id="Grupo_1204990" data-name="Grupo 1204990" transform="translate(72.511 95.434)" style="mix-blend-mode: multiply;isolation: isolate">
          <g id="Grupo_1204989" data-name="Grupo 1204989">
            <g id="Grupo_1204988" data-name="Grupo 1204988" clip-path="url(#clip-path-14)">
              <path id="Trazado_1247143" data-name="Trazado 1247143" d="M80.932,106.517a1.122,1.122,0,0,0,.057.13Z" transform="translate(-80.932 -106.517)" fill="#f2d5d5"/>
            </g>
          </g>
        </g>
        <g id="Grupo_1204993" data-name="Grupo 1204993" transform="translate(61.854 92.445)" style="mix-blend-mode: multiply;isolation: isolate">
          <g id="Grupo_1204992" data-name="Grupo 1204992">
            <g id="Grupo_1204991" data-name="Grupo 1204991" clip-path="url(#clip-path-15)">
              <path id="Trazado_1247144" data-name="Trazado 1247144" d="M69.038,103.335a21.04,21.04,0,0,0,1.421,4.152c.686,1.1,2.241,1.5,4.766,1.372a18.04,18.04,0,0,0,5.3-1.337,9.459,9.459,0,0,0,1.791-.228,13.709,13.709,0,0,0,2.191-.736,22.111,22.111,0,0,0,1.9-1.763.636.636,0,0,0,.094-.669.631.631,0,0,1-.011.244c-.083.4-.3.59-.841,1.069a2.75,2.75,0,0,1-.86.584l-.667.4-1,.429a12.263,12.263,0,0,1-2.424.34,1.09,1.09,0,0,1-.745-.538c-.064-.093-.113-.186-.156-.263l.437,1.02a25.915,25.915,0,0,1-4.512,1.136,7.076,7.076,0,0,1-3.106-.086A7.616,7.616,0,0,1,71,107.286a28.076,28.076,0,0,1-1.887-4.105Z" transform="translate(-69.038 -103.181)" fill="#f2d5d5"/>
            </g>
          </g>
        </g>
        <g id="Grupo_1204996" data-name="Grupo 1204996" transform="translate(66.399 90.927)" style="mix-blend-mode: multiply;isolation: isolate">
          <g id="Grupo_1204995" data-name="Grupo 1204995">
            <g id="Grupo_1204994" data-name="Grupo 1204994" clip-path="url(#clip-path-16)">
              <path id="Trazado_1247145" data-name="Trazado 1247145" d="M74.509,103.222l-.1.842.726-.223,1.544.792,1.73.262.839-.277.6.238-.207-.276-.149-.856-.317.3a.674.674,0,0,1-.472.3,26.613,26.613,0,0,1-3.575-.778,12.018,12.018,0,0,1-.526-1.821l-.487-.24Z" transform="translate(-74.11 -101.487)" fill="#f2d5d5"/>
            </g>
          </g>
        </g>
        <path id="Trazado_1247146" data-name="Trazado 1247146" d="M79.079,105.585a.3.3,0,0,1,.171.041.293.293,0,0,1,.076.1,4.282,4.282,0,0,1,.461,1.331.475.475,0,0,1-.008.27.466.466,0,0,1-.172.185,4.974,4.974,0,0,1-2.278.711,10.635,10.635,0,0,1-4.6-.131.832.832,0,0,1-.43-.247c-.2-.26-.067-.635.074-.933.329-.693.839-1.869,1.726-1.961a3.823,3.823,0,0,1,1.089.19c.592.12,1.193.207,1.793.279q1.043.124,2.093.165" transform="translate(-7.512 -10.919)" fill="#ffd0c4"/>
        <path id="Trazado_1247147" data-name="Trazado 1247147" d="M72.117,105.287a5.533,5.533,0,0,0,1.687-1,.723.723,0,0,0,.17-.188.782.782,0,0,0,.072-.337.476.476,0,0,0-.09-.39.446.446,0,0,0-.242-.092c-.42-.065-1.125-.186-1.339.29a5.789,5.789,0,0,0-.257,1.719" transform="translate(-7.504 -10.739)" fill="#ffd0c4"/>
        <path id="Trazado_1247148" data-name="Trazado 1247148" d="M71.886,88.192l2.76.885A6.257,6.257,0,0,1,76.1,92.789a36.222,36.222,0,0,1-.107,7.563c-.242.458-4.915,2.9-5.575,1.447s.235-9.117.235-9.117Z" transform="translate(-7.302 -9.176)" fill="#f5f5f5"/>
        <path id="Trazado_1247149" data-name="Trazado 1247149" d="M71.971,129.141c-.088.919-1.35.676-3.466,1.691s-6.065,3.149-6.915,3,.711-2.953,1.4-3.592c.317-.295,3.215-2.734,5.21-2.925a4.5,4.5,0,0,1,3.772,1.823" transform="translate(-6.383 -13.246)" fill="#543543"/>
        <path id="Trazado_1247150" data-name="Trazado 1247150" d="M70.609,175.653s1.241.127.925.77-.574.85-.953.934a7.457,7.457,0,0,1-5.67-2.429c-.283-.3-1.188-2.1-1.3-2.226a3.862,3.862,0,0,0-.476-.382l-.44.17s-1.521-.736-1.822-.906a6.551,6.551,0,0,1-1.328-1c-.025-.137.271-1.784.271-1.784Z" transform="translate(-6.196 -17.564)" fill="#f5f5f5"/>
        <path id="Trazado_1247151" data-name="Trazado 1247151" d="M70.808,174.324c.175.221,1.194,1.576.656,2.2s-2.057.76-4.485-.882a7.552,7.552,0,0,1-2.919-3.165c-.452-.565-3.714-2.279-4.131-3.1s.293-1.18,1.493-1.156,6.8,4.86,6.8,4.86Z" transform="translate(-6.223 -17.503)" fill="#f5f5f5"/>
        <path id="Trazado_1247152" data-name="Trazado 1247152" d="M41.9,162.462s-.652.4-.643.722a3.748,3.748,0,0,0,.032,1.2c.133.251.842,1.43.842,1.43l.686,1.407a16.934,16.934,0,0,0,1.954,2.415,5.613,5.613,0,0,0,3.537.949c1.735-.032,1.8-.626,1.882-.8a1.748,1.748,0,0,0-.228-1.428c-.371-.418-8.063-5.894-8.063-5.894" transform="translate(-4.289 -16.904)" fill="#f5f5f5"/>
        <path id="Trazado_1247153" data-name="Trazado 1247153" d="M67.212,168.145s1.139,2.233,1.622,2.9a32.988,32.988,0,0,1,2.515,3.063,3.045,3.045,0,0,1-.075,1.906c-.141.3-1.28.478-1.8.344s-3.159-1.5-3.624-2.251a16.429,16.429,0,0,0-2.406-2.94c-.5-.325-3.265-1.838-3.173-2.389s1.386-2.873,1.742-2.881a17.219,17.219,0,0,1,3.328,1.053c.558.3,1.873,1.2,1.873,1.2" transform="translate(-6.271 -17.261)" fill="#6b505c"/>
        <path id="Trazado_1247154" data-name="Trazado 1247154" d="M45.806,159.774a4.037,4.037,0,0,1,1.406,1.937c.139.955,2.14,4.582,2.485,5.391a4.677,4.677,0,0,1,.4,1.822c-.022.227-.643.751-2.334.8a5.732,5.732,0,0,1-3.759-1.874,22.716,22.716,0,0,1-1.688-3.523c-.095-.378-.775-1.53-.784-1.855a21.8,21.8,0,0,1,.87-2.8c.2-.553,3.4.107,3.4.107" transform="translate(-4.322 -16.59)" fill="#6b505c"/>
        <path id="Trazado_1247155" data-name="Trazado 1247155" d="M58.3,124.25a9.562,9.562,0,0,0,.525,1.63c.772,1.972,2.123,4.6,2.391,5.145.364.728,4.673,11.448,4.588,12.413s-.965,3.259-1.737,6.132-2.68,10.269-2.691,10.774c-.011.246.268.568.654.89s.89.686,1.265.965c.75.536,3.323.611,3.494-.354s6.957-15.9,7.043-18.01-1.029-7.086-1.983-13.089a65.6,65.6,0,0,0-4.074-13.175s-7.857-2.338-9.273-.633-.493,5.66-.2,7.311" transform="translate(-6.007 -12.103)" fill="#ffc2b3"/>
        <path id="Trazado_1247156" data-name="Trazado 1247156" d="M42.669,154.163s-.054.236.353,1.051c.011.031.033.053.043.085.451.9,3.827.858,3.956.2s3.27-12.661,3.9-14.526c.376-1.1,2.348-5.36,3.9-8.65,1.063-2.262,1.931-4.074,1.931-4.074s3.065.536,3.955-.954,1.19-8.008,1.19-8.008L49.883,114.5l-.02-.011-.227-.086s-.053.14-.159.375A66.992,66.992,0,0,0,46,124.822a34.656,34.656,0,0,0-.481,4.374c-.205,3.462-.141,7.032-.141,7.032s-1.661,4.588-2.411,7.032-.3,10.9-.3,10.9" transform="translate(-4.426 -11.903)" fill="#ffc2b3"/>
        <path id="Trazado_1247157" data-name="Trazado 1247157" d="M67.425,165a28.476,28.476,0,0,0-.208,3.305c.067.909-2.771-.01-3.377-.522A7.483,7.483,0,0,1,62.3,166.3a.873.873,0,0,1-.015-.571l2.029-2.424Z" transform="translate(-6.476 -16.992)" fill="#ffc2b3"/>
        <path id="Trazado_1247158" data-name="Trazado 1247158" d="M46.956,162.333a.638.638,0,0,1-.248.488,1.422,1.422,0,0,1-.486.2,1.46,1.46,0,0,1-.456.057,1.774,1.774,0,0,1-.667-.233,5.97,5.97,0,0,1-1.073-.64,3.374,3.374,0,0,1-.947-.989,2.727,2.727,0,0,1-.158-1.753,3.373,3.373,0,0,1,.682-1.63,1.689,1.689,0,0,1,1.589-.61c.146.033.285.09.428.133.453.135,1.076.154,1.327.634.187.359-.093.8-.178,1.154a7.435,7.435,0,0,0,.1,2.129,8.145,8.145,0,0,1,.092,1.058" transform="translate(-4.459 -16.356)" fill="#ffc2b3"/>
        <g id="Grupo_1204999" data-name="Grupo 1204999" transform="translate(52.822 113.777)" style="mix-blend-mode: multiply;isolation: isolate">
          <g id="Grupo_1204998" data-name="Grupo 1204998">
            <g id="Grupo_1204997" data-name="Grupo 1204997" clip-path="url(#clip-path-17)">
              <path id="Trazado_1247159" data-name="Trazado 1247159" d="M61.347,132.135c.365.729,4.674,11.449,4.588,12.413s-.965,3.259-1.736,6.132-2.681,10.27-2.691,10.774c-.011.246.269.568.654.89,1.822-9.026,4.813-15.684,4.5-16.916a117.916,117.916,0,0,0-3.988-11.213,22.814,22.814,0,0,1-1.716-7l-2-.225c.771,1.972,2.123,4.6,2.39,5.145" transform="translate(-58.957 -126.99)" fill="#f2d5d5"/>
            </g>
          </g>
        </g>
        <g id="Grupo_1205002" data-name="Grupo 1205002" transform="translate(38.109 102.5)" style="mix-blend-mode: multiply;isolation: isolate">
          <g id="Grupo_1205001" data-name="Grupo 1205001">
            <g id="Grupo_1205000" data-name="Grupo 1205000" clip-path="url(#clip-path-18)">
              <path id="Trazado_1247160" data-name="Trazado 1247160" d="M42.669,154.163s-.054.236.353,1.051c0-3.977-.01-9.659.14-10.914.237-1.918,2.272-5.981,2.39-6.721.086-.568.257-3.559.493-7.279.055-1.115.129-2.294.2-3.483.342-5.2,3.645-11.749,3.645-11.749a5.557,5.557,0,0,0-.012-.568v-.011a.013.013,0,0,0-.02,0l-.227-.086s-.053.14-.159.375c-2.424,2.53-4.364,12.21-4.053,14.022a2.379,2.379,0,0,0,.1.4c-.205,3.462-.141,7.032-.141,7.032s-1.661,4.588-2.411,7.032-.3,10.9-.3,10.9" transform="translate(-42.535 -114.403)" fill="#f2d5d5"/>
            </g>
          </g>
        </g>
        <path id="Trazado_1247161" data-name="Trazado 1247161" d="M45.755,128.759a2.378,2.378,0,0,0,.1.4,3.372,3.372,0,0,0,.525,1.1c.74,1.019,2.112,1.79,4.32,2.337a6.466,6.466,0,0,0,4.459-.311,2.9,2.9,0,0,0,.537-.322l1.564-3.3,1.179.1.794,2.552.568,1.05c1.63-1.468,5.05-4.964,10.549-4.6a56.229,56.229,0,0,0-3.806-10.752s-13.024-4.373-16.327-2.562a.014.014,0,0,0-.021,0,1.761,1.761,0,0,0-.386.289c-2.423,2.53-4.363,12.21-4.052,14.022" transform="translate(-4.757 -11.862)" fill="#1c60db"/>
        <path id="Trazado_1247162" data-name="Trazado 1247162" d="M64.361,132.243a4.542,4.542,0,0,1,2.111-1.142c1.39-.435,2.435-1.163,3.951-.865.941.185,1.115,1.215,1.3,2.018.181.772.092,1.534.218,2.306.14.862.371,1.706.591,2.549a22.986,22.986,0,0,1,1.067,5.109q.035,1.505.071,3.01c.019.805-1.04.722-1.568.788-.914.112-1.711.58-2.64.2a2.867,2.867,0,0,1-1.406-1.611c-.259-.587-.594-1.121-.855-1.7a51.9,51.9,0,0,1-1.775-5.543c-.47-1.48-2.4-3.627-1.068-5.119" transform="translate(-6.649 -13.544)" fill="#ffd0c4"/>
        <path id="Trazado_1247163" data-name="Trazado 1247163" d="M73.1,147.574a13.358,13.358,0,0,1-1.587,5.755c-.489,1.032-.756,2.081-1.305,3.1-.345.644-.429,1.425-.757,2.088a22.91,22.91,0,0,0-1.12,2.866c-.2.6-.5,1.14-.7,1.743a2.377,2.377,0,0,1-1.054,1.519,3.344,3.344,0,0,1-2.775-.382.5.5,0,0,1-.172-.147c-.343-.54.107-1.942.207-2.527a27.687,27.687,0,0,1,1.973-6.511,15.437,15.437,0,0,0,1.4-3.4c.125-.658.144-1.332.3-1.985a22.347,22.347,0,0,1,1.3-3.363.937.937,0,0,1,.255-.4.853.853,0,0,1,.4-.143,4.6,4.6,0,0,1,2.992.556,1.369,1.369,0,0,1,.423.34,1.477,1.477,0,0,1,.219.892" transform="translate(-6.608 -15.163)" fill="#ffd0c4"/>
        <path id="Trazado_1247164" data-name="Trazado 1247164" d="M46.445,141.07a4.772,4.772,0,0,1,.095-.5c.084-.34.2-.674.27-1.017.418-1.933-.247-4.051.393-5.937.5.1.787.6,1.2.877a4.411,4.411,0,0,0,1.54.506c1.141.225,2.322.2,3.451.5a.376.376,0,0,1,.218.116.35.35,0,0,1,.038.256,5.543,5.543,0,0,1-1.011,2.1,44.893,44.893,0,0,0-2.4,5.611,5.053,5.053,0,0,1-.921,1.507,2.1,2.1,0,0,1-1.574.7,1.213,1.213,0,0,1-.788-.322,1.939,1.939,0,0,1-.4-1.313,16.2,16.2,0,0,1-.108-3.082" transform="translate(-4.827 -13.903)" fill="#ffd0c4"/>
        <path id="Trazado_1247165" data-name="Trazado 1247165" d="M45.415,144.506c.063-.1.129-.191.2-.285a8.344,8.344,0,0,1,2.043-1.911,1.784,1.784,0,0,1,1.338-.431,1.283,1.283,0,0,1,.887,1.018,3.774,3.774,0,0,1-.055,1.416,25.262,25.262,0,0,1-.9,4.465c-1.029,2.858-1.106,5.92-1.879,8.844a.975.975,0,0,1-.2.437,1,1,0,0,1-.744.206l-1.069,0a.514.514,0,0,1-.649-.528,11.226,11.226,0,0,1-.26-3.715,25.2,25.2,0,0,0,.05-4.52,8.528,8.528,0,0,1,1.244-5" transform="translate(-4.582 -14.76)" fill="#ffd0c4"/>
        <path id="Trazado_1247166" data-name="Trazado 1247166" d="M51.066,96.282c-.1,1.49-1.168,14.354-1.008,15.694a1.457,1.457,0,0,0,.343.664c1.287,1.727,3.6,3.57,9.4,3.937,3.716.235,6.9-1.428,7.045-2.05s1.1-7.332,1.1-7.332l.128-1.222a27.718,27.718,0,0,1,1.34-4.942c.579-1.618,3.238-7.5,3.549-8.586a6.407,6.407,0,0,0-.44-3.849c-.44-.643-5.221-3.077-5.221-3.077s-4.267-1.49-5.886-1.79a19.493,19.493,0,0,0-6,.161c-2.187.342-5.3,1.147-5.3,1.147l-.343,6.228s.343.869.676,1.93a10.079,10.079,0,0,1,.611,3.087" transform="translate(-5.179 -8.694)" fill="#f5f5f5"/>
        <g id="Grupo_1205005" data-name="Grupo 1205005" transform="translate(44.863 83.6)" style="mix-blend-mode: multiply;isolation: isolate">
          <g id="Grupo_1205004" data-name="Grupo 1205004">
            <g id="Grupo_1205003" data-name="Grupo 1205003" clip-path="url(#clip-path-19)">
              <path id="Trazado_1247167" data-name="Trazado 1247167" d="M50.089,112.99a1.46,1.46,0,0,0,.343.665l.193-3.259s.9-8.855,1.115-10.3.15-6.785.15-6.785-.59.353-1.4.9A10.069,10.069,0,0,1,51.1,97.3c-.1,1.49-1.168,14.354-1.008,15.694" transform="translate(-50.073 -93.309)" fill="#f2d5d5"/>
            </g>
          </g>
        </g>
        <path id="Trazado_1247168" data-name="Trazado 1247168" d="M40.215,103.911c.793,2.755,2.541,8.04,2.584,8.168s.685,1.608.685,1.608a8.18,8.18,0,0,1,.494,1.3c.257.847,1.039,2.412,1.307,3.087a14.009,14.009,0,0,0,1.64,2.583c.214.161.579-.065.579-.065s.408.88.557.933a1.8,1.8,0,0,0,.494,0s.289.2.471.172.322-.268.279-.986c.226-.011.386-.418.332-.729s-.4-1.715-.5-2.1-.943-1.683-1.029-1.95-.514-1.812-.568-2.005l.365.494a6.609,6.609,0,0,0,.911.771c.16.032,1.029.043,1.1-.407s-.59-.643-.654-.686-.868-1.276-1.029-1.458a14.983,14.983,0,0,0-1.662-.869l-.2-.2a4.307,4.307,0,0,1-.622-.751c-.075-.193-.483-2.144-.762-3.6s-1.007-7.793-1.018-7.987a22.686,22.686,0,0,1,2.209-2.133,11.709,11.709,0,0,0-1.694-3.345c-.568-.675-1.244-1.029-1.951-.482a12,12,0,0,0-3.323,4.845c-.225.633.215,3.044,1.008,5.8" transform="translate(-4.073 -9.676)" fill="#ffc2b3"/>
        <path id="Trazado_1247169" data-name="Trazado 1247169" d="M67.727,80.5s.153,4.121.328,5.111S68.243,88.7,64.4,88.08s-4.417-3.774-4.2-4.456a22.219,22.219,0,0,0,1.233-2.953,41.324,41.324,0,0,0-.326-5.047s4.261-1.236,5.53.3,1.1,4.583,1.1,4.583" transform="translate(-6.259 -7.82)" fill="#ffc2b3"/>
        <g id="Grupo_1205008" data-name="Grupo 1205008" transform="translate(42.765 106.915)" style="mix-blend-mode: multiply;isolation: isolate">
          <g id="Grupo_1205007" data-name="Grupo 1205007">
            <g id="Grupo_1205006" data-name="Grupo 1205006" clip-path="url(#clip-path-20)">
              <path id="Trazado_1247170" data-name="Trazado 1247170" d="M47.731,119.331s1.2,1.607,1.254,1.818a15.328,15.328,0,0,0,1.062,2.192c.153.108.511.018.616-.366s.67-1.425,1.259,0a12.9,12.9,0,0,1,.779,2.813s-2.436-2.2-2.5-2.2a.832.832,0,0,1-.315-.133c-.1-.068-1.047-2.229-1.047-2.229Z" transform="translate(-47.731 -119.331)" fill="#f2d5d5"/>
            </g>
          </g>
        </g>
        <g id="Grupo_1205011" data-name="Grupo 1205011" transform="translate(42.009 107.517)" style="mix-blend-mode: multiply;isolation: isolate">
          <g id="Grupo_1205010" data-name="Grupo 1205010">
            <g id="Grupo_1205009" data-name="Grupo 1205009" clip-path="url(#clip-path-21)">
              <path id="Trazado_1247171" data-name="Trazado 1247171" d="M46.887,120l1.332,1.942,1.146,2.391a1.277,1.277,0,0,0,.877.495c.486-.013.339.4.339.4a4.432,4.432,0,0,1-1.293-.891,23.523,23.523,0,0,1-1.185-2.385Z" transform="translate(-46.887 -120.003)" fill="#f2d5d5"/>
            </g>
          </g>
        </g>
        <g id="Grupo_1205014" data-name="Grupo 1205014" transform="translate(41.407 107.688)" style="mix-blend-mode: multiply;isolation: isolate">
          <g id="Grupo_1205013" data-name="Grupo 1205013">
            <g id="Grupo_1205012" data-name="Grupo 1205012" clip-path="url(#clip-path-22)">
              <path id="Trazado_1247172" data-name="Trazado 1247172" d="M48.241,123.419,47.1,121.68l-.886-1.485.861,1.616,1.046,1.668.3.8Z" transform="translate(-46.216 -120.194)" fill="#f2d5d5"/>
            </g>
          </g>
        </g>
        <g id="Grupo_1205017" data-name="Grupo 1205017" transform="translate(42.405 103.374)" style="mix-blend-mode: multiply;isolation: isolate">
          <g id="Grupo_1205016" data-name="Grupo 1205016">
            <g id="Grupo_1205015" data-name="Grupo 1205015" clip-path="url(#clip-path-23)">
              <path id="Trazado_1247173" data-name="Trazado 1247173" d="M48.378,116.225l-.676-.6-.373-.245s.706,1.11.854,1.346.619,1.52.619,1.52l1.31,1.643-.8-1.981Z" transform="translate(-47.33 -115.379)" fill="#f2d5d5"/>
            </g>
          </g>
        </g>
        <g id="Grupo_1205020" data-name="Grupo 1205020" transform="translate(78.163 93.596)" style="mix-blend-mode: multiply;isolation: isolate">
          <g id="Grupo_1205019" data-name="Grupo 1205019">
            <g id="Grupo_1205018" data-name="Grupo 1205018" clip-path="url(#clip-path-24)">
              <path id="Trazado_1247174" data-name="Trazado 1247174" d="M87.287,104.472l.006-.007a.474.474,0,0,0-.053.042Z" transform="translate(-87.24 -104.465)" fill="#f2d5d5"/>
            </g>
          </g>
        </g>
        <g id="Grupo_1205023" data-name="Grupo 1205023" transform="translate(56.755 73.68)" style="mix-blend-mode: multiply;isolation: isolate">
          <g id="Grupo_1205022" data-name="Grupo 1205022">
            <g id="Grupo_1205021" data-name="Grupo 1205021" clip-path="url(#clip-path-25)">
              <path id="Trazado_1247175" data-name="Trazado 1247175" d="M63.346,82.237s1.356,2.392,2.915,2.942,2.008.047,2.008.047l-.116-1.873Z" transform="translate(-63.346 -82.237)" fill="#f2d5d5"/>
            </g>
          </g>
        </g>
        <g id="Grupo_1205026" data-name="Grupo 1205026" transform="translate(37.984 84.072)" style="mix-blend-mode: multiply;isolation: isolate">
          <g id="Grupo_1205025" data-name="Grupo 1205025">
            <g id="Grupo_1205024" data-name="Grupo 1205024" clip-path="url(#clip-path-26)">
              <path id="Trazado_1247176" data-name="Trazado 1247176" d="M42.407,98.734s.74.782,1.008.986.279,1.361.279,1.361,1.576,8.994,1.65,9.166.848,1.447,1.362,1.4a4.341,4.341,0,0,1-.622-.751c-.075-.193-.482-2.144-.762-3.6s-1.007-7.794-1.018-7.987a22.686,22.686,0,0,1,2.209-2.133,11.709,11.709,0,0,0-1.694-3.345l-1.1,2.09a18.909,18.909,0,0,0,.611,1.822l.322.494-.536.8s-1.244-.493-1.523-.536-.182.225-.182.225" transform="translate(-42.395 -93.835)" fill="#f2d5d5"/>
            </g>
          </g>
        </g>
        <path id="Trazado_1247177" data-name="Trazado 1247177" d="M51.281,88.935a2.961,2.961,0,0,0,.728,1.045,3.044,3.044,0,0,0,1.13.542,17.875,17.875,0,0,0,4.365.529c.417.016,1.635.252,1.876-.128a3.706,3.706,0,0,0,.5-1.236,1.171,1.171,0,0,0,.028-.208c.012-.631-.517-1.187-.759-1.749a9,9,0,0,1-.7-2.751c-.028-.306-.079-.676-.36-.8a.737.737,0,0,0-.337-.043,10.431,10.431,0,0,0-1.459.251c-1.394.266-2.838.182-4.229.462a3.039,3.039,0,0,0-.954.329c-.733.435-.536.943-.423,1.662a7.86,7.86,0,0,0,.6,2.1" transform="translate(-5.262 -8.754)" fill="#fafafa"/>
        <path id="Trazado_1247178" data-name="Trazado 1247178" d="M70.01,86.869a6.236,6.236,0,0,1,1.546.732c.732.383,1.422.877,2.122,1.313a2.1,2.1,0,0,1,.455.346,1.58,1.58,0,0,1,.288.493,4.693,4.693,0,0,1,.119,2.687,16.238,16.238,0,0,1-1.93,4.476.41.41,0,0,1-.142.169.4.4,0,0,1-.179.038q-.606.028-1.213,0a2.506,2.506,0,0,1-.917-.165,2.774,2.774,0,0,1-.795-.615,4.3,4.3,0,0,1-1.1-1.46,3.233,3.233,0,0,1,.159-2.3c.291-.729.72-1.395,1.04-2.113a7.634,7.634,0,0,0,.656-3.372c0-.093-.024-.208-.114-.234" transform="translate(-7.088 -9.039)" fill="#fafafa"/>
        <path id="Trazado_1247179" data-name="Trazado 1247179" d="M52.376,90.551A2.044,2.044,0,0,1,52.115,90a.557.557,0,0,1,.157-.56.81.81,0,0,1,.274-.12l1.525-.446a2.465,2.465,0,0,1,.783-.045,2.393,2.393,0,0,0,.676-.181,7.76,7.76,0,0,1,1.6-.312,1.425,1.425,0,0,0,.99-.323c.294-.334.342-.5.691-.182.3.28.629.538.945.805a5.462,5.462,0,0,0,2.73,1.373,7.538,7.538,0,0,0,2.635.412,7.531,7.531,0,0,0,2.071-.582l1.348-.523a41.276,41.276,0,0,1,1.066,4.044,5.309,5.309,0,0,0,.266.962c.112.228.28.418.392.654a4.236,4.236,0,0,1,.5,1.926,5.228,5.228,0,0,1-.833,2.278,3.032,3.032,0,0,1-.535.763,2.644,2.644,0,0,1-.667.42,5.035,5.035,0,0,1-3.894.454A13.053,13.053,0,0,1,63,99.75a2.446,2.446,0,0,0-2.488.267,4.526,4.526,0,0,1-3,.834,9.269,9.269,0,0,1-1.489-.276l-1.2-.292a3.3,3.3,0,0,1-1.77-.833c-.965-1.092-.547-3.013-.272-4.283a11.938,11.938,0,0,0,.07-2.6,3.4,3.4,0,0,0-.012-.909,4.538,4.538,0,0,0-.454-1.109" transform="translate(-5.421 -9.12)" fill="#fafafa"/>
        <path id="Trazado_1247180" data-name="Trazado 1247180" d="M41.741,99.811a5.472,5.472,0,0,1,1.21,1.916,21.911,21.911,0,0,1,1.233,6.2q.089.886.177,1.771a9.141,9.141,0,0,1,.042,2.2,4.564,4.564,0,0,1-.352,1.218,13.259,13.259,0,0,0-.82-1.192,11.219,11.219,0,0,1-.658-1.328,18.556,18.556,0,0,1-.891-2.838c-.5-2.081-1.129-4.154-1.685-6.234a5.428,5.428,0,0,1-.276-.781c-.219-.518-.348-1.168.22-1.522.608-.379,1.366.172,1.8.587" transform="translate(-4.114 -10.311)" fill="#ffd0c4"/>
        <path id="Trazado_1247181" data-name="Trazado 1247181" d="M42.233,94.106a3.091,3.091,0,0,0,.178.858c.227.614.681,1.1.958,1.683.172.366.148,1.19-.336,1.341a1.123,1.123,0,0,1-.51-.028.488.488,0,0,0-.475.122.584.584,0,0,0-.084.215,9.171,9.171,0,0,1-.441,1.332c-.04.1-.095.2-.2.232a.335.335,0,0,1-.209-.033,2.785,2.785,0,0,1-1.3-1.1,1.076,1.076,0,0,1-.2-.775,1.3,1.3,0,0,1,.135-.323,15.852,15.852,0,0,1,1.589-2.6,7.9,7.9,0,0,1,.938-.982Z" transform="translate(-4.12 -9.785)" fill="#ffd0c4"/>
        <path id="Trazado_1247182" data-name="Trazado 1247182" d="M69.227,69.384c.279.141,1.729-.216,1.943,2.275a41.417,41.417,0,0,1-.057,7.321,11.684,11.684,0,0,1-1.157,4.178c-.163.258-1.026.429-1.385.439s-5.06-1.769-5.449-2.837-1.469-5.1-1.267-7.011.34-3.077,1.375-3.93,6-.435,6-.435" transform="translate(-6.433 -7.209)" fill="#ffc2b3"/>
        <path id="Trazado_1247183" data-name="Trazado 1247183" d="M68.395,70.274s-2.645.674-3.592.319c-.239-.09-.056,3.174-.056,3.174l-.811.53-.506,2.425-.725-.213s-.547-1.942-1.378-1.935-.976.941-.991,1.174a16.679,16.679,0,0,0,.9,2.109l.057,1.314s-.989-.588-1.149-1.028a8.322,8.322,0,0,1-1.48-4.7,10.241,10.241,0,0,1,.13-3c.044-.2-.1-.844-.042-1.02.528-1.676,1.665-1.729,2.851-2.345a6.6,6.6,0,0,1,7.8.445,5.991,5.991,0,0,1,1.15,1.2c.251.375.413.745.209.974a20.3,20.3,0,0,1,.191,3.581S70.8,70.808,70.7,70.5a2.606,2.606,0,0,0-.468-.712Z" transform="translate(-6.099 -6.869)" fill="#8a536a"/>
        <path id="Trazado_1247184" data-name="Trazado 1247184" d="M61.826,76.783s.153-1.361-.825-1.538-1.1.746-.623,2,.89,1.7,1.378,1.671.07-2.131.07-2.131" transform="translate(-6.254 -7.827)" fill="#ffc2b3"/>
        <path id="Trazado_1247185" data-name="Trazado 1247185" d="M42.752,92.088a4.235,4.235,0,0,0,.455,2.78,6.143,6.143,0,0,0,2.949,2.65c.381.011,4.977-4.513,5.162-5.47s-.47-7.286-1.939-6.844-6.627,6.884-6.627,6.884" transform="translate(-4.441 -8.863)" fill="#f5f5f5"/>
        <path id="Trazado_1247186" data-name="Trazado 1247186" d="M70.753,70.09s.223,1.544.22,1.937-1.158,1.132-4.244,1.477-6.632-.349-8.1-1.3c.141-1.964.114-2.194.114-2.194s1.709,1.184,5.633,1.215a13.649,13.649,0,0,0,6.376-1.134" transform="translate(-6.1 -7.284)" fill="#fe5754"/>
        <path id="Trazado_1247187" data-name="Trazado 1247187" d="M45.937,111.9c-.252-.431-1.189-.4-1.983.276s-.513,2.381-.438,2.554c-.118.027-.293-.156-.293-.156a1.634,1.634,0,0,1-.5-1.144,2.844,2.844,0,0,1,.349-2,2.14,2.14,0,0,1,2.684-.754,3.154,3.154,0,0,1,.294,1.12l-.082.254Z" transform="translate(-4.441 -11.493)" fill="#1c60db"/>
        <path id="Trazado_1247188" data-name="Trazado 1247188" d="M42.767,112.5c.069-.385.287-.355.411-.273a.484.484,0,0,1,.2.358,3.829,3.829,0,0,0-.156,1.081c.02.643.043.878.043.937s-.159-.078-.159-.078-.058-.065-.072-.084a1.169,1.169,0,0,1-.232-.573,3.29,3.29,0,0,1-.065-.539,5.465,5.465,0,0,1,.03-.828" transform="translate(-4.446 -11.672)" fill="#393842"/>
        <path id="Trazado_1247189" data-name="Trazado 1247189" d="M78.88,104.613s-.525.161-.212,1.09.7,2.24,1.722,2.331c0,.131-.885.417-1.091.457a.614.614,0,0,1-.327-.011S78,108.2,77.6,106.522s-.064-1.817.034-1.927A.683.683,0,0,1,78,104.41a5.293,5.293,0,0,1,.939.155c.092.039.1.065.1.065Z" transform="translate(-8.054 -10.864)" fill="#1c60db"/>
        <path id="Trazado_1247190" data-name="Trazado 1247190" d="M259.94,21.1a12.5,12.5,0,0,1-3.632,5.219,35.955,35.955,0,0,0-4.589,3.2.01.01,0,0,1-.011.009c-.159.137-.319.263-.469.4a14.519,14.519,0,0,0-2.967,3.589c-2.566,4.446-3,7.978-4.231,10.932S240.4,52.481,239.534,54,223.413,64.4,222.8,64.475a9.539,9.539,0,0,1-3.435.233c-1.312-.276-5.226-1.543-5.226-1.543s-4.056,1.486-4.666,1.564-1.873.644-3.309-2.241c-13.47,8.936-19.252,13.046-22.626,13.721a6.408,6.408,0,0,1-1.155.118l-.059.005c-.059.006-.109,0-.168.006a.1.1,0,0,1-.03-.007c-2.223-.011-4.341-1.028-4.712-2.537a1.839,1.839,0,0,1-.051-.333,2.4,2.4,0,0,1,.331-1.347,9.965,9.965,0,0,1,1.355-1.592c.037-.033.064-.065.1-.1,5.174-5.168,21.588-18.3,22.064-18.75.549-.52,3.647-2.435,3.647-2.435a14.932,14.932,0,0,0-1.761-.6,36.173,36.173,0,0,1-1.569-3.878,2.127,2.127,0,0,1-1.408-.456,1.8,1.8,0,0,1-.463-.584,15.933,15.933,0,0,1-1.415-5.627c.112-1.245,1.6-11.619,2-14.855s8.236-5.566,12.62-7.79,12.937-4.617,14.857-5.5a76.5,76.5,0,0,0,15.532-6.731h.011a15.542,15.542,0,0,1,3.44-.392c3.968.022,8.866,1.809,12.178,8.834a16.015,16.015,0,0,1,1.427,4.52,10.253,10.253,0,0,1-.375,4.926" transform="translate(-18.454 -0.294)" fill="#ffd5bf"/>
        <path id="Trazado_1247191" data-name="Trazado 1247191" d="M182.128,84.578c-2.217-.016-4.336-1.033-4.711-2.545,1.179.931,2.289,2.426,4.711,2.545" transform="translate(-18.46 -8.536)" fill="#ffd5bf"/>
        <g id="Grupo_1205029" data-name="Grupo 1205029" transform="translate(163.93 20.809)" style="mix-blend-mode: multiply;isolation: isolate">
          <g id="Grupo_1205028" data-name="Grupo 1205028">
            <g id="Grupo_1205027" data-name="Grupo 1205027" clip-path="url(#clip-path-27)">
              <path id="Trazado_1247192" data-name="Trazado 1247192" d="M260.523,23.226a12.5,12.5,0,0,1-3.632,5.219,35.956,35.956,0,0,0-4.589,3.2.01.01,0,0,1-.011.009c-.159.137-.319.263-.469.4a14.519,14.519,0,0,0-2.967,3.589c-2.566,4.446-3,7.978-4.231,10.932s-3.641,8.024-4.506,9.54S224,66.52,223.385,66.6a9.539,9.539,0,0,1-3.435.233c-1.312-.276-5.226-1.543-5.226-1.543s-4.056,1.486-4.666,1.564-1.873.644-3.309-2.241c-13.47,8.936-19.252,13.046-22.626,13.721a6.408,6.408,0,0,1-1.155.118c2.993-.28,15.557-8.882,23.389-14.092,2.41-1.6,5.867-3.839,6.8-4.385,3.574-2.049,4.665-3.058,6.68-3.886s11.834-5.764,12.56-6.2c.69-.4,5.617-2.9,6.161-3.159a32.989,32.989,0,0,1-5.907,4.062c-3.752,2.055-10.971,6.25-13.8,7.243a57.007,57.007,0,0,0-8.007,4.5l-.02,0c-1.965,1.251-3.475,2.25-3.475,2.25a3.279,3.279,0,0,0,1.273,1.674c.01,0,.01,0,.021.008a1.476,1.476,0,0,0,.32.12,7.646,7.646,0,0,0,2.892-.611c.135-.042.261-.084.4-.126.848-.3,1.637-.6,2.081-.754a.156.156,0,0,1,.039-.013v-.01a2.064,2.064,0,0,1,.34-.1c.22.01,5.423,1.524,7.091,1.458s13.923-7.176,16.528-9.154,6.128-10.619,6.922-13.513,2.489-8.161,3.318-9.35,4.75-5.131,7.937-8.6a17.048,17.048,0,0,1,4.013-2.582" transform="translate(-182.968 -23.226)" fill="#f2d5d5"/>
            </g>
          </g>
        </g>
        <g id="Grupo_1205032" data-name="Grupo 1205032" transform="translate(181.672 31.192)" style="mix-blend-mode: multiply;isolation: isolate">
          <g id="Grupo_1205031" data-name="Grupo 1205031">
            <g id="Grupo_1205030" data-name="Grupo 1205030" clip-path="url(#clip-path-28)">
              <path id="Trazado_1247193" data-name="Trazado 1247193" d="M218.368,44.648l-10.861,7.92a15.322,15.322,0,0,0-1.761-.6,36.675,36.675,0,0,1-1.572-3.877,2.087,2.087,0,0,1-1.4-.459c.909.417.8-.3.8-.3l1.2-12.517s-.536,12.036-.565,12.657,2.308,4.334,2.308,4.334l.451-.788,1.943-8.585-.637,5.339-.441,3.637Z" transform="translate(-202.77 -34.814)" fill="#f2d5d5"/>
            </g>
          </g>
        </g>
        <path id="Trazado_1247194" data-name="Trazado 1247194" d="M217.184,69.638a2.922,2.922,0,0,0-1.411-2.1,2.963,2.963,0,0,0-2.127-.441L210,68.914a2.234,2.234,0,0,0,1.442,2.1c1.431.4,5.742-1.381,5.742-1.381" transform="translate(-21.85 -6.976)" fill="#ffe5e0"/>
        <path id="Trazado_1247195" data-name="Trazado 1247195" d="M190.262,76.476c3.334-2.027,6.483-4.339,9.625-6.652q4-2.943,8-5.894a7.083,7.083,0,0,0,2.148-2.123,3.663,3.663,0,0,0-1.276-4.727,4.783,4.783,0,0,0-4.192-.112,14.157,14.157,0,0,0-3.6,2.4L188.1,70.017a22.673,22.673,0,0,0-2.7,2.493,19.578,19.578,0,0,0-1.9,2.711c-.783,1.283-1.271,4.126,1.117,3.834a11.265,11.265,0,0,0,2.418-.943,20.958,20.958,0,0,0,3.233-1.636" transform="translate(-19.025 -5.883)" fill="#ffdcc9"/>
        <path id="Trazado_1247196" data-name="Trazado 1247196" d="M185.837,78.107s-2.2,3.2-3.735,4.071a3.79,3.79,0,0,1-2.312.716,12.835,12.835,0,0,1-2.43-1.841c-.38-.583.239-1.577,1.784-3.053s3.124-2.365,3.976-2.4,2.3,1.634,2.3,1.634Z" transform="translate(-18.443 -7.866)" fill="#ffe5e0"/>
        <path id="Trazado_1247197" data-name="Trazado 1247197" d="M222.7,55.953a20.358,20.358,0,0,0,1.781-1.289,19.969,19.969,0,0,1,3.121-1.39c2.14-.931,4.261-1.909,6.317-3.016a15.094,15.094,0,0,0,3.87-2.718,6.161,6.161,0,0,0,1.848-4.245,1.807,1.807,0,0,0-.24-.967,1.914,1.914,0,0,0-.468-.455c-2.51-1.867-6.03-1.778-8.982-.741s-5.535,2.886-8.275,4.4c-3.538,1.95-7.422,3.38-10.5,6-2.9,2.464-5.98,4.7-9.044,6.953-1.325.977-1.123,3.567.143,4.631a3.563,3.563,0,0,0,2.532.615,12.373,12.373,0,0,0,4.452-1.163c1.283-.591,2.3-1.549,3.574-2.087,3.338-1.406,6.661-2.833,9.869-4.523" transform="translate(-20.937 -4.204)" fill="#ffdcc9"/>
        <path id="Trazado_1247198" data-name="Trazado 1247198" d="M235.18,54.907q-7.316,3.655-14.833,6.888a5.065,5.065,0,0,0-1.545.89,1.7,1.7,0,0,0-.558,1.611,1.841,1.841,0,0,0,.453.75,6.418,6.418,0,0,0,2.674,1.516,8.965,8.965,0,0,0,4.035.675,9.553,9.553,0,0,0,3.173-1.177c3.365-1.758,6.593-3.767,9.816-5.773a16.923,16.923,0,0,0,3.192-2.355,16.8,16.8,0,0,0,1.969-2.6,18.9,18.9,0,0,0,1.906-3.357,7.481,7.481,0,0,1,.9-2.018,11.2,11.2,0,0,0,1.234-1.923,18.249,18.249,0,0,0,1.653-4.885c.073-.389.1-.865-.215-1.1a.825.825,0,0,0-.54-.133,3.015,3.015,0,0,0-1.34.518A21.615,21.615,0,0,0,244,44.512c-.754.66-.832,1.977-.938,2.935a4.66,4.66,0,0,1-.187,1.02c-.363,1.038-1.279,1.39-2,2.074-.815.771-1.263,1.82-2.228,2.467a30.827,30.827,0,0,1-3.458,1.9" transform="translate(-22.703 -4.361)" fill="#ffdcc9"/>
        <path id="Trazado_1247199" data-name="Trazado 1247199" d="M241.892,7.427c-3.42.649-6.2,3.308-9.585,4.015-1.833.383-6.8,1.5-8.451,2.41-4.285,2.371-9.031,3.716-13.472,5.745a9.3,9.3,0,0,0-3.073,1.944,4.992,4.992,0,0,0,.433,6.935c.523.441,1.2.859,1.268,1.54.028.265-.047.53-.04.8a1.891,1.891,0,0,0,1.194,1.544,10.011,10.011,0,0,0,1.987.515,1.7,1.7,0,0,1,.795.353,2.152,2.152,0,0,1,.47,1.277,7.868,7.868,0,0,0,.713,2.206,2.786,2.786,0,0,0,1.6,1.584c1.015.272,2.239-.411,3.081.218a3.016,3.016,0,0,1,.656.848,5.634,5.634,0,0,0,4.137,2.524,10.792,10.792,0,0,0,2.918-.243c2.527-.451,5.139-1.922,7.521-.2.425.308.8.687,1.244.963a6.537,6.537,0,0,0,1.856.677,12.156,12.156,0,0,0,4.457.56c2.87-.357,5.031-3.125,5.971-5.672,1.239-3.36.247-4.218,1.127-7.59.736-2.822,3.748-5.334,5.482-7.66,1.558-2.09,3.2-4.593,2.51-7.106-.534-1.942-2.313-3.236-3.975-4.372-3.247-2.22-6.962-4.548-10.826-3.815" transform="translate(-21.446 -0.758)" fill="#ffdcc9"/>
        <path id="Trazado_1247200" data-name="Trazado 1247200" d="M266.844,16.177c-.062.025-.113.051-.175.075-1.16.457-5.029-.333-6.282.166a.3.3,0,0,0-.1.042,11.892,11.892,0,0,1-5.548,1.715c-1.7-.023-2.536-.9-3.954-1.484-1.649-.676-3.6-.759-5.3-1.4a24.785,24.785,0,0,1-4.7-2.388c-.349-.237-.732-.564-.67-.977a1.077,1.077,0,0,1,.375-.588,39.217,39.217,0,0,1,5.383-4.445c2.338-1.658,4.789-2.344,7.371-4.071,3.968.022,8.866,1.809,12.177,8.834a15.991,15.991,0,0,1,1.428,4.52" transform="translate(-24.982 -0.294)" fill="#ffdcc9"/>
        <path id="Trazado_1247201" data-name="Trazado 1247201" d="M196.413,112.516a9.31,9.31,0,0,1-9.129,9.707c-5.042.136-9.13-3.52-9.13-9.212s9.13-22.7,9.13-22.7,9.129,16.509,9.129,22.2" transform="translate(-18.537 -9.397)" fill="#fe5754"/>
        <path id="Trazado_1247202" data-name="Trazado 1247202" d="M188.7,92.24s.262,11.946.6,17.378,8.185,3.909,6.544-1.395c-.753-2.436-7.142-15.983-7.142-15.983" transform="translate(-19.634 -9.597)" fill="#fe817c"/>
        <g id="Grupo_1205035" data-name="Grupo 1205035" transform="translate(108.721 133.998)" style="mix-blend-mode: multiply;isolation: isolate">
          <g id="Grupo_1205034" data-name="Grupo 1205034">
            <g id="Grupo_1205033" data-name="Grupo 1205033" clip-path="url(#clip-path-29)">
              <path id="Trazado_1247203" data-name="Trazado 1247203" d="M187.752,160.674l-10.713-7.413c-4.937-3.416-12.822-4.482-19.64-3.124-6.288-1.263-13.611-.464-18.72,2.486l-12.019,6.939c-7.5,4.332-6.992,11.424,1.106,15.325l12.84,6.186a26.886,26.886,0,0,0,11.472,2.4c.289,0,10.166,0,10.455-.012l.311-.012A26.669,26.669,0,0,0,176.7,180.4l9.892-5.711c6.611-3.817,7.116-9.9,1.163-14.016" transform="translate(-121.347 -149.559)" fill="#d9dbe2"/>
            </g>
          </g>
        </g>
        <path id="Trazado_1247204" data-name="Trazado 1247204" d="M134.536,154.906,145.9,155l5.969-3.446c7.5-4.332,19.789-4.037,26.545.638l4.485,3.1,10.379.083v10.789l-.019.008c.023,2.7-1.748,5.4-5.3,7.445l-9.892,5.712c-6.611,3.817-17.142,4.108-24.277.671l-12.84-6.185c-4.248-2.047-6.386-4.973-6.4-7.917l-.02-.007Z" transform="translate(-13.998 -15.449)" fill="#b3b3b3"/>
        <path id="Trazado_1247205" data-name="Trazado 1247205" d="M201.544,185.18v-2.527L185.1,173.159v2.527Z" transform="translate(-19.259 -18.017)" fill="#8d8d8d"/>
        <path id="Trazado_1247206" data-name="Trazado 1247206" d="M203.454,185.857V183.33l6.354-3.668v2.526Z" transform="translate(-21.169 -18.694)" fill="#b3b3b3"/>
        <path id="Trazado_1247207" data-name="Trazado 1247207" d="M178.069,167.214l9.892-5.712c6.611-3.817,7.116-9.9,1.163-14.015l-10.713-7.413c-6.756-4.675-19.042-4.971-26.545-.639l-12.019,6.939c-7.5,4.333-6.992,11.425,1.106,15.326l12.84,6.185c7.134,3.437,17.665,3.146,24.277-.671" transform="translate(-13.998 -14.189)" fill="#ccc"/>
        <path id="Trazado_1247208" data-name="Trazado 1247208" d="M165.383,168.188a24.986,24.986,0,0,0,12.285-2.928l9.892-5.712c2.991-1.727,4.691-3.959,4.785-6.285.088-2.137-1.225-4.255-3.695-5.964l-10.713-7.413c-3.233-2.237-8.026-3.519-13.151-3.519a24.961,24.961,0,0,0-12.275,2.927l-12.019,6.939c-3.179,1.835-4.878,4.2-4.787,6.669.1,2.59,2.219,5.071,5.824,6.807l12.839,6.186a25.918,25.918,0,0,0,11.015,2.294" transform="translate(-14.12 -14.189)" fill="#e1e1e1"/>
        <path id="Trazado_1247209" data-name="Trazado 1247209" d="M184.411,157.668l2.751-1.589c2-1.154,1.746-3.189-.563-4.521s-5.831-1.478-7.83-.324l-2.751,1.589c-2,1.154-1.746,3.188.562,4.521s5.832,1.478,7.831.324" transform="translate(-18.174 -15.655)" fill="#b3b3b3"/>
        <path id="Trazado_1247210" data-name="Trazado 1247210" d="M170.5,165.7l2.751-1.589c2-1.154,1.746-3.189-.562-4.521s-5.832-1.478-7.831-.324l-2.751,1.589c-2,1.154-1.746,3.188.562,4.521s5.832,1.478,7.831.324" transform="translate(-16.726 -16.491)" fill="#b3b3b3"/>
        <path id="Trazado_1247211" data-name="Trazado 1247211" d="M158.239,156.937l15.785-9.114c2.054-1.186,1.8-3.258-.575-4.628l-5.6-3.231c-2.372-1.37-5.961-1.519-8.015-.332l-15.785,9.113c-2.054,1.186-1.8,3.259.575,4.628l5.6,3.231c2.372,1.37,5.961,1.519,8.015.332" transform="translate(-14.844 -14.445)" fill="#393842"/>
        <path id="Trazado_1247212" data-name="Trazado 1247212" d="M156.026,155.73l15.909-9.185c.581-.335.508-.921-.163-1.309l-7.652-4.418a2.523,2.523,0,0,0-2.268-.094l-15.909,9.185c-.581.335-.508.921.162,1.309l7.652,4.418a2.523,2.523,0,0,0,2.268.094" transform="translate(-15.144 -14.619)" fill="#6c7072"/>
        <path id="Trazado_1247213" data-name="Trazado 1247213" d="M201.544,182.228l6.354-3.669-16.444-9.494-6.355,3.669Z" transform="translate(-19.259 -17.591)" fill="#e1e1e1"/>
        <path id="Trazado_1247214" data-name="Trazado 1247214" d="M190.555,152.447l-.729.038a4.937,4.937,0,0,0-1.181-.926c-2.308-1.332-5.832-1.478-7.831-.324l-2.751,1.589a3.672,3.672,0,0,0-.427.291l-.921.047V154.8h.005a3.222,3.222,0,0,0,1.9,2.541c2.308,1.332,5.832,1.478,7.831.324l2.751-1.589a2.3,2.3,0,0,0,1.342-2h.005Z" transform="translate(-18.387 -15.655)" fill="#1b5cb9"/>
        <path id="Trazado_1247215" data-name="Trazado 1247215" d="M176.64,160.523l-.7.033a4.887,4.887,0,0,0-1.214-.962c-2.309-1.333-5.832-1.479-7.831-.325l-2.751,1.589a3.667,3.667,0,0,0-.414.28l-.933.044v1.709l.006,0a3.262,3.262,0,0,0,1.9,2.484c2.308,1.333,5.832,1.479,7.831.325l2.751-1.589a2.338,2.338,0,0,0,1.346-1.915h0Z" transform="translate(-16.939 -16.491)" fill="#1b5cb9"/>
        <path id="Trazado_1247216" data-name="Trazado 1247216" d="M186.455,155.83l2.751-1.589c2-1.154,1.746-3.189-.563-4.521s-5.831-1.478-7.83-.324l-2.751,1.589c-2,1.154-1.746,3.188.562,4.521s5.832,1.478,7.831.324" transform="translate(-18.387 -15.464)" fill="#1b77bb"/>
        <path id="Trazado_1247217" data-name="Trazado 1247217" d="M183.179,154.857a5.894,5.894,0,0,0,2.875-.639l2.751-1.589c.308-.177.825-.552.825-1.055,0-.525-.532-1.158-1.388-1.653a8.041,8.041,0,0,0-3.908-.962,5.906,5.906,0,0,0-2.876.638l-2.751,1.589c-.308.177-.825.551-.825,1.055,0,.525.532,1.158,1.388,1.652a8.035,8.035,0,0,0,3.909.963" transform="translate(-18.508 -15.499)" fill="#418ec6"/>
        <path id="Trazado_1247218" data-name="Trazado 1247218" d="M172.541,163.863l2.751-1.589c2-1.154,1.746-3.189-.562-4.521s-5.832-1.478-7.831-.324l-2.751,1.589c-2,1.154-1.746,3.188.562,4.521s5.832,1.478,7.831.324" transform="translate(-16.939 -16.299)" fill="#1b77bb"/>
        <path id="Trazado_1247219" data-name="Trazado 1247219" d="M169.264,162.891a5.89,5.89,0,0,0,2.875-.639l2.751-1.589c.308-.178.825-.552.825-1.055,0-.526-.532-1.159-1.388-1.653a8.041,8.041,0,0,0-3.908-.962,5.906,5.906,0,0,0-2.876.638l-2.751,1.589c-.308.177-.825.551-.825,1.056,0,.525.532,1.158,1.388,1.652a8.045,8.045,0,0,0,3.909.963" transform="translate(-17.061 -16.335)" fill="#418ec6"/>
      </g>
    </g>
  </g>
</svg>
