<svg xmlns="http://www.w3.org/2000/svg" xmlns:xlink="http://www.w3.org/1999/xlink" width="152.667" height="155.089" viewBox="0 0 152.667 155.089">
  <defs>
    <clipPath id="clip-path">
      <rect id="Rectángulo_426575" data-name="Rectángulo 426575" width="152.667" height="155.089" fill="none"/>
    </clipPath>
    <clipPath id="clip-path-3">
      <rect id="Rectángulo_426566" data-name="Rectángulo 426566" width="124.194" height="42.422" fill="none"/>
    </clipPath>
    <clipPath id="clip-path-4">
      <rect id="Rectángulo_426567" data-name="Rectángulo 426567" width="115.859" height="57.469" fill="none"/>
    </clipPath>
    <clipPath id="clip-path-5">
      <path id="Trazado_1246927" data-name="Trazado 1246927" d="M116.067,36.462a1.832,1.832,0,0,0-.832.255L65.721,65.3a3.565,3.565,0,0,0-1.377,3.847l10.746,40.676a1.54,1.54,0,0,0,1.439,1.3h.016l.783.067-.054-.223,50.387-29.091a2.707,2.707,0,0,0,1.045-2.924L117.96,38.279a2.329,2.329,0,0,0-1.1-1.52l.044-.234-.834-.066Z" transform="translate(-64.229 -36.458)" fill="none"/>
    </clipPath>
    <linearGradient id="linear-gradient" x1="-0.246" y1="1.602" x2="-0.239" y2="1.602" gradientUnits="objectBoundingBox">
      <stop offset="0" stop-color="#a0a6c0"/>
      <stop offset="0.014" stop-color="#a0a6c0"/>
      <stop offset="0.383" stop-color="#a0a6c0"/>
      <stop offset="0.386" stop-color="#acb1c8"/>
      <stop offset="0.394" stop-color="#c6c8d9"/>
      <stop offset="0.403" stop-color="#d8d9e6"/>
      <stop offset="0.412" stop-color="#e3e3ed"/>
      <stop offset="0.422" stop-color="#e7e7f0"/>
      <stop offset="1" stop-color="#e7e7f0"/>
    </linearGradient>
    <clipPath id="clip-path-7">
      <rect id="Rectángulo_426570" data-name="Rectángulo 426570" width="21.474" height="61.711" fill="none"/>
    </clipPath>
    <clipPath id="clip-path-8">
      <path id="Trazado_1246938" data-name="Trazado 1246938" d="M138.173,115.206,90.894,142.682l-3.238.385v2.045l0,0a1.224,1.224,0,0,0,.736,1.076l31.315,18.08a5.338,5.338,0,0,0,4.847,0l48.485-28.176a1.721,1.721,0,0,0,.992-1.358h0v-1.947l-1.552.185-30.774-17.768a3.9,3.9,0,0,0-3.539,0" transform="translate(-87.656 -114.781)" fill="none"/>
    </clipPath>
    <linearGradient id="linear-gradient-2" x1="-0.588" y1="1.762" x2="-0.581" y2="1.762" gradientUnits="objectBoundingBox">
      <stop offset="0" stop-color="#a0a6c0"/>
      <stop offset="0.014" stop-color="#a0a6c0"/>
      <stop offset="0.383" stop-color="#a0a6c0"/>
      <stop offset="0.385" stop-color="#a3a8c2"/>
      <stop offset="0.4" stop-color="#b5bace"/>
      <stop offset="0.416" stop-color="#c0c4d5"/>
      <stop offset="0.433" stop-color="#c4c8d8"/>
      <stop offset="0.979" stop-color="#c4c8d8"/>
      <stop offset="1" stop-color="#c4c8d8"/>
    </linearGradient>
    <clipPath id="clip-path-10">
      <rect id="Rectángulo_426573" data-name="Rectángulo 426573" width="23.923" height="47.514" fill="none"/>
    </clipPath>
  </defs>
  <g id="Grupo_1204933" data-name="Grupo 1204933" clip-path="url(#clip-path)">
    <g id="Grupo_1204918" data-name="Grupo 1204918">
      <g id="Grupo_1204917" data-name="Grupo 1204917" clip-path="url(#clip-path)">
        <path id="Trazado_1246896" data-name="Trazado 1246896" d="M130.478,190.831c-29.717,17.157-78.048,17.07-107.951-.2s-30.055-45.168-.339-62.326,78.048-17.069,107.951.2,30.055,45.168.338,62.326" transform="translate(0 -48.552)" fill="#b3caf5"/>
        <path id="Trazado_1246897" data-name="Trazado 1246897" d="M130.478,180.41c-29.717,17.157-78.048,17.07-107.951-.2s-30.055-45.168-.339-62.326,78.048-17.069,107.951.2,30.055,45.168.338,62.326" transform="translate(0 -44.172)" fill="#ecf2fd"/>
        <path id="Trazado_1246898" data-name="Trazado 1246898" d="M130.5,178.989c-29.156,16.833-76.576,16.748-105.916-.191S-4.9,134.48,24.253,117.647s76.576-16.748,105.916.191,29.488,44.317.332,61.151" transform="translate(-1.044 -44.171)" fill="#e1eafb"/>
        <path id="Trazado_1246899" data-name="Trazado 1246899" d="M59.841,193.1c.136.533.232.726-.758,1.16a4.7,4.7,0,0,0-1.445.918s.407.628-.825,1.111-6.183-.9-3.14-2.71a7.337,7.337,0,0,1,6.168-.479" transform="translate(-22.153 -80.977)" fill="#b3caf5"/>
        <path id="Trazado_1246900" data-name="Trazado 1246900" d="M40.537,202.508s2.156.762,1.177,1.686a5.841,5.841,0,0,1-2.808,1.413c-.76.181-.905.489-1.883.525s-2.029-1.014-1.468-1.938a8.287,8.287,0,0,1,3.967-2.362,1.32,1.32,0,0,1,1.014.676" transform="translate(-14.881 -84.843)" fill="#b3caf5"/>
        <g id="Grupo_1204913" data-name="Grupo 1204913" transform="translate(15.364 100.652)" style="mix-blend-mode: multiply;isolation: isolate">
          <g id="Grupo_1204912" data-name="Grupo 1204912">
            <g id="Grupo_1204911" data-name="Grupo 1204911" clip-path="url(#clip-path-3)">
              <path id="Trazado_1246901" data-name="Trazado 1246901" d="M147.744,175.357a15.663,15.663,0,0,0-14.172-.026c-3.848,2.221-3.873,5.813-.106,8.086A22.281,22.281,0,0,1,129,185.686c-4.063,1.271-6.514,2.988-7.494,5.25-1.038,2.4-.1,4.852.687,6.491,2.007,4.152,1.424,5.572.454,7a12.3,12.3,0,0,1-3.455,3.094,39.769,39.769,0,0,1-3.473,2.052,42.589,42.589,0,0,1-16.794,4.709,35.578,35.578,0,0,1-12.211-.983c-3.693-1.055-6.981-3.1-10.16-5.071-.893-.555-1.813-1.115-2.74-1.664,1.816-1.436,3.893-3.509,3.8-5.43C77.472,198,69.494,186.428,62.84,183c-4.954-2.549-11.325-1.613-18.939,2.783l1.049,1.817c6.956-4.016,12.653-4.937,16.93-2.735,6.323,3.253,13.552,14.392,13.644,16.36.063,1.334-3.071,3.909-5.222,5.242-.453.24-6.167,3.221-10.189,3.172-4.564-.071-24.237-4.175-29.78-7.765-1.15-.745-1.731-1.524-1.728-2.316,0-.822.651-2.608,4.941-5.334l-1.124-1.771c-3.97,2.522-5.9,4.842-5.915,7.095-.006,1.553.9,2.928,2.685,4.086,5.924,3.837,26.04,8.027,30.889,8.1h.152c4.2,0,9.577-2.652,10.833-3.3h0c.143-.074.235-.123.261-.138v0l.052-.028c.2-.121.541-.339.967-.631,1.123.649,2.241,1.332,3.326,2.006,3.277,2.035,6.666,4.139,10.584,5.258a33.476,33.476,0,0,0,9.242,1.169q1.7,0,3.542-.125a44.266,44.266,0,0,0,17.457-4.9,41.593,41.593,0,0,0,3.619-2.138,13.789,13.789,0,0,0,3.914-3.547c1.429-2.1,1.833-4.19-.33-8.666-.7-1.456-1.415-3.352-.658-5.1.764-1.764,2.937-3.217,6.459-4.318a25.374,25.374,0,0,0,5.716-3.016c3.9,1.48,9.165,1.24,12.572-.727,3.9-2.252,3.881-5.916-.045-8.182" transform="translate(-26.506 -173.649)" fill="#d9dbe2"/>
            </g>
          </g>
        </g>
        <path id="Trazado_1246902" data-name="Trazado 1246902" d="M84.852,211.414l-.853.441-.248-2.226c2.152-1.329,5.307-3.918,5.244-5.256-.1-2.131-6.608-12.96-12.849-16.171-4.278-2.2-9.975-1.283-16.93,2.734l-1.049-1.817c7.613-4.395,13.985-5.332,18.939-2.783,6.77,3.484,13.848,15.024,13.985,17.938.143,3.047-5.172,6.482-6.239,7.139" transform="translate(-24.451 -77.741)" fill="#9f9f9f"/>
        <path id="Trazado_1246903" data-name="Trazado 1246903" d="M39.372,203.26a1.5,1.5,0,0,1,.313-2.181,1.827,1.827,0,0,1,2.2.937,1.5,1.5,0,0,1-.313,2.181,1.827,1.827,0,0,1-2.2-.937" transform="translate(-16.419 -84.477)" fill="#1c60db"/>
        <path id="Trazado_1246904" data-name="Trazado 1246904" d="M41.238,204.343l-.864.484-1.992-3.056.925-.515,1.642,1.331Z" transform="translate(-16.135 -84.602)" fill="#1c60db"/>
        <path id="Trazado_1246905" data-name="Trazado 1246905" d="M40.5,201.68a1.95,1.95,0,0,1,.675-2.8,2.305,2.305,0,0,1,2.773,1.182,1.818,1.818,0,0,1-.609,2.634A2.3,2.3,0,0,1,40.5,201.68" transform="translate(-16.882 -83.537)" fill="#1c60db"/>
        <path id="Trazado_1246906" data-name="Trazado 1246906" d="M37.8,204.132a1.5,1.5,0,0,1,.313-2.181,1.827,1.827,0,0,1,2.2.937A1.5,1.5,0,0,1,40,205.069a1.827,1.827,0,0,1-2.2-.937" transform="translate(-15.758 -84.843)" fill="#1c4cc7"/>
        <path id="Trazado_1246907" data-name="Trazado 1246907" d="M61.089,222.675h-.153c-4.849-.076-24.172-4.079-30.094-7.915-1.788-1.158-2.691-2.533-2.684-4.085.01-2.252,1.944-4.574,5.914-7.1a.908.908,0,0,1,1.194.3c.851,1.116-.069,1.474-.069,1.474-4.291,2.726-4.937,4.512-4.941,5.334,0,.792.578,1.57,1.727,2.316,5.541,3.589,24.427,7.507,28.986,7.578,4.121.058,10.159-3.156,10.22-3.189l1,1.845c-.263.143-6.419,3.442-11.1,3.442" transform="translate(-11.837 -85.531)" fill="#9f9f9f"/>
        <path id="Trazado_1246908" data-name="Trazado 1246908" d="M84.752,210.632l-.456-.74c1.57-.968,5.625-3.9,5.535-5.807-.107-2.273-6.63-13.318-13.182-16.689-4.475-2.3-10.37-1.38-17.518,2.749l-.435-.753c7.421-4.285,13.6-5.216,18.351-2.769,6.612,3.4,13.52,14.6,13.652,17.421.13,2.76-5.325,6.2-5.947,6.588" transform="translate(-24.674 -77.891)" fill="#c9c9c9"/>
        <path id="Trazado_1246909" data-name="Trazado 1246909" d="M61.536,221.756h-.144c-4.8-.075-23.925-4.031-29.77-7.816-1.6-1.038-2.41-2.238-2.4-3.568.009-2,1.9-4.212,5.629-6.579,0,0,.4-.222.646.079.271.337-.18.654-.18.654-3.411,2.167-5.218,4.19-5.226,5.85,0,1.014.671,1.968,2.008,2.833,5.611,3.635,24.7,7.6,29.31,7.677h.13c4.3,0,10.33-3.23,10.39-3.264l.61.643-.2.122c-.257.139-6.281,3.368-10.8,3.368" transform="translate(-12.282 -85.634)" fill="#c9c9c9"/>
        <path id="Trazado_1246910" data-name="Trazado 1246910" d="M62.9,189.724a1.617,1.617,0,0,0-2.006-1.031l-.933.475.231.494a2.1,2.1,0,0,0,1.013,2.167l.253.541.933-.475v0a1.627,1.627,0,0,0,.509-2.166" transform="translate(-25.204 -79.278)" fill="#1c60db"/>
        <path id="Trazado_1246911" data-name="Trazado 1246911" d="M61.428,190.544a1.439,1.439,0,1,1-2.006-1.031,1.616,1.616,0,0,1,2.006,1.031" transform="translate(-24.668 -79.623)" fill="#1c60db"/>
        <path id="Trazado_1246912" data-name="Trazado 1246912" d="M59.208,191.472a1.816,1.816,0,1,1-2.531-1.3,2.04,2.04,0,0,1,2.531,1.3" transform="translate(-23.433 -79.888)" fill="#1c60db"/>
        <path id="Trazado_1246913" data-name="Trazado 1246913" d="M57.86,193.216c.286.522.248,1.092-.085,1.274s-.833-.093-1.119-.614-.248-1.091.085-1.273.833.093,1.119.614" transform="translate(-23.736 -80.94)" fill="#1c4c83"/>
        <path id="Trazado_1246914" data-name="Trazado 1246914" d="M232.339,176.4h-.286a5.983,5.983,0,0,0-2.672-2.766,15.663,15.663,0,0,0-14.172-.025,5.869,5.869,0,0,0-2.636,2.743H212.3v2.326h0c0,1.485.987,2.974,2.956,4.11a15.661,15.661,0,0,0,14.172.026c1.948-1.124,2.917-2.6,2.912-4.079h0Z" transform="translate(-89.243 -72.273)" fill="#a9a9a9"/>
        <path id="Trazado_1246915" data-name="Trazado 1246915" d="M229.426,179.521a15.663,15.663,0,0,1-14.172-.025c-3.925-2.266-3.946-5.93-.044-8.182a15.662,15.662,0,0,1,14.171.025c3.926,2.266,3.946,5.93.045,8.182" transform="translate(-89.243 -71.308)" fill="#919191"/>
        <path id="Trazado_1246916" data-name="Trazado 1246916" d="M229.453,178.6a13.013,13.013,0,0,1-11.775-.021c-3.262-1.883-3.278-4.927-.037-6.8a13.014,13.014,0,0,1,11.775.021c3.262,1.883,3.278,4.927.037,6.8" transform="translate(-90.472 -71.625)" fill="#c5c5c5"/>
        <path id="Trazado_1246917" data-name="Trazado 1246917" d="M229.505,176.6a7.913,7.913,0,0,1-7.157-.013c-1.982-1.145-1.992-2.995-.022-4.132a7.908,7.908,0,0,1,7.157.013c1.983,1.145,1.993,2.995.023,4.132" transform="translate(-92.84 -72.136)" fill="#9f9f9f"/>
        <path id="Trazado_1246918" data-name="Trazado 1246918" d="M230.371,170.386h-5.715v2.952h0a1.425,1.425,0,0,0,.842,1.178,4.466,4.466,0,0,0,4.041.008,1.4,1.4,0,0,0,.83-1.17h0Z" transform="translate(-94.438 -71.625)" fill="#7c7c7c"/>
        <path id="Trazado_1246919" data-name="Trazado 1246919" d="M230.558,165.849l-2.469,1.567a6.014,6.014,0,0,0-2.156,0l-2.451-1.578v3.516h0a1.777,1.777,0,0,0,1.043,1.439,5.527,5.527,0,0,0,5,.009,1.746,1.746,0,0,0,1.028-1.435h0Z" transform="translate(-93.945 -69.712)" fill="#919191"/>
        <path id="Trazado_1246920" data-name="Trazado 1246920" d="M229.53,165.8a5.527,5.527,0,0,1-5-.009c-1.385-.8-1.393-2.093-.016-2.888a5.531,5.531,0,0,1,5,.009c1.386.8,1.393,2.093.016,2.888" transform="translate(-93.945 -68.231)" fill="#bfbfbf"/>
        <path id="Trazado_1246921" data-name="Trazado 1246921" d="M221.609,173.808l-.68-.949a2.66,2.66,0,0,1-.593-.828l-.675-.942,2.892-1.975,0,0a.922.922,0,0,1,.887-.009,2.461,2.461,0,0,1,1.377,1.923.863.863,0,0,1-.318.805h0Z" transform="translate(-92.338 -71.04)" fill="#bfbfbf"/>
        <path id="Trazado_1246922" data-name="Trazado 1246922" d="M221.69,174.437a2.461,2.461,0,0,0-1.377-1.923c-.715-.3-1.257.061-1.211.818a2.462,2.462,0,0,0,1.377,1.923c.715.3,1.257-.061,1.211-.818" transform="translate(-92.102 -72.474)" fill="#7c7c7c"/>
        <path id="Trazado_1246923" data-name="Trazado 1246923" d="M221.542,174.653a1.437,1.437,0,0,0-.8-1.122c-.417-.178-.733.036-.707.478a1.437,1.437,0,0,0,.8,1.122c.417.178.733-.036.707-.478" transform="translate(-92.494 -72.92)" fill="#1c60db"/>
        <path id="Trazado_1246924" data-name="Trazado 1246924" d="M173.2,175.14c-.719.672-1.1,1.032-1.229,1.8a8.259,8.259,0,0,0-.086.9,6.012,6.012,0,0,1-.36,1.959,6.185,6.185,0,0,1-2.237,2.475,26.641,26.641,0,0,1-6.434,3.53c-3.524,1.1-5.7,2.556-6.462,4.318-.754,1.745-.046,3.64.661,5.1,2.162,4.475,1.756,6.567.33,8.666a13.876,13.876,0,0,1-3.913,3.547,41.406,41.406,0,0,1-3.623,2.139,44.253,44.253,0,0,1-17.458,4.892q-1.835.13-3.542.128a33.443,33.443,0,0,1-9.24-1.171c-3.918-1.119-7.3-3.223-10.583-5.257-1.124-.7-2.29-1.42-3.46-2.092-.157-.087-.157-.522.18-.951a2.166,2.166,0,0,1,.226-.243.414.414,0,0,1,.284-.133,1.127,1.127,0,0,1,.678.185c1.02.574,2.006,1.211,2.979,1.814,3.176,1.977,6.463,4.017,10.155,5.072a35.654,35.654,0,0,0,12.212.985,42.629,42.629,0,0,0,16.793-4.712,38.283,38.283,0,0,0,3.472-2.052,12.156,12.156,0,0,0,3.454-3.1c.974-1.42,1.554-2.84-.452-7-.794-1.64-1.727-4.092-.69-6.486.985-2.266,3.431-3.982,7.5-5.251a24.94,24.94,0,0,0,5.935-3.275,4.828,4.828,0,0,0,1.693-1.768,4.571,4.571,0,0,0,.238-1.432,10.677,10.677,0,0,1,.11-1.09,4.515,4.515,0,0,1,1.7-2.7l.168.168.406.417Z" transform="translate(-44.335 -73.121)" fill="#1c60db"/>
        <path id="Trazado_1246925" data-name="Trazado 1246925" d="M173.031,174.295a1.707,1.707,0,0,1-.226.214,3.149,3.149,0,0,0-1.165,1.884,8.46,8.46,0,0,0-.093.962,5.532,5.532,0,0,1-.319,1.791,5.74,5.74,0,0,1-2.064,2.243,26.005,26.005,0,0,1-6.272,3.449c-3.675,1.148-5.964,2.707-6.793,4.62-.846,1.953-.087,3.994.667,5.553,2.046,4.243,1.687,6.19.371,8.121a13.253,13.253,0,0,1-3.762,3.4c-1.148.754-2.348,1.466-3.571,2.11a43.841,43.841,0,0,1-17.244,4.834c-1.217.081-2.382.122-3.507.122a32.829,32.829,0,0,1-9.089-1.148c-3.843-1.1-7.2-3.182-10.445-5.194-1.165-.725-2.365-1.466-3.571-2.156a2.166,2.166,0,0,1,.226-.243.414.414,0,0,1,.284-.133c1.142.655,2.266,1.356,3.368,2.04,3.211,1.994,6.532,4.052,10.294,5.13a36.026,36.026,0,0,0,12.4,1,43.066,43.066,0,0,0,17.012-4.77,39.505,39.505,0,0,0,3.518-2.081,12.7,12.7,0,0,0,3.605-3.24c1.038-1.519,1.722-3.136-.412-7.541-.811-1.675-1.617-3.872-.678-6.034.9-2.081,3.31-3.744,7.158-4.95a25.382,25.382,0,0,0,6.092-3.356,5.228,5.228,0,0,0,1.878-2,5.016,5.016,0,0,0,.272-1.606,8.922,8.922,0,0,1,.1-1.026,3.716,3.716,0,0,1,1.327-2.2c.077-.071.155-.187.26-.2a.591.591,0,0,1,.318.118.19.19,0,0,1,.1.119.22.22,0,0,1-.05.163" transform="translate(-44.538 -73.099)" fill="#4c88ff"/>
        <g id="Grupo_1204916" data-name="Grupo 1204916" transform="translate(21.712 60.195)" style="mix-blend-mode: multiply;isolation: isolate">
          <g id="Grupo_1204915" data-name="Grupo 1204915">
            <g id="Grupo_1204914" data-name="Grupo 1204914" clip-path="url(#clip-path-4)">
              <path id="Trazado_1246926" data-name="Trazado 1246926" d="M152.289,129.223l-31.842-18.384a3.966,3.966,0,0,0-3.6,0l-.4.235-.407-.235a4.017,4.017,0,0,0-2.975-.258l-20.639-6.3a3.966,3.966,0,0,0-3.6,0L38.2,133.7a1.1,1.1,0,0,0,.012,2.084l26,7.936,29.454,17.005a4.713,4.713,0,0,0,1.833.556l.013.035h5.527l.009-.028a4.727,4.727,0,0,0,1.957-.563l49.3-28.65c1.356-.788,1.349-2.067-.016-2.855" transform="translate(-37.458 -103.85)" fill="#d9dbe2"/>
            </g>
          </g>
        </g>
      </g>
    </g>
    <g id="Grupo_1204920" data-name="Grupo 1204920" transform="translate(37.229 21.132)">
      <g id="Grupo_1204919" data-name="Grupo 1204919" clip-path="url(#clip-path-5)">
        <rect id="Rectángulo_426569" data-name="Rectángulo 426569" width="93.179" height="87.641" transform="translate(-25.438 64.988) rotate(-68.831)" fill="url(#linear-gradient)"/>
      </g>
    </g>
    <g id="Grupo_1204925" data-name="Grupo 1204925">
      <g id="Grupo_1204924" data-name="Grupo 1204924" clip-path="url(#clip-path)">
        <path id="Trazado_1246928" data-name="Trazado 1246928" d="M116.534,36.831,67.021,65.418a3.564,3.564,0,0,0-1.377,3.847l10.746,40.676c.294,1.111,1.239,1.605,2.109,1.1l50.51-29.162a2.708,2.708,0,0,0,1.046-2.924L119.309,38.281c-.387-1.462-1.629-2.112-2.775-1.45" transform="translate(-27.546 -15.374)" fill="#494855"/>
        <path id="Trazado_1246929" data-name="Trazado 1246929" d="M118.608,38.906,67.254,68.555l10.5,39.728L129.1,78.633Z" transform="translate(-28.271 -16.355)" fill="#7c78f0"/>
        <path id="Trazado_1246930" data-name="Trazado 1246930" d="M90.643,93.775l-14.083,8.193L72.249,87.013,86.331,78.82Z" transform="translate(-30.371 -33.133)" fill="#eff0f5"/>
        <path id="Trazado_1246931" data-name="Trazado 1246931" d="M86.013,100.3l2.866-1.667L86.19,89.305l-2.866,1.667Z" transform="translate(-35.027 -37.541)" fill="#9fbae2"/>
        <path id="Trazado_1246932" data-name="Trazado 1246932" d="M80.335,96.574l.955,3.313L89.355,95.2,88.4,91.883Z" transform="translate(-33.77 -38.625)" fill="#9fbae2"/>
        <path id="Trazado_1246933" data-name="Trazado 1246933" d="M135.929,104.463,84.575,134.113l.456,1.728,51.355-29.649Z" transform="translate(-35.552 -43.913)" fill="#c4c8d8"/>
        <path id="Trazado_1246934" data-name="Trazado 1246934" d="M138.763,79.142l-28.87,16.668-8.005-30.3-.835-3.156,28.87-16.669.834,3.157Z" transform="translate(-42.479 -19.204)" fill="#eff0f5"/>
        <path id="Trazado_1246935" data-name="Trazado 1246935" d="M130.757,48.841,101.887,65.51l-.834-3.156,28.87-16.669Z" transform="translate(-42.479 -19.204)" fill="#c4c8d8"/>
        <path id="Trazado_1246936" data-name="Trazado 1246936" d="M103.287,76.17l1.7-.981-.347-1.314-1.7.981Z" transform="translate(-43.273 -31.055)" fill="#fc797e"/>
        <g id="Grupo_1204923" data-name="Grupo 1204923" transform="translate(57.846 27.039)" style="mix-blend-mode: screen;isolation: isolate">
          <g id="Grupo_1204922" data-name="Grupo 1204922">
            <g id="Grupo_1204921" data-name="Grupo 1204921" clip-path="url(#clip-path-7)">
              <path id="Trazado_1246937" data-name="Trazado 1246937" d="M121.272,46.649V95.966L99.8,108.36V59.044Z" transform="translate(-99.797 -46.649)" fill="#323333"/>
            </g>
          </g>
        </g>
      </g>
    </g>
    <g id="Grupo_1204927" data-name="Grupo 1204927" transform="translate(50.808 66.531)">
      <g id="Grupo_1204926" data-name="Grupo 1204926" clip-path="url(#clip-path-8)">
        <rect id="Rectángulo_426572" data-name="Rectángulo 426572" width="86.399" height="50.265" transform="translate(-0.017 0)" fill="url(#linear-gradient-2)"/>
      </g>
    </g>
    <g id="Grupo_1204932" data-name="Grupo 1204932">
      <g id="Grupo_1204931" data-name="Grupo 1204931" clip-path="url(#clip-path)">
        <path id="Trazado_1246939" data-name="Trazado 1246939" d="M173.027,130.038l-31.315-18.08a3.9,3.9,0,0,0-3.539,0L88.385,140.892a1.083,1.083,0,0,0,.011,2.05l31.316,18.08a5.338,5.338,0,0,0,4.846,0l48.485-28.177c1.334-.775,1.327-2.032-.016-2.807" transform="translate(-36.848 -46.885)" fill="#eff0f5"/>
        <path id="Trazado_1246940" data-name="Trazado 1246940" d="M161.807,124.9l-18.473-10.665a2.575,2.575,0,0,0-2.339,0L92.32,142.52a.716.716,0,0,0,.008,1.355L110.8,154.541a2.576,2.576,0,0,0,2.339,0l48.674-28.286a.716.716,0,0,0-.008-1.355" transform="translate(-38.606 -47.902)" fill="#e1e3eb"/>
        <path id="Trazado_1246941" data-name="Trazado 1246941" d="M185.5,155.353l-9.186-5.3a2.14,2.14,0,0,0-1.941,0l-20.178,11.727a.594.594,0,0,0,.006,1.124l9.186,5.3a2.141,2.141,0,0,0,1.941,0L185.5,156.477a.594.594,0,0,0-.006-1.124" transform="translate(-64.649 -62.978)" fill="#d9dbe6"/>
        <path id="Trazado_1246942" data-name="Trazado 1246942" d="M154.193,162.058l20.178-11.726a2.142,2.142,0,0,1,1.941,0l9.186,5.3a.78.78,0,0,1,.381.426c.078-.249-.048-.515-.381-.708l-9.186-5.3a2.138,2.138,0,0,0-1.941,0l-20.178,11.726c-.327.19-.45.452-.376.7a.778.778,0,0,1,.376-.416" transform="translate(-64.651 -62.978)" fill="#c5c9d8"/>
        <path id="Trazado_1246943" data-name="Trazado 1246943" d="M102.836,165.082v-.263h-.216l-2.214-1.279a.9.9,0,0,0-.818,0l-2.221,1.291h-.193v.267h0a.3.3,0,0,0,.168.221l2.259,1.3a.9.9,0,0,0,.819,0l2.246-1.305a.284.284,0,0,0,.167-.238" transform="translate(-40.849 -68.706)" fill="#393842"/>
        <path id="Trazado_1246944" data-name="Trazado 1246944" d="M127.438,179.286v-.263h-.216l-2.214-1.279a.9.9,0,0,0-.818,0l-2.221,1.291h-.193v.267h0a.3.3,0,0,0,.168.221l2.259,1.3a.9.9,0,0,0,.819,0l2.246-1.305a.284.284,0,0,0,.167-.238" transform="translate(-51.191 -74.677)" fill="#393842"/>
        <path id="Trazado_1246945" data-name="Trazado 1246945" d="M133.509,175.758v-.263h-.216l-2.214-1.279a.9.9,0,0,0-.818,0l-2.221,1.291h-.192v.267h0a.3.3,0,0,0,.168.221l2.259,1.3a.9.9,0,0,0,.819,0L133.342,176a.284.284,0,0,0,.167-.238" transform="translate(-53.743 -73.194)" fill="#393842"/>
        <path id="Trazado_1246946" data-name="Trazado 1246946" d="M139.579,172.23v-.263h-.216l-2.214-1.279a.9.9,0,0,0-.818,0l-2.221,1.291h-.193v.267h0a.3.3,0,0,0,.168.221l2.259,1.3a.9.9,0,0,0,.819,0l2.246-1.305a.284.284,0,0,0,.167-.238" transform="translate(-56.294 -71.711)" fill="#393842"/>
        <path id="Trazado_1246947" data-name="Trazado 1246947" d="M145.649,168.7v-.263h-.216l-2.214-1.279a.9.9,0,0,0-.818,0l-2.221,1.291h-.192v.267h0a.3.3,0,0,0,.168.221l2.259,1.3a.9.9,0,0,0,.819,0l2.246-1.305a.284.284,0,0,0,.167-.238" transform="translate(-58.846 -70.228)" fill="#393842"/>
        <path id="Trazado_1246948" data-name="Trazado 1246948" d="M108.907,161.554v-.263h-.216l-2.214-1.279a.9.9,0,0,0-.818,0l-2.221,1.291h-.193v.267h0a.3.3,0,0,0,.168.221l2.259,1.3a.9.9,0,0,0,.819,0l2.246-1.305a.284.284,0,0,0,.167-.238" transform="translate(-43.401 -67.223)" fill="#393842"/>
        <path id="Trazado_1246949" data-name="Trazado 1246949" d="M118.447,163.088v-.263h-.216l-2.214-1.279a.9.9,0,0,0-.818,0l-2.221,1.291h-.192v.267h0a.3.3,0,0,0,.168.221l2.259,1.3a.9.9,0,0,0,.819,0l2.246-1.305a.284.284,0,0,0,.167-.238" transform="translate(-47.411 -67.868)" fill="#393842"/>
        <path id="Trazado_1246950" data-name="Trazado 1246950" d="M124.517,159.561V159.3H124.3l-2.214-1.279a.9.9,0,0,0-.818,0l-2.221,1.291h-.193v.267h0a.3.3,0,0,0,.168.221l2.259,1.3a.9.9,0,0,0,.819,0l2.246-1.305a.284.284,0,0,0,.167-.238" transform="translate(-49.963 -66.385)" fill="#393842"/>
        <path id="Trazado_1246951" data-name="Trazado 1246951" d="M127.671,164.9v-.263h-.216l-2.214-1.279a.9.9,0,0,0-.818,0l-2.221,1.291h-.192v.267h0a.3.3,0,0,0,.168.221l2.259,1.3a.9.9,0,0,0,.819,0l2.246-1.305a.284.284,0,0,0,.167-.238" transform="translate(-51.289 -68.629)" fill="#393842"/>
        <path id="Trazado_1246952" data-name="Trazado 1246952" d="M133.864,168.473v-.263h-.216l-2.214-1.279a.9.9,0,0,0-.818,0l-2.221,1.291H128.2v.267h0a.3.3,0,0,0,.168.221l2.259,1.3a.9.9,0,0,0,.819,0l2.246-1.305a.284.284,0,0,0,.167-.238" transform="translate(-53.892 -70.132)" fill="#393842"/>
        <path id="Trazado_1246953" data-name="Trazado 1246953" d="M139.934,164.946v-.263h-.216L137.5,163.4a.9.9,0,0,0-.818,0l-2.221,1.291h-.193v.267h0a.3.3,0,0,0,.168.221l2.259,1.3a.9.9,0,0,0,.819,0l2.246-1.305a.285.285,0,0,0,.167-.238" transform="translate(-56.444 -68.649)" fill="#393842"/>
        <path id="Trazado_1246954" data-name="Trazado 1246954" d="M146,161.418v-.263h-.216l-2.214-1.279a.9.9,0,0,0-.818,0l-2.221,1.291h-.193v.267h0a.3.3,0,0,0,.168.221l2.259,1.3a.9.9,0,0,0,.819,0l2.246-1.305a.284.284,0,0,0,.167-.238" transform="translate(-58.995 -67.166)" fill="#393842"/>
        <path id="Trazado_1246955" data-name="Trazado 1246955" d="M152.075,157.89v-.263h-.216l-2.214-1.279a.9.9,0,0,0-.818,0l-2.221,1.291h-.192v.267h0a.3.3,0,0,0,.168.221l2.259,1.3a.9.9,0,0,0,.819,0l2.246-1.305a.284.284,0,0,0,.167-.238" transform="translate(-61.547 -65.683)" fill="#393842"/>
        <path id="Trazado_1246956" data-name="Trazado 1246956" d="M158.145,154.362V154.1h-.216l-2.214-1.279a.9.9,0,0,0-.818,0l-2.221,1.291h-.192v.267h0a.3.3,0,0,0,.168.221l2.259,1.3a.9.9,0,0,0,.819,0l2.246-1.305a.284.284,0,0,0,.167-.238" transform="translate(-64.099 -64.2)" fill="#393842"/>
        <path id="Trazado_1246957" data-name="Trazado 1246957" d="M164.216,150.835v-.263H164l-2.214-1.279a.9.9,0,0,0-.818,0l-2.221,1.291h-.193v.267h0a.3.3,0,0,0,.168.221l2.259,1.3a.9.9,0,0,0,.819,0l2.246-1.305a.284.284,0,0,0,.167-.238" transform="translate(-66.651 -62.717)" fill="#393842"/>
        <path id="Trazado_1246958" data-name="Trazado 1246958" d="M170.286,147.307v-.263h-.216l-2.214-1.279a.9.9,0,0,0-.818,0l-2.221,1.291h-.192v.267h0a.3.3,0,0,0,.168.221l2.259,1.3a.9.9,0,0,0,.819,0l2.246-1.305a.284.284,0,0,0,.167-.238" transform="translate(-69.203 -61.234)" fill="#393842"/>
        <path id="Trazado_1246959" data-name="Trazado 1246959" d="M176.356,143.779v-.263h-.216l-2.214-1.279a.9.9,0,0,0-.818,0l-2.221,1.291h-.193v.267h0a.3.3,0,0,0,.168.221l2.259,1.3a.9.9,0,0,0,.819,0l2.246-1.305a.284.284,0,0,0,.167-.238" transform="translate(-71.754 -59.751)" fill="#393842"/>
        <path id="Trazado_1246960" data-name="Trazado 1246960" d="M182.427,140.251v-.263h-.216L180,138.71a.9.9,0,0,0-.818,0L176.958,140h-.193v.267h0a.3.3,0,0,0,.168.221l2.259,1.3a.9.9,0,0,0,.819,0l2.246-1.305a.284.284,0,0,0,.167-.238" transform="translate(-74.306 -58.268)" fill="#393842"/>
        <path id="Trazado_1246961" data-name="Trazado 1246961" d="M188.929,143.551v-.263h-.216L186.5,142.01a.9.9,0,0,0-.818,0L183.46,143.3h-.193v.267h0a.3.3,0,0,0,.168.221l2.259,1.3a.9.9,0,0,0,.819,0l2.246-1.305a.284.284,0,0,0,.167-.238" transform="translate(-77.039 -59.655)" fill="#393842"/>
        <path id="Trazado_1246962" data-name="Trazado 1246962" d="M195,140.024v-.263h-.216l-2.214-1.279a.9.9,0,0,0-.818,0l-2.221,1.291h-.193v.267h0a.3.3,0,0,0,.168.221l2.259,1.3a.9.9,0,0,0,.819,0l2.246-1.305a.284.284,0,0,0,.167-.238" transform="translate(-79.591 -58.173)" fill="#393842"/>
        <path id="Trazado_1246963" data-name="Trazado 1246963" d="M207.29,132.881v-.263h-.216l-2.214-1.279a.9.9,0,0,0-.818,0l-2.221,1.291h-.193v.267h0a.3.3,0,0,0,.168.221l2.259,1.3a.9.9,0,0,0,.819,0l2.246-1.305a.284.284,0,0,0,.167-.238" transform="translate(-84.758 -55.17)" fill="#393842"/>
        <path id="Trazado_1246964" data-name="Trazado 1246964" d="M200.736,129.091l-2.214-1.279a.9.9,0,0,0-.817,0l-.314.183-1.907,1.108h-.193v.112l-.121.071h-.193v.25h0v.016h0a.3.3,0,0,0,.168.221l2.259,1.3a.9.9,0,0,0,.819,0l2.56-1.488a.283.283,0,0,0,.167-.238v-.263Z" transform="translate(-81.962 -53.687)" fill="#393842"/>
        <path id="Trazado_1246965" data-name="Trazado 1246965" d="M188.5,136.724v-.263h-.216l-2.214-1.279a.9.9,0,0,0-.818,0l-2.221,1.291h-.193v.267h0a.3.3,0,0,0,.168.221l2.259,1.3a.9.9,0,0,0,.819,0l2.246-1.305a.284.284,0,0,0,.167-.238" transform="translate(-76.858 -56.785)" fill="#393842"/>
        <path id="Trazado_1246966" data-name="Trazado 1246966" d="M194.568,133.2v-.263h-.216l-2.214-1.279a.9.9,0,0,0-.818,0l-2.221,1.291h-.193v.267h0a.3.3,0,0,0,.168.221l2.259,1.3a.9.9,0,0,0,.819,0l2.246-1.305a.284.284,0,0,0,.167-.238" transform="translate(-79.41 -55.302)" fill="#393842"/>
        <path id="Trazado_1246967" data-name="Trazado 1246967" d="M133.742,161.37v-.263h-.216l-2.214-1.279a.9.9,0,0,0-.818,0l-2.221,1.291h-.193v.267h0a.3.3,0,0,0,.168.221l2.259,1.3a.9.9,0,0,0,.819,0l2.246-1.305a.284.284,0,0,0,.167-.238" transform="translate(-53.841 -67.146)" fill="#393842"/>
        <path id="Trazado_1246968" data-name="Trazado 1246968" d="M139.812,157.843v-.263H139.6l-2.214-1.279a.9.9,0,0,0-.818,0l-2.221,1.291h-.193v.267h0a.3.3,0,0,0,.168.221l2.259,1.3a.9.9,0,0,0,.819,0l2.246-1.305a.284.284,0,0,0,.167-.238" transform="translate(-56.392 -65.663)" fill="#393842"/>
        <path id="Trazado_1246969" data-name="Trazado 1246969" d="M145.883,154.315v-.263h-.216l-2.214-1.279a.9.9,0,0,0-.818,0l-2.221,1.291h-.192v.267h0a.3.3,0,0,0,.168.221l2.259,1.3a.9.9,0,0,0,.819,0l2.246-1.305a.285.285,0,0,0,.167-.238" transform="translate(-58.944 -64.18)" fill="#393842"/>
        <path id="Trazado_1246970" data-name="Trazado 1246970" d="M151.953,150.787v-.263h-.216l-2.214-1.279a.9.9,0,0,0-.818,0l-2.221,1.291h-.192v.267h0a.3.3,0,0,0,.168.221l2.259,1.3a.9.9,0,0,0,.819,0l2.246-1.305a.284.284,0,0,0,.167-.238" transform="translate(-61.496 -62.697)" fill="#393842"/>
        <path id="Trazado_1246971" data-name="Trazado 1246971" d="M158.023,147.26V147h-.216l-2.214-1.279a.9.9,0,0,0-.818,0l-2.221,1.291h-.192v.267h0a.3.3,0,0,0,.168.221l2.259,1.3a.9.9,0,0,0,.819,0l2.246-1.305a.284.284,0,0,0,.167-.238" transform="translate(-64.048 -61.214)" fill="#393842"/>
        <path id="Trazado_1246972" data-name="Trazado 1246972" d="M164.094,143.732v-.263h-.216l-2.214-1.279a.9.9,0,0,0-.818,0l-2.221,1.291h-.192v.267h0a.3.3,0,0,0,.168.221l2.259,1.3a.9.9,0,0,0,.819,0l2.246-1.305a.284.284,0,0,0,.167-.238" transform="translate(-66.6 -59.731)" fill="#393842"/>
        <path id="Trazado_1246973" data-name="Trazado 1246973" d="M170.164,140.2v-.263h-.216l-2.214-1.279a.9.9,0,0,0-.818,0l-2.221,1.291H164.5v.267h0a.3.3,0,0,0,.168.221l2.259,1.3a.9.9,0,0,0,.819,0L170,140.442a.284.284,0,0,0,.167-.238" transform="translate(-69.151 -58.248)" fill="#393842"/>
        <path id="Trazado_1246974" data-name="Trazado 1246974" d="M176.234,136.676v-.263h-.216l-2.214-1.279a.9.9,0,0,0-.818,0l-2.221,1.291h-.193v.267h0a.3.3,0,0,0,.168.221l2.259,1.3a.9.9,0,0,0,.819,0l2.246-1.305a.284.284,0,0,0,.167-.238" transform="translate(-71.703 -56.765)" fill="#393842"/>
        <path id="Trazado_1246975" data-name="Trazado 1246975" d="M182.3,133.149v-.263h-.216l-2.214-1.279a.9.9,0,0,0-.818,0l-2.221,1.291h-.193v.267h0a.3.3,0,0,0,.168.221l2.259,1.3a.9.9,0,0,0,.819,0l2.246-1.305a.284.284,0,0,0,.167-.238" transform="translate(-74.255 -55.282)" fill="#393842"/>
        <path id="Trazado_1246976" data-name="Trazado 1246976" d="M130.588,156.033v-.263h-.216l-2.214-1.279a.9.9,0,0,0-.818,0l-2.221,1.291h-.193v.267h0a.3.3,0,0,0,.168.221l2.259,1.3a.9.9,0,0,0,.819,0l2.246-1.305a.284.284,0,0,0,.167-.238" transform="translate(-52.515 -64.902)" fill="#393842"/>
        <path id="Trazado_1246977" data-name="Trazado 1246977" d="M136.658,152.505v-.263h-.216l-2.214-1.279a.9.9,0,0,0-.818,0l-2.221,1.291H131v.267h0a.3.3,0,0,0,.168.221l2.259,1.3a.9.9,0,0,0,.819,0l2.246-1.305a.284.284,0,0,0,.167-.238" transform="translate(-55.066 -63.419)" fill="#393842"/>
        <path id="Trazado_1246978" data-name="Trazado 1246978" d="M142.728,148.978v-.263h-.216l-2.214-1.279a.9.9,0,0,0-.818,0l-2.221,1.291h-.192v.267h0a.3.3,0,0,0,.168.221l2.259,1.3a.9.9,0,0,0,.819,0l2.246-1.305a.284.284,0,0,0,.167-.238" transform="translate(-57.618 -61.936)" fill="#393842"/>
        <path id="Trazado_1246979" data-name="Trazado 1246979" d="M148.8,145.45v-.263h-.216l-2.214-1.279a.9.9,0,0,0-.818,0l-2.221,1.291h-.192v.267h0a.3.3,0,0,0,.168.221l2.259,1.3a.9.9,0,0,0,.819,0l2.246-1.305a.284.284,0,0,0,.167-.238" transform="translate(-60.17 -60.453)" fill="#393842"/>
        <path id="Trazado_1246980" data-name="Trazado 1246980" d="M154.869,141.922v-.263h-.216l-2.214-1.279a.9.9,0,0,0-.818,0l-2.221,1.291h-.193v.267h0a.3.3,0,0,0,.168.221l2.259,1.3a.9.9,0,0,0,.819,0l2.246-1.305a.284.284,0,0,0,.167-.238" transform="translate(-62.722 -58.97)" fill="#393842"/>
        <path id="Trazado_1246981" data-name="Trazado 1246981" d="M160.939,138.4v-.263h-.216l-2.214-1.279a.9.9,0,0,0-.818,0l-2.221,1.291h-.193v.267h0a.3.3,0,0,0,.168.221l2.259,1.3a.9.9,0,0,0,.819,0l2.246-1.305a.284.284,0,0,0,.167-.238" transform="translate(-65.273 -57.488)" fill="#393842"/>
        <path id="Trazado_1246982" data-name="Trazado 1246982" d="M167.01,134.867V134.6h-.216l-2.214-1.279a.9.9,0,0,0-.818,0l-2.221,1.291h-.192v.267h0a.3.3,0,0,0,.168.221l2.259,1.3a.9.9,0,0,0,.819,0l2.246-1.305a.284.284,0,0,0,.167-.238" transform="translate(-67.825 -56.005)" fill="#393842"/>
        <path id="Trazado_1246983" data-name="Trazado 1246983" d="M173.08,131.339v-.263h-.216l-2.214-1.279a.9.9,0,0,0-.818,0l-2.221,1.291h-.193v.267h0a.3.3,0,0,0,.168.221l2.259,1.3a.9.9,0,0,0,.819,0l2.246-1.305a.284.284,0,0,0,.167-.238" transform="translate(-70.377 -54.522)" fill="#393842"/>
        <path id="Trazado_1246984" data-name="Trazado 1246984" d="M179.151,127.811v-.263h-.216l-2.214-1.279a.9.9,0,0,0-.818,0l-2.221,1.291h-.192v.267h0a.3.3,0,0,0,.168.221l2.259,1.3a.9.9,0,0,0,.819,0l2.246-1.305a.284.284,0,0,0,.167-.238" transform="translate(-72.929 -53.039)" fill="#393842"/>
        <path id="Trazado_1246985" data-name="Trazado 1246985" d="M114.977,158.027v-.263h-.216l-2.214-1.279a.9.9,0,0,0-.818,0l-2.221,1.291h-.193v.267h0a.3.3,0,0,0,.168.221l2.259,1.3a.9.9,0,0,0,.819,0l2.246-1.305a.284.284,0,0,0,.167-.238" transform="translate(-45.952 -65.74)" fill="#393842"/>
        <path id="Trazado_1246986" data-name="Trazado 1246986" d="M121.047,154.5v-.263h-.216l-2.214-1.279a.9.9,0,0,0-.818,0l-2.221,1.291h-.192v.267h0a.3.3,0,0,0,.168.221l2.259,1.3a.9.9,0,0,0,.819,0l2.246-1.305a.284.284,0,0,0,.167-.238" transform="translate(-48.504 -64.257)" fill="#393842"/>
        <path id="Trazado_1246987" data-name="Trazado 1246987" d="M127.118,150.971v-.263H126.9l-2.214-1.279a.9.9,0,0,0-.818,0l-2.221,1.291h-.193v.267h0a.3.3,0,0,0,.168.221l2.259,1.3a.9.9,0,0,0,.819,0l2.246-1.305a.284.284,0,0,0,.167-.238" transform="translate(-51.056 -62.774)" fill="#393842"/>
        <path id="Trazado_1246988" data-name="Trazado 1246988" d="M133.188,147.443v-.263h-.216l-2.214-1.279a.9.9,0,0,0-.818,0l-2.221,1.291h-.192v.267h0a.3.3,0,0,0,.168.221l2.259,1.3a.9.9,0,0,0,.819,0l2.246-1.305a.284.284,0,0,0,.167-.238" transform="translate(-53.608 -61.291)" fill="#393842"/>
        <path id="Trazado_1246989" data-name="Trazado 1246989" d="M139.258,143.916v-.263h-.216l-2.214-1.279a.9.9,0,0,0-.818,0l-2.221,1.291H133.6v.267h0a.3.3,0,0,0,.168.221l2.259,1.3a.9.9,0,0,0,.819,0l2.246-1.305a.284.284,0,0,0,.167-.238" transform="translate(-56.159 -59.809)" fill="#393842"/>
        <path id="Trazado_1246990" data-name="Trazado 1246990" d="M145.329,140.388v-.263h-.216l-2.214-1.279a.9.9,0,0,0-.818,0l-2.221,1.291h-.192v.267h0a.3.3,0,0,0,.168.221l2.259,1.3a.9.9,0,0,0,.819,0l2.246-1.305a.284.284,0,0,0,.167-.238" transform="translate(-58.711 -58.326)" fill="#393842"/>
        <path id="Trazado_1246991" data-name="Trazado 1246991" d="M151.4,136.86V136.6h-.216l-2.214-1.279a.9.9,0,0,0-.818,0l-2.221,1.291h-.192v.267h0a.3.3,0,0,0,.168.221l2.259,1.3a.9.9,0,0,0,.819,0l2.246-1.305a.284.284,0,0,0,.167-.238" transform="translate(-61.263 -56.842)" fill="#393842"/>
        <path id="Trazado_1246992" data-name="Trazado 1246992" d="M157.469,133.333v-.263h-.216l-2.214-1.279a.9.9,0,0,0-.818,0L152,133.083h-.192v.267h0a.3.3,0,0,0,.168.221l2.259,1.3a.9.9,0,0,0,.819,0l2.246-1.305a.284.284,0,0,0,.167-.238" transform="translate(-63.815 -55.36)" fill="#393842"/>
        <path id="Trazado_1246993" data-name="Trazado 1246993" d="M163.54,129.805v-.263h-.216l-2.214-1.279a.9.9,0,0,0-.818,0l-2.221,1.291h-.192v.267h0a.3.3,0,0,0,.168.221l2.259,1.3a.9.9,0,0,0,.819,0l2.246-1.305a.284.284,0,0,0,.167-.238" transform="translate(-66.367 -53.877)" fill="#393842"/>
        <path id="Trazado_1246994" data-name="Trazado 1246994" d="M169.61,126.277v-.263h-.216l-2.214-1.279a.9.9,0,0,0-.818,0l-2.221,1.291h-.192v.267h0a.3.3,0,0,0,.168.221l2.259,1.3a.9.9,0,0,0,.819,0l2.246-1.305a.284.284,0,0,0,.167-.238" transform="translate(-68.918 -52.394)" fill="#393842"/>
        <path id="Trazado_1246995" data-name="Trazado 1246995" d="M175.68,122.749v-.263h-.216l-2.214-1.279a.9.9,0,0,0-.818,0L170.21,122.5h-.192v.267h0a.3.3,0,0,0,.168.221l2.259,1.3a.9.9,0,0,0,.819,0l2.246-1.305a.284.284,0,0,0,.167-.238" transform="translate(-71.47 -50.911)" fill="#393842"/>
        <path id="Trazado_1246996" data-name="Trazado 1246996" d="M182.293,118.4l-.221.012-2.21-1.276a.9.9,0,0,0-.819,0l-2.734,1.588-.223.012,0,.241a.2.2,0,0,0,0,.032v.013h0a.3.3,0,0,0,.166.207l2.259,1.3a.9.9,0,0,0,.821,0l2.787-1.62a.278.278,0,0,0,.167-.249h0Z" transform="translate(-74.021 -49.199)" fill="#393842"/>
        <path id="Trazado_1246997" data-name="Trazado 1246997" d="M169.769,147.07v-.254h-.213l-2.216-1.279a.908.908,0,0,0-.628-.072.7.7,0,0,0-.191.073l-2.221,1.291h-.193v.112l-15.635,9.086h0l-2.221,1.291h-.193v.267h0l0,.009a.211.211,0,0,0,.012.049l.007.013a.257.257,0,0,0,.025.044c.006.009.015.017.022.025s.017.02.029.03a.416.416,0,0,0,.07.049h0l2.259,1.3a.714.714,0,0,0,.192.074.966.966,0,0,0,.218.024.829.829,0,0,0,.409-.1l2.246-1.305L169.6,147.317a.28.28,0,0,0,.167-.246" transform="translate(-61.398 -61.138)" fill="#393842"/>
        <path id="Trazado_1246998" data-name="Trazado 1246998" d="M104.931,158.178v-.257l-.145.035a.306.306,0,0,0-.027-.019l-.608-.351a.9.9,0,0,0-.819,0l-2.077,1.207-.335.079,0,.268a.3.3,0,0,0,.17.224l.608.351a.9.9,0,0,0,.819,0l2.245-1.3a.286.286,0,0,0,.166-.231h0Z" transform="translate(-42.423 -66.202)" fill="#393842"/>
        <path id="Trazado_1246999" data-name="Trazado 1246999" d="M111,154.65v-.257l-.145.035a.3.3,0,0,0-.026-.019l-.608-.351a.9.9,0,0,0-.819,0l-2.077,1.207-.335.079,0,.268a.3.3,0,0,0,.17.225l.608.351a.9.9,0,0,0,.819,0l2.244-1.3a.287.287,0,0,0,.167-.231h0Z" transform="translate(-44.975 -64.719)" fill="#393842"/>
        <path id="Trazado_1247000" data-name="Trazado 1247000" d="M117.071,151.122v-.257l-.145.035a.311.311,0,0,0-.027-.019l-.608-.351a.9.9,0,0,0-.819,0l-2.077,1.207-.335.079,0,.268a.3.3,0,0,0,.17.225l.608.351a.9.9,0,0,0,.819,0l2.245-1.3a.286.286,0,0,0,.166-.231h0Z" transform="translate(-47.527 -63.236)" fill="#393842"/>
        <path id="Trazado_1247001" data-name="Trazado 1247001" d="M123.142,147.594v-.257l-.145.035a.3.3,0,0,0-.026-.019l-.608-.351a.9.9,0,0,0-.819,0l-2.077,1.207-.335.079,0,.268a.3.3,0,0,0,.17.225l.608.351a.9.9,0,0,0,.819,0l2.245-1.3a.286.286,0,0,0,.166-.231h0Z" transform="translate(-50.079 -61.753)" fill="#393842"/>
        <path id="Trazado_1247002" data-name="Trazado 1247002" d="M129.212,144.067v-.257l-.145.035a.3.3,0,0,0-.026-.019l-.608-.351a.9.9,0,0,0-.819,0l-2.077,1.207-.335.079,0,.268a.3.3,0,0,0,.17.225l.608.351a.9.9,0,0,0,.819,0l2.245-1.3a.286.286,0,0,0,.166-.231h0Z" transform="translate(-52.63 -60.27)" fill="#393842"/>
        <path id="Trazado_1247003" data-name="Trazado 1247003" d="M135.283,140.539v-.257l-.145.035a.3.3,0,0,0-.026-.019l-.608-.351a.9.9,0,0,0-.819,0l-2.077,1.207-.335.079,0,.268a.3.3,0,0,0,.17.224l.608.351a.9.9,0,0,0,.819,0l2.245-1.3a.286.286,0,0,0,.166-.231h0Z" transform="translate(-55.182 -58.787)" fill="#393842"/>
        <path id="Trazado_1247004" data-name="Trazado 1247004" d="M141.353,137.011v-.257l-.145.035a.3.3,0,0,0-.026-.019l-.608-.351a.9.9,0,0,0-.819,0l-2.077,1.207-.335.079,0,.268a.3.3,0,0,0,.17.224l.608.351a.9.9,0,0,0,.819,0l2.245-1.3a.286.286,0,0,0,.166-.231h0Z" transform="translate(-57.734 -57.304)" fill="#393842"/>
        <path id="Trazado_1247005" data-name="Trazado 1247005" d="M147.423,133.483v-.257l-.145.035a.3.3,0,0,0-.026-.019l-.608-.351a.9.9,0,0,0-.819,0l-2.077,1.207-.335.079,0,.268a.3.3,0,0,0,.17.224l.608.351a.9.9,0,0,0,.819,0l2.245-1.3a.286.286,0,0,0,.166-.231h0Z" transform="translate(-60.286 -55.822)" fill="#393842"/>
        <path id="Trazado_1247006" data-name="Trazado 1247006" d="M153.494,129.956V129.7l-.145.035a.3.3,0,0,0-.026-.019l-.608-.351a.9.9,0,0,0-.819,0l-2.077,1.207-.335.079,0,.268a.3.3,0,0,0,.17.224l.608.351a.9.9,0,0,0,.819,0l2.245-1.3a.286.286,0,0,0,.166-.231h0Z" transform="translate(-62.838 -54.339)" fill="#393842"/>
        <path id="Trazado_1247007" data-name="Trazado 1247007" d="M159.564,126.428v-.257l-.145.035a.3.3,0,0,0-.026-.019l-.608-.351a.9.9,0,0,0-.819,0l-2.077,1.207-.335.079,0,.268a.3.3,0,0,0,.17.225l.608.351a.9.9,0,0,0,.819,0l2.245-1.3a.286.286,0,0,0,.166-.231h0Z" transform="translate(-65.389 -52.856)" fill="#393842"/>
        <path id="Trazado_1247008" data-name="Trazado 1247008" d="M165.634,122.9v-.257l-.145.035a.293.293,0,0,0-.026-.019l-.608-.351a.9.9,0,0,0-.819,0l-2.077,1.207-.335.079,0,.268a.3.3,0,0,0,.17.225l.608.351a.9.9,0,0,0,.819,0l2.245-1.3a.286.286,0,0,0,.166-.231h0Z" transform="translate(-67.941 -51.373)" fill="#393842"/>
        <path id="Trazado_1247009" data-name="Trazado 1247009" d="M171.705,119.373v-.257l-.145.035a.3.3,0,0,0-.026-.019l-.608-.351a.9.9,0,0,0-.819,0l-2.077,1.207-.335.079,0,.268a.3.3,0,0,0,.17.225l.608.351a.9.9,0,0,0,.819,0l2.245-1.3a.286.286,0,0,0,.166-.231h0Z" transform="translate(-70.493 -49.89)" fill="#393842"/>
        <path id="Trazado_1247010" data-name="Trazado 1247010" d="M177.775,115.845v-.257l-.145.035a.3.3,0,0,0-.026-.019l-.608-.351a.9.9,0,0,0-.819,0l-2.077,1.207-.335.079,0,.268a.3.3,0,0,0,.17.225l.608.351a.9.9,0,0,0,.819,0l2.245-1.3a.286.286,0,0,0,.166-.231h0Z" transform="translate(-73.045 -48.407)" fill="#393842"/>
        <path id="Trazado_1247011" data-name="Trazado 1247011" d="M110.975,166.387l-.159.024-.011-.008-2.261-1.305a.9.9,0,0,0-.817,0l-4.173,2.425-.228.035v.249h0a.294.294,0,0,0,.168.225l2.261,1.305a.9.9,0,0,0,.817,0l4.234-2.461a.286.286,0,0,0,.168-.238Z" transform="translate(-43.435 -69.361)" fill="#393842"/>
        <path id="Trazado_1247012" data-name="Trazado 1247012" d="M118.885,168.165l-.155.036-.016-.011-2.259-1.3a.9.9,0,0,0-.819,0l-5.861,3.406-.3.07v.249h0a.293.293,0,0,0,.17.232l2.259,1.3a.9.9,0,0,0,.818,0l5.993-3.483a.286.286,0,0,0,.168-.239h0Z" transform="translate(-46.02 -70.112)" fill="#393842"/>
        <path id="Trazado_1247013" data-name="Trazado 1247013" d="M125.077,171.74l-.155.037a.107.107,0,0,0-.016-.011l-2.259-1.3a.9.9,0,0,0-.819,0l-5.861,3.406-.3.07v.249h0a.294.294,0,0,0,.17.232l2.259,1.3a.9.9,0,0,0,.817,0l5.993-3.483a.285.285,0,0,0,.168-.239h0Z" transform="translate(-48.623 -71.615)" fill="#393842"/>
        <path id="Trazado_1247014" data-name="Trazado 1247014" d="M187.334,121.97l-.164.026-.006,0-2.261-1.305a.9.9,0,0,0-.818,0l-4.246,2.467-.239.038v.255h0a.3.3,0,0,0,.169.223l2.261,1.305a.9.9,0,0,0,.817,0l4.318-2.509a.286.286,0,0,0,.168-.239h0Z" transform="translate(-75.498 -50.692)" fill="#393842"/>
        <path id="Trazado_1247015" data-name="Trazado 1247015" d="M192.038,125.543l-2.259-1.3a.9.9,0,0,0-.82,0l-6.077,3.532c-.226.131-.223.343,0,.474l2.259,1.3a.9.9,0,0,0,.817,0l6.077-3.532a.251.251,0,0,0,0-.475" transform="translate(-76.807 -52.184)" fill="#393842"/>
        <path id="Trazado_1247016" data-name="Trazado 1247016" d="M199.419,135.547v-.257l-.146.035a.231.231,0,0,0-.026-.019l-.608-.351a.9.9,0,0,0-.819,0l-2.077,1.207-.335.079,0,.268a.3.3,0,0,0,.17.224l.608.351a.9.9,0,0,0,.819,0l2.245-1.3a.286.286,0,0,0,.166-.231h0Z" transform="translate(-82.143 -56.689)" fill="#393842"/>
        <path id="Trazado_1247017" data-name="Trazado 1247017" d="M202.267,137.191v-.257l-.145.034a.3.3,0,0,0-.026-.019l-.608-.351a.9.9,0,0,0-.819,0l-2.077,1.207-.335.08,0,.267a.3.3,0,0,0,.17.224l.608.351a.9.9,0,0,0,.819,0l2.245-1.3a.286.286,0,0,0,.166-.231h0Z" transform="translate(-83.34 -57.38)" fill="#393842"/>
        <path id="Trazado_1247018" data-name="Trazado 1247018" d="M133.694,168.238l-2.259-1.3a.9.9,0,0,0-.82,0l-2.245,1.3a.251.251,0,0,0,0,.474l2.259,1.3a.9.9,0,0,0,.818,0l2.244-1.3a.25.25,0,0,0,0-.474" transform="translate(-53.892 -70.132)" fill="#393842"/>
        <path id="Trazado_1247019" data-name="Trazado 1247019" d="M98.465,161.692h0v-.269l-.164.047-.008-.006-.608-.351a.9.9,0,0,0-.819,0l-2.588,1.5-.369.1V163l0,0a.3.3,0,0,0,.167.211l.608.351a.9.9,0,0,0,.819,0l2.789-1.621a.279.279,0,0,0,.166-.247" transform="translate(-39.477 -67.685)" fill="#393842"/>
        <path id="Trazado_1247020" data-name="Trazado 1247020" d="M102.665,164.413l-2.259-1.3a.9.9,0,0,0-.817,0l-2.246,1.305a.25.25,0,0,0,0,.473l2.259,1.3a.9.9,0,0,0,.819,0l2.246-1.305a.251.251,0,0,0,0-.474" transform="translate(-40.849 -68.524)" fill="#57565e"/>
        <path id="Trazado_1247021" data-name="Trazado 1247021" d="M108.735,160.885l-2.259-1.3a.9.9,0,0,0-.817,0l-2.246,1.3a.25.25,0,0,0,0,.474l2.259,1.3a.9.9,0,0,0,.819,0l2.246-1.305a.251.251,0,0,0,0-.474" transform="translate(-43.401 -67.041)" fill="#57565e"/>
        <path id="Trazado_1247022" data-name="Trazado 1247022" d="M114.805,157.358l-2.259-1.3a.9.9,0,0,0-.817,0l-2.246,1.305a.25.25,0,0,0,0,.474l2.259,1.3a.9.9,0,0,0,.819,0l2.246-1.3a.251.251,0,0,0,0-.475" transform="translate(-45.952 -65.559)" fill="#57565e"/>
        <path id="Trazado_1247023" data-name="Trazado 1247023" d="M120.876,153.83l-2.259-1.3a.9.9,0,0,0-.818,0l-2.245,1.3a.25.25,0,0,0,0,.474l2.259,1.3a.9.9,0,0,0,.819,0l2.245-1.3a.251.251,0,0,0,0-.475" transform="translate(-48.504 -64.076)" fill="#57565e"/>
        <path id="Trazado_1247024" data-name="Trazado 1247024" d="M126.946,150.3l-2.259-1.3a.9.9,0,0,0-.819,0l-2.244,1.3a.25.25,0,0,0,0,.474l2.259,1.3a.9.9,0,0,0,.819,0l2.245-1.3a.251.251,0,0,0,0-.475" transform="translate(-51.056 -62.593)" fill="#57565e"/>
        <path id="Trazado_1247025" data-name="Trazado 1247025" d="M133.017,146.774l-2.259-1.3a.9.9,0,0,0-.819,0l-2.244,1.3a.25.25,0,0,0,0,.474l2.259,1.3a.9.9,0,0,0,.819,0l2.245-1.3a.251.251,0,0,0,0-.475" transform="translate(-53.608 -61.11)" fill="#57565e"/>
        <path id="Trazado_1247026" data-name="Trazado 1247026" d="M139.087,143.247l-2.259-1.3a.9.9,0,0,0-.819,0l-2.244,1.3c-.226.131-.224.342,0,.474l2.259,1.3a.9.9,0,0,0,.819,0l2.245-1.3a.251.251,0,0,0,0-.475" transform="translate(-56.159 -59.627)" fill="#57565e"/>
        <path id="Trazado_1247027" data-name="Trazado 1247027" d="M145.156,139.721l-2.259-1.3a.9.9,0,0,0-.817,0l-2.244,1.3a.25.25,0,0,0,0,.474l2.259,1.3a.9.9,0,0,0,.819,0l2.244-1.3c.226-.131.223-.343,0-.474" transform="translate(-58.711 -58.144)" fill="#57565e"/>
        <path id="Trazado_1247028" data-name="Trazado 1247028" d="M151.226,136.193l-2.259-1.3a.9.9,0,0,0-.817,0l-2.244,1.3a.25.25,0,0,0,0,.474l2.259,1.3a.9.9,0,0,0,.819,0l2.244-1.3c.226-.131.223-.343,0-.474" transform="translate(-61.263 -56.661)" fill="#57565e"/>
        <path id="Trazado_1247029" data-name="Trazado 1247029" d="M157.3,132.665l-2.259-1.3a.9.9,0,0,0-.817,0l-2.244,1.3a.25.25,0,0,0,0,.474l2.259,1.3a.9.9,0,0,0,.819,0l2.244-1.3c.226-.131.223-.343,0-.474" transform="translate(-63.814 -55.178)" fill="#57565e"/>
        <path id="Trazado_1247030" data-name="Trazado 1247030" d="M163.367,129.137l-2.259-1.3a.9.9,0,0,0-.817,0l-2.244,1.3a.25.25,0,0,0,0,.474l2.259,1.3a.9.9,0,0,0,.819,0l2.244-1.3c.226-.131.223-.343,0-.474" transform="translate(-66.366 -53.695)" fill="#57565e"/>
        <path id="Trazado_1247031" data-name="Trazado 1247031" d="M124.346,158.892l-2.259-1.3a.9.9,0,0,0-.817,0l-2.246,1.3a.25.25,0,0,0,0,.474l2.259,1.3a.9.9,0,0,0,.819,0l2.246-1.305a.251.251,0,0,0,0-.474" transform="translate(-49.963 -66.203)" fill="#57565e"/>
        <path id="Trazado_1247032" data-name="Trazado 1247032" d="M130.416,155.364l-2.259-1.3a.9.9,0,0,0-.818,0l-2.246,1.3a.25.25,0,0,0,0,.474l2.259,1.3a.9.9,0,0,0,.819,0l2.246-1.305a.251.251,0,0,0,0-.474" transform="translate(-52.515 -64.72)" fill="#57565e"/>
        <path id="Trazado_1247033" data-name="Trazado 1247033" d="M136.486,151.837l-2.259-1.3a.9.9,0,0,0-.819,0l-2.244,1.3a.25.25,0,0,0,0,.473l2.259,1.3a.9.9,0,0,0,.819,0l2.245-1.3a.251.251,0,0,0,0-.475" transform="translate(-55.066 -63.238)" fill="#57565e"/>
        <path id="Trazado_1247034" data-name="Trazado 1247034" d="M142.557,148.309,140.3,147a.9.9,0,0,0-.819,0l-2.244,1.3a.25.25,0,0,0,0,.473l2.259,1.3a.9.9,0,0,0,.819,0l2.245-1.3a.251.251,0,0,0,0-.475" transform="translate(-57.618 -61.755)" fill="#57565e"/>
        <path id="Trazado_1247035" data-name="Trazado 1247035" d="M148.627,144.781l-2.259-1.3a.9.9,0,0,0-.819,0l-2.244,1.3a.25.25,0,0,0,0,.474l2.259,1.3a.9.9,0,0,0,.819,0l2.245-1.3a.251.251,0,0,0,0-.475" transform="translate(-60.17 -60.272)" fill="#57565e"/>
        <path id="Trazado_1247036" data-name="Trazado 1247036" d="M154.7,141.253l-2.26-1.3a.9.9,0,0,0-.819,0l-2.244,1.3a.25.25,0,0,0,0,.474l2.259,1.3a.9.9,0,0,0,.819,0l2.245-1.3a.251.251,0,0,0,0-.475" transform="translate(-62.721 -58.789)" fill="#57565e"/>
        <path id="Trazado_1247037" data-name="Trazado 1247037" d="M160.766,137.727l-2.259-1.3a.9.9,0,0,0-.817,0l-2.244,1.3a.25.25,0,0,0,0,.474l2.259,1.3a.9.9,0,0,0,.819,0l2.244-1.3c.226-.131.223-.343,0-.474" transform="translate(-65.273 -57.306)" fill="#57565e"/>
        <path id="Trazado_1247038" data-name="Trazado 1247038" d="M166.837,134.2l-2.259-1.3a.9.9,0,0,0-.817,0l-2.244,1.3a.25.25,0,0,0,0,.474l2.259,1.3a.9.9,0,0,0,.819,0l2.244-1.3c.226-.131.223-.343,0-.474" transform="translate(-67.825 -55.823)" fill="#57565e"/>
        <path id="Trazado_1247039" data-name="Trazado 1247039" d="M172.907,130.672l-2.259-1.3a.9.9,0,0,0-.817,0l-2.244,1.3a.25.25,0,0,0,0,.474l2.259,1.3a.9.9,0,0,0,.819,0l2.244-1.3c.226-.131.223-.343,0-.474" transform="translate(-70.377 -54.34)" fill="#57565e"/>
        <path id="Trazado_1247040" data-name="Trazado 1247040" d="M178.977,127.144l-2.259-1.3a.9.9,0,0,0-.817,0l-2.244,1.3a.25.25,0,0,0,0,.474l2.259,1.3a.9.9,0,0,0,.819,0l2.244-1.3c.226-.131.223-.343,0-.474" transform="translate(-72.928 -52.857)" fill="#57565e"/>
        <path id="Trazado_1247041" data-name="Trazado 1247041" d="M169.436,125.61l-2.259-1.3a.9.9,0,0,0-.817,0l-2.244,1.3a.251.251,0,0,0,0,.475l2.259,1.3a.906.906,0,0,0,.821,0l2.244-1.3c.226-.131.223-.343,0-.474" transform="translate(-68.917 -52.212)" fill="#57565e"/>
        <path id="Trazado_1247042" data-name="Trazado 1247042" d="M175.506,122.082l-2.259-1.3a.9.9,0,0,0-.817,0l-2.244,1.3a.25.25,0,0,0,0,.474l2.259,1.3a.906.906,0,0,0,.821,0l2.244-1.3c.224-.13.223-.343,0-.474" transform="translate(-71.469 -50.73)" fill="#57565e"/>
        <path id="Trazado_1247043" data-name="Trazado 1247043" d="M127.267,178.617l-2.259-1.3a.9.9,0,0,0-.817,0l-2.246,1.305a.25.25,0,0,0,0,.473l2.259,1.3a.9.9,0,0,0,.819,0l2.246-1.305a.251.251,0,0,0,0-.474" transform="translate(-51.191 -74.496)" fill="#57565e"/>
        <path id="Trazado_1247044" data-name="Trazado 1247044" d="M133.337,175.089l-2.259-1.3a.9.9,0,0,0-.818,0l-2.246,1.3a.25.25,0,0,0,0,.474l2.259,1.3a.9.9,0,0,0,.819,0l2.246-1.305a.251.251,0,0,0,0-.474" transform="translate(-53.743 -73.012)" fill="#57565e"/>
        <path id="Trazado_1247045" data-name="Trazado 1247045" d="M139.407,171.562l-2.259-1.3a.9.9,0,0,0-.817,0l-2.246,1.3a.25.25,0,0,0,0,.474l2.259,1.3a.9.9,0,0,0,.819,0l2.246-1.305a.251.251,0,0,0,0-.474" transform="translate(-56.294 -71.53)" fill="#57565e"/>
        <path id="Trazado_1247046" data-name="Trazado 1247046" d="M145.478,168.034l-2.259-1.3a.9.9,0,0,0-.819,0l-2.244,1.3a.25.25,0,0,0,0,.473l2.259,1.3a.9.9,0,0,0,.819,0l2.245-1.3a.251.251,0,0,0,0-.475" transform="translate(-58.846 -70.047)" fill="#57565e"/>
        <path id="Trazado_1247047" data-name="Trazado 1247047" d="M118.275,162.42l-2.259-1.3a.9.9,0,0,0-.817,0l-2.246,1.305a.25.25,0,0,0,0,.473l2.259,1.3a.9.9,0,0,0,.819,0l2.246-1.305a.251.251,0,0,0,0-.474" transform="translate(-47.411 -67.687)" fill="#57565e"/>
        <path id="Trazado_1247048" data-name="Trazado 1247048" d="M182.122,118.008l-2.259-1.3a.9.9,0,0,0-.819,0l-2.787,1.62a.251.251,0,0,0,0,.475l2.259,1.3a.906.906,0,0,0,.821,0l2.788-1.62a.251.251,0,0,0,0-.475" transform="translate(-74.021 -49.017)" fill="#57565e"/>
        <path id="Trazado_1247049" data-name="Trazado 1247049" d="M169.6,146.409l-2.259-1.3a.9.9,0,0,0-.819,0L146.227,156.9a.251.251,0,0,0,0,.474l2.259,1.3a.9.9,0,0,0,.819,0l20.3-11.794a.251.251,0,0,0,0-.475" transform="translate(-61.398 -60.956)" fill="#57565e"/>
        <path id="Trazado_1247050" data-name="Trazado 1247050" d="M104.76,157.5l-.608-.351a.9.9,0,0,0-.819,0l-2.244,1.3c-.226.131-.223.343,0,.474l.608.351a.9.9,0,0,0,.819,0l2.244-1.3c.226-.131.223-.343,0-.474" transform="translate(-42.424 -66.02)" fill="#57565e"/>
        <path id="Trazado_1247051" data-name="Trazado 1247051" d="M110.83,153.976l-.609-.351a.9.9,0,0,0-.819,0l-2.245,1.3c-.225.131-.222.343,0,.474l.609.351a.9.9,0,0,0,.818,0l2.244-1.3c.226-.131.224-.343,0-.474" transform="translate(-44.975 -64.537)" fill="#57565e"/>
        <path id="Trazado_1247052" data-name="Trazado 1247052" d="M116.9,150.449l-.608-.351a.9.9,0,0,0-.819,0l-2.245,1.3a.251.251,0,0,0,0,.475l.608.351a.906.906,0,0,0,.821,0l2.244-1.3c.226-.131.223-.343,0-.474" transform="translate(-47.527 -63.055)" fill="#57565e"/>
        <path id="Trazado_1247053" data-name="Trazado 1247053" d="M122.97,146.921l-.608-.351a.9.9,0,0,0-.819,0l-2.244,1.3a.251.251,0,0,0,0,.475l.608.351a.906.906,0,0,0,.821,0l2.244-1.3c.226-.131.223-.343,0-.474" transform="translate(-50.078 -61.571)" fill="#57565e"/>
        <path id="Trazado_1247054" data-name="Trazado 1247054" d="M129.041,143.393l-.608-.351a.9.9,0,0,0-.819,0l-2.245,1.3a.251.251,0,0,0,0,.475l.608.351a.906.906,0,0,0,.821,0l2.244-1.3a.251.251,0,0,0,0-.474" transform="translate(-52.63 -60.089)" fill="#57565e"/>
        <path id="Trazado_1247055" data-name="Trazado 1247055" d="M135.111,139.866l-.608-.351a.906.906,0,0,0-.819,0l-2.245,1.3a.251.251,0,0,0,0,.475l.608.351a.906.906,0,0,0,.821,0l2.244-1.3a.251.251,0,0,0,0-.474" transform="translate(-55.182 -58.606)" fill="#57565e"/>
        <path id="Trazado_1247056" data-name="Trazado 1247056" d="M141.181,136.338l-.608-.351a.9.9,0,0,0-.819,0l-2.244,1.3a.251.251,0,0,0,0,.475l.608.351a.906.906,0,0,0,.821,0l2.244-1.3a.251.251,0,0,0,0-.475" transform="translate(-57.734 -57.123)" fill="#57565e"/>
        <path id="Trazado_1247057" data-name="Trazado 1247057" d="M147.252,132.81l-.608-.351a.9.9,0,0,0-.819,0l-2.246,1.305a.251.251,0,0,0,0,.474l.608.351a.9.9,0,0,0,.819,0l2.246-1.305a.251.251,0,0,0,0-.474" transform="translate(-60.285 -55.64)" fill="#57565e"/>
        <path id="Trazado_1247058" data-name="Trazado 1247058" d="M153.322,129.282l-.608-.351a.9.9,0,0,0-.819,0l-2.246,1.305a.251.251,0,0,0,0,.474l.608.351a.9.9,0,0,0,.819,0l2.246-1.305a.251.251,0,0,0,0-.474" transform="translate(-62.837 -54.157)" fill="#57565e"/>
        <path id="Trazado_1247059" data-name="Trazado 1247059" d="M159.393,125.755l-.609-.351a.9.9,0,0,0-.819,0l-2.246,1.305a.251.251,0,0,0,0,.474l.607.351a.9.9,0,0,0,.819,0l2.246-1.305a.251.251,0,0,0,0-.474" transform="translate(-65.389 -52.674)" fill="#57565e"/>
        <path id="Trazado_1247060" data-name="Trazado 1247060" d="M165.463,122.227l-.608-.351a.9.9,0,0,0-.819,0l-2.246,1.305a.251.251,0,0,0,0,.474l.608.351a.9.9,0,0,0,.819,0l2.246-1.305a.251.251,0,0,0,0-.474" transform="translate(-67.941 -51.191)" fill="#57565e"/>
        <path id="Trazado_1247061" data-name="Trazado 1247061" d="M171.533,118.7l-.608-.351a.9.9,0,0,0-.819,0l-2.246,1.305a.251.251,0,0,0,0,.474l.608.351a.9.9,0,0,0,.819,0l2.246-1.305a.251.251,0,0,0,0-.474" transform="translate(-70.492 -49.708)" fill="#57565e"/>
        <path id="Trazado_1247062" data-name="Trazado 1247062" d="M177.6,115.171,177,114.82a.906.906,0,0,0-.821,0l-2.244,1.3a.251.251,0,0,0,0,.474l.608.351a.9.9,0,0,0,.819,0l2.245-1.3a.251.251,0,0,0,0-.475" transform="translate(-73.044 -48.225)" fill="#57565e"/>
        <path id="Trazado_1247063" data-name="Trazado 1247063" d="M98.295,161.032l-.608-.351a.9.9,0,0,0-.819,0L94.079,162.3a.251.251,0,0,0,0,.475l.608.351a.9.9,0,0,0,.819,0l2.789-1.621c.226-.131.223-.343,0-.474" transform="translate(-39.477 -67.503)" fill="#57565e"/>
        <path id="Trazado_1247064" data-name="Trazado 1247064" d="M110.8,165.971l-2.261-1.305a.9.9,0,0,0-.818,0l-4.234,2.461a.251.251,0,0,0,0,.474l2.261,1.305a.9.9,0,0,0,.818,0l4.234-2.461a.25.25,0,0,0,0-.474" transform="translate(-43.434 -69.179)" fill="#57565e"/>
        <path id="Trazado_1247065" data-name="Trazado 1247065" d="M118.714,167.758l-2.259-1.3a.9.9,0,0,0-.819,0l-5.993,3.483c-.224.13-.223.343,0,.475l2.259,1.3a.9.9,0,0,0,.817,0l5.994-3.483a.25.25,0,0,0,0-.474" transform="translate(-46.02 -69.93)" fill="#57565e"/>
        <path id="Trazado_1247066" data-name="Trazado 1247066" d="M124.905,171.333l-2.261-1.305a.9.9,0,0,0-.817,0l-5.994,3.483a.25.25,0,0,0,0,.474l2.261,1.305a.9.9,0,0,0,.818,0l5.993-3.483a.25.25,0,0,0,0-.474" transform="translate(-48.622 -71.433)" fill="#57565e"/>
        <path id="Trazado_1247067" data-name="Trazado 1247067" d="M187.164,121.56l-2.261-1.305a.9.9,0,0,0-.819,0l-4.318,2.509a.25.25,0,0,0,0,.474l2.261,1.305a.9.9,0,0,0,.817,0l4.318-2.509a.251.251,0,0,0,0-.475" transform="translate(-75.497 -50.51)" fill="#57565e"/>
        <path id="Trazado_1247068" data-name="Trazado 1247068" d="M192.038,125.111l-2.259-1.3a.9.9,0,0,0-.82,0l-6.077,3.532c-.226.131-.223.343,0,.474l2.259,1.3a.9.9,0,0,0,.817,0l6.077-3.532a.25.25,0,0,0,0-.474" transform="translate(-76.807 -52.003)" fill="#57565e"/>
        <path id="Trazado_1247069" data-name="Trazado 1247069" d="M199.25,134.875l-.61-.352a.9.9,0,0,0-.817,0l-2.244,1.3a.25.25,0,0,0,0,.474l.61.352a.9.9,0,0,0,.817,0l2.245-1.3a.25.25,0,0,0,0-.474" transform="translate(-82.144 -56.508)" fill="#57565e"/>
        <path id="Trazado_1247070" data-name="Trazado 1247070" d="M202.1,136.518l-.608-.351a.9.9,0,0,0-.819,0l-2.245,1.3c-.225.131-.223.343,0,.474l.608.351a.9.9,0,0,0,.819,0l2.244-1.3c.226-.131.223-.343,0-.474" transform="translate(-83.34 -57.198)" fill="#57565e"/>
        <path id="Trazado_1247071" data-name="Trazado 1247071" d="M176.063,136.01l-2.259-1.3a.9.9,0,0,0-.819,0l-2.244,1.3c-.226.132-.223.344,0,.475l2.259,1.3a.9.9,0,0,0,.817,0l2.244-1.3a.25.25,0,0,0,0-.474" transform="translate(-71.703 -56.584)" fill="#57565e"/>
        <path id="Trazado_1247072" data-name="Trazado 1247072" d="M182.133,132.482l-2.259-1.3a.9.9,0,0,0-.819,0l-2.244,1.3a.251.251,0,0,0,0,.475l2.259,1.3a.9.9,0,0,0,.817,0l2.245-1.3a.25.25,0,0,0,0-.474" transform="translate(-74.255 -55.101)" fill="#57565e"/>
        <path id="Trazado_1247073" data-name="Trazado 1247073" d="M182.255,139.585l-2.261-1.305a.9.9,0,0,0-.818,0l-2.244,1.3a.25.25,0,0,0,0,.474l2.261,1.3a.9.9,0,0,0,.817,0l2.245-1.3a.25.25,0,0,0,0-.474" transform="translate(-74.306 -58.087)" fill="#57565e"/>
        <path id="Trazado_1247074" data-name="Trazado 1247074" d="M188.326,136.057l-2.261-1.305a.9.9,0,0,0-.818,0l-2.244,1.3a.25.25,0,0,0,0,.473l2.261,1.305a.9.9,0,0,0,.817,0l2.245-1.3a.25.25,0,0,0,0-.474" transform="translate(-76.858 -56.604)" fill="#57565e"/>
        <path id="Trazado_1247075" data-name="Trazado 1247075" d="M194.4,132.529l-2.261-1.305a.9.9,0,0,0-.818,0l-2.244,1.3a.25.25,0,0,0,0,.474l2.261,1.305a.9.9,0,0,0,.817,0L194.4,133a.25.25,0,0,0,0-.474" transform="translate(-79.41 -55.121)" fill="#57565e"/>
        <path id="Trazado_1247076" data-name="Trazado 1247076" d="M200.782,128.686l-2.261-1.305a.9.9,0,0,0-.819,0l-2.559,1.487a.25.25,0,0,0,0,.474l2.261,1.305a.9.9,0,0,0,.817,0l2.559-1.487a.251.251,0,0,0,0-.474" transform="translate(-81.961 -53.505)" fill="#57565e"/>
        <path id="Trazado_1247077" data-name="Trazado 1247077" d="M163.922,143.065l-2.259-1.3a.9.9,0,0,0-.819,0l-2.244,1.3c-.226.131-.223.343,0,.474l2.259,1.3a.9.9,0,0,0,.817,0l2.245-1.3a.25.25,0,0,0,0-.474" transform="translate(-66.599 -59.55)" fill="#57565e"/>
        <path id="Trazado_1247078" data-name="Trazado 1247078" d="M169.993,139.537l-2.259-1.3a.9.9,0,0,0-.819,0l-2.244,1.3c-.226.132-.223.344,0,.475l2.259,1.3a.9.9,0,0,0,.817,0l2.245-1.3a.25.25,0,0,0,0-.474" transform="translate(-69.151 -58.067)" fill="#57565e"/>
        <path id="Trazado_1247079" data-name="Trazado 1247079" d="M170.114,146.64l-2.261-1.305a.9.9,0,0,0-.818,0l-2.244,1.3a.25.25,0,0,0,0,.474l2.261,1.305a.9.9,0,0,0,.817,0l2.245-1.3a.25.25,0,0,0,0-.474" transform="translate(-69.202 -61.053)" fill="#57565e"/>
        <path id="Trazado_1247080" data-name="Trazado 1247080" d="M176.185,143.113l-2.261-1.305a.9.9,0,0,0-.818,0l-2.244,1.3a.25.25,0,0,0,0,.474l2.261,1.3a.9.9,0,0,0,.817,0l2.245-1.3a.25.25,0,0,0,0-.474" transform="translate(-71.754 -59.57)" fill="#57565e"/>
        <path id="Trazado_1247081" data-name="Trazado 1247081" d="M151.783,150.12l-2.259-1.3a.9.9,0,0,0-.82,0l-2.245,1.3c-.225.131-.223.343,0,.475l2.259,1.3a.9.9,0,0,0,.818,0l2.244-1.3a.25.25,0,0,0,0-.474" transform="translate(-61.496 -62.516)" fill="#57565e"/>
        <path id="Trazado_1247082" data-name="Trazado 1247082" d="M157.854,146.592l-2.26-1.3a.9.9,0,0,0-.82,0l-2.245,1.3c-.225.131-.223.343,0,.475l2.259,1.3a.9.9,0,0,0,.818,0l2.245-1.3a.25.25,0,0,0,0-.474" transform="translate(-64.048 -61.033)" fill="#57565e"/>
        <path id="Trazado_1247083" data-name="Trazado 1247083" d="M157.975,153.695l-2.261-1.305a.9.9,0,0,0-.819,0l-2.245,1.3a.25.25,0,0,0,0,.474l2.261,1.305a.9.9,0,0,0,.817,0l2.245-1.3a.251.251,0,0,0,0-.474" transform="translate(-64.099 -64.018)" fill="#57565e"/>
        <path id="Trazado_1247084" data-name="Trazado 1247084" d="M164.046,150.167l-2.261-1.305a.9.9,0,0,0-.819,0l-2.245,1.3a.25.25,0,0,0,0,.474l2.261,1.305a.9.9,0,0,0,.818,0l2.244-1.3a.251.251,0,0,0,0-.474" transform="translate(-66.651 -62.536)" fill="#57565e"/>
        <path id="Trazado_1247085" data-name="Trazado 1247085" d="M139.642,157.175l-2.259-1.3a.9.9,0,0,0-.82,0l-2.245,1.3c-.225.132-.223.343,0,.475l2.259,1.3a.9.9,0,0,0,.818,0l2.244-1.3a.25.25,0,0,0,0-.474" transform="translate(-56.392 -65.481)" fill="#57565e"/>
        <path id="Trazado_1247086" data-name="Trazado 1247086" d="M145.713,153.648l-2.259-1.3a.9.9,0,0,0-.82,0l-2.245,1.3c-.225.132-.223.343,0,.475l2.259,1.3a.9.9,0,0,0,.818,0l2.244-1.3a.25.25,0,0,0,0-.474" transform="translate(-58.944 -63.999)" fill="#57565e"/>
        <path id="Trazado_1247087" data-name="Trazado 1247087" d="M145.835,160.751l-2.261-1.305a.9.9,0,0,0-.819,0l-2.245,1.3a.25.25,0,0,0,0,.474l2.261,1.305a.9.9,0,0,0,.818,0l2.244-1.3a.251.251,0,0,0,0-.474" transform="translate(-58.995 -66.985)" fill="#57565e"/>
        <path id="Trazado_1247088" data-name="Trazado 1247088" d="M151.9,157.223l-2.261-1.305a.9.9,0,0,0-.819,0l-2.245,1.3a.25.25,0,0,0,0,.474L148.844,159a.9.9,0,0,0,.818,0l2.244-1.3a.251.251,0,0,0,0-.474" transform="translate(-61.547 -65.501)" fill="#57565e"/>
        <path id="Trazado_1247089" data-name="Trazado 1247089" d="M127.5,164.231l-2.259-1.3a.9.9,0,0,0-.82,0l-2.245,1.3a.251.251,0,0,0,0,.474l2.259,1.3a.9.9,0,0,0,.818,0l2.244-1.3a.25.25,0,0,0,0-.474" transform="translate(-51.29 -68.447)" fill="#57565e"/>
        <path id="Trazado_1247090" data-name="Trazado 1247090" d="M133.572,160.7l-2.259-1.3a.9.9,0,0,0-.82,0l-2.244,1.3c-.226.131-.223.343,0,.474l2.259,1.3a.9.9,0,0,0,.818,0l2.244-1.3a.25.25,0,0,0,0-.474" transform="translate(-53.841 -66.964)" fill="#57565e"/>
        <path id="Trazado_1247091" data-name="Trazado 1247091" d="M133.694,167.805l-2.261-1.305a.9.9,0,0,0-.819,0l-2.245,1.3a.25.25,0,0,0,0,.474l2.261,1.305a.9.9,0,0,0,.818,0l2.244-1.3a.251.251,0,0,0,0-.474" transform="translate(-53.892 -69.95)" fill="#57565e"/>
        <path id="Trazado_1247092" data-name="Trazado 1247092" d="M139.764,164.277l-2.261-1.305a.9.9,0,0,0-.819,0l-2.245,1.3a.25.25,0,0,0,0,.474l2.261,1.305a.9.9,0,0,0,.818,0l2.244-1.3a.251.251,0,0,0,0-.474" transform="translate(-56.443 -68.467)" fill="#57565e"/>
        <path id="Trazado_1247093" data-name="Trazado 1247093" d="M188.76,142.881l-2.259-1.3a.9.9,0,0,0-.819,0l-2.244,1.3a.25.25,0,0,0,0,.474l2.259,1.3a.9.9,0,0,0,.819,0l2.245-1.3a.251.251,0,0,0,0-.475" transform="translate(-77.04 -59.473)" fill="#57565e"/>
        <path id="Trazado_1247094" data-name="Trazado 1247094" d="M194.829,139.355l-2.259-1.3a.9.9,0,0,0-.817,0l-2.244,1.3a.25.25,0,0,0,0,.474l2.259,1.3a.9.9,0,0,0,.819,0l2.244-1.3c.226-.131.223-.343,0-.474" transform="translate(-79.592 -57.991)" fill="#57565e"/>
        <path id="Trazado_1247095" data-name="Trazado 1247095" d="M207.119,132.212l-2.259-1.3a.9.9,0,0,0-.819,0l-2.244,1.3a.25.25,0,0,0,0,.473l2.259,1.3a.9.9,0,0,0,.819,0l2.245-1.3a.251.251,0,0,0,0-.475" transform="translate(-84.758 -54.988)" fill="#57565e"/>
        <path id="Trazado_1247096" data-name="Trazado 1247096" d="M123.379,75.728,120.3,71.233l-1.279.968-.777-.628.9,3.287-2.014-1.911-1.88,1.022-.277-.509,2.25-1.224.811.77-.829-3.017,1.825,1.473,1.4-1.061,1.191,1.737-2.357-7.356,4.155,4.72,1.506-.892-.88-4.159,2.943,4.757-1.075-4.838,2.317,2.3,1.009-.6-1.109-5.889,4.563,5.441-.714-2.574.936-.624.321.482-.586.391,1.315,4.743-4.856-5.789.774,4.11-1.744,1.04-1.233-1.225,1.388,6.248-3-4.843.279,1.319L123.3,70.248l-2.639-3Z" transform="translate(-48.33 -25.299)" fill="#9fbae2"/>
        <path id="Trazado_1247097" data-name="Trazado 1247097" d="M115.263,182.664l-2.052-1.185a.617.617,0,0,1-.257-.492v-.6c0-.19.115-.276.257-.194l2.052,1.185a.617.617,0,0,1,.257.492v.6c0,.19-.115.276-.257.195" transform="translate(-47.482 -75.735)" fill="#57565e"/>
        <path id="Trazado_1247098" data-name="Trazado 1247098" d="M113.455,182.719l-2.688,1.549-2.38-2.5,2.7-1.556a.179.179,0,0,1,.112-.024.1.1,0,0,1,.047.016,12.1,12.1,0,0,1,1.884,1.546c.084.239.49.6.444.811v0a.246.246,0,0,1-.118.157" transform="translate(-45.562 -75.744)" fill="#57565e"/>
        <path id="Trazado_1247099" data-name="Trazado 1247099" d="M110.544,185.385l-2.052-1.185a.616.616,0,0,1-.257-.492v-.6c0-.19.115-.277.257-.195l2.052,1.185a.616.616,0,0,1,.257.492v.6c0,.19-.115.277-.257.195" transform="translate(-45.498 -76.879)" fill="#393842"/>
        <path id="Trazado_1247100" data-name="Trazado 1247100" d="M53.759.5,49.095,3.194l-.8-.838a1.559,1.559,0,0,0-1.986-.035L38.463,6.854a5.214,5.214,0,0,0-1.986,2.327l-.8,1.76-4.664,2.693a8.049,8.049,0,0,0-3.653,6.3V55.141c0,2.315,1.636,3.248,3.653,2.083,0,0,8.974-3.642,22.745-13.132a8.6,8.6,0,0,0,3.653-6.3V2.585C57.413.27,55.777-.663,53.759.5m-9.22,6.68-4.3,2.485c-.528.3-.956.061-.956-.545a2.1,2.1,0,0,1,.956-1.648L41.409,6.8a2.076,2.076,0,0,1,.81-.989l.335-.193c.343-.2.641-.161.81.053l1.175-.678c.528-.3.956-.061.956.545a2.106,2.106,0,0,1-.956,1.649" transform="translate(-11.502 0)" fill="#babbbd"/>
        <path id="Trazado_1247101" data-name="Trazado 1247101" d="M82.121,142.256a5.156,5.156,0,0,1-.548-.03c-1.005-.111-23.033-10.742-24.364-11.5-1.959-1.112-5.239-2.972-5.239-6.106V74.3H53.2v50.322c0,2.418,2.889,4.057,4.616,5.036,2.3,1.3,22.885,11.065,23.945,11.354a3.55,3.55,0,0,0,2-.392l.188-.1a1.465,1.465,0,0,0,.548-.376.658.658,0,0,0,.164-.325,1.434,1.434,0,0,0,0-.15c0-.06,0-.121,0-.181a2.045,2.045,0,0,1,.269-.915,1.523,1.523,0,0,1,.3-.4.8.8,0,0,1,.5-.1.705.705,0,0,1,.329.155,1.065,1.065,0,0,1,.212.3.373.373,0,0,1-.063.5c-.041.031-.146.067-.173.1a.789.789,0,0,0-.143.412c0,.038,0,.077,0,.115a2.641,2.641,0,0,1-.01.3,1.868,1.868,0,0,1-.443.98,2.6,2.6,0,0,1-.945.689l-.169.086a4.754,4.754,0,0,1-2.21.544" transform="translate(-21.847 -31.233)" fill="#6696e0"/>
        <g id="Grupo_1204930" data-name="Grupo 1204930" transform="translate(18.092 6.291)" style="mix-blend-mode: multiply;isolation: isolate">
          <g id="Grupo_1204929" data-name="Grupo 1204929">
            <g id="Grupo_1204928" data-name="Grupo 1204928" clip-path="url(#clip-path-10)">
              <path id="Trazado_1247102" data-name="Trazado 1247102" d="M34.866,57.928l16.616-9.593c2.018-1.165,3.653-4.29,3.653-6.981v-27.3c0-2.691-1.636-3.926-3.653-2.762L34.866,20.885c-2.018,1.165-3.653,4.29-3.653,6.981v27.3c0,2.691,1.636,3.928,3.653,2.762" transform="translate(-31.213 -10.853)" fill="#babbbd"/>
            </g>
          </g>
        </g>
        <path id="Trazado_1247103" data-name="Trazado 1247103" d="M65.456,3.418,70.12.725A2.847,2.847,0,0,1,72.328.308a2.505,2.505,0,0,0-2.683.2L65.151,3.1Z" transform="translate(-27.387 -0.002)" fill="#ddddde"/>
        <path id="Trazado_1247104" data-name="Trazado 1247104" d="M49.784,13.573l4.3-2.485a2.1,2.1,0,0,0,.956-1.648c0-.458-.245-.708-.593-.672a.814.814,0,0,1,.118.45,2.106,2.106,0,0,1-.956,1.649l-4.3,2.485a.935.935,0,0,1-.363.127c.162.25.474.3.838.1" transform="translate(-20.575 -3.684)" fill="#ddddde"/>
        <path id="Trazado_1247105" data-name="Trazado 1247105" d="M27.836,56.806V21.6a8.05,8.05,0,0,1,3.653-6.3l4.664-2.693.8-1.76a5.216,5.216,0,0,1,1.985-2.327l7.849-4.532a1.987,1.987,0,0,1,1.374-.3,1.634,1.634,0,0,0-1.85.082L38.463,8.3a5.222,5.222,0,0,0-1.986,2.328l-.8,1.76-4.664,2.693a8.048,8.048,0,0,0-3.653,6.3V56.584a2.335,2.335,0,0,0,1.446,2.5,2.6,2.6,0,0,1-.97-2.278" transform="translate(-11.502 -1.444)" fill="#ddddde"/>
        <path id="Trazado_1247106" data-name="Trazado 1247106" d="M36.3,55.757l16.616-9.593c2.017-1.165,3.653-4.29,3.653-6.981v-27.3c0-2.691-1.636-3.927-3.653-2.762L36.3,18.713c-2.018,1.165-3.654,4.29-3.654,6.981v27.3c0,2.691,1.636,3.927,3.654,2.762" transform="translate(-13.724 -3.649)" fill="#6696e0"/>
        <path id="Trazado_1247107" data-name="Trazado 1247107" d="M53.963,44.361c-5.2,5.018-16.616,9.593-16.616,9.593-2.018,1.165-3.653.641-3.653-2.049V26.123c0-2.69,1.636-5.815,3.653-6.981L53.963,9.549a2.8,2.8,0,0,1,1.613-.426,2.222,2.222,0,0,0-2.658,0L36.3,18.715C34.284,19.88,32.648,23,32.648,25.7V53c0,2.69,1.636,3.927,3.653,2.762,0,0,11.2-4.8,16.616-9.593A10.544,10.544,0,0,0,55.6,43.041c-.494.53-1.149.847-1.639,1.32" transform="translate(-13.724 -3.651)" fill="#467ccf"/>
        <path id="Trazado_1247108" data-name="Trazado 1247108" d="M54.735,37.8l-3.4,1.966V35.863l-3.753,2.166v3.906l-3.4,1.966v4.306l3.4-1.966v3.906l3.753-2.166V44.075l3.4-1.966Z" transform="translate(-18.569 -15.076)" fill="#4974b8"/>
        <path id="Trazado_1247109" data-name="Trazado 1247109" d="M43.261,51.243a4.883,4.883,0,0,1-2.476-.642c-1.755-1.013-2.721-3.081-2.721-5.824,0-5.346,3.789-11.883,8.447-14.573,2.408-1.39,4.708-1.593,6.476-.572s2.721,3.081,2.721,5.824c0,5.347-3.79,11.884-8.448,14.574a8.11,8.11,0,0,1-4,1.214m7.245-20.751A6.647,6.647,0,0,0,47.26,31.5c-4.244,2.451-7.7,8.406-7.7,13.275,0,2.185.7,3.791,1.971,4.526s3.052.538,4.976-.572c4.245-2.451,7.7-8.406,7.7-13.275,0-2.184-.7-3.791-1.972-4.525a3.412,3.412,0,0,0-1.731-.439" transform="translate(-16.001 -12.187)" fill="#4974b8"/>
        <path id="Trazado_1247110" data-name="Trazado 1247110" d="M55.636,38.173l-3.4,1.966V36.232L48.48,38.4V42.3l-3.4,1.966v4.306l3.4-1.966v3.906l3.753-2.166V44.444l3.4-1.965Z" transform="translate(-18.948 -15.231)" fill="#87a9ff"/>
        <path id="Trazado_1247111" data-name="Trazado 1247111" d="M44.163,51.611a4.883,4.883,0,0,1-2.476-.642c-1.755-1.013-2.722-3.081-2.722-5.824,0-5.346,3.79-11.883,8.447-14.573,2.408-1.39,4.708-1.593,6.476-.572s2.721,3.081,2.721,5.824c0,5.347-3.789,11.884-8.448,14.573a8.11,8.11,0,0,1-4,1.214M51.407,30.86a6.647,6.647,0,0,0-3.245,1.011c-4.244,2.451-7.7,8.405-7.7,13.274,0,2.185.7,3.791,1.972,4.526s3.052.538,4.976-.572c4.245-2.451,7.7-8.405,7.7-13.275,0-2.184-.7-3.791-1.972-4.525a3.416,3.416,0,0,0-1.731-.439" transform="translate(-16.38 -12.342)" fill="#87a9ff"/>
      </g>
    </g>
  </g>
</svg>
