<svg id="Grupo_1204438" data-name="Grupo 1204438" xmlns="http://www.w3.org/2000/svg" xmlns:xlink="http://www.w3.org/1999/xlink" width="227.558" height="239.333" viewBox="0 0 227.558 239.333">
  <defs>
    <clipPath id="clip-path">
      <rect id="Rectángulo_426373" data-name="Rectángulo 426373" width="227.558" height="239.333" fill="none"/>
    </clipPath>
    <clipPath id="clip-path-3">
      <rect id="Rectángulo_426356" data-name="Rectángulo 426356" width="76.834" height="44.36" fill="none"/>
    </clipPath>
    <clipPath id="clip-path-4">
      <rect id="Rectángulo_426357" data-name="Rectángulo 426357" width="64.225" height="37.08" fill="none"/>
    </clipPath>
    <clipPath id="clip-path-5">
      <path id="Trazado_1246396" data-name="Trazado 1246396" d="M190.73,138.925l0-.007,0,.007m-27.136-19.884c.089.022.191.056.28.079a.042.042,0,0,0,.034.012.452.452,0,0,0,.08.033c-.135-.045-.271-.089-.394-.123m-22.61,1.7q-.725.4-1.418.843a18.712,18.712,0,0,0-4.893,4.4,20.4,20.4,0,0,0-4.185,11.9l.012,1.508c.012.225.023.45.033.674.012.113.023.225.023.327a.328.328,0,0,1,.012.1c.326,3.1,2.565,6.176,6.714,8.584l16.176,9.414v-.011a.276.276,0,0,1,.079.046,25.763,25.763,0,0,0,3.352,1.608c.179.068.36.124.529.191.416.157.833.315,1.26.449.609.2,1.238.382,1.868.541.011,0,.033.012.045.012.259.079.517.146.776.213.067.022.135.034.2.056.112.022.224.045.337.079a18.8,18.8,0,0,0,2.632.449h.012c.292.035.585.08.889.113.168.023.359.034.529.057.483.056.955.089,1.439.123.72.068,1.44.09,2.16.1.394.012.787.012,1.169,0h.157c.225,0,.45-.011.675-.011.247-.012.495-.012.754-.034a1.6,1.6,0,0,0,.236-.012c.068,0,.124-.011.191-.011.045,0,.089-.012.135-.012a2.655,2.655,0,0,0,.3-.022c.124,0,.247-.011.382-.022.169-.012.348-.023.529-.045s.36-.034.54-.056c.035,0,.068-.012.1-.012l.27-.034c.225-.033.461-.056.686-.089.27-.035.529-.068.787-.113.09-.012.179-.034.271-.046.055-.012.112-.022.179-.033h.034l.157-.035c.09-.011.191-.033.281-.045.056-.012.113-.022.157-.034.427-.078.833-.168,1.249-.258.686-.147,1.349-.326,2.014-.517s1.294-.406,1.923-.641a25.06,25.06,0,0,0,3.565-1.62,24.482,24.482,0,0,0,3.318-2.71,16.71,16.71,0,0,0,2.825-3.535,5.59,5.59,0,0,0,.691-2.48c.013-.242.023-.441.028-.5v-.022a22.384,22.384,0,0,0-1.068-7.234c-.034-.1-.068-.191-.09-.28l-.574-1.586c-.113-.226-.225-.484-.349-.754-.078-.169-.157-.338-.236-.507-.044-.1-.087-.186-.131-.285a.093.093,0,0,1,.006.037c-.079-.179-.179-.348-.27-.517-.033-.056-.056-.113-.089-.181-.113-.212-.215-.427-.327-.618l-.4-.641a2.661,2.661,0,0,0-.191-.292l-.337-.54c-.068-.09-.124-.169-.182-.247-.236-.338-.483-.664-.73-.979a16.082,16.082,0,0,0-1.462-1.7l-.292-.281c-.249-.247-.484-.483-.732-.708l-.281-.27c-.124-.1-.237-.191-.337-.281q-.473-.4-.912-.742a19.767,19.767,0,0,0-2.215-1.53c-.012-.011-.023-.011-.034-.022-.1-.067-.213-.124-.326-.2l-9.043-5.242-.09-.056-1.024-.607h-.012l-6.018-3.5-.624-.335c-.355-.181-.716-.375-1.017-.531-.765-.338-1.8-.776-2.577-1.057l-.314-.091c-.428-.147-.855-.27-1.294-.382l-.135-.045a.4.4,0,0,1-.114-.022c-.595-.147-1.2-.271-1.854-.372-.271-.045-.53-.09-.776-.123l-1.756-.169h-.832c-.3-.011-.6-.022-.911-.022a38.771,38.771,0,0,0-12.239,4.084" transform="translate(-130.489 -116.657)" fill="none"/>
    </clipPath>
    <linearGradient id="linear-gradient" x1="-1.891" y1="1.698" x2="-1.876" y2="1.698" gradientUnits="objectBoundingBox">
      <stop offset="0" stop-color="#cecece"/>
      <stop offset="0.1" stop-color="#cecece"/>
      <stop offset="0.383" stop-color="#dfdfdf"/>
      <stop offset="0.646" stop-color="#eaeaea"/>
      <stop offset="1" stop-color="#fcfcfc"/>
    </linearGradient>
    <clipPath id="clip-path-6">
      <path id="Trazado_1246397" data-name="Trazado 1246397" d="M146.685,118.985c9.89,2.241,27.5,13.393,31.616,16.4s3.054,10.09,11.817,12.568l.885-3.186s-1.726-7.687-7.212-12.009a93.554,93.554,0,0,0-10.776-7.286s-9.264-5.455-12.185-6.489a20.6,20.6,0,0,0-7.141-1.419,18.667,18.667,0,0,0-7,1.419" transform="translate(-146.685 -117.566)" fill="none"/>
    </clipPath>
    <linearGradient id="linear-gradient-2" x1="-3.237" y1="2.359" x2="-3.214" y2="2.359" gradientUnits="objectBoundingBox">
      <stop offset="0" stop-color="#ececec"/>
      <stop offset="0.343" stop-color="#ececec"/>
      <stop offset="1" stop-color="#fcfcfc"/>
    </linearGradient>
    <clipPath id="clip-path-8">
      <path id="Trazado_1246401" data-name="Trazado 1246401" d="M116.729,6.9c-10.661,6.155-18.811,18.135-24.873,29.314,5.374,3.124,9.746,11.084,9.766,17.778,10.5-19.325,17-28.773,24.861-33.268,12.694-7.344,22.791-.825,23.077,11.151C151.025,73.933,101.1,133.889,101.846,133a7.284,7.284,0,0,1-.208,1.815,4.733,4.733,0,0,1-.936,1.894c20.674-24.961,40.7-59.336,46.591-79.959,8.16-28.588,5.726-42.626-8.981-51.8a16.152,16.152,0,0,0-8.2-2.115A27.062,27.062,0,0,0,116.729,6.9" transform="translate(-91.856 -2.841)" fill="none"/>
    </clipPath>
    <linearGradient id="linear-gradient-3" x1="-0.376" y1="2.098" x2="-0.369" y2="2.098" gradientUnits="objectBoundingBox">
      <stop offset="0" stop-color="#e5354c"/>
      <stop offset="0.127" stop-color="#e5354c"/>
      <stop offset="1" stop-color="#ff455e"/>
    </linearGradient>
    <clipPath id="clip-path-10">
      <path id="Trazado_1246406" data-name="Trazado 1246406" d="M104.076,132.138c.011,0,.011,0,0,0s-.012.014,0,0M128.712,19.86c-7.863,4.495-14.365,13.943-24.861,33.268-10.571-7.162-17.1-9.086-24.969-4.5-12.694,7.314-22.721,25.45-22.938,37.718-1.2,42.962,47.4,45.745,48.131,45.791.72-.879,49.157-59.69,47.714-101.127-.2-8.5-5.345-14.247-12.85-14.247a20.644,20.644,0,0,0-10.228,3.1" transform="translate(-55.922 -16.763)" fill="none"/>
    </clipPath>
    <linearGradient id="linear-gradient-4" x1="-0.354" y1="1.977" x2="-0.346" y2="1.977" xlink:href="#linear-gradient-3"/>
    <clipPath id="clip-path-11">
      <path id="Trazado_1246407" data-name="Trazado 1246407" d="M70.112,33.967c-16.63,9.6-29.674,33.124-30.021,49.763-.468,22.358,10.35,34.945,22.827,42.194a85.634,85.634,0,0,0,37.261,10.567,4.306,4.306,0,0,0,4.672-3.376,7.3,7.3,0,0,0,.208-1.816c.746.028-49.353-2.183-48.131-45.792C57.145,73.24,67.172,55.1,79.866,47.79c7.865-4.587,14.4-2.664,24.969,4.5-.018-6.365-3.973-13.876-9.155-17.4-.718-.466-1.684-1.073-2.416-1.516a21.224,21.224,0,0,0-10.776-3.082,24.605,24.605,0,0,0-12.376,3.678" transform="translate(-40.076 -30.289)" fill="none"/>
    </clipPath>
    <linearGradient id="linear-gradient-5" x1="-0.113" y1="2.059" x2="-0.105" y2="2.059" xlink:href="#linear-gradient-3"/>
    <clipPath id="clip-path-13">
      <rect id="Rectángulo_426366" data-name="Rectángulo 426366" width="82.794" height="43.074" fill="none"/>
    </clipPath>
    <clipPath id="clip-path-14">
      <path id="Trazado_1246412" data-name="Trazado 1246412" d="M41.627,92.163,28.945,93.914s-7.056,3.3-7.584,12.728,7.321,28.536,7.321,28.536,14.048-13.122,17.85-18.244c.912-.49,1.831-.964,2.721-1.491l-3.365-14.35c-1.214-5.185-1.027-9.828.438-13.106q-1.736-.494-3.472-.991a18.548,18.548,0,0,0-1.227,5.167" transform="translate(-21.335 -86.996)" fill="none"/>
    </clipPath>
    <linearGradient id="linear-gradient-6" x1="-0.15" y1="3.023" x2="-0.131" y2="3.023" gradientUnits="objectBoundingBox">
      <stop offset="0" stop-color="#302cc0"/>
      <stop offset="0.112" stop-color="#302cc0"/>
      <stop offset="0.189" stop-color="#3733c0"/>
      <stop offset="0.396" stop-color="#4443c1"/>
      <stop offset="0.636" stop-color="#4c4cc1"/>
      <stop offset="0.986" stop-color="#4f4fc2"/>
      <stop offset="1" stop-color="#4f4fc2"/>
    </linearGradient>
    <clipPath id="clip-path-16">
      <path id="Trazado_1246415" data-name="Trazado 1246415" d="M44.091,112.811,37.1,116.85a12,12,0,0,0-5.69,13.111l5.112,22s-.264,10.728,6.6,19.433S56.3,183.353,60.876,184.409s10.026.528,12.4-1.759c1.648-1.587,3.168-7.029,3.944-10.21a19.251,19.251,0,0,0,2.862.961c.079-.289.148-.582.23-.871.246-.853.55-1.7.855-2.549-9.275-2.124-19.172-13.956-22.1-26.457L56.676,133.3l-3.917-16.733a5.875,5.875,0,0,0-8.667-3.754" transform="translate(-31.094 -112.02)" fill="none"/>
    </clipPath>
    <linearGradient id="linear-gradient-7" x1="-0.213" y1="1.438" x2="-0.2" y2="1.438" xlink:href="#linear-gradient-6"/>
    <clipPath id="clip-path-17">
      <path id="Trazado_1246416" data-name="Trazado 1246416" d="M49.772,80.494l-.089-.015c-9.058,2.814-23.831,13.5-23.831,13.5h8.266s12.223,3.781,15.829,5.453,14.07,17.2,14.07,17.2,12.4,53.171,12.53,54.754-1.781,12.068-1.781,12.068-5.67,3.628-4,5.033c8.58-2.519,18.994-10,23.362-13.332a10.726,10.726,0,0,0,2.092-1.638,19.352,19.352,0,0,0,4.747-10.1c.565-3.234,1.477-9.024.158-15-.977-4.429-8.355-36.745-8.355-36.745-.976-4.169-3.845-8.551-6.041-12.315-5.055-8.66-15.013-15.713-22.346-17.333l-7.738-1.711a14.829,14.829,0,0,0-3.195-.36,12.307,12.307,0,0,0-3.679.547" transform="translate(-25.851 -79.947)" fill="none"/>
    </clipPath>
    <linearGradient id="linear-gradient-8" x1="-0.045" y1="1.258" x2="-0.036" y2="1.258" gradientUnits="objectBoundingBox">
      <stop offset="0" stop-color="#8e8bf2"/>
      <stop offset="0.468" stop-color="#8e8bf2"/>
      <stop offset="0.528" stop-color="#9697f3"/>
      <stop offset="0.586" stop-color="#9a9cf4"/>
      <stop offset="0.643" stop-color="#9b9df4"/>
      <stop offset="0.68" stop-color="#9797f3"/>
      <stop offset="0.8" stop-color="#8e8bf2"/>
      <stop offset="1" stop-color="#8e8bf2"/>
    </linearGradient>
  </defs>
  <g id="Grupo_1204437" data-name="Grupo 1204437" clip-path="url(#clip-path)">
    <g id="Grupo_1204407" data-name="Grupo 1204407">
      <g id="Grupo_1204406" data-name="Grupo 1204406" clip-path="url(#clip-path)">
        <path id="Trazado_1246386" data-name="Trazado 1246386" d="M193.98,121.031C149.408,95.3,77.368,95.166,33.073,120.74s-44.069,67.165.5,92.9,116.613,25.863,160.907.29,44.069-67.165-.5-92.9" transform="translate(0 6.308)" fill="#edf4fc"/>
        <path id="Trazado_1246387" data-name="Trazado 1246387" d="M193.98,114.023c-44.572-25.734-116.613-25.864-160.907-.291s-44.069,67.165.5,92.9,116.613,25.863,160.907.29,44.069-67.165-.5-92.9" transform="translate(0 5.873)" fill="#bcd6f4"/>
        <path id="Trazado_1246388" data-name="Trazado 1246388" d="M193.98,108.7c-44.572-25.734-116.613-25.864-160.907-.291s-44.069,67.165.5,92.9,116.613,25.863,160.907.29,44.069-67.165-.5-92.9" transform="translate(0 5.542)" fill="#edf4fc"/>
        <g id="Grupo_1204402" data-name="Grupo 1204402" transform="translate(54.348 111.816)" style="mix-blend-mode: multiply;isolation: isolate">
          <g id="Grupo_1204401" data-name="Grupo 1204401">
            <g id="Grupo_1204400" data-name="Grupo 1204400" clip-path="url(#clip-path-3)">
              <path id="Trazado_1246389" data-name="Trazado 1246389" d="M54.118,131.092l9.909-5.721,31.849-18.387c3.558-2.054,8.989-2.279,12.07-.5l17.982,10.382c3.081,1.779,2.691,4.914-.867,6.968l-9.909,5.721L83.3,147.943c-3.558,2.054-8.989,2.279-12.07.5L53.251,138.061c-3.081-1.779-2.691-4.915.867-6.969" transform="translate(-51.173 -105.283)" fill="#e7e7e7"/>
            </g>
          </g>
        </g>
        <g id="Grupo_1204405" data-name="Grupo 1204405" transform="translate(123.179 133.188)" style="mix-blend-mode: multiply;isolation: isolate">
          <g id="Grupo_1204404" data-name="Grupo 1204404">
            <g id="Grupo_1204403" data-name="Grupo 1204403" clip-path="url(#clip-path-4)">
              <path id="Trazado_1246390" data-name="Trazado 1246390" d="M173.418,158.89l.561-.324c9.231-5.329,8.063-14.726-2.6-20.881L158.939,130.5c-10.661-6.155-26.937-6.829-36.168-1.5l-.561.323c-9.232,5.33-8.064,14.728,2.6,20.882l12.443,7.184c10.661,6.155,26.936,6.83,36.168,1.5" transform="translate(-115.982 -125.406)" fill="#e7e7e7"/>
            </g>
          </g>
        </g>
        <path id="Trazado_1246391" data-name="Trazado 1246391" d="M160.3,142.578,138.5,129.99c-2.845-1.643-4.412-3.918-4.413-6.406,0-2.47,1.547-4.725,4.359-6.348l3.858-2.227c1.8-1.04,2.792-2.331,2.792-3.638s-1.038-2.65-2.846-3.694c-8.124-4.69-17.115-.074-25.632,5.056a122.81,122.81,0,0,1-17.085,8.55l-1.179-2.9A119.66,119.66,0,0,0,115,110.051c6.886-4.147,18.412-11.088,28.811-5.085,2.845,1.643,4.412,3.918,4.413,6.405,0,2.47-1.547,4.725-4.359,6.349l-3.857,2.226c-1.8,1.041-2.793,2.332-2.793,3.638s1.038,2.65,2.847,3.695l21.8,12.587Z" transform="translate(6.103 6.368)" fill="#54557a"/>
        <path id="Trazado_1246392" data-name="Trazado 1246392" d="M136.812,143.681" transform="translate(8.49 8.916)" fill="#e9eaf0"/>
        <path id="Trazado_1246393" data-name="Trazado 1246393" d="M180.281,129.573c.225.167.457.338.682.515a1.445,1.445,0,0,0-.129-.118Z" transform="translate(11.187 8.041)" fill="#a0a1a5"/>
        <path id="Trazado_1246394" data-name="Trazado 1246394" d="M183.668,132.5l.816.972c-.285-.344-.563-.682-.816-.972" transform="translate(11.397 8.222)" fill="#929296"/>
        <path id="Trazado_1246395" data-name="Trazado 1246395" d="M187.166,137.535c.011.027.027.059.042.091-.005-.016-.011-.027-.016-.042Z" transform="translate(11.615 8.535)" fill="#838487"/>
      </g>
    </g>
    <g id="Grupo_1204409" data-name="Grupo 1204409" transform="translate(138.586 123.896)">
      <g id="Grupo_1204408" data-name="Grupo 1204408" clip-path="url(#clip-path-5)">
        <rect id="Rectángulo_426359" data-name="Rectángulo 426359" width="71.092" height="77.264" transform="translate(-19.863 34.403) rotate(-60)" fill="url(#linear-gradient)"/>
      </g>
    </g>
    <g id="Grupo_1204411" data-name="Grupo 1204411" transform="translate(155.788 124.862)">
      <g id="Grupo_1204410" data-name="Grupo 1204410" clip-path="url(#clip-path-6)">
        <rect id="Rectángulo_426360" data-name="Rectángulo 426360" width="47.622" height="53.394" transform="translate(-12.586 23.707) rotate(-62.036)" fill="url(#linear-gradient-2)"/>
      </g>
    </g>
    <g id="Grupo_1204413" data-name="Grupo 1204413">
      <g id="Grupo_1204412" data-name="Grupo 1204412" clip-path="url(#clip-path)">
        <path id="Trazado_1246398" data-name="Trazado 1246398" d="M161.275,128.021l-.27.461c-.012-.011-.181-.1-.473-.27-1.833-1.068-8.492-4.871-10.033-5.6-7.031-3.307-11.044-1.262-11.226-1.2l-.969.472.777-.52q.691-.438,1.417-.843c1.889-.428,5.41-.653,10.224,1.608,1.654.776,8.785,4.86,10.282,5.748.147.079.236.124.27.147" transform="translate(8.583 7.462)" fill="#cecece"/>
        <path id="Trazado_1246399" data-name="Trazado 1246399" d="M172.571,123.58c-.416-.213-3.116-1.114-11.395,5.017-9.91,7.333-12.677,12.711-14.8,21.293l-.09.338-2.272-1.249C137.3,145.312,132.3,142.59,130.5,139l-.012-1.507c1.1,4.094,6.378,6.962,13.779,11.011l1.665.911c2.115-8.335,5.073-13.96,14.916-21.249a1.543,1.543,0,0,1,.169-.123,5.737,5.737,0,0,1,.473-.338c5.624-4.072,8.526-4.837,9.955-4.792h.011l1.024.607Z" transform="translate(8.098 7.627)" fill="#cecece"/>
        <path id="Trazado_1246400" data-name="Trazado 1246400" d="M134.509,2.655l-1.574-.69c-.647-.252-1.525-.547-2.183-.772L129.1.741c-.72-.161-1.689-.333-2.414-.463l-1.738-.2C124.108.03,122.99.011,122.152,0L120.32.1c-1.063.123-2.475.344-3.528.533l-1.952.487a35.689,35.689,0,0,0-5.655,2.206l-2.1,1.13h0l0,0,0,0h0c-9.886,5.723-16.885,16.088-25.634,32.056,1.607-2.96,4.866-3.727,8.632-1.539C96.133,23.8,104.283,11.819,114.943,5.664,123.469.74,131.076.552,136.526,3.719c-.595-.338-1.408-.751-2.017-1.064" transform="translate(5.054)" fill="#e6374f"/>
      </g>
    </g>
    <g id="Grupo_1204415" data-name="Grupo 1204415" transform="translate(97.556 3.017)">
      <g id="Grupo_1204414" data-name="Grupo 1204414" clip-path="url(#clip-path-8)">
        <rect id="Rectángulo_426362" data-name="Rectángulo 426362" width="147.599" height="105.938" transform="matrix(0.346, -0.938, 0.938, 0.346, -43.409, 117.885)" fill="url(#linear-gradient-3)"/>
      </g>
    </g>
    <g id="Grupo_1204417" data-name="Grupo 1204417">
      <g id="Grupo_1204416" data-name="Grupo 1204416" clip-path="url(#clip-path)">
        <path id="Trazado_1246402" data-name="Trazado 1246402" d="M100.184,133.613c.159-.19.369-.445.527-.636l1.2-1.477c.544-.675,1.26-1.585,1.8-2.263l2.318-2.991c.837-1.093,1.935-2.565,2.765-3.664l3.131-4.276c1.04-1.442,2.4-3.385,3.424-4.836l3.636-5.333c1.15-1.721,2.642-4.043,3.775-5.775l3.834-6.159c1.17-1.931,2.672-4.54,3.817-6.487l3.723-6.756c1.1-2.075,2.491-4.885,3.558-6.98l3.3-7.122c.953-2.173,2.109-5.118,3.012-7.312l2.562-7.237c.151-.473.307-1,.464-1.524-6.682,18.5-20.714,44.321-46.495,80.34a4.186,4.186,0,0,1-.352.487" transform="translate(6.217 3.276)" fill="#e6374f"/>
        <path id="Trazado_1246403" data-name="Trazado 1246403" d="M150.028,18.375l-.746-1.693c-.36-.714-.88-1.643-1.276-2.338l-.97-1.474c-.422-.581-1.02-1.33-1.467-1.892L144.414,9.7c-.481-.486-1.151-1.106-1.651-1.573L141.436,7.04c-.444-.34-1.059-.761-1.514-1.086l-1.468-.915-2.432-1.414C130.573.459,122.966.647,114.438,5.569c-10.66,6.155-18.81,18.136-24.872,29.314L92,36.3a14.528,14.528,0,0,1,2.24,1.623C102,23.286,110.55,15.032,121.974,11.156c-.249-.272-.514-.531-.776-.792.26.26.525.517.771.788a34.8,34.8,0,0,1,4.915-1.3c.371-.061,18.8-2.706,24.331,12.312l-.159-.7c-.277-.937-.7-2.17-1.027-3.088" transform="translate(5.558 0.094)" fill="#e6374f"/>
        <path id="Trazado_1246404" data-name="Trazado 1246404" d="M147.818,20.954l.289,1.257A29.772,29.772,0,0,1,148.622,27l-.1,6.04c-.264,2.58-.612,6.023-1.015,8.586L146.032,48.6c-.519,1.828-1.14,4.135-1.739,6.156,5.887-16.3,6.065-26.914,3.525-33.806" transform="translate(8.954 1.3)" fill="#e6374f"/>
        <path id="Trazado_1246405" data-name="Trazado 1246405" d="M68.112,32.726c-16.631,9.6-29.674,33.124-30.022,49.763-.467,22.359,10.35,34.945,22.545,42.032l-3.045-1.88c-1.347-.94-3.137-2.2-4.442-3.2l-2.619-2.2c-1.054-1-2.459-2.324-3.468-3.366l-2.225-2.512c-.849-1.093-1.986-2.546-2.785-3.675l-1.856-2.9c-.692-1.269-1.62-2.959-2.248-4.26l-1.47-3.491c-.544-1.634-1.261-3.819-1.71-5.482l-.943-4.641c-.725-6.465-.753-6.717-.678-10.656L33.268,74c.1-.81.208-1.893.331-2.7l.447-2.391c.188-.774.424-1.811.633-2.579l.74-2.459c.268-.758.609-1.775.893-2.526l1-2.476c.34-.744.777-1.744,1.133-2.481l1.244-2.445c.406-.724.934-1.7,1.355-2.415l1.461-2.368c.469-.695,1.081-1.631,1.565-2.315l1.66-2.244c.531-.654,1.225-1.54,1.77-2.183l1.838-2.066c.595-.606,1.373-1.428,1.983-2.019L53.32,36.5c.668-.55,1.547-1.3,2.232-1.83l2.116-1.533c.768-.489,1.782-1.154,2.568-1.613l1.482-.81c.524-.252,1.218-.6,1.749-.832l1.469-.6c.577-.2,1.342-.468,1.924-.647l1.466-.391c.634-.134,1.478-.311,2.117-.42l1.466-.192c.675-.053,1.577-.12,2.254-.146h1.462c.685.035,1.6.086,2.281.148l1.445.185c.66.116,1.539.275,2.194.415l1.41.355c.612.184,1.426.43,2.032.633l1.356.506c.554.233,1.294.543,1.841.791l1.293.632c.538.289,1.255.674,1.785.977-5.886-3.421-13.508-4.973-23.151.595" transform="translate(2.055 1.706)" fill="#e6374f"/>
      </g>
    </g>
    <g id="Grupo_1204419" data-name="Grupo 1204419" transform="translate(59.393 17.803)">
      <g id="Grupo_1204418" data-name="Grupo 1204418" clip-path="url(#clip-path-10)">
        <rect id="Rectángulo_426364" data-name="Rectángulo 426364" width="125.784" height="110.906" transform="translate(-14.144 113.913) rotate(-83.508)" fill="url(#linear-gradient-4)"/>
      </g>
    </g>
    <g id="Grupo_1204421" data-name="Grupo 1204421" transform="translate(42.563 32.169)">
      <g id="Grupo_1204420" data-name="Grupo 1204420" clip-path="url(#clip-path-11)">
        <rect id="Rectángulo_426365" data-name="Rectángulo 426365" width="122.609" height="98.833" transform="translate(-34.919 93.596) rotate(-69.785)" fill="url(#linear-gradient-5)"/>
      </g>
    </g>
    <g id="Grupo_1204426" data-name="Grupo 1204426">
      <g id="Grupo_1204425" data-name="Grupo 1204425" clip-path="url(#clip-path)">
        <path id="Trazado_1246408" data-name="Trazado 1246408" d="M43.948,89.344C40.205,57.978,72.7,20.93,103.305,44.652A21.84,21.84,0,0,0,96,35.087c-.407-.275-.957-.628-1.368-.894L93.4,33.454,90.973,32.04c-5.886-3.421-13.508-4.971-23.151.595C51.191,42.237,38.148,65.76,37.8,82.4c-.468,22.359,10.35,34.945,22.545,42.032l2.432,1.415a81.334,81.334,0,0,0,10.676,5.077l3.428,1.226c1.559.5,3.659,1.109,5.234,1.561l3.453.841c1.251.273,2.929.589,4.186.834l3,.475c.9.125,2.1.263,3,.373l2.123.2c.482.038,1.125.076,1.606.108l.846.038a4.943,4.943,0,0,0,2.7-.611c-13.867.133-54.486-8.148-59.076-46.619" transform="translate(2.345 1.797)" fill="#e6374f"/>
        <path id="Trazado_1246409" data-name="Trazado 1246409" d="M102.589,126.805l-10.4-44.766-.421,19.013c-.058.622-.971,5.619-16.083,10.4-11.505,3.64-25.892-.9-26.5-1.093l.549-1.712c.143.046,14.456,4.555,25.409,1.092,13.92-4.4,14.828-8.78,14.836-8.824l.728-33.187,9.806,42.209c.038-7.227.407-15.485,1.854-16.733a51.782,51.782,0,0,1,4.785-3.134c3.96-2.443,9.376-5.783,11.883-8.359.631-1.394.966-12.648.927-22.837l-.028-7.165,8.095,31.27L130.519,71.6l.229-.2c.191-.162,19.164-16.5,21.1-29.229l1.777.27c-1.939,12.761-19.165,28.116-21.477,30.127l-3.968,18.145L121.744,65.86c-.1,10.59-.579,16.332-1.42,17.1-2.606,2.7-8.167,6.133-12.227,8.639a53.794,53.794,0,0,0-4.556,2.966c-1.023,1.23-1.394,12.932-1.152,23.523Zm16.484-45.133a.078.078,0,0,0-.018.019l.018-.019" transform="translate(3.052 2.617)" fill="#fbff00"/>
        <g id="Grupo_1204424" data-name="Grupo 1204424" transform="translate(11.591 155.407)" style="mix-blend-mode: multiply;isolation: isolate">
          <g id="Grupo_1204423" data-name="Grupo 1204423">
            <g id="Grupo_1204422" data-name="Grupo 1204422" clip-path="url(#clip-path-13)">
              <path id="Trazado_1246410" data-name="Trazado 1246410" d="M89.639,168.81,54.76,148.672c-3.725-2.151-9.2-2.8-14.489-2.039a28.094,28.094,0,0,0-17.407,3.018l-6.185,3.572c-6.964,4.021-7.728,10.16-1.7,13.642L49.862,187a19.939,19.939,0,0,0,9.278,2.329c2.466.066,7.379.109,9.628.008a29.17,29.17,0,0,0,12.99-3.317l6.185-3.572c6.964-4.021,7.728-10.16,1.7-13.642" transform="translate(-10.914 -146.326)" fill="#e7e7e7"/>
            </g>
          </g>
        </g>
        <path id="Trazado_1246411" data-name="Trazado 1246411" d="M71.4,120.965l-2.517-6.629-.583-.692.283-.238.635.769,2.528,6.66Z" transform="translate(4.239 7.037)" fill="#b8b8b8"/>
      </g>
    </g>
    <g id="Grupo_1204428" data-name="Grupo 1204428" transform="translate(22.659 92.395)">
      <g id="Grupo_1204427" data-name="Grupo 1204427" clip-path="url(#clip-path-14)">
        <rect id="Rectángulo_426368" data-name="Rectángulo 426368" width="55.937" height="48.703" transform="translate(-21.366 36.137) rotate(-60)" fill="url(#linear-gradient-6)"/>
      </g>
    </g>
    <g id="Grupo_1204430" data-name="Grupo 1204430">
      <g id="Grupo_1204429" data-name="Grupo 1204429" clip-path="url(#clip-path)">
        <path id="Trazado_1246413" data-name="Trazado 1246413" d="M54.523,143.8q-.726-1.529-1.449-3.06-.669-1.418-1.332-2.837l1.568-4.416-3.917-16.734a5.829,5.829,0,0,0-2.574-3.615l.315-1.117-3.513.189-.011.007a5.829,5.829,0,0,0-2.885.784l-6.995,4.038a12,12,0,0,0-5.69,13.111L32.048,147.4c.3,1.317.6,2.636.918,3.951.3,1.263.772,1.128,2.086,1.3,1.916.256,3.816.628,5.74.829a15.633,15.633,0,0,0,7.79-.826,16.76,16.76,0,0,0,3.591-2.254q1.582-1.227,3.057-2.582a3.574,3.574,0,0,0,1.317-1.953c-1.415-.167-1.427-.811-2.024-2.068" transform="translate(1.721 6.952)" fill="#302cc0"/>
        <path id="Trazado_1246414" data-name="Trazado 1246414" d="M44.184,152.71a23.294,23.294,0,0,1-2.428-.136c-1.125-.117-2.27-.3-3.376-.475-.781-.123-1.561-.247-2.344-.352-.179-.023-.343-.042-.494-.058-.832-.093-.832-.093-.975-.688-.212-.885-.416-1.77-.62-2.657l-4.3-18.537A11.2,11.2,0,0,1,34.986,117.5l6.949-4.158a6.431,6.431,0,0,1,2.705-1.156l.251-.02,2.36-.051-.4,1.175.462.293a5.1,5.1,0,0,1,2.253,3.163l3.868,16.523-1.6,4.5.127.273q.661,1.421,1.332,2.839.723,1.534,1.451,3.063c.095.2.174.383.247.552a2.662,2.662,0,0,0,1.453,1.715,5.313,5.313,0,0,1-.826.9c-.962.884-1.974,1.74-3.011,2.543a16.31,16.31,0,0,1-3.43,2.159A12.476,12.476,0,0,1,44.184,152.71Z" transform="translate(1.821 6.957)" fill="#302cc0"/>
      </g>
    </g>
    <g id="Grupo_1204432" data-name="Grupo 1204432" transform="translate(33.023 118.971)">
      <g id="Grupo_1204431" data-name="Grupo 1204431" clip-path="url(#clip-path-16)">
        <rect id="Rectángulo_426370" data-name="Rectángulo 426370" width="80.853" height="89.083" transform="matrix(0.866, -0.5, 0.5, 0.866, -32.686, 18.361)" fill="url(#linear-gradient-7)"/>
      </g>
    </g>
    <g id="Grupo_1204434" data-name="Grupo 1204434" transform="translate(27.455 84.908)">
      <g id="Grupo_1204433" data-name="Grupo 1204433" clip-path="url(#clip-path-17)">
        <rect id="Rectángulo_426371" data-name="Rectángulo 426371" width="120.601" height="132.294" transform="translate(-46.999 27.135) rotate(-30)" fill="url(#linear-gradient-8)"/>
      </g>
    </g>
    <g id="Grupo_1204436" data-name="Grupo 1204436">
      <g id="Grupo_1204435" data-name="Grupo 1204435" clip-path="url(#clip-path)">
        <path id="Trazado_1246417" data-name="Trazado 1246417" d="M66.951,188.484a15.138,15.138,0,0,1-3.263-.37l-4.056-.9c-10.521-2.325-21.7-15.408-24.92-29.167l-.611-2.607a3.4,3.4,0,0,1-4.086-2.536l-9.092-38.841c-1.916-8.183-.753-15.167,3.19-19.161,2.814-2.849,6.841-3.871,11.334-2.878l7.738,1.71c10.521,2.324,21.7,15.409,24.92,29.167l10.107,43.171c1.915,8.183.752,15.167-3.19,19.161a11.064,11.064,0,0,1-8.072,3.248m-34.857-57.26,6.1,26.011c2.938,12.548,12.9,24.43,22.207,26.488l4.057.9c3.3.728,6.068.072,8.014-1.9,3.015-3.052,1.289-8.17-.315-15.029L62.054,124.52c-2.937-12.549-10.333-25.23-19.641-27.287l-7.738-1.709c-3.3-.728-6.068-.072-8.014,1.9-3.015,3.052-3.856,8.969-2.25,15.828l4.109,18.164Z" transform="translate(1.242 5.688)" fill="#6865d9"/>
        <path id="Trazado_1246418" data-name="Trazado 1246418" d="M66.088,188.079a14.4,14.4,0,0,1-3.1-.353l-4.057-.9c-10.272-2.27-21.2-15.108-24.362-28.616l-.778-3.325-.716.168a2.66,2.66,0,0,1-3.2-1.986l-9.092-38.843c-1.856-7.932-.765-14.667,3-18.477a10.342,10.342,0,0,1,7.549-3.03,14.39,14.39,0,0,1,3.1.354l7.737,1.71c10.271,2.267,21.2,15.106,24.365,28.617l10.105,43.17c1.856,7.932.765,14.667-3,18.478a10.348,10.348,0,0,1-7.549,3.029M36.62,157.733c2.995,12.8,13.207,24.924,22.763,27.037l4.057.9a12.379,12.379,0,0,0,2.659.306,8.266,8.266,0,0,0,6.036-2.407c2.961-3,1.839-7.611.42-13.451-.177-.731-.361-1.485-.543-2.261l-10.105-43.17c-2.872-12.269-10.231-25.636-20.2-27.839l-7.738-1.709a12.413,12.413,0,0,0-2.662-.306,8.259,8.259,0,0,0-6.035,2.407c-3.194,3.232-4.107,9.4-2.444,16.511l4.245,18.763,3.033,10.869-1.629-12.235,1.825.109Z" transform="translate(1.234 5.754)" fill="#302cc0"/>
        <path id="Trazado_1246419" data-name="Trazado 1246419" d="M89.794,166.154h0c5.86-3.384,9.194-12.647,7.408-20.584L90,113.562c-1.786-7.937-8.043-11.663-13.9-8.279S66.9,117.929,68.69,125.867l7.2,32.007c1.786,7.938,8.042,11.663,13.9,8.28" transform="translate(4.233 6.456)" fill="#47404b"/>
        <path id="Trazado_1246420" data-name="Trazado 1246420" d="M86.676,164.084c-3.27,0-6.051-2.959-7.081-7.541L72.61,125.5c-1.516-6.739,1.3-14.8,6.147-17.594a6.349,6.349,0,0,1,3.183-.921c3.271,0,6.051,2.959,7.081,7.54l6.985,31.044c1.517,6.739-1.3,14.8-6.147,17.6a6.349,6.349,0,0,1-3.183.921" transform="translate(4.48 6.639)" fill="#554f59"/>
        <path id="Trazado_1246421" data-name="Trazado 1246421" d="M75.093,124.474c-.557-2.162.4-4.976,2.354-5.9a3.471,3.471,0,0,1,3.478.557h0a5.3,5.3,0,0,1,2.381-3.337c1.956-.928,4.083.423,4.733,2.541,1.916,6.257-3.426,13.89-3.426,13.89s-7.876-1.359-9.519-7.746" transform="translate(4.65 7.167)" fill="#ff455e"/>
      </g>
    </g>
  </g>
</svg>
