<svg xmlns="http://www.w3.org/2000/svg" width="59" height="59" viewBox="0 0 59 59">
  <g id="Grupo_1206128" data-name="Grupo 1206128" transform="translate(-1546 -5047)">
    <g id="OUTLINE" transform="translate(1546 5047)">
      <path id="Trazado_1248109" data-name="Trazado 1248109" d="M73.033,27.8A1.969,1.969,0,0,0,75,25.833v-5.9A3.938,3.938,0,0,0,71.067,16H24.85a2.953,2.953,0,0,0-2.95,2.95V67.133H17.967A1.969,1.969,0,0,0,16,69.1v1.967A3.938,3.938,0,0,0,19.933,75H48.45V73.033H19.933a1.969,1.969,0,0,1-1.967-1.967V69.1H45.5V67.133H23.867V18.95a.984.984,0,0,1,.983-.983H67.662a3.908,3.908,0,0,0-.529,1.967V36.391a14.658,14.658,0,0,0-6.883-1.708h-.983A14.767,14.767,0,0,0,44.519,49.174l-3.984,7.17a1.967,1.967,0,0,0,1.719,2.922h2.262V63.2a3.938,3.938,0,0,0,3.933,3.933h1.967V75h1.967V67.133a1.969,1.969,0,0,0-1.967-1.967H48.45A1.969,1.969,0,0,1,46.483,63.2V57.3H42.254l4.229-7.612v-.255A12.8,12.8,0,0,1,59.267,36.65h.983A12.8,12.8,0,0,1,73.033,49.433a15.532,15.532,0,0,1-4.579,11.055l-1.847,1.847a4.884,4.884,0,0,0-1.44,3.477V75h1.967V65.813A2.931,2.931,0,0,1,68,63.727l1.847-1.847A17.486,17.486,0,0,0,75,49.433a14.736,14.736,0,0,0-5.9-11.792V27.8ZM69.1,19.933a1.967,1.967,0,0,1,3.933,0v5.9H69.1Z" transform="translate(-16 -16)" fill="#2d847e"/>
      <path id="Trazado_1248110" data-name="Trazado 1248110" d="M326.316,232a5.852,5.852,0,0,0-4.441,1.572A5.921,5.921,0,0,0,320,237.888h1.967a3.934,3.934,0,1,1,5.021,3.781,2.856,2.856,0,0,0-2.071,2.723v2.345h1.967v-2.345a.87.87,0,0,1,.647-.833A5.9,5.9,0,0,0,326.316,232Z" transform="translate(-282.633 -205.438)" fill="#2d847e"/>
      <path id="Trazado_1248111" data-name="Trazado 1248111" d="M360,368h1.967v1.967H360Z" transform="translate(-317.717 -324.733)" fill="#2d847e"/>
      <path id="Trazado_1248112" data-name="Trazado 1248112" d="M176,56h19.667v1.967H176Z" transform="translate(-156.333 -51.083)" fill="#2d847e"/>
      <path id="Trazado_1248113" data-name="Trazado 1248113" d="M105.226,170.343l-4.221,4.221-1.271-1.271-1.391,1.391,2.662,2.662,5.612-5.612Z" transform="translate(-88.222 -151.372)" fill="#2d847e"/>
      <path id="Trazado_1248114" data-name="Trazado 1248114" d="M184,192h8.85v1.967H184Z" transform="translate(-163.35 -170.367)" fill="#2d847e"/>
      <path id="Trazado_1248115" data-name="Trazado 1248115" d="M105.226,242.343l-4.221,4.221-1.271-1.271-1.391,1.391,2.662,2.662,5.612-5.612Z" transform="translate(-88.222 -214.522)" fill="#2d847e"/>
      <path id="Trazado_1248116" data-name="Trazado 1248116" d="M184,264h5.9v1.967H184Z" transform="translate(-163.35 -233.517)" fill="#2d847e"/>
      <path id="Trazado_1248117" data-name="Trazado 1248117" d="M99.734,317.293l-1.391,1.391,2.662,2.662,5.612-5.612-1.391-1.391-4.221,4.221Z" transform="translate(-88.222 -277.672)" fill="#2d847e"/>
      <path id="Trazado_1248118" data-name="Trazado 1248118" d="M184,336h1.967v1.967H184Z" transform="translate(-163.35 -296.667)" fill="#2d847e"/>
      <path id="Trazado_1248119" data-name="Trazado 1248119" d="M105.226,98.343l-4.221,4.221-1.271-1.271-1.391,1.391,2.662,2.662,5.612-5.612Z" transform="translate(-88.222 -88.222)" fill="#2d847e"/>
      <path id="Trazado_1248120" data-name="Trazado 1248120" d="M184,120h27.533v1.967H184Z" transform="translate(-163.35 -107.217)" fill="#2d847e"/>
    </g>
  </g>
</svg>
