<svg xmlns="http://www.w3.org/2000/svg" width="62" height="62" viewBox="0 0 62 62">
  <g id="hipotesis" transform="translate(-1 -1)">
    <path id="Trazado_1248121" data-name="Trazado 1248121" d="M51.59,14.33a1.033,1.033,0,0,0,.71-.29l4.95-4.95L55.84,7.68,51.6,11.92l-1.41-1.41-1.41,1.41,2.12,2.12a.99.99,0,0,0,.71.29Z" fill="#435283"/>
    <path id="Trazado_1248122" data-name="Trazado 1248122" d="M50.53,56.89,53,54.41l2.47,2.48,1.42-1.41L54.41,53l2.48-2.48-1.42-1.41L53,51.59l-2.47-2.48-1.42,1.41L51.59,53l-2.48,2.48Z" fill="#435283"/>
    <path id="Trazado_1248123" data-name="Trazado 1248123" d="M7.5,30.5h3v2h-3Z" fill="#435283"/>
    <path id="Trazado_1248124" data-name="Trazado 1248124" d="M31.5,30.5h3v2h-3Z" fill="#435283"/>
    <path id="Trazado_1248125" data-name="Trazado 1248125" d="M20,18h2v3H20Z" fill="#435283"/>
    <path id="Trazado_1248126" data-name="Trazado 1248126" d="M11.51,21.51h2v3h-2Z" transform="translate(-12.61 15.59) rotate(-45)" fill="#435283"/>
    <path id="Trazado_1248127" data-name="Trazado 1248127" d="M28.49,38.49h2v3h-2Z" transform="translate(-19.64 32.56) rotate(-45)" fill="#435283"/>
    <path id="Trazado_1248128" data-name="Trazado 1248128" d="M27.99,22.01h3v2h-3Z" transform="translate(-7.64 27.59) rotate(-45)" fill="#435283"/>
    <path id="Trazado_1248129" data-name="Trazado 1248129" d="M11.01,38.99h3v2h-3Z" transform="translate(-24.61 20.56) rotate(-45)" fill="#435283"/>
    <path id="Trazado_1248130" data-name="Trazado 1248130" d="M21,52a19.983,19.983,0,0,0,16.78-9.16l6.67,5a10.025,10.025,0,1,0,1.2-1.6l-6.86-5.15a19.8,19.8,0,0,0,0-18.18l6.86-5.15a10.051,10.051,0,1,0-1.2-1.6l-6.67,5A19.99,19.99,0,1,0,21,52Zm32-7a8,8,0,1,1-8,8A8.011,8.011,0,0,1,53,45ZM53,3a8,8,0,1,1-8,8A8.011,8.011,0,0,1,53,3ZM21,14A18,18,0,1,1,3,32,18.021,18.021,0,0,1,21,14Z" fill="#435283"/>
    <path id="Trazado_1248131" data-name="Trazado 1248131" d="M17,39v3.5a4,4,0,0,0,8,0V39a8.5,8.5,0,1,0-7.99,0Zm4,5.5a2,2,0,0,1-1.72-1h3.44a2.013,2.013,0,0,1-1.72,1Zm2-3H19v-1h4ZM14.55,30.65a6.507,6.507,0,0,1,5.7-5.61A6.282,6.282,0,0,1,21,25a6.514,6.514,0,0,1,6.5,6.5,6.513,6.513,0,0,1-3.9,5.96,1.011,1.011,0,0,0-.6.92v.13H19v-.13a1.011,1.011,0,0,0-.6-.92,6.488,6.488,0,0,1-3.85-6.8Z" fill="#435283"/>
  </g>
</svg>
