<svg id="Grupo_1204504" data-name="Grupo 1204504" xmlns="http://www.w3.org/2000/svg" xmlns:xlink="http://www.w3.org/1999/xlink" width="202.3" height="235.916" viewBox="0 0 202.3 235.916">
  <defs>
    <clipPath id="clip-path">
      <rect id="Rectángulo_426401" data-name="Rectángulo 426401" width="202.3" height="235.916" fill="none"/>
    </clipPath>
    <clipPath id="clip-path-3">
      <rect id="Rectángulo_426375" data-name="Rectángulo 426375" width="108.8" height="40.562" transform="translate(44.504 139.698)" fill="none"/>
    </clipPath>
    <clipPath id="clip-path-4">
      <rect id="Rectángulo_426376" data-name="Rectángulo 426376" width="27.633" height="31.443" transform="translate(132.234 41.415)" fill="none"/>
    </clipPath>
    <clipPath id="clip-path-5">
      <rect id="Rectángulo_426377" data-name="Rectángulo 426377" width="25.285" height="71.031" transform="translate(130.891 63.163)" fill="none"/>
    </clipPath>
    <clipPath id="clip-path-6">
      <rect id="Rectángulo_426378" data-name="Rectángulo 426378" width="38.903" height="24.42" transform="translate(124.038 28.791)" fill="none"/>
    </clipPath>
    <clipPath id="clip-path-7">
      <rect id="Rectángulo_426379" data-name="Rectángulo 426379" width="5.337" height="5.256" transform="translate(147.719 26.583)" fill="none"/>
    </clipPath>
    <clipPath id="clip-path-8">
      <rect id="Rectángulo_426380" data-name="Rectángulo 426380" width="3.228" height="8.373" transform="translate(152.793 31.956)" fill="none"/>
    </clipPath>
    <clipPath id="clip-path-9">
      <rect id="Rectángulo_426381" data-name="Rectángulo 426381" width="8.752" height="36.494" transform="translate(129.891 48.891)" fill="none"/>
    </clipPath>
    <clipPath id="clip-path-10">
      <rect id="Rectángulo_426383" data-name="Rectángulo 426383" width="34.565" height="19.961" transform="translate(65.504 188.939)" fill="none"/>
    </clipPath>
    <clipPath id="clip-path-11">
      <rect id="Rectángulo_426384" data-name="Rectángulo 426384" width="3.407" height="43.423" transform="translate(81.083 147.16)" fill="none"/>
    </clipPath>
    <clipPath id="clip-path-12">
      <rect id="Rectángulo_426385" data-name="Rectángulo 426385" width="3.537" height="57.605" transform="translate(70.659 136.308)" fill="none"/>
    </clipPath>
    <clipPath id="clip-path-13">
      <path id="Trazado_1246474" data-name="Trazado 1246474" d="M95.12,136.863c.2.95.9,3.21.9,3.21s.19,1.72.21,2.46a10.7,10.7,0,0,0,.5,2.7,5.031,5.031,0,0,1,.231,1.51,1.31,1.31,0,0,0-.951-.41.53.53,0,0,0-.479.53.889.889,0,0,0,.139.93c-.11.21.05.59.05.59l.46.211.591.269s-.481.46-.18.78a.32.32,0,0,0,.169.1,3.656,3.656,0,0,0,1.47-.09,5.768,5.768,0,0,0,1.74-.87,11.25,11.25,0,0,0,1.07-3.159,20.539,20.539,0,0,0-1.42-3.591c-.35-.61-.89-3.99-1.31-5.74l-2.4-1.42s-.98,1.05-.79,1.99" fill="none"/>
    </clipPath>
    <linearGradient id="linear-gradient" x1="-15.486" y1="6.727" x2="-15.323" y2="6.727" gradientUnits="objectBoundingBox">
      <stop offset="0" stop-color="#feb9b8"/>
      <stop offset="0.049" stop-color="#feb9b8"/>
      <stop offset="0.992" stop-color="#fea5a4"/>
      <stop offset="1" stop-color="#fea5a4"/>
    </linearGradient>
    <clipPath id="clip-path-15">
      <rect id="Rectángulo_426388" data-name="Rectángulo 426388" width="4.044" height="4.75" transform="translate(95.617 144.993)" fill="none"/>
    </clipPath>
    <clipPath id="clip-path-16">
      <path id="Trazado_1246476" data-name="Trazado 1246476" d="M97.149,142.251c-.879.369-.832,1.187-.628,2.253a12.654,12.654,0,0,1,.158,3.255c-.071,1.193.379,1.526,1.065,1.393s.595-1.684.595-1.684.337-1.784.381-2.7c.041-.836-.488-2.568-1.315-2.568a.654.654,0,0,0-.256.054" fill="none"/>
    </clipPath>
    <linearGradient id="linear-gradient-2" x1="-31.994" y1="12.933" x2="-31.661" y2="12.933" xlink:href="#linear-gradient"/>
    <clipPath id="clip-path-18">
      <rect id="Rectángulo_426391" data-name="Rectángulo 426391" width="21.489" height="20.528" transform="translate(68.121 118.136)" fill="none"/>
    </clipPath>
    <clipPath id="clip-path-19">
      <rect id="Rectángulo_426392" data-name="Rectángulo 426392" width="3.107" height="2.93" transform="translate(84.033 129.112)" fill="none"/>
    </clipPath>
    <clipPath id="clip-path-20">
      <rect id="Rectángulo_426393" data-name="Rectángulo 426393" width="4.345" height="3.383" transform="translate(83.825 127.685)" fill="none"/>
    </clipPath>
    <clipPath id="clip-path-21">
      <rect id="Rectángulo_426394" data-name="Rectángulo 426394" width="21.057" height="3.366" transform="translate(60.901 130.778)" fill="none"/>
    </clipPath>
    <clipPath id="clip-path-22">
      <rect id="Rectángulo_426395" data-name="Rectángulo 426395" width="9.561" height="2.608" transform="translate(66.458 127.648)" fill="none"/>
    </clipPath>
    <clipPath id="clip-path-23">
      <rect id="Rectángulo_426396" data-name="Rectángulo 426396" width="6.559" height="3.759" transform="translate(79.105 99.56)" fill="none"/>
    </clipPath>
    <clipPath id="clip-path-24">
      <rect id="Rectángulo_426397" data-name="Rectángulo 426397" width="5.832" height="3.652" transform="translate(63.432 124.089)" fill="none"/>
    </clipPath>
  </defs>
  <g id="Grupo_1204503" data-name="Grupo 1204503" clip-path="url(#clip-path)">
    <g id="Grupo_1204470" data-name="Grupo 1204470">
      <g id="Grupo_1204469" data-name="Grupo 1204469" clip-path="url(#clip-path)">
        <path id="Trazado_1246422" data-name="Trazado 1246422" d="M172.449,136.352C132.824,113.474,68.78,113.359,29.4,136.093s-39.177,59.711.448,82.589,103.669,22.993,143.047.258,39.177-59.711-.448-82.588" fill="#edf4fc"/>
        <path id="Trazado_1246423" data-name="Trazado 1246423" d="M172.449,132.57C132.824,109.692,68.78,109.577,29.4,132.311s-39.177,59.711.448,82.589,103.669,22.993,143.047.258,39.177-59.711-.448-82.588" fill="#bcd6f4"/>
        <path id="Trazado_1246424" data-name="Trazado 1246424" d="M172.449,127.247C132.824,104.37,68.78,104.254,29.4,126.988s-39.177,59.711.448,82.589,103.669,22.993,143.047.258,39.177-59.711-.448-82.588" fill="#edf4fc"/>
        <g id="Grupo_1204441" data-name="Grupo 1204441" style="mix-blend-mode: multiply;isolation: isolate">
          <g id="Grupo_1204440" data-name="Grupo 1204440">
            <g id="Grupo_1204439" data-name="Grupo 1204439" clip-path="url(#clip-path-3)">
              <path id="Trazado_1246425" data-name="Trazado 1246425" d="M151.871,139.7l-17.538.034c-.07-.012-.135-.026-.212-.034l-17.989.035c-2.344-.261-6.74.969-9.817,2.746l-59.05,34.092c-3.078,1.777-3.673,3.429-1.329,3.689l17.539-.034c.07.012.135.026.211.034l17.99-.035c2.344.261,6.739-.969,9.817-2.746l59.049-34.092c3.078-1.777,3.673-3.429,1.329-3.689" fill="#e7e7e7"/>
            </g>
          </g>
        </g>
        <path id="Trazado_1246426" data-name="Trazado 1246426" d="M145.05,2.413,85.743,36.654c-.151.088-.347.216-.495.31l-.414.3c-.138.106-.315.256-.45.366l-.4.364c-.125.12-.285.288-.406.412l-.375.419c-.112.132-.255.315-.365.45l-.341.463c-.1.143-.227.339-.324.483l-.3.5c-.087.151-.2.358-.28.511l-.256.521c-.073.158-.163.373-.233.534l-.2.533c-.059.165-.128.388-.182.555l-.146.535c-.042.17-.087.4-.124.573L80.366,45c-.022.176-.04.413-.056.59,0,.15-.01.349-.015.5l.354,124.8h0a4.346,4.346,0,0,0,1.368,3.523c-.753-.662,5.31-3.174,5.306-4.674L148.063,4.714c1.142-.66-.519-3.162.369-3a4.911,4.911,0,0,0-3.382.7M85.854,36.62c.005,0,.01,0,.015,0l-.015,0M145.219,2.389a.32.32,0,0,0-.043-.007.32.32,0,0,1,.043.007" fill="#716e99"/>
        <path id="Trazado_1246427" data-name="Trazado 1246427" d="M149.324,2.038a3.706,3.706,0,0,0-3.512.139c-.155.075-.313.159-.472.251L86.033,36.669a9.121,9.121,0,0,0-1.664,1.25,13.006,13.006,0,0,0-3.8,6.988,8.457,8.457,0,0,0-.121,1.429l.354,124.8a6.458,6.458,0,0,0,.088,1.074,3.433,3.433,0,0,0,1.545,2.517l3.161,1.837a3.435,3.435,0,0,1-1.545-2.517,6.464,6.464,0,0,1-.089-1.074l-.353-124.8a8.458,8.458,0,0,1,.121-1.429,13,13,0,0,1,3.8-6.988,9.139,9.139,0,0,1,1.664-1.251L148.5,4.265q.238-.138.472-.251a3.7,3.7,0,0,1,3.512-.139Z" fill="#54557a"/>
        <path id="Trazado_1246428" data-name="Trazado 1246428" d="M89.287,169.61c-1.052.608-1.909.12-1.912-1.09L87.028,46.36a4.192,4.192,0,0,1,1.9-3.292L149.885,7.875c1.052-.607,1.909-.119,1.912,1.09l.347,122.161a4.192,4.192,0,0,1-1.9,3.291ZM149.048,4.587,89.74,38.829a12.293,12.293,0,0,0-5.578,9.661l.354,124.8c.01,3.551,2.524,4.24,5.614,2.457L149.438,141.5c3.094-1.786,4.974-5.758,4.964-9.308L154.048,7.4c0-2.15-1.906-4.595-5-2.809" fill="#393842"/>
        <path id="Trazado_1246429" data-name="Trazado 1246429" d="M149.884,7.876,88.928,43.069a4.187,4.187,0,0,0-1.9,3.291l.346,122.161c0,1.209.86,1.7,1.912,1.09l60.957-35.193a4.192,4.192,0,0,0,1.9-3.291L151.8,8.966c0-1.21-.861-1.7-1.913-1.09" fill="#8e8bf2"/>
        <path id="Trazado_1246430" data-name="Trazado 1246430" d="M154.5,132.8a.476.476,0,0,0,.126-.292l-.177-62.4-.035-12.48-.036-12.48-.035-12.479-.071-24.96c-.023-2.684-1.353-3.55-1.79-3.834a3.947,3.947,0,0,0-3.984.39.764.764,0,0,1,.228.229.764.764,0,0,0-.228-.229L89.194,38.506a12.3,12.3,0,0,0-5.581,9.667l.353,124.8a3.919,3.919,0,0,0,1.634,3.591,4.358,4.358,0,0,0,4.274-.375l5.931-3.424,5.93-3.424,5.931-3.424,5.931-3.424,5.93-3.424,5.931-3.424,5.931-3.424,5.93-3.425,5.931-3.424,5.931-3.424a11.96,11.96,0,0,0,5.448-9.439.476.476,0,0,1-.126.292M89.616,39.14c0-.016-.009-.034-.015-.05.007.017.016.028.022.045l-.007.005M148.908,4.849a1.715,1.715,0,0,0-.118-.243,1.715,1.715,0,0,1,.118.243m-59.425,34c-.021-.037-.039-.079-.061-.112.023.033.04.075.061.112m-5.04,9.368c-.026.006-.048,0-.074.008l.075-.018v.01m.065-.025h0c-.022.006-.042.02-.064.025h0c.022-.005.043-.019.065-.025m-.562.066c.04,0,.085,0,.128,0-.044,0-.087.005-.128,0m65.49,92.979L90.129,175.476c-2.6,1.5-4.724.294-4.732-2.7l-.354-124.8a10.368,10.368,0,0,1,4.7-8.143L149.052,5.6c2.6-1.5,4.724-.3,4.732,2.7l.354,124.8a10.367,10.367,0,0,1-4.7,8.144M89.979,176.089a.837.837,0,0,0,.133-.362.837.837,0,0,1-.133.362m59-171.006c.01.041.023.079.031.121-.008-.042-.021-.08-.031-.121" fill="#716e99"/>
        <path id="Trazado_1246431" data-name="Trazado 1246431" d="M164.892,40.428a6.584,6.584,0,0,1-1.458,1.554l-.172.144c-.086.076-.173.154-.259.221a.241.241,0,0,0-.058.048c-.977.8-1.946,1.475-1.946,1.475l-.431,1.1-2.062,5.283s-.038.766-.3,3.068-1.918,8.448-1.918,8.448-.01.392-.067,1.073c-.01.067-.019.116-.029.173s-.009.1-.019.144a33.21,33.21,0,0,1-1.419,6.53c-1.448,4.449-5.082,14.153-5.676,15.62s-3.817,6.942-4.986,7.345-2.436,9.78-4.737,19.31c-.106.442-.221.9-.355,1.39-1.131,4.344-3.059,10.461-5.034,16.08a42.38,42.38,0,0,1-3.078,4.756,34.369,34.369,0,0,1-10.077,9.3c-10.059,5.81-18.218,1.16-18.218-10.394a32.286,32.286,0,0,1,2.042-10.787c.384-.969.815-2.033,1.266-3.126,1.486-3.605,3.173-7.546,3.94-9.751,1.468-4.248,7.393-23.472,7.911-25.218s-.738-9.474-1.16-14.018c-.441-4.555-1.438-15.333-1.477-18.266-.038-2.953-.134-6.961,1.477-9.77s12.052-15.649,13.213-16.349a58.685,58.685,0,0,1,11.237-3.806c2.167.612,5.121,1.006,7,1.8s2.378,3.289,2.378,3.289a26.593,26.593,0,0,1,3.807.633,6.666,6.666,0,0,1,3.193,2.963,16.31,16.31,0,0,1,1.38,4.16l1.554-.517a14.607,14.607,0,0,1,3.039,1.668c.537.6,2.023,3.366,1.5,4.42" fill="#ffd5bf"/>
        <path id="Trazado_1246432" data-name="Trazado 1246432" d="M140.727,90.891a7.794,7.794,0,0,1-1.374-.083c-1.239-.181-3.7-1.016-4.411-2.118,2.494-1.044,4.991-2.762,5.683-5.376a10.892,10.892,0,0,0,.236-2.881,43.742,43.742,0,0,0-.472-7.416c-.166-.925-.7-2.466-.175-3.37.529-.919,2.137-.989,3.03-1.35,2.225-.9,4.087-2.451,6.17-3.608,1.566-.869,4.5-2.161,4.739.81a4.114,4.114,0,0,1-.315,1.644c-1.138,3.32-1.7,6.619-3.045,9.893-.376.917-.43,1.89-.882,2.806-.389.787-.867,1.525-1.21,2.335-.367.869-.806,1.719-1.2,2.58a13.464,13.464,0,0,1-3.1,4.72,5.674,5.674,0,0,1-3.682,1.414" fill="#ffdcc9"/>
        <path id="Trazado_1246433" data-name="Trazado 1246433" d="M157.44,37.819c-.008.034-1.436-.137-1.564-.159a1.239,1.239,0,0,0,.326-1.123,5.836,5.836,0,0,0-.18-.675,7.826,7.826,0,0,1-.183-.949,5.5,5.5,0,0,0-.215-1.284c-.135-.312-.507-.522-.542-.884a9.53,9.53,0,0,1,1.671.939,3.144,3.144,0,0,1,.7,1.564,5.6,5.6,0,0,1-.014,2.571" fill="#ffe5e0"/>
        <path id="Trazado_1246434" data-name="Trazado 1246434" d="M153.784,33.118c.266-.346-1.312-1.79-1.473-1.892a2.658,2.658,0,0,0-2.085-.352c-.171.059-.41.124-.384.348a.619.619,0,0,0,.111.26,1.12,1.12,0,0,0,.326.361,2.077,2.077,0,0,0,.3.137c.271.117.507.4.778.466.3.07.658-.008.976.065.241.056,1.234.7,1.355.665a.171.171,0,0,0,.092-.058" fill="#ffdcc9"/>
        <path id="Trazado_1246435" data-name="Trazado 1246435" d="M151.74,33.274c.3.039.6.077.9.117a1.261,1.261,0,0,1,.459.119,1.286,1.286,0,0,1,.394.4,6.353,6.353,0,0,1,.981,1.98,1.871,1.871,0,0,1-1.719,1.848,3.048,3.048,0,0,1-2.46-1.1,9,9,0,0,1-1.4-2.405l-.246-.544c-.317-.7.126-1.331.886-1.019a5.437,5.437,0,0,0,1.335.488q.435.063.871.118" fill="#ffe5e0"/>
        <path id="Trazado_1246436" data-name="Trazado 1246436" d="M137.149,24.155a.96.96,0,0,1,.91.531,1.411,1.411,0,0,1-.005.786q-.252,1.269-.5,2.538a5.345,5.345,0,0,1-.872,2.36,5.4,5.4,0,0,1-3.5,1.515,2.918,2.918,0,0,1-2.208-.309c-1.117-.5-2.472-.973-2.519-2.449a2.437,2.437,0,0,1,1.012-1.8,9.413,9.413,0,0,1,5.4-2.594,2.808,2.808,0,0,0,.974-.082c.467-.166.779-.5,1.313-.5" fill="#ffdcc9"/>
        <g id="Grupo_1204444" data-name="Grupo 1204444" style="mix-blend-mode: multiply;isolation: isolate">
          <g id="Grupo_1204443" data-name="Grupo 1204443">
            <g id="Grupo_1204442" data-name="Grupo 1204442" clip-path="url(#clip-path-4)">
              <path id="Trazado_1246437" data-name="Trazado 1246437" d="M159.866,43.181a11.282,11.282,0,0,1-.941,2.059l-1.4,2.971-.9,1.9a26.851,26.851,0,0,1-2.971,3.746c-.7.433-2.019,6.751-1.8,7.2s2.722,1.3,2.722,1.3l-3.031-.474s-4.557,3.109-4.811,3.13-8.252,2.6-8.486,2.876a39.613,39.613,0,0,0-.437,4.969l-5.577-13.936a2.31,2.31,0,0,0,2.664,1.032,31.993,31.993,0,0,0,3.424-.9,10.347,10.347,0,0,0,4.783-2.86,10.845,10.845,0,0,0,2.781-4.856l-2.8-5.38L147,43.1l1.982-1.448a1.244,1.244,0,0,1,.317-.224c.284-.068.443.3.6.494a3.924,3.924,0,0,0,1.691,1.349,3.311,3.311,0,0,0,1.786.033,16.752,16.752,0,0,0,1.723-.552,16.761,16.761,0,0,0,2.009-.728c.355-.173.689-.384,1.036-.573a.226.226,0,0,1,.119-.038.213.213,0,0,1,.123.071,3.4,3.4,0,0,1,.516.836,1.248,1.248,0,0,0,.693.664.6.6,0,0,1,.252.094c.021.017.028.052.025.1" fill="#f2d5d5"/>
            </g>
          </g>
        </g>
        <path id="Trazado_1246438" data-name="Trazado 1246438" d="M143.054,28.768q1.353.024,2.7-.079a4.611,4.611,0,0,0,3.078-1.074,1.66,1.66,0,0,0,.229-2.17,2.256,2.256,0,0,0-.573-.416c-3.256-1.856-7.221-2.931-10.772-1.73a1.943,1.943,0,0,0-.7.362c-1.093.993.39,2.862,1.161,3.614,1.253,1.226,3.208,1.467,4.873,1.493" fill="#ffdcc9"/>
        <g id="Grupo_1204447" data-name="Grupo 1204447" style="mix-blend-mode: multiply;isolation: isolate">
          <g id="Grupo_1204446" data-name="Grupo 1204446">
            <g id="Grupo_1204445" data-name="Grupo 1204445" clip-path="url(#clip-path-5)">
              <path id="Trazado_1246439" data-name="Trazado 1246439" d="M156.176,63.163a33.21,33.21,0,0,1-1.419,6.53c-1.448,4.449-5.082,14.152-5.676,15.619s-3.817,6.943-4.986,7.345-2.436,9.781-4.737,19.311c-.106.442-.221.9-.355,1.391-1.131,4.343-3.059,10.461-5.034,16.08a42.472,42.472,0,0,1-3.078,4.756c1.793-4.344,3.8-9.608,5.37-14.863,1.016-3.413,1.889-6.846,2.608-10.039,1.956-8.62,2.838-15.476,2.838-15.476l-3.893-1.208,1.16-.441a8.312,8.312,0,0,0,4.747-.633c2.387-1.112,4.813-6.386,4.813-6.386l3.471-8.025s3.845-12.072,4.171-13.961" fill="#f2d5d5"/>
            </g>
          </g>
        </g>
        <g id="Grupo_1204450" data-name="Grupo 1204450" style="mix-blend-mode: multiply;isolation: isolate">
          <g id="Grupo_1204449" data-name="Grupo 1204449">
            <g id="Grupo_1204448" data-name="Grupo 1204448" clip-path="url(#clip-path-6)">
              <path id="Trazado_1246440" data-name="Trazado 1246440" d="M129.009,42.989l.142,6.32.794-5.358s1.826-2.315,2.349-3.082,11.4-5.622,11.4-5.622l4.646,10.822a24.339,24.339,0,0,0,3.068,4.833,5.409,5.409,0,0,0,4.173,2.307s1.339-.609,1.049-1.466,1.876-6.017,1.876-6.017l1.9-.7s.056-.019.16-.049L161,43.87s.96-.68,1.938-1.476c-1.309.944-3.316,1.013-3.691.5a6.343,6.343,0,0,1-.648-1.91,6.189,6.189,0,0,0,.562-2.456c-.146-.817-.361-3.672-.361-3.672l-.359-1.491a25.489,25.489,0,0,1,.319,4.934,6.658,6.658,0,0,1-1.258,3.035s-3.35,1.85-4.486,1.781c-1.1-.072-3.455-1.68-3.6-1.782a17.613,17.613,0,0,0,2.531-.6c1.171-.4,3.527-2.3,3-2.123s-3.706,1.386-4.061,1.506-3.615-1.056-4.287-2.269-1.806-5.516-.705-5.242,3.344-2.176,3.344-2.176a14.758,14.758,0,0,1-2.461.64c-.583.005-3.045.055-3.279.135s-3.556.286-3.556.286l-2.413-2.7,1.129,3.334-2.2,1.4-4.4-.467,1.667.871.032,2.207-4.214,5.279s-.019.528-5.507,1.276c1.391.64,4.971.3,4.971.3" fill="#f2d5d5"/>
            </g>
          </g>
        </g>
        <g id="Grupo_1204453" data-name="Grupo 1204453" style="mix-blend-mode: multiply;isolation: isolate">
          <g id="Grupo_1204452" data-name="Grupo 1204452">
            <g id="Grupo_1204451" data-name="Grupo 1204451" clip-path="url(#clip-path-7)">
              <path id="Trazado_1246441" data-name="Trazado 1246441" d="M150.422,27.1a9.527,9.527,0,0,0,.27,2.344c.278.819,2.364,2.1,2.364,2.1s-2.073-1.372-2.711-1.2a17.906,17.906,0,0,0-2.625,1.5l1.525-1.406.809-.949.223-2.9Z" fill="#f2d5d5"/>
            </g>
          </g>
        </g>
        <g id="Grupo_1204456" data-name="Grupo 1204456" style="mix-blend-mode: multiply;isolation: isolate">
          <g id="Grupo_1204455" data-name="Grupo 1204455">
            <g id="Grupo_1204454" data-name="Grupo 1204454" clip-path="url(#clip-path-8)">
              <path id="Trazado_1246442" data-name="Trazado 1246442" d="M154.974,33.385a13.986,13.986,0,0,1,1.046,4.245c.046,1.387-3.227,2.7-3.227,2.7a6.124,6.124,0,0,0,2.157-1.717c.747-1.068.464-3.06.1-4.143a10.609,10.609,0,0,0-1.537-2.513Z" fill="#f2d5d5"/>
            </g>
          </g>
        </g>
        <path id="Trazado_1246443" data-name="Trazado 1246443" d="M96.089,163.3c-8.435,0-15.94-6.76-22.34-20.134l2.6-1.242C82.719,155.248,90,161.423,98,160.285c19.154-2.733,39.091-46.958,41.4-61.029a72.873,72.873,0,0,0-.042-26.679c-.374-2.341-.727-4.554-.921-6.943-.726-8.927-1.227-16.573-1.232-16.649l2.87-.188c0,.076.5,7.7,1.229,16.6.186,2.277.53,4.436.895,6.722a75.391,75.391,0,0,1,.04,27.6c-2.319,14.11-22.13,60.313-43.836,63.41a16.415,16.415,0,0,1-2.317.167" fill="#302cc0"/>
        <path id="Trazado_1246444" data-name="Trazado 1246444" d="M139.59,100.327a88.7,88.7,0,0,1-4.058,12.819q-2.427,6.277-5.358,12.346a119.385,119.385,0,0,1-14.035,22.944,45.729,45.729,0,0,1-9.771,9.294,22.267,22.267,0,0,1-6.135,2.926,14.857,14.857,0,0,1-6.816.3,16.62,16.62,0,0,1-6.224-2.809,27.042,27.042,0,0,1-4.942-4.68,42.919,42.919,0,0,1-3.926-5.532c-1.2-1.918-2.228-3.928-3.241-5.942l.841-.4c.984,2,1.985,4,3.148,5.894a42,42,0,0,0,3.805,5.462,26.213,26.213,0,0,0,4.758,4.587,15.868,15.868,0,0,0,5.922,2.739,14.172,14.172,0,0,0,6.505-.23,21.668,21.668,0,0,0,5.984-2.793,45.228,45.228,0,0,0,9.731-9.1,118.937,118.937,0,0,0,14.186-22.75q2.968-6.031,5.459-12.287a88.5,88.5,0,0,0,4.167-12.776" fill="#9a8890"/>
        <path id="Trazado_1246445" data-name="Trazado 1246445" d="M139.975,48.881c.153,5.668.447,11.355.93,17,.292,2.791.842,5.591,1.25,8.414a80.823,80.823,0,0,1,.882,8.533,68.226,68.226,0,0,1-.1,8.591,72.506,72.506,0,0,1-1.226,8.5,76.084,76.084,0,0,1-5.382,16.224,119.046,119.046,0,0,0,4.411-16.413,72.614,72.614,0,0,0,1.227-16.851,80.366,80.366,0,0,0-.8-8.439c-.382-2.809-.909-5.6-1.187-8.472-.479-5.687-.777-11.367-.93-17.069Z" fill="#8e8bf2"/>
        <path id="Trazado_1246446" data-name="Trazado 1246446" d="M137.042,50.663s.177,5.89.333,6.473,3.088,1.321,3.838,0c-.223-3.926-.213-7.091-.213-7.091Z" fill="#ccc"/>
        <path id="Trazado_1246447" data-name="Trazado 1246447" d="M133.439,46.837c1.9,5.616,6.635,6.534,10.572,2.051S149.6,36.218,147.7,30.6s-6.636-6.534-10.573-2.051-5.586,12.669-3.684,18.285" fill="#737373"/>
        <path id="Trazado_1246448" data-name="Trazado 1246448" d="M137.555,49.669c2.405,7.1,8.391,8.263,13.37,2.594s7.064-16.022,4.659-23.124-8.391-8.263-13.37-2.594-7.064,16.022-4.659,23.124" fill="#a9a9a9"/>
        <path id="Trazado_1246449" data-name="Trazado 1246449" d="M140.116,50.148c2.4,7.1,8.391,8.263,13.37,2.593s7.064-16.022,4.659-23.123-8.391-8.263-13.37-2.594-7.064,16.022-4.659,23.124" fill="#919191"/>
        <path id="Trazado_1246450" data-name="Trazado 1246450" d="M142,48c1.9,5.616,6.634,6.534,10.571,2.051s5.587-12.67,3.685-18.285-6.636-6.534-10.573-2.051S140.1,42.384,142,48" fill="#b1b1b1"/>
        <path id="Trazado_1246451" data-name="Trazado 1246451" d="M144.056,41.675c.532,1.571,1.856,1.828,2.958.574a5.766,5.766,0,0,0,1.03-5.116c-.532-1.571-1.856-1.828-2.957-.574a5.767,5.767,0,0,0-1.031,5.116" fill="#737373"/>
        <path id="Trazado_1246452" data-name="Trazado 1246452" d="M139.925,41.489a9.085,9.085,0,0,1-.052,5.164,5.092,5.092,0,0,0,.478-1.41,9.328,9.328,0,0,0-.426-3.754" fill="#ffd5bf"/>
        <path id="Trazado_1246453" data-name="Trazado 1246453" d="M110.056,112.249a95.22,95.22,0,0,0,3.658-9.913c.752-2.3,1.375-4.633,2-6.972.482-1.8,1.9-3.635,2.943-5.172a5.078,5.078,0,0,1,1.619-1.69c1.489-.825,3.371-.107,4.744.9,6.81,4.99,5.734,14.144,4.112,21.305-.889,3.925-1.779,7.856-2.984,11.7a141.1,141.1,0,0,1-7.818,18.628c-.63,1.312-1.017,3.409-2.847,3.082a5.246,5.246,0,0,1-1.652-.7,41.744,41.744,0,0,1-7.171-4.713,16.193,16.193,0,0,1-3.328-4.307c-1.025-1.641.476-2.9,1.491-5.553.826-2.158,4.545-15.086,5.231-16.587" fill="#ffdcc9"/>
        <path id="Trazado_1246454" data-name="Trazado 1246454" d="M119.769,38.859a8.177,8.177,0,0,0,1.138-1.5,12.942,12.942,0,0,1,2.829-3.2c.84-.73,1.62-1.524,2.387-2.329.725-.762,1.579-2.107,2.532-2.566,2.023-.975,2.364,3.027,2.3,4.135a10.476,10.476,0,0,1-.283,2.051,6.3,6.3,0,0,1-2.166,3.305,12.507,12.507,0,0,1-1.754,1.1L121.5,42.743a4.911,4.911,0,0,1-1.454.607,1.754,1.754,0,0,1-2.057-1.559,3.828,3.828,0,0,1,1.323-2.431c.16-.178.311-.342.455-.5" fill="#ffdcc9"/>
        <path id="Trazado_1246455" data-name="Trazado 1246455" d="M116.487,48.852c0-.048.008-.1.014-.146.154-1.485.345-2.967.538-4.447a2.538,2.538,0,0,1,.259-.963,1.823,1.823,0,0,1,.909-.726,4.027,4.027,0,0,1,4.175,1.017,8.266,8.266,0,0,1,2.059,3.987,18.108,18.108,0,0,1,.145,8.324c-.6,2.735-2.007,5.493-4.5,6.763a.977.977,0,0,1-.494.142.93.93,0,0,1-.515-.259c-1.538-1.305-1.751-3.544-2.069-5.536-.156-.979-.6-1.994-.681-2.961-.055-.614.121-1.172.121-1.776,0-1.177-.066-2.258.04-3.419" fill="#ffdcc9"/>
        <path id="Trazado_1246456" data-name="Trazado 1246456" d="M162.851,37.5a1.821,1.821,0,0,1,.845,1.1,2.5,2.5,0,0,1-.242,1.436,3.434,3.434,0,0,1-.957,1.475,3.9,3.9,0,0,1-2.08.615.737.737,0,0,1-.951-.889q-.054-1.1-.11-2.2a3.088,3.088,0,0,1,.2-1.977c.651-.9,2.563-.018,3.295.445" fill="#ffdcc9"/>
        <path id="Trazado_1246457" data-name="Trazado 1246457" d="M116.75,76.645c1.263,2.834,5.169,10.514,7.046,10.14s6.781-.643,10.4-4.478c2.47-2.616,3.176-4.86,2.984-7.754a29.691,29.691,0,0,0-.76-4.57,34.89,34.89,0,0,0-1.659-5.315c-.122-.3-.206-.5-.229-.569l-.01-.029c-.923-2.2-1.829-3.858-2.287-5.149-.809-2.252,2.193-4.312,3.37-5.708a42.246,42.246,0,0,0,3.04-4.323.036.036,0,0,0,.015-.015,22.051,22.051,0,0,0,1.2-2.187.116.116,0,0,0,.014-.036,5.131,5.131,0,0,0,.478-1.409,9.351,9.351,0,0,0-.426-3.755c-.024-.085-.037-.123-.037-.123-.6-1.781-1.764-3.405-3.721-3.7-3.479-.518-6,4.511-6.491,4.72s-3.6,3.877-6.358,7.811c0,0-3.593,5.956-4.1,7.04s-1.7,5.884-2.768,9.027a15.8,15.8,0,0,0,.3,10.38" fill="#ffd5bf"/>
        <g id="Grupo_1204459" data-name="Grupo 1204459" style="mix-blend-mode: multiply;isolation: isolate">
          <g id="Grupo_1204458" data-name="Grupo 1204458">
            <g id="Grupo_1204457" data-name="Grupo 1204457" clip-path="url(#clip-path-9)">
              <path id="Trazado_1246458" data-name="Trazado 1246458" d="M136.02,85.385a12.9,12.9,0,0,0,2.319-10.613,87.157,87.157,0,0,0-3.579-10.1c-.122-.3-.205-.5-.229-.57a.133.133,0,0,1-.014-.026l0,0c-.923-2.2-1.829-3.858-2.287-5.149-.809-2.252,2.193-4.313,3.37-5.708a42.246,42.246,0,0,0,3.04-4.323c-2.67,3.29-7.457,6.816-8.053,7.628a7.02,7.02,0,0,0-.7,2.805s1.336,4.329,1.493,4.406a3.734,3.734,0,0,1,2.851,2.516c.575,1.6,2.025,5.269,2.944,8.308a22.014,22.014,0,0,1,.774,3.177,11.4,11.4,0,0,1-1.933,7.654" fill="#f2d5d5"/>
            </g>
          </g>
        </g>
        <path id="Trazado_1246459" data-name="Trazado 1246459" d="M122.422,53.3c.374-.535.769-1.056,1.14-1.591a17.594,17.594,0,0,0,1.092-1.842,8.171,8.171,0,0,1,.692-1.494,3.275,3.275,0,0,0,.543-1.423c.455-1.944,2.647-2.406,4.248-3.219a1.188,1.188,0,0,1,1.843.51,6.271,6.271,0,0,1,1.619,3.707,6.373,6.373,0,0,1-.3,1.541,12.143,12.143,0,0,1-2.345,5.087c-.69.748-1.557,1.31-2.293,2.013a3.758,3.758,0,0,0-1.344,2.645c.006.362.094.719.1,1.081a6.229,6.229,0,0,1-.243,1.509,8.436,8.436,0,0,0-.1,3.608,18.219,18.219,0,0,1,.417,1.8,4.894,4.894,0,0,1-.7,2.916,3.105,3.105,0,0,1-1.855,1.617,2.5,2.5,0,0,1-1.249-.065,5.076,5.076,0,0,1-2.826-2.552c-.635-1.137-1.028-2.393-1.609-3.559a7.653,7.653,0,0,1-.714-1.649,4.848,4.848,0,0,1,.241-2.5,56.457,56.457,0,0,1,2.514-6.228,11.825,11.825,0,0,1,1.129-1.91" fill="#ffdcc9"/>
        <path id="Trazado_1246460" data-name="Trazado 1246460" d="M116.454,68.7a14.214,14.214,0,0,1,.486-2.228,5.033,5.033,0,0,1,1.184-2.439c1.109-1.034,2.847-.856,4.338-.575a7.041,7.041,0,0,1,2.792.965,6.182,6.182,0,0,1,1.438,1.551A21.963,21.963,0,0,1,130.325,81.1a6.226,6.226,0,0,1-1.122,3.272c-1.7,2.078-3.785.626-5.344-.641a24.319,24.319,0,0,1-2.917-2.6,21.939,21.939,0,0,1-2.828-4.786,15.157,15.157,0,0,1-1.131-3.159,12.869,12.869,0,0,1-.529-4.482" fill="#ffdcc9"/>
        <path id="Trazado_1246461" data-name="Trazado 1246461" d="M132.072,48.66a2.275,2.275,0,0,0,1.4.637,7.188,7.188,0,0,0,2.9-1.177,5.327,5.327,0,0,0,2.018-1.64,3.451,3.451,0,0,0,.825-2.715,8.454,8.454,0,0,0-1.7-3.606,6.6,6.6,0,0,0-1.114-1.243,2.233,2.233,0,0,0-1.542-.538,3.192,3.192,0,0,0-1.585.771,9.439,9.439,0,0,0-1.839,1.7,6.267,6.267,0,0,0-1.462,3.728,7.17,7.17,0,0,0,2.11,4.082" fill="#ffe5e0"/>
        <path id="Trazado_1246462" data-name="Trazado 1246462" d="M148.545,40.548a5.8,5.8,0,0,1-1.923,2.829c.338,3.563,2.755,8.717,2.755,8.717s4.565-2.227,6.473-9.05a51.316,51.316,0,0,1-7.305-2.5" fill="#ccc"/>
        <rect id="Rectángulo_426382" data-name="Rectángulo 426382" width="0.627" height="5.68" transform="translate(83.805 90.656) rotate(-76.023)" fill="#414c45"/>
        <g id="Grupo_1204462" data-name="Grupo 1204462" style="mix-blend-mode: multiply;isolation: isolate">
          <g id="Grupo_1204461" data-name="Grupo 1204461">
            <g id="Grupo_1204460" data-name="Grupo 1204460" clip-path="url(#clip-path-10)">
              <path id="Trazado_1246463" data-name="Trazado 1246463" d="M70.528,206c6.728,3.885,17.67,3.866,24.441-.044s6.8-10.229.076-14.115-17.67-3.865-24.441.044-6.8,10.23-.076,14.115" fill="#e7e7e7"/>
            </g>
          </g>
        </g>
        <path id="Trazado_1246464" data-name="Trazado 1246464" d="M73.3,195.313s-1.1.312-1.17.838a4.421,4.421,0,0,0,.151,1.955,16.12,16.12,0,0,0,1.918,1.688,3.563,3.563,0,0,0,.4.1s.786,2.6,2.243,3.58a8.819,8.819,0,0,0,4.633,1.69c1.946.158,3.425-.265,3.953-1.216s-1.713-3.02-2.343-3.183l-.63-.162Z" fill="#f5f5f5"/>
        <path id="Trazado_1246465" data-name="Trazado 1246465" d="M81.653,191.466s-1.112.752-1.193,1.6a4.9,4.9,0,0,0,.123,1.584,10.86,10.86,0,0,0,1.392.98c.284.092,1.922.892,1.97.888s.7-.363.7-.363l.917.514a9.893,9.893,0,0,0,1.636,2.246,7.883,7.883,0,0,0,3.933,2.1c2.026.347,3.711-.986,3.622-2.133a3.9,3.9,0,0,0-.99-2.089l-8.6-4.207Z" fill="#f5f5f5"/>
        <path id="Trazado_1246466" data-name="Trazado 1246466" d="M77.971,191.572l1.292,1.658s1.305,3.342,1.5,3.522,3.429,4.416,3.726,4.9a4.892,4.892,0,0,1,.385,1.611s-.182.6-1.289.994a6.065,6.065,0,0,1-4.309-.447,11.369,11.369,0,0,1-3.212-2.45c-.5-.611-1.208-2.165-1.364-2.3a29.443,29.443,0,0,1-2.257-2.491c-.244-.42.569-3.782.711-4.264s4.819-.73,4.819-.73" fill="#6b505c"/>
        <path id="Trazado_1246467" data-name="Trazado 1246467" d="M87.506,188.348a14.152,14.152,0,0,0,.731,3.145c.363.492,4.744,3.762,5.272,4.712A5.367,5.367,0,0,1,94,198.947c-.013.683-1.361,1.113-2.278,1.232s-3.917-1.891-4.356-2.312-2.248-2.654-2.513-2.8-3.39-1.25-3.614-2.045a14.338,14.338,0,0,1,.972-4.87c.232-.148,5.3.192,5.3.192" fill="#6b505c"/>
        <path id="Trazado_1246468" data-name="Trazado 1246468" d="M79.027,192.926s.376,1.184-.074,1.674a4.755,4.755,0,0,1-3.645.786c-.991-.427-2.248-1.479-2.245-1.923s.073-3.468.073-3.468Z" fill="#ffc2b3"/>
        <path id="Trazado_1246469" data-name="Trazado 1246469" d="M87.581,189.318a7.715,7.715,0,0,1,.15,1.939c-.137.335-1.719.685-3.416.378s-2.352-1.086-2.406-1.423a17.613,17.613,0,0,1,.844-3.007c.047-.02,4.828,2.113,4.828,2.113" fill="#ffc2b3"/>
        <path id="Trazado_1246470" data-name="Trazado 1246470" d="M81.757,189.491c.011.495.546.859,1.3,1.093,1.771.549,4.754.393,5.057-.43.429-1.172,1.787-17.855,2.1-20.056s3.231-17.089,3.51-21.853a79.019,79.019,0,0,0-.725-12.1l-9-1.839s-1.88,9.631-2.543,12.858l0,0c-.059.293-.107.531-.144.705-.453,2.114.035,15.6-.2,18.9s.6,21.064.633,22.719" fill="#9bbbe0"/>
        <g id="Grupo_1204465" data-name="Grupo 1204465" style="mix-blend-mode: multiply;isolation: isolate">
          <g id="Grupo_1204464" data-name="Grupo 1204464">
            <g id="Grupo_1204463" data-name="Grupo 1204463" clip-path="url(#clip-path-11)">
              <path id="Trazado_1246471" data-name="Trazado 1246471" d="M81.757,189.491c.011.495.546.859,1.3,1.093-.2-6.281-.649-18.338-.575-22.181.1-5.028,1.963-13.7,1.963-13.7l.04-6.295-3.021-1.244,0,0c-.059.293-.107.531-.144.705-.453,2.114.035,15.6-.2,18.9s.6,21.064.633,22.719" fill="#f2d5d5"/>
            </g>
          </g>
        </g>
        <path id="Trazado_1246472" data-name="Trazado 1246472" d="M72.845,192.536a2.337,2.337,0,0,0,1.351,1.378,3.163,3.163,0,0,0,1.22.342c1.01.051,3.962-.47,4.144-1.49s.215-16.953.965-20.717,3.544-19.094,3.544-19.094,3.678-.608,3.846-3.028-.038-9.323-.038-9.323L72.763,136.53l-.82-.222a44.409,44.409,0,0,0-1.283,10.307c.048,5.262,1.854,21.86,1.854,21.86s-.661,3.659-1.143,7.925,1.276,15.242,1.474,16.136" fill="#9bbbe0"/>
        <g id="Grupo_1204468" data-name="Grupo 1204468" style="mix-blend-mode: multiply;isolation: isolate">
          <g id="Grupo_1204467" data-name="Grupo 1204467">
            <g id="Grupo_1204466" data-name="Grupo 1204466" clip-path="url(#clip-path-12)">
              <path id="Trazado_1246473" data-name="Trazado 1246473" d="M72.845,192.536a2.337,2.337,0,0,0,1.351,1.378c-.856-5.524-2.205-13.486-2.255-14.945a57.891,57.891,0,0,1,.873-7.673l.471-2.081c.471-2.088-.4-6.455-1.479-15.343s.366-13.583.758-16.687c0,0,.082-.248.2-.655l-.82-.222a44.409,44.409,0,0,0-1.283,10.307c.048,5.262,1.854,21.86,1.854,21.86s-.661,3.659-1.143,7.925,1.276,15.242,1.474,16.136" fill="#f2d5d5"/>
            </g>
          </g>
        </g>
      </g>
    </g>
    <g id="Grupo_1204472" data-name="Grupo 1204472">
      <g id="Grupo_1204471" data-name="Grupo 1204471" clip-path="url(#clip-path-13)">
        <rect id="Rectángulo_426387" data-name="Rectángulo 426387" width="6.13" height="15.02" transform="translate(94.93 134.873)" fill="url(#linear-gradient)"/>
      </g>
    </g>
    <g id="Grupo_1204477" data-name="Grupo 1204477">
      <g id="Grupo_1204476" data-name="Grupo 1204476" clip-path="url(#clip-path)">
        <g id="Grupo_1204475" data-name="Grupo 1204475" style="mix-blend-mode: multiply;isolation: isolate">
          <g id="Grupo_1204474" data-name="Grupo 1204474">
            <g id="Grupo_1204473" data-name="Grupo 1204473" clip-path="url(#clip-path-15)">
              <path id="Trazado_1246475" data-name="Trazado 1246475" d="M99.66,146.563a3.746,3.746,0,0,1-.29.83,8.808,8.808,0,0,0-.53,1.26,3.179,3.179,0,0,0-2.08,1.09.323.323,0,0,1-.17-.1c-.3-.32.18-.78.18-.78l-.59-.27a.307.307,0,0,1,.1-.15.405.405,0,0,1,.21-.07c.32-.05.63-.09.95-.12a3.014,3.014,0,0,1-.67-.1c.08,0,.04-.16-.04-.22a2.54,2.54,0,0,0-1.09-.44c-.09-.12.1-.26.25-.27.33-.03.66.02.98-.02a.953.953,0,0,0,.79-.5,1.55,1.55,0,0,0,.04-.61c-.02-.66.17-.83.78-1.1a11.841,11.841,0,0,0,1.07,1.38.333.333,0,0,1,.11.19" fill="#f2cbbc"/>
            </g>
          </g>
        </g>
      </g>
    </g>
    <g id="Grupo_1204479" data-name="Grupo 1204479">
      <g id="Grupo_1204478" data-name="Grupo 1204478" clip-path="url(#clip-path-16)">
        <rect id="Rectángulo_426390" data-name="Rectángulo 426390" width="3.001" height="7.251" transform="translate(95.755 142.235) rotate(-4.18)" fill="url(#linear-gradient-2)"/>
      </g>
    </g>
    <g id="Grupo_1204502" data-name="Grupo 1204502">
      <g id="Grupo_1204501" data-name="Grupo 1204501" clip-path="url(#clip-path)">
        <path id="Trazado_1246477" data-name="Trazado 1246477" d="M99.829,141.184c.051.416-1,.654-1.791.857a6.631,6.631,0,0,1-2.589.318c-.248-.059-1.436-4.967-1.781-6.435-.263-1.076-.531-2.429-.8-3.885-.707-4-1.36-8.838-1.508-11.183-.283-4.358-1.484-14.877-1.484-14.877l-3.357-3.434c4.559-.394,7.537,3.736,8.413,7.452s.695,10.321.814,11.333c.065.55.97,4.887,1.8,8.9,0,.024.01.055.012.079.049.2.089.4.122.594.265,1.274.519,2.485.724,3.5.307,1.5,1.383,6.532,1.418,6.783" fill="#f5f5f5"/>
        <path id="Trazado_1246478" data-name="Trazado 1246478" d="M90.4,142.005c-2.195,1.348-9.318,2.849-14.722,1.386s2.362-3.157,2.362-3.157,7.316,2.417,12.36-1.39c.539.774,0,3.161,0,3.161" fill="#6b505c"/>
        <path id="Trazado_1246479" data-name="Trazado 1246479" d="M68.121,119.073c.209,1.146.382,1.984.456,2.218.3.986,2.156,8.181,2.168,8.28s.74,6.222.875,8a4.157,4.157,0,0,0,.8,2.1c2.193,1.836,8.63,2.692,13.165,1.718,5.532-1.17,7.257-2.927,7.418-4.208s-.228-5.6-.055-8.31-.055-9.451,1.059-15.008c.971-4.842-.467-7.136-1.391-7.974a9.425,9.425,0,0,0-3.808-1.694c-1.467-.4-2.243-.263-3.771-.78s-8.415-.814-11.619.6a26.393,26.393,0,0,1-2.637,1.54c-1.478.752-3.216,1.417-3.659,2.034-.678.924.345,7.824,1,11.483" fill="#699dff"/>
        <path id="Trazado_1246480" data-name="Trazado 1246480" d="M93.784,114.979s.29,12.762,0,21.318c-.1,3.1.209,8.321,1.2,19.826a4.761,4.761,0,0,1-3.664,1.94s-1.168-27.721-1.373-34.211-.667-15.243-.667-15.243Z" fill="#fafafa"/>
        <g id="Grupo_1204482" data-name="Grupo 1204482" style="mix-blend-mode: multiply;isolation: isolate">
          <g id="Grupo_1204481" data-name="Grupo 1204481">
            <g id="Grupo_1204480" data-name="Grupo 1204480" clip-path="url(#clip-path-18)">
              <path id="Trazado_1246481" data-name="Trazado 1246481" d="M68.121,119.073c.209,1.146.382,1.984.456,2.218.3.986,2.156,8.181,2.168,8.28s.74,6.222.875,8a1.842,1.842,0,0,0,.8,1.1c.074-1.786.222-3.672.222-3.672l3.043.567s7.566-.616,8.206-.628,5.718-2.723,5.718-2.723-12.31.727-12.507.677-4.509-2-4.793-2.23-.764-4.1-.924-5.323.382-7.195.382-7.195Z" fill="#f2d5d5"/>
            </g>
          </g>
        </g>
        <path id="Trazado_1246482" data-name="Trazado 1246482" d="M91.9,105.066c1.155.462,2.041,2.383,2.041,2.383a7.06,7.06,0,0,1,.885,2.257c0,.731-.7,6.377-.7,6.377L89.5,113.269s-.262-5.852-1.029-7.646-5.129-2.137-6.088-2.1c-.435.018-1.64-.087-2.967-.166,2.687.034,5.731.087,5.923.159.349.132,5.4,1.086,6.559,1.548" fill="#fafafa"/>
        <path id="Trazado_1246483" data-name="Trazado 1246483" d="M83.89,102.5a8.084,8.084,0,0,1,2.11.272,9.881,9.881,0,0,1,4.3,2.22c2,1.829,1.793,8.958,1.774,11.743s-1.168,31.385-1.168,31.385l-1.626-32.886s-.213-3.581-.539-6.135-1.181-5.442-5.083-5.57c-3.644-.12.231-1.029.231-1.029" fill="#e6e6e6"/>
        <path id="Trazado_1246484" data-name="Trazado 1246484" d="M79.417,103.359c-1.38-.017-2.649-.029-3.4-.035a25.65,25.65,0,0,1,3.4.035" fill="#fafafa"/>
        <path id="Trazado_1246485" data-name="Trazado 1246485" d="M67.932,119.466l-1.474-11.542s.129-.3,1.474-1.067,5.623-2.9,5.623-2.9l1.744-.64.713.006a4.309,4.309,0,0,0-.794.131c-.338.79.585,3.6.971,5.153a91.221,91.221,0,0,1,2,13.78s.477,10.309.674,14.585c.33,7.13.679,16.918-.443,23.384-7.224-.6-11.282-3.426-11.282-3.426.14-3.509,1.733-14.6,2.123-20.369a111.276,111.276,0,0,0,0-11.391Z" fill="#fafafa"/>
        <path id="Trazado_1246486" data-name="Trazado 1246486" d="M89.728,108.84a19.728,19.728,0,0,0-.416-2.3c-1.112-4.3-7.143-4.154-7.2-4.154l-.02-.615c.064.008,6.585-.165,7.821,4.615a19.877,19.877,0,0,1,.432,2.39Z" fill="#79817c"/>
        <path id="Trazado_1246487" data-name="Trazado 1246487" d="M90.735,119.575a.432.432,0,0,0-.534-.291c-.247.054-.457.268-.41.483a.487.487,0,0,0,.581.295.432.432,0,0,0,.363-.487" fill="#6b505c"/>
        <path id="Trazado_1246488" data-name="Trazado 1246488" d="M89.7,120.064a2.156,2.156,0,0,1-1.43-.68l-.07-.131c-1.3-5.088-.506-10.081,1.727-10.9l.091-.033.094.024c2.863.744,3.426,8.854,3.481,9.776a1.289,1.289,0,0,1-1.056,1.254l-.145-.6a.675.675,0,0,0,.586-.633c-.2-3.371-1.145-8.545-2.929-9.175-1.632.744-2.511,5.113-1.272,10.052a1.309,1.309,0,0,0,1.159.4l.167.593a1.487,1.487,0,0,1-.4.056" fill="#b8b8b8"/>
        <path id="Trazado_1246489" data-name="Trazado 1246489" d="M88.219,112.181l-.3-.084c.323-1.135,1.328-2.362,2.03-2.479s1.28.276,1.95,1.309l-.259.168c-.744-1.149-1.247-1.239-1.641-1.173a3.546,3.546,0,0,0-1.784,2.259" fill="#b8b8b8"/>
        <path id="Trazado_1246490" data-name="Trazado 1246490" d="M91.91,119.335a.432.432,0,0,0,.568.217c.238-.087.417-.327.342-.534a.488.488,0,0,0-.615-.215.431.431,0,0,0-.295.532" fill="#6b505c"/>
        <path id="Trazado_1246491" data-name="Trazado 1246491" d="M75.3,103.319a42.057,42.057,0,0,1,2.738,10.85c1.39,15.8,1.164,24.807,1.156,36.05-3.126-24.946-3.349-26.9-5.083-35.886-.289-1.5-.455-2.992-.661-4.008-.6-2.96-1.795-5-1.377-5.7a9.935,9.935,0,0,1,4.316-3.418,5.578,5.578,0,0,1-1.089,2.108" fill="#e6e6e6"/>
        <path id="Trazado_1246492" data-name="Trazado 1246492" d="M75.582,120.719l-.613-.061a15.578,15.578,0,0,0-.264-2.868,38.365,38.365,0,0,0-1.111-4.293,56.643,56.643,0,0,1-1.532-5.994c-.619-3.631,3.972-6.438,4.168-6.555l.317.527c-.044.027-4.425,2.709-3.877,5.925a55.914,55.914,0,0,0,1.516,5.924,38.66,38.66,0,0,1,1.128,4.377,15.113,15.113,0,0,1,.268,3.018" fill="#79817c"/>
        <path id="Trazado_1246493" data-name="Trazado 1246493" d="M85.85,100.274a9.831,9.831,0,0,0-.442,4.057c.3,1.927.473,3.279-2.747,3.576s-6.977-3.532-7.111-3.692a3.769,3.769,0,0,1-.331-.76l.93-1.578a17.452,17.452,0,0,0,.883-3.091,41.725,41.725,0,0,0-.922-5.609s-2.135-3.662.792-3.011,5.641,1.709,6.237,3.735a61.806,61.806,0,0,0,2.711,6.373" fill="#ffc2b3"/>
        <path id="Trazado_1246494" data-name="Trazado 1246494" d="M88.766,122.083l.58-1.394-4.873,1.122.422,1.154Z" fill="#b8b8b8"/>
        <path id="Trazado_1246495" data-name="Trazado 1246495" d="M81.958,122.832l10.686-2.459.266.272L79.131,136.7l-.266-.272Z" fill="#6b505c"/>
        <path id="Trazado_1246496" data-name="Trazado 1246496" d="M82.224,123.1l10.686-2.459-3.7,13.594L79.131,136.7Z" fill="#4c3d40"/>
        <path id="Trazado_1246497" data-name="Trazado 1246497" d="M60.9,130.778a1.837,1.837,0,0,0,.148.419c.838,1.552,2.526,1.688,6.247,2.489a26.843,26.843,0,0,0,7.849.3s2.242-.111,3.77-.111a22.221,22.221,0,0,0,3.044-.333h.012a9.115,9.115,0,0,0,1.6-.357A7.879,7.879,0,0,0,85.162,132c.407-.456,1.516-1.725,1.787-2.12a1.073,1.073,0,0,0,.185-.591.633.633,0,0,0,0-.172s0-.013.012-.013a2.585,2.585,0,0,1,.665-.369c.308-.136.3-.543.271-.727a.351.351,0,0,0-.012-.1,1,1,0,0,0,.1-.222.484.484,0,0,0-.024-.468c-.21-.234-.7-.172-.937-.136s-4,2.551-4,2.551l.086-.456s3.992-2.649,3.943-3.056-.579-.32-.838-.307-4.583,2.34-4.583,2.34l-.888.074h-.455l.628-.406a3.68,3.68,0,0,0,.419-.776.46.46,0,0,0-.419-.407,13.5,13.5,0,0,0-2.267,1.133,14.843,14.843,0,0,1-2.809,2.181c-.789.272-.7.111-3.463-.369a17.3,17.3,0,0,1-4.682-1.639.012.012,0,0,1-.012-.012c-.222-.111-.345-.185-.345-.185a39.127,39.127,0,0,0,.394-4.99c-.062-.653-1.466-1.368-2.809-1.873a6.752,6.752,0,0,0-2.428-.629,1.082,1.082,0,0,0-.123.3c-.308.974-.912,3.943-.912,3.943s-1.219,4.386-.739,6.284" fill="#ffc2b3"/>
        <path id="Trazado_1246498" data-name="Trazado 1246498" d="M61.246,121.955a8.24,8.24,0,0,0,3.1,1.866c1.97.667,4.07,1.35,4.07,1.35a57.424,57.424,0,0,0,3-5.758,9.764,9.764,0,0,0-.366-7.252c-1.309-3.052-3.224-4.561-4.263-4.563-1.008,0-2.617,5.549-2.887,6.675s-2.657,7.682-2.657,7.682" fill="#f5f5f5"/>
        <g id="Grupo_1204485" data-name="Grupo 1204485" style="mix-blend-mode: multiply;isolation: isolate">
          <g id="Grupo_1204484" data-name="Grupo 1204484">
            <g id="Grupo_1204483" data-name="Grupo 1204483" clip-path="url(#clip-path-19)">
              <path id="Trazado_1246499" data-name="Trazado 1246499" d="M87.129,129.112l-3.1,2.931.435-.229,2.672-2.527a.9.9,0,0,0-.01-.175" fill="#f2d5d5"/>
            </g>
          </g>
        </g>
        <g id="Grupo_1204488" data-name="Grupo 1204488" style="mix-blend-mode: multiply;isolation: isolate">
          <g id="Grupo_1204487" data-name="Grupo 1204487">
            <g id="Grupo_1204486" data-name="Grupo 1204486" clip-path="url(#clip-path-20)">
              <path id="Trazado_1246500" data-name="Trazado 1246500" d="M88.081,128c-.005-.058-.011-.1-.011-.1a1.085,1.085,0,0,0,.1-.222l-2.386,1.589s-1.844,1.57-1.96,1.793l2.3-1.835Z" fill="#f2d5d5"/>
            </g>
          </g>
        </g>
        <g id="Grupo_1204491" data-name="Grupo 1204491" style="mix-blend-mode: multiply;isolation: isolate">
          <g id="Grupo_1204490" data-name="Grupo 1204490">
            <g id="Grupo_1204489" data-name="Grupo 1204489" clip-path="url(#clip-path-21)">
              <path id="Trazado_1246501" data-name="Trazado 1246501" d="M60.9,130.778a1.837,1.837,0,0,0,.148.419c.838,1.552,2.526,1.688,6.247,2.489a26.843,26.843,0,0,0,7.849.3s2.242-.111,3.77-.111a22.221,22.221,0,0,0,3.044-.333l-4.177.074s-4.03.3-6.556.2a25.869,25.869,0,0,1-8.144-1.491,4.475,4.475,0,0,1-2.181-1.54" fill="#f2d5d5"/>
            </g>
          </g>
        </g>
        <g id="Grupo_1204494" data-name="Grupo 1204494" style="mix-blend-mode: multiply;isolation: isolate">
          <g id="Grupo_1204493" data-name="Grupo 1204493">
            <g id="Grupo_1204492" data-name="Grupo 1204492" clip-path="url(#clip-path-22)">
              <path id="Trazado_1246502" data-name="Trazado 1246502" d="M76.019,129.947l-1.4.309s-1.4-.01-1.948-.051-6.217-2.557-6.217-2.557l1.055.1,2.24,1.04,2.809.794,2.039.392.382.07Z" fill="#f2d5d5"/>
            </g>
          </g>
        </g>
        <g id="Grupo_1204497" data-name="Grupo 1204497" style="mix-blend-mode: multiply;isolation: isolate">
          <g id="Grupo_1204496" data-name="Grupo 1204496">
            <g id="Grupo_1204495" data-name="Grupo 1204495" clip-path="url(#clip-path-23)">
              <path id="Trazado_1246503" data-name="Trazado 1246503" d="M79.105,99.56a15.239,15.239,0,0,0,2.938,3.2,3.36,3.36,0,0,0,3.305.215l.316-2.048Z" fill="#f2d5d5"/>
            </g>
          </g>
        </g>
        <path id="Trazado_1246504" data-name="Trazado 1246504" d="M65.886,123.851a5.89,5.89,0,0,1-3.006-1.2l-.019-.012c-.281-.168-.82-.281-.9-.638a1.016,1.016,0,0,1-.007-.321,6.4,6.4,0,0,1,.252-1.715c.227-.607,3.95-12.25,5.276-11.8a4.222,4.222,0,0,1,2.192,1.826,7.927,7.927,0,0,1,1.37,2.894,4.709,4.709,0,0,1,.063.689,8.072,8.072,0,0,1-1.081,3.421,29.179,29.179,0,0,0-1.578,2.838c-.279.821-.822,1.526-1.113,2.355-.261.742-.46,1.672-1.445,1.666" fill="#fafafa"/>
        <path id="Trazado_1246505" data-name="Trazado 1246505" d="M61.724,128.512a2.782,2.782,0,0,1,1.551-.622,4.136,4.136,0,0,1,1.261-.026c.649.107,1.245.5,1.894.655A5.16,5.16,0,0,1,67.8,129a9.656,9.656,0,0,0,2.01.733,8.226,8.226,0,0,0,3.137.715c.809-.07,1.619-.045,2.436-.074a1.832,1.832,0,0,1,1.151.2,1.064,1.064,0,0,1,.371,1.072,1.655,1.655,0,0,1-.674.961,4.383,4.383,0,0,1-2.734.566c-.98-.028-1.968-.189-2.944-.2-.867-.008-1.727.063-2.6-.022a15.55,15.55,0,0,1-3.168-.641,8.422,8.422,0,0,1-2.044-.762c-.339-.213-.86-.4-1.069-.766a2.019,2.019,0,0,1,.052-2.273" fill="#ffd0c4"/>
        <path id="Trazado_1246506" data-name="Trazado 1246506" d="M62.042,124.514c.032-.646.091-1.373.24-1.429.376-.142.909.743,1.153.927a3.635,3.635,0,0,0,1.58.737,8.819,8.819,0,0,1,1.186.152.932.932,0,0,1,.728.839.848.848,0,0,1-.466.66,2.489,2.489,0,0,1-.808.232c-.786.133-2.338.141-2.684,1.059a3.008,3.008,0,0,0-.106.526,1.934,1.934,0,0,1-.611,1.069c-.4.36-.865.336-1-.26a1.766,1.766,0,0,1,.009-.66,35.651,35.651,0,0,0,.779-3.852" fill="#ffd0c4"/>
        <path id="Trazado_1246507" data-name="Trazado 1246507" d="M86.6,86.368c1.132.767,1.621,2.362,1.682,5.356A47,47,0,0,1,87.9,98.7c-.129.546-.9,2.873-1.108,3.328s-2.321.57-2.7.379-4.395-1.659-5.193-3.157a23.977,23.977,0,0,1-1.48-3.689,35.292,35.292,0,0,1-.428-5.534c.168-.346,1.388-4.121,2.952-4.705S86.6,86.368,86.6,86.368" fill="#ffc2b3"/>
        <path id="Trazado_1246508" data-name="Trazado 1246508" d="M78.17,94.805l1.252-.1a9.909,9.909,0,0,1,.157-2.226c.186-.271,1.209-1.069,1.16-1.711a28.463,28.463,0,0,1,.371-3.247,11.861,11.861,0,0,0,2.588.06c1.176-.139,3.326-.289,3.326-.289l.62.377.61,3.136a14.434,14.434,0,0,0-.285-3.684c-.4-1.367-.711-2.692-4.037-3.881a8.887,8.887,0,0,0-7.443.852c-1.262.292-2,.983-2.538,2.959a14.111,14.111,0,0,0,.712,7.063,22.139,22.139,0,0,0,2.286,3.527L76.585,95.5l-.752-2.857a1.846,1.846,0,0,1,1.667.382,3.609,3.609,0,0,1,.67,1.785" fill="#8a536a"/>
        <path id="Trazado_1246509" data-name="Trazado 1246509" d="M74.6,129.971s-.86.06-.4,1.618a3.935,3.935,0,0,0,2.429,2.869,60.791,60.791,0,0,1-10.448-.565c-3.157-.513-5.57-1.181-6.417-2.721s1.485-9.217,1.485-9.217l7.172,3.217-.674,2.355.119.4Z" fill="#f5f5f5"/>
        <g id="Grupo_1204500" data-name="Grupo 1204500" style="mix-blend-mode: multiply;isolation: isolate">
          <g id="Grupo_1204499" data-name="Grupo 1204499">
            <g id="Grupo_1204498" data-name="Grupo 1204498" clip-path="url(#clip-path-24)">
              <path id="Trazado_1246510" data-name="Trazado 1246510" d="M63.432,127.531a11.836,11.836,0,0,1,2.593.057c.516.064,1.165.3,1.656.023.633-.353,1.431-3.528,1.583-3.521a.639.639,0,0,0-.456.25,3.7,3.7,0,0,0-.673.983,10.292,10.292,0,0,0-.444,1.064c-.063.188-.047.536-.164.693-.2.273-.576.138-.87.1a5.472,5.472,0,0,0-3.225.35" fill="#f2d5d5"/>
            </g>
          </g>
        </g>
        <path id="Trazado_1246511" data-name="Trazado 1246511" d="M84.653,144.477a.777.777,0,0,1-.482-.168,1.11,1.11,0,0,1-.387-.9V142.3a1.338,1.338,0,0,1,.875-1.327l2.222-.56a.776.776,0,0,1,.686.143,1.112,1.112,0,0,1,.386.9v1.11a1.337,1.337,0,0,1-.876,1.326l-2.22.561a.852.852,0,0,1-.2.026m2.417-3.285-2.214.564a.609.609,0,0,0-.266.546v1.111a.35.35,0,0,0,.077.26l2.214-.564a.6.6,0,0,0,.266-.545v-1.11a.359.359,0,0,0-.077-.262" fill="#e6e6e6"/>
        <path id="Trazado_1246512" data-name="Trazado 1246512" d="M87.358,95l-.907-.739V92.731l3.079-1.352v1.743l-.788,1.406Zm-.279-1.038.4.331.827-.285.591-1.055V92.34l-1.823.8Z" fill="#414c45"/>
        <path id="Trazado_1246513" data-name="Trazado 1246513" d="M82.709,96.3,81.6,95.376V93.79l4.291-.829v1.674l-1.021,1.229Zm-.478-1.218.65.544,1.651-.333.734-.886v-.687l-3.035.587Z" fill="#414c45"/>
        <rect id="Rectángulo_426398" data-name="Rectángulo 426398" width="0.628" height="5.63" transform="translate(76.378 92.995) rotate(-76.033)" fill="#414c45"/>
        <path id="Trazado_1246514" data-name="Trazado 1246514" d="M77.3,93.524c-.545-1.169-1.419-1.434-1.814-1.071s-.565,1.409.325,2.73,1.05,1.674,1.591,1.64.3-1.079.219-1.455-.321-1.844-.321-1.844" fill="#ffc2b3"/>
        <rect id="Rectángulo_426399" data-name="Rectángulo 426399" width="1.252" height="0.628" transform="matrix(0.946, -0.323, 0.323, 0.946, 85.479, 93.044)" fill="#414c45"/>
        <path id="Trazado_1246515" data-name="Trazado 1246515" d="M89.281,122.74l.58-1.394-4.873,1.122.422,1.154Z" fill="#b8b8b8"/>
        <path id="Trazado_1246516" data-name="Trazado 1246516" d="M84.988,122.468l-.515-.658v-.145l5.388-.463v.145Z" fill="#b8b8b8"/>
        <path id="Trazado_1246517" data-name="Trazado 1246517" d="M84.988,122.323l-.515-.658,4.851-1.116.537.653Z" fill="#e6e6e6"/>
        <path id="Trazado_1246518" data-name="Trazado 1246518" d="M73.518,121.748a2.08,2.08,0,1,0,2.08-2.08,2.08,2.08,0,0,0-2.08,2.08" fill="#7483ba"/>
        <path id="Trazado_1246519" data-name="Trazado 1246519" d="M74.085,121.748A1.718,1.718,0,1,0,75.8,120.03a1.718,1.718,0,0,0-1.718,1.718" fill="#b8b8b8"/>
        <path id="Trazado_1246520" data-name="Trazado 1246520" d="M74.621,121.661A1.181,1.181,0,1,0,75.8,120.48a1.181,1.181,0,0,0-1.181,1.181" fill="#cfcfcf"/>
        <path id="Trazado_1246521" data-name="Trazado 1246521" d="M75.241,121.715a1.116,1.116,0,1,0,0-.054Z" fill="#acacac"/>
        <path id="Trazado_1246522" data-name="Trazado 1246522" d="M93.679,18.027c0,16.148-11.408,35.825-25.48,43.949S42.719,63.6,42.719,47.449,54.127,11.624,68.2,3.5s25.48-1.621,25.48,14.527" fill="#54557a"/>
        <path id="Trazado_1246523" data-name="Trazado 1246523" d="M91.035,4.447,86.46,1.806,49.532,63.416l5.16,3Z" fill="#54557a"/>
        <path id="Trazado_1246524" data-name="Trazado 1246524" d="M98.246,20.664c0,16.148-11.408,35.825-25.48,43.949s-25.48,1.621-25.48-14.527S58.694,14.261,72.766,6.137s25.48-1.621,25.48,14.527" fill="#716e99"/>
        <path id="Trazado_1246525" data-name="Trazado 1246525" d="M98.084,21.271c0,15.763-11.136,34.971-24.873,42.9S48.338,65.755,48.338,49.992,59.474,15.021,73.211,7.09,98.084,5.508,98.084,21.271" fill="#7f7ca3"/>
        <path id="Trazado_1246526" data-name="Trazado 1246526" d="M96.391,22.249c0,14.69-10.378,32.591-23.18,39.982S50.03,63.706,50.03,49.015,60.409,16.424,73.211,9.033s23.18-1.474,23.18,13.216" fill="#aeacc5"/>
        <path id="Trazado_1246527" data-name="Trazado 1246527" d="M95.982,22.484c0,14.432-10.2,32.016-22.774,39.277C66.425,65.682,60.33,65.79,56.159,62.8,52.6,60.236,50.44,55.421,50.44,48.78c0-.438.011-.876.028-1.314.023-.546.057-1.093.114-1.645a43.782,43.782,0,0,1,2.891-11.836c.233-.586.472-1.178.728-1.764a55.219,55.219,0,0,1,6.476-11.165c.382-.512.769-1.013,1.173-1.508A44.044,44.044,0,0,1,70.716,11.1c.455-.325.916-.632,1.377-.922.37-.239.74-.461,1.115-.677,5.844-3.375,11.177-3.927,15.206-2.1,4.643,2.1,7.568,7.358,7.568,15.08" fill="#b2b0af"/>
        <path id="Trazado_1246528" data-name="Trazado 1246528" d="M94.15,21.431c0,14.426-10.192,32.01-22.768,39.271-5.856,3.38-11.188,3.927-15.223,2.094C52.6,60.235,50.44,55.421,50.44,48.78c0-.438.012-.876.029-1.314.022-.547.057-1.093.113-1.645a43.872,43.872,0,0,1,2.891-11.837c.234-.586.473-1.178.729-1.764a55.152,55.152,0,0,1,6.476-11.165c.381-.512.768-1.013,1.172-1.508A44.071,44.071,0,0,1,70.716,11.1c.455-.324.916-.631,1.377-.921.37-.239.74-.461,1.115-.678,5.845-3.374,11.177-3.926,15.206-2.1,3.568,2.549,5.736,7.369,5.736,14.027" fill="#f7fbff"/>
        <path id="Trazado_1246529" data-name="Trazado 1246529" d="M72.645,29.315,72,30.51l6.22-20.749-1.021.1L70.5,32.216c-.032.016-.062.025-.1.044a2.753,2.753,0,0,0-.432.322L62.542,25.2l-.974,1.379L69,33.96a3.132,3.132,0,0,0-.269,1.194,1.335,1.335,0,0,0,.3.919L57.667,57.288l.6.265L68.81,37.861l-.262.878,1.02-.1.745-2.482c.031-.016.062-.025.094-.044a2.7,2.7,0,0,0,.433-.322L72,36.943l.974-1.379-1.16-1.152a3.122,3.122,0,0,0,.269-1.195,1.33,1.33,0,0,0-.3-.919l1.455-2.717Z" fill="#cbd1d6"/>
        <path id="Trazado_1246530" data-name="Trazado 1246530" d="M70.564,39.04l-1.021.1L78.2,10.266l1.021-.1Z" fill="#65605d"/>
        <path id="Trazado_1246531" data-name="Trazado 1246531" d="M73.64,29.718l.6.266L59.262,57.956l-.6-.265Z" fill="#ff345d"/>
        <path id="Trazado_1246532" data-name="Trazado 1246532" d="M73.973,35.967,73,37.346,62.563,26.98l.974-1.379Z" fill="#65605d"/>
        <path id="Trazado_1246533" data-name="Trazado 1246533" d="M72.093,10.181V11.6a1.526,1.526,0,0,1-.689,1.189c-.381.216-.688.04-.688-.4V11.1c.455-.325.916-.632,1.377-.922" fill="#65605d"/>
        <path id="Trazado_1246534" data-name="Trazado 1246534" d="M52.409,45.553a1.524,1.524,0,0,1-.689,1.19l-1.251.722c.022-.545.057-1.093.113-1.644l1.138-.66c.376-.216.689-.039.689.392" fill="#65605d"/>
        <path id="Trazado_1246535" data-name="Trazado 1246535" d="M71.4,56.387a1.518,1.518,0,0,0-.689,1.189v1.742c0,.437.308.613.689.393a1.518,1.518,0,0,0,.689-1.189V56.78c0-.437-.308-.613-.689-.393" fill="#65605d"/>
        <path id="Trazado_1246536" data-name="Trazado 1246536" d="M92.608,21.555l-1.518.877a1.517,1.517,0,0,0-.69,1.189c0,.437.309.612.69.393l1.518-.877a1.519,1.519,0,0,0,.69-1.189c0-.437-.309-.613-.69-.393" fill="#65605d"/>
        <path id="Trazado_1246537" data-name="Trazado 1246537" d="M88.8,13.936l1.315-1.63a1.156,1.156,0,0,0,.252-1.227h0c-.19-.269-.612-.155-.941.254l-1.315,1.63a1.157,1.157,0,0,0-.253,1.226c.191.269.612.155.942-.254" fill="#65605d"/>
        <path id="Trazado_1246538" data-name="Trazado 1246538" d="M80.9,10.227h0c.33.028.751-.345.942-.833L82.6,7.446c.19-.488.077-.906-.253-.934s-.751.345-.941.833l-.759,1.947c-.191.488-.078.907.252.935" fill="#65605d"/>
        <path id="Trazado_1246539" data-name="Trazado 1246539" d="M61.9,21.2c-.33.41-.751.524-.939.257l-.284-.4c.381-.511.768-1.013,1.172-1.507l.3.427A1.141,1.141,0,0,1,61.9,21.2" fill="#65605d"/>
        <path id="Trazado_1246540" data-name="Trazado 1246540" d="M54.947,33.193c-.188.489-.609.865-.939.837l-.535-.046c.233-.586.472-1.178.729-1.764l.495.04c.33.028.443.449.25.933" fill="#65605d"/>
        <path id="Trazado_1246541" data-name="Trazado 1246541" d="M54.014,55.247,52.7,56.878a1.156,1.156,0,0,0-.251,1.226c.19.268.612.154.941-.255L54.7,56.218a1.156,1.156,0,0,0,.252-1.226c-.191-.268-.612-.154-.942.255" fill="#65605d"/>
        <path id="Trazado_1246542" data-name="Trazado 1246542" d="M61.914,58.951c-.33-.028-.751.345-.941.834l-.759,1.947c-.19.488-.077.907.253.934s.751-.345.941-.833l.759-1.948c.19-.488.077-.906-.253-.934" fill="#65605d"/>
        <path id="Trazado_1246543" data-name="Trazado 1246543" d="M81.854,47.715c-.191-.268-.612-.154-.942.255A1.159,1.159,0,0,0,80.66,49.2l.76,1.07c.191.268.613.154.942-.255a1.155,1.155,0,0,0,.252-1.226Z" fill="#65605d"/>
        <path id="Trazado_1246544" data-name="Trazado 1246544" d="M90.119,35.249,88.8,35.138c-.33-.027-.752.346-.942.834s-.077.907.253.935l1.316.11c.329.028.751-.345.941-.833s.077-.907-.253-.935" fill="#65605d"/>
        <path id="Trazado_1246545" data-name="Trazado 1246545" d="M73.082,33.62a3.7,3.7,0,0,1-1.678,2.9c-.927.535-1.678.106-1.678-.957a3.7,3.7,0,0,1,1.678-2.9c.927-.535,1.678-.106,1.678.957" fill="#65605d"/>
        <path id="Trazado_1246546" data-name="Trazado 1246546" d="M72.238,34.107a1.84,1.84,0,0,1-.834,1.439c-.461.266-.834.053-.834-.476a1.838,1.838,0,0,1,.834-1.439c.46-.266.834-.053.834.476" fill="#8c8886"/>
        <path id="Trazado_1246547" data-name="Trazado 1246547" d="M101.073,51.5,79.978,65.73A4.713,4.713,0,0,0,78.6,67.775S76.042,66.3,76.03,66.292a2.78,2.78,0,0,1-.77-2.166V54.52a6.884,6.884,0,0,1,2.874-5.493l24.259-14.006a1.824,1.824,0,0,1,1.927-.125c.092.058,2.288,1.265,2.369,1.345.429.422-1.829,1.366-1.829,2.316l-.912,7.453a6.882,6.882,0,0,1-2.875,5.493" fill="#ffcc54"/>
        <path id="Trazado_1246548" data-name="Trazado 1246548" d="M104.718,53.607,80.459,67.614c-1.588.917-2.874-.056-2.874-2.173V55.834a6.887,6.887,0,0,1,2.874-5.494l24.259-14.005c1.588-.916,2.875.057,2.875,2.173v9.607a6.881,6.881,0,0,1-2.875,5.492" fill="#ffe254"/>
        <path id="Trazado_1246549" data-name="Trazado 1246549" d="M79.646,67.795c-.887,0-1.46-.879-1.46-2.238V56.024A6.559,6.559,0,0,1,80.908,50.8l24.042-13.88a2.03,2.03,0,0,1,1-.308c.887,0,1.46.879,1.46,2.239v9.533a6.553,6.553,0,0,1-2.722,5.224L80.648,67.488a2.025,2.025,0,0,1-1,.307" fill="#fff887"/>
        <path id="Trazado_1246550" data-name="Trazado 1246550" d="M84.179,57.8a2.4,2.4,0,0,0,.327-1.042c0-.421-.357-.748-.881-.445a1.884,1.884,0,0,0-.863,1.485l-1.594.92a5.313,5.313,0,0,1,2.516-4.191c1.446-.835,2.407.03,2.407,1.382a4.826,4.826,0,0,1-.446,1.788l-1.417,3.068,2.1-1.213v1.763l-5.14,2.968Z" fill="#ff345d"/>
        <path id="Trazado_1246551" data-name="Trazado 1246551" d="M91.974,54.53l1.366-.789V55.5l-1.366.789v1.763l-1.565.9V57.195l-3.4,1.962V57.383L90,50.878l1.971-1.138Zm-1.565.9V53.061l-1.485,3.23Z" fill="#ff345d"/>
        <path id="Trazado_1246552" data-name="Trazado 1246552" d="M97.044,46.812l1.743-1.006-3.436,10.3-1.733,1Z" fill="#ff345d"/>
        <path id="Trazado_1246553" data-name="Trazado 1246553" d="M105.125,42.147v1.785l-3.367,8.474-1.8,1.04,3.376-8.49-3.951,2.281V45.463Z" fill="#ff345d"/>
      </g>
    </g>
  </g>
</svg>
