<svg xmlns="http://www.w3.org/2000/svg" width="67.876" height="67.871" viewBox="0 0 67.876 67.871">
  <g id="layer1" transform="translate(-0.529 -280.596)">
    <path id="path4275" d="M38.99,294.17a13.574,13.574,0,0,0-27.149,0c0,.379.013.763.038,1.151a1.131,1.131,0,1,0,2.258-.139c-.021-.345-.035-.683-.035-1.012a11.312,11.312,0,0,1,22.624,0,20.511,20.511,0,0,1-.552,4.509,4.108,4.108,0,0,0-.581.1v-1.219a1.131,1.131,0,0,0-1.127-1.136H32.2a3.918,3.918,0,0,1-3.458-2.614,1.129,1.129,0,0,0-2.145,0s-.9,2.614-3.449,2.614H16.361a1.131,1.131,0,0,0-1.127,1.136v1.211a3.574,3.574,0,0,0-4.525,3.3,5.469,5.469,0,0,0,5.094,5.643,10.158,10.158,0,0,0,2.825,4.224v5.99a1.133,1.133,0,0,0,.057.358,6.871,6.871,0,0,0,6.732,4.167,6.869,6.869,0,0,0,6.73-4.167,1.134,1.134,0,0,0,.06-.358v-5.985a10.128,10.128,0,0,0,2.826-4.222,5.526,5.526,0,0,0,5.088-5.651,3.445,3.445,0,0,0-1.737-2.889,22.792,22.792,0,0,0,.605-5.011Zm9.047-7.916v1.127H46.91a3.421,3.421,0,0,0-3.4,3.4v7.914a12.436,12.436,0,0,0,11.314,12.386v15.9a3.354,3.354,0,0,1-3.389,3.389H50.244A14.688,14.688,0,0,0,35.6,316.794a1.131,1.131,0,1,0,0,2.262,12.38,12.38,0,0,1,12.386,11.312H36.564a4.527,4.527,0,1,0,0,2.262H51.437a5.663,5.663,0,0,0,5.654-5.651v-15.9A12.444,12.444,0,0,0,68.405,298.7v-7.914a3.423,3.423,0,0,0-3.4-3.4H63.878v-1.127a1.131,1.131,0,1,0-2.262,0v4.527a1.131,1.131,0,0,0,2.262,0v-1.136H65a1.114,1.114,0,0,1,1.138,1.136V298.7a10.184,10.184,0,0,1-20.368,0v-7.914a1.112,1.112,0,0,1,1.136-1.136h1.127v1.136a1.132,1.132,0,1,0,2.265,0v-4.527a1.132,1.132,0,1,0-2.265,0ZM27.68,296.442a5.525,5.525,0,0,0,4.525,2.249h1.127v5.662a7.916,7.916,0,0,1-15.832,0v-5.662h5.654a5.532,5.532,0,0,0,4.527-2.249Zm7.868,8.875c.09-1.31.046-2.64.046-4a1.337,1.337,0,0,1,2.256.8,3.21,3.21,0,0,1-2.3,3.2Zm-20.262,0a3.207,3.207,0,0,1-2.3-3.2,1.333,1.333,0,0,1,2.254-.8c-.008,1.306-.02,2.765.049,4.006Zm5.605,8.159a10.226,10.226,0,0,0,9.052,0v4.176s-.94,2.539-4.525,2.539-4.527-2.539-4.527-2.539Zm-5.656,3.318A14.7,14.7,0,0,0,.529,331.5v15.837a1.131,1.131,0,0,0,1.131,1.131H49.17a1.131,1.131,0,0,0,1.131-1.131V336.024a1.131,1.131,0,1,0-2.262,0v3.4H42.385v-3.4a1.131,1.131,0,1,0-2.262,0v10.183H10.712V336.022a1.131,1.131,0,1,0-2.262,0v3.4H2.791V331.5a12.391,12.391,0,0,1,12.443-12.443,1.131,1.131,0,1,0,0-2.262Zm16.972,12.439a2.263,2.263,0,1,1-2.265,2.262A2.245,2.245,0,0,1,32.207,329.233ZM2.792,341.685H8.45v4.52H2.792Zm39.594,0h5.654v4.52H42.385Z" transform="translate(0 0)" fill="#2d847e"/>
  </g>
</svg>
